<?xml version="1.0" encoding="UTF-8"?>
<!DOCTYPE svg PUBLIC "-//W3C//DTD SVG 1.1//EN" "http://www.w3.org/Graphics/SVG/1.1/DTD/svg11.dtd">
<!-- Creator: CorelDRAW -->
<svg xmlns="http://www.w3.org/2000/svg" xml:space="preserve" width="42.0003mm" height="38.6479mm" style="shape-rendering:geometricPrecision; text-rendering:geometricPrecision; image-rendering:optimizeQuality; fill-rule:evenodd; clip-rule:evenodd"
viewBox="0 0 12.4964 11.4989"
 xmlns:xlink="http://www.w3.org/1999/xlink">
 <defs>
  <style type="text/css">
   <![CDATA[
    .fil1 {fill:#00A859}
    .fil0 {fill:#96989A}
   ]]>
  </style>
 </defs>
 <g id="Layer_x0020_1">
  <metadata id="CorelCorpID_0Corel-Layer"/>
  <g id="_211205336">
   <path id="_139760136" class="fil0" d="M1.09887 1.6388l8.70186 0 0 8.79097 -8.70186 0 0 -8.79097zm-1.09887 -1.06918l10.9293 0 0 10.9293 -10.9293 0 0 -10.9293z"/>
   <path id="_139760280" class="fil1" d="M12.2369 0l0.259477 0.367778c-1.05299,0.793515 -2.22437,2.01277 -3.51161,3.66026 -1.2898,1.65002 -2.27474,3.18917 -2.9524,4.62003l-0.546624 0.370307c-0.453437,0.314877 -0.760787,0.546624 -0.921989,0.700299 -0.0629873,-0.231747 -0.204047,-0.609611 -0.420709,-1.13612l-0.206546 -0.481137c-0.294734,-0.687713 -0.569325,-1.19658 -0.823744,-1.52657 -0.251919,-0.329992 -0.536567,-0.549153 -0.851474,-0.657484 0.531539,-0.561768 1.01773,-0.841388 1.46109,-0.841388 0.377864,0 0.798543,0.513895 1.26207,1.54422l0.229248 0.516424c0.831301,-1.40316 1.89938,-2.76597 3.20176,-4.08849 1.30488,-1.32505 2.57703,-2.34026 3.82146,-3.04812z"/>
  </g>
 </g>
</svg>
