<?xml version="1.0" encoding="UTF-8"?>
<!DOCTYPE svg PUBLIC "-//W3C//DTD SVG 1.1//EN" "http://www.w3.org/Graphics/SVG/1.1/DTD/svg11.dtd">
<!-- Creator: CorelDRAW -->
<svg xmlns="http://www.w3.org/2000/svg" xml:space="preserve" width="127.068mm" height="87.9051mm" style="shape-rendering:geometricPrecision; text-rendering:geometricPrecision; image-rendering:optimizeQuality; fill-rule:evenodd; clip-rule:evenodd"
viewBox="0 0 109.801 75.9602"
 xmlns:xlink="http://www.w3.org/1999/xlink">
 <defs>
  <style type="text/css">
   <![CDATA[
    .str0 {stroke:#373435;stroke-width:0.15243}
    .str4 {stroke:#8682AB;stroke-width:0.15243}
    .str3 {stroke:#077ABA;stroke-width:0.15243}
    .str1 {stroke:#252726;stroke-width:0.15243}
    .str2 {stroke:#FEFEFE;stroke-width:0.15243}
    .fil1 {fill:none}
    .fil4 {fill:#3E4095}
    .fil5 {fill:#50A8B1}
    .fil0 {fill:#718FC8}
    .fil2 {fill:#A7C4D2}
    .fil3 {fill:#CCE7D4}
    .fil6 {fill:#FEFEFE}
   ]]>
  </style>
 </defs>
 <g id="Layer_x0020_1">
  <metadata id="CorelCorpID_0Corel-Layer"/>
  <g id="_143719760">
   <g>
    <rect id="_296385000" class="fil0 str0" x="67.6322" y="0.0763362" width="19.5445" height="19.5445"/>
    <g>
     <path id="_296385360" class="fil1 str1" d="M75.0104 1.44402c3.36435,4.87638 3.36435,8.17764 2.99891,16.1536"/>
     <path id="_296384304" class="fil1 str1" d="M77.7321 6.81174c0.22683,-0.100756 0.844241,-0.768544 0.919851,-1.90261"/>
     <path id="_296384400" class="fil1 str1" d="M77.3163 6.87473c-0.15122,0.252062 -0.831625,0.806479 -1.67587,0.491422"/>
     <path id="_296385720" class="fil1 str1" d="M77.4549 5.85412c0.22683,-0.0881398 0.781247,-1.0836 0.730782,-1.99084"/>
     <path id="_143713064" class="fil1 str1" d="M77.0391 6.11871c-0.125988,0.252062 -1.03322,0.61741 -1.65063,0.252062"/>
     <path id="_143712992" class="fil1 str1" d="M77.0768 4.74529c0.22683,-0.0881398 0.655259,-1.02061 0.554416,-1.87738"/>
     <path id="_143713232" class="fil1 str1" d="M76.7115 5.24933c-0.138604,0.251976 -0.932467,0.491422 -1.51203,0.062994"/>
     <path id="_143713184" class="fil1 str1" d="M76.7619 3.7373c0.22683,-0.188982 0.46619,-0.680404 0.365434,-1.53726"/>
     <path id="_143712392" class="fil1 str1" d="M76.2957 4.37994c-0.214214,0.214214 -0.630027,0.352818 -1.19706,-0.062994"/>
     <path id="_143713472" class="fil1 str1" d="M76.3083 3.01905c0.125988,-0.188982 0.415812,-0.932381 0.16375,-1.52465"/>
     <path id="_143713424" class="fil1 str1" d="M75.8546 3.5357c-0.176366,0.0882262 -0.793776,0.201598 -1.12145,-0.327586"/>
     <path id="_143713616" class="fil1 str1" d="M75.7917 2.33864c0.125988,-0.39058 0.188982,-0.478806 0.125988,-1.03322"/>
     <path id="_143713640" class="fil1 str1" d="M75.3885 2.5907c-0.315056,0.0125297 -0.403196,0.0503779 -0.768631,-0.214214"/>
     <path id="_143713832" class="fil1 str1" d="M83.6542 2.28826c-4.39748,4.25888 -5.3551,7.69875 -7.37116,16.1032"/>
     <path id="_143713784" class="fil1 str1" d="M79.6852 7.22755c-0.163836,-0.151134 -0.516655,-1.00799 -0.22683,-2.21767"/>
     <path id="_143712344" class="fil1 str1" d="M80.0758 7.39138c0.0377618,0.289824 0.453574,1.05845 1.29781,0.932381"/>
     <path id="_143714072" class="fil1 str1" d="M80.2396 6.26994c-0.176452,-0.15122 -0.37805,-1.31043 -0.0756101,-2.2302"/>
     <path id="_143713016" class="fil1 str1" d="M80.4916 6.6606c0.0503779,0.302354 0.730782,0.907148 1.38604,0.680404"/>
     <path id="_143712368" class="fil1 str1" d="M80.8696 5.23671c-0.176452,-0.15122 -0.289824,-1.23482 0.0503779,-2.10421"/>
     <path id="_143712080" class="fil1 str1" d="M81.046 5.84151c0.0503779,0.277208 0.705637,0.718253 1.33566,0.415812"/>
     <path id="_143714312" class="fil1 str1" d="M81.424 4.26648c-0.125988,-0.264592 -0.201598,-0.831625 0.15122,-1.70101"/>
     <path id="_143714552" class="fil1 str1" d="M81.676 5.04773c0.138604,0.277208 0.46619,0.516568 1.09622,0.214214"/>
     <path id="_143714720" class="fil1 str1" d="M82.0415 3.61131c-0.0504643,-0.214214 -0.0882262,-1.05845 0.31497,-1.61287"/>
     <path id="_143712296" class="fil1 str1" d="M82.306 4.26648c0.125988,0.15122 0.655172,0.415812 1.0836,-0.0503779"/>
     <path id="_143715080" class="fil1 str1" d="M82.7092 3.01905c0.0126161,-0.415812 -0.0126161,-0.529184 0.201598,-1.09622"/>
     <path id="_143715416" class="fil1 str1" d="M82.9991 3.3971c0.277208,0.100756 0.340202,0.16375 0.743398,-0.0126161"/>
     <path id="_143715032" class="fil1 str1" d="M73.7882 7.27801c-0.831625,0.592178 -1.2852,3.0492 -2.7217,6.75375l2.45711 -5.10312c0,2.41926 3.55324,1.6254 2.9863,8.9588l-2.7217 -10.6094z"/>
    </g>
   </g>
   <g>
    <rect id="_143715728" class="fil2 str0" x="45.1135" y="0.0763362" width="19.5445" height="19.5445"/>
    <g>
     <path id="_143715776" class="fil1 str1" d="M55.0269 10.9216c1.32045,-1.06822 2.28489,-0.994078 3.26411,-0.934714 2.44804,0.133506 4.51042,1.79529 4.85166,2.31462 0.326376,0.519247 0.237373,0.356016 0.445106,0.385741 0.192871,0.0147764 0.430243,0.356016 0.652839,0.370878 -0.118729,0.163231 -0.72698,0.474745 -0.994078,-0.103867 -0.118729,-0.252235 -0.267098,-0.267012 -0.222596,-0.163231 0.0297256,0.118729 0.148369,0.430329 0.148369,0.430329l-0.103867 0.148282c0.178094,0.252322 0.237459,0.578698 0.237459,0.652839 0,0.0593647 0.237286,0.192957 0.237286,0.192957l-0.356016 0.41538 -0.489608 -0.133506 -0.133592 0.237373c-0.133506,-0.341239 -0.801121,-0.934714 -1.23145,-0.875349l-0.252149 1.43918 0.22251 1.12758 -0.489608 0.0593647 -0.163231 -0.504471 -0.237373 0 0.192871 -1.11281c0,0 -0.3116,-0.578612 -0.356016,-0.712118 -0.0445884,-0.133592 0.0296392,-0.356102 -0.148455,-0.133592"/>
     <g>
      <path id="_143715920" class="fil1 str1" d="M52.428 13.1337c-1.06321,-0.474659 -2.65811,-1.19619 -2.71496,-3.34153 -0.0380211,-1.12024 0.11389,-3.11375 0.0568588,-3.4556 -0.0378483,-0.265802 -0.151825,-0.512593 -0.113804,-0.227781 0.0759557,0.702439 -0.493669,1.10123 -0.493669,0.227781 0,-0.892372 -0.0759557,-0.341758 -0.341758,-0.284726 -0.151911,0.0189241 -0.284812,0.284726 -0.284812,0.284726 0,0 -0.227867,-0.740374 0.341758,-0.873361 0.0570316,-0.265802 -0.170836,-0.987252 0.455648,-1.13916 0.62657,-0.132901 0.72145,0.208857 0.72145,0.493669 -0.0568588,-0.0759557 -0.474572,0.11389 -0.322661,0.11389 0.664505,0.0190105 1.06321,0.797406 1.67077,1.65184 0.83534,1.19611 1.86061,2.25932 4.21498,1.65184 2.03145,-0.51268 3.15169,-1.50002 3.32252,-1.84169 0.797492,1.15809 -0.436638,2.10749 -0.83534,2.31635"/>
      <path id="_143715992" class="fil1 str1" d="M49.3713 5.52014c0.0569452,0 0.11389,-0.0569452 0.11389,-0.0948799 0,-0.0569452 -0.0569452,-0.11389 -0.11389,-0.11389 -0.0759557,0 -0.132901,0.0569452 -0.132901,0.11389 0,0.0379347 0.0569452,0.0948799 0.132901,0.0948799z"/>
     </g>
     <g>
      <path id="_143716160" class="fil1 str1" d="M47.418 7.17017c-0.359904,0 -0.459796,0.0399221 -0.559774,0.25984 -0.0799307,0.159948 -0.159948,0.279887 -0.219917,0.0599696 -0.0799307,-0.379779 -0.439748,-0.599696 -1.01957,-0.599696 -0.179909,0 -0.0399221,0.0999782 0.0400085,0.299848 0.0400085,0.219917 0.199956,0.579735 0.499804,0.579735 0.299848,0 0.579735,-0.0599696 0.479757,0.219917 -0.0799307,0.25984 -0.0199611,0.539726 0.159948,0.739683 0.179909,0.239878 0.0400085,1.01948 0.579735,0.979561 0.739683,-0.0599696 0.439835,-0.679713 0.579735,-0.879669 0.1399,-0.179909 0.299848,-0.579735 0.25984,-0.819613 -0.0399221,-0.1399 0,-0.119939 0.199956,-0.0799307 0.19987,0.0199611 0.579735,0 0.879583,-0.259926 0.179909,-0.1399 0.259926,-0.0399221 0.0800171,-0.219831 -0.319896,-0.319896 -0.879669,-0.139987 -0.9596,0.0199611 -0.0999782,0.159948 -0.279887,0.279887 -0.339857,0.0999782 -0.119939,-0.359904 -0.219917,-0.379865 -0.659666,-0.399826z"/>
      <path id="_143716352" class="fil1 str1" d="M48.6773 12.1879c-0.0399221,-0.659752 -0.448303,-0.559083 -0.539726,-1.5993 -0.0684379,-0.778914 -0.389111,-0.667788 -0.477078,-0.843895"/>
      <path id="_143716304" class="fil1 str1" d="M48.2176 8.00975c0.219831,0.299848 0.439748,0.459882 0.859536,0.479843 0.579735,0.0399221 1.75925,0.239878 2.65888,0.239878"/>
     </g>
     <g>
      <path id="_143716688" class="fil1 str1" d="M53.4621 7.00158c1.6273,0.196068 3.96041,-0.156837 4.90144,-1.09786 0.333289,-0.31376 1.58816,-1.72538 1.68615,-1.94098 -0.117606,-0.117693 -0.803887,-0.803887 -1.2744,-0.705896 0.470511,-0.215683 2.01935,0.392136 2.4311,0.64705 0.411751,0.274443 1.94106,1.64692 0.941108,2.15666 -0.0587598,0.274443 -0.333289,0.627348 -0.470511,0.764569 -0.156837,0.156923 -0.156837,0.117693 -0.0588463,-0.117606 -0.176452,0.0587598 -0.411751,0.156837 -0.176452,-0.156837 0.235299,-0.294145 0.411665,-0.666579 -0.411751,-0.666579 -0.843031,0 -1.01948,-0.156923 -1.11747,0.196068 -0.137308,0.37252 -0.21577,1.72521 -0.450982,2.62717 -0.235299,0.921493 -0.529357,1.01948 -0.646963,1.37239 -0.117693,0.352905 0.176452,1.01948 0.313674,1.31363"/>
      <path id="_143716784" class="fil1 str1" d="M61.2456 4.53125c-0.0588463,0 -0.117606,-0.0392308 -0.117606,-0.0979907 0,-0.0588463 0.0587598,-0.0980771 0.117606,-0.0980771 0.0784617,0 0.137222,0.0392308 0.137222,0.0980771 0,0.0587598 -0.0587598,0.0979907 -0.137222,0.0979907z"/>
      <path id="_143716568" class="fil1 str1" d="M60.481 4.39403c0.490213,0.196068 1.09795,2.01944 -0.254828,2.33311 0.117606,-0.254914 0.0587598,-1.70576 -0.0980771,-1.96059l0.352905 -0.37252z"/>
     </g>
     <g>
      <path id="_143717048" class="fil1 str1" d="M52.2999 10.7884c-0.110261,0.0440699 -0.507063,-0.363706 -0.407862,-0.242471 -0.0992005,-0.132296 -0.551133,-0.518037 -0.617238,-0.595203 -0.0661912,-0.0882262 -0.0882262,-0.286627 -0.551133,0.165305 -0.462993,0.440872 -1.0582,0.958995 -1.19041,1.1243 -0.132296,0.165305 0.0330092,0.198401 0.0220349,0.264506 -0.0220349,0.0661912 0.198401,0.286627 0.242471,0.297601 0.0551306,0.0220349 0.220436,-0.0440699 0.220436,-0.0440699 0,0 0.529098,0.0330956 0.727499,0 0.198401,-0.0330956 0.595203,0.198401 0.639273,0.694403 0.0551306,0.496002 1.0582,1.6203 1.04714,1.8518 -0.0330092,0.584228 0.242557,1.31164 0.165392,1.46597 -0.0661912,0.14327 -0.264592,0.485028 -0.308662,0.529098l0.507063 0 -0.0220349 -0.198401c0.165305,-0.121235 0.209375,-0.220436 0.14327,-0.385828 -0.14327,-0.319636 0.0771655,-1.24554 0.429897,-1.48801 0.297601,-0.220436 0.165305,-0.0551306 0.617238,0 0.440872,0.0440699 1.92888,0.231497 2.66744,-0.595203 -0.0992005,0.529098 0.330611,0.562107 0.396802,0.826699 0.0551306,0.18734 0.617238,1.21244 0.0881398,1.86277l0.529098 0 -0.121235 -0.352732c0.18734,-0.132296 0.253531,-0.132296 0.18734,-0.407776 -0.0771655,-0.308662 0.0110607,-0.83776 0.132296,-1.03616 0.110261,-0.198401 0.0992005,-0.0771655 -0.0771655,-0.352732 -0.330697,-0.540072 0.264592,-1.86277 0.363793,-2.12728 0.0992005,-0.264592 0.198401,-0.518124 0.154245,0.154245 -0.0550442,0.661394 0.0441563,1.3558 -0.0550442,1.59827 -0.132296,0.286627 -0.132296,0.815725 0,1.36677 0.13221,-0.330611 0.264506,-1.04714 0.121235,-1.35571 -0.0551306,-0.121235 0.0550442,-1.79667 0.0440699,-2.19347 0,-0.540072 -0.396802,-0.804664 -0.738473,-0.837673 -0.661394,-0.0661912 -3.4721,0.23141 -4.24367,0.0330092 -0.429897,-0.110175 -0.892804,-0.121235 -1.11324,-0.0220349z"/>
      <path id="_143717240" class="fil1 str1" d="M57.7009 13.9739c-0.0220349,-0.0992005 -0.0440699,-0.242471 0,-0.462907 0.0220349,-0.209462 0.0220349,-0.507063 0.110175,-0.110261 0.0330956,0.165392 0.0220349,0.540159 0.0220349,0.672368 -0.0109743,0.330697 -0.121235,0 -0.13221,-0.0992005z"/>
      <path id="_143717096" class="fil1 str1" d="M56.6206 13.6542c-0.0992005,0.0992005 -0.584142,0.451932 -0.848734,0.485028 -0.0220349,0.110175 0.176366,0.451846 0.275566,0.506977 -0.132296,0.540159 0.0440699,0.551133 0.176366,0.0992005 0.0551306,0 0.0771655,0.0551306 0.165305,0.0661912 -0.154245,0.473967 0.0551306,0.529011 0.165392,0.0550442 0.0661048,0.0221214 0.165305,0.0441563 0.165305,0.0441563 -0.0771655,0.473967 0.121235,0.496002 0.176366,0.0330092 0.0551306,0 0.330697,-0.0661048 0.330697,-0.0661048 -0.110261,-0.198401 -0.187427,-0.540072 -0.374767,-0.672368 -0.220436,-0.14327 -0.220436,-0.319636 -0.231497,-0.551133z"/>
     </g>
    </g>
   </g>
   <g>
    <rect id="_143717648" class="fil3 str0" x="22.5949" y="0.0763362" width="19.5445" height="19.5445"/>
    <path id="_143716520" class="fil1 str1" d="M39.4279 6.63857c0,0.245495 -0.0716352,0.456858 -0.218189,0.627261 -0.14664,0.17386 -0.32387,0.262605 -0.528493,0.262605 -0.207993,0 -0.381853,-0.0887447 -0.525037,-0.262605 -0.143184,-0.170404 -0.214733,-0.381766 -0.214733,-0.627261 0,-0.245495 0.0715488,-0.456858 0.214733,-0.630804 0.143184,-0.17386 0.317044,-0.259062 0.525037,-0.259062 0.204623,0 0.381853,0.0852018 0.528493,0.259062 0.146554,0.173946 0.218189,0.385309 0.218189,0.630804zm-4.18327 -2.21948c0,0.306847 -0.0920283,0.569366 -0.269345,0.790925 -0.180687,0.218189 -0.398876,0.330697 -0.661394,0.330697 -0.252322,0 -0.470511,-0.112508 -0.654654,-0.330697 -0.180687,-0.221559 -0.272715,-0.484077 -0.272715,-0.790925 0,-0.303477 0.0920283,-0.565996 0.272715,-0.784185 0.184143,-0.214819 0.402332,-0.32387 0.654654,-0.32387 0.262518,0 0.480707,0.109051 0.661394,0.32387 0.177316,0.218189 0.269345,0.480707 0.269345,0.784185zm-4.86514 -0.289824c0,0.313674 -0.0921147,0.593215 -0.272801,0.842167 -0.184057,0.245409 -0.402246,0.3682 -0.654567,0.3682 -0.255692,0 -0.473881,-0.122791 -0.654567,-0.3682 -0.184143,-0.248952 -0.276171,-0.528493 -0.276171,-0.842167 0,-0.303391 0.0920283,-0.569366 0.269345,-0.787555 0.180687,-0.218189 0.398876,-0.330697 0.661394,-0.330697 0.252322,0 0.470511,0.112508 0.654567,0.330697 0.180687,0.218189 0.272801,0.484164 0.272801,0.787555zm10.7565 5.30498c0.0545257,0.0817453 0.0818317,0.163577 0.0818317,0.248865 0,0.14664 -0.0954848,0.351177 -0.279628,0.610238l-0.818231 1.13873 -0.272715 -0.70918 0.681873 -0.988634 -0.770532 -1.0194 0 2.04899 0.310217 0.906889 -0.129531 0.201166 0 1.0671 -0.15001 0 0 3.29686c0,0.300021 -0.143184,0.450031 -0.429552,0.450031 -0.279541,0 -0.419355,-0.15001 -0.419355,-0.450031l0 -3.29686 -0.139814 0 0 -1.0671 -0.221559 0 0 1.0671 -0.150097 0 0 3.29686c0,0.300021 -0.139727,0.450031 -0.419355,0.450031 -0.286368,0 -0.429552,-0.15001 -0.429552,-0.450031l0 -3.29686 -0.228386 0 0.269345 -2.17515 0 -2.04899 -0.419355 2.07967c-0.0341326,0.19097 -0.160293,0.286368 -0.378483,0.279541 -0.221559,0 -0.364743,-0.184057 -0.429552,-0.552256l-0.671677 -3.69574 -0.19771 0 0 2.64903 1.0671 2.77519 -1.0671 0 0 3.87642c0,0.371656 -0.180687,0.559169 -0.53869,0.559169 -0.34772,0 -0.52158,-0.187513 -0.52158,-0.559169l0 -3.87642 -0.279628 0 0 3.87642c0,0.371656 -0.170404,0.559169 -0.51821,0.559169 -0.354547,0 -0.528407,-0.187513 -0.528407,-0.559169l0 -3.87642 -1.10123 0 1.10123 -2.77519 0 -2.64903 -0.211449 0 -0.528407 3.71613c-0.0476992,0.354633 -0.214819,0.531863 -0.501187,0.531863 -0.279541,0 -0.446575,-0.190883 -0.507927,-0.569279l-0.528493 -3.43667 -0.211363 0 0 9.05861c0,0.371656 -0.177316,0.559169 -0.528493,0.559169 -0.354547,0 -0.528407,-0.187513 -0.528407,-0.559169l0 -5.36287 -0.269345 0 0 5.36287c0,0.371656 -0.177316,0.559169 -0.531863,0.559169 -0.351177,0 -0.528493,-0.187513 -0.528493,-0.559169l0 -9.05861 -0.20108 0 -0.347806 3.4537c-0.0408727,0.375026 -0.184057,0.559083 -0.429552,0.559083 -0.201166,0 -0.34098,-0.146554 -0.419355,-0.446575l-0.470511 -1.7081 -0.0988548 0 0 1.99792 0.85919 2.21602 -0.85919 0 0 3.09569c0,0.300021 -0.139814,0.450031 -0.419355,0.450031 -0.279541,0 -0.419355,-0.15001 -0.419355,-0.450031l0 -3.09569 -0.221646 0 0 3.09569c0,0.300021 -0.143184,0.450031 -0.429552,0.450031 -0.279541,0 -0.419355,-0.15001 -0.419355,-0.450031l0 -3.09569 -0.869387 0 0.869387 -2.21602 0 -1.99792 -0.160207 0 0 1.7081c0,0.293194 -0.112508,0.439748 -0.337523,0.439748 -0.235212,0 -0.351177,-0.146554 -0.351177,-0.439748l0 -1.7081c0,-0.719376 0.388679,-1.08075 1.16941,-1.08075l1.28874 0c0.637544,0 1.01257,0.364743 1.11825,1.09095l0.0886582 0.586475 0 -3.01395c0,-0.698897 0.392049,-1.05007 1.16941,-1.05007l2.17861 0c0.657937,0 1.02277,0.351177 1.08758,1.05007l0.279541 3.01395 0.139727 -2.69682c0.0477856,-0.791011 0.436465,-1.18652 1.16949,-1.18652l2.17852 0c0.698983,0 1.08758,0.395506 1.16604,1.18652l0.272715 2.69682 0.279541 -1.53769c0.0443291,-0.245409 0.218276,-0.3682 0.51821,-0.3682l2.08658 0c0.19434,0 0.3682,0.122791 0.52158,0.3682l0.886496 1.44904zm-14.1625 -1.98764l-0.207906 -0.0306761 0 -0.17049 0.207906 -0.0375026 0 0.238669zm-0.160207 -0.450031l-0.129531 0.248865 0 0.17049 0.119334 0.242039 -0.347806 0 0.109138 -0.242039 0 -0.17049 -0.119334 -0.248865 0.3682 0zm-0.310217 0.419355c-0.245495,0 -0.402332,-0.0716352 -0.467141,-0.218276 -0.109051,0.378483 -0.340894,0.569366 -0.698897,0.569366 -0.361373,0 -0.589759,-0.190883 -0.69207,-0.569366 -0.0716352,0.14664 -0.231842,0.218276 -0.477337,0.218276l0 -0.17049c0.286454,-0.010283 0.429638,-0.160293 0.429638,-0.446661 0,-0.201166 0.0715488,-0.388679 0.218189,-0.559083 0.146554,-0.17386 0.320414,-0.262605 0.52158,-0.262605 0.197796,0 0.371656,0.0887447 0.518296,0.262605 0.146554,0.170404 0.218103,0.357917 0.218103,0.559083 0,0.286368 0.143184,0.436378 0.429638,0.446661l0 0.17049zm-2.26727 -0.419355l-0.129531 0.248865 0 0.17049 0.119334 0.242039 -0.358003 0 0.119334 -0.242039 0 -0.17049 -0.129531 -0.248865 0.378396 0zm-0.327241 0.419355l-0.211363 0.0306761 0 -0.238669 0.211363 0.0375026 0 0.17049z"/>
   </g>
   <g>
    <rect id="_143718056" class="fil4 str0" x="0.0761801" y="0.0763362" width="19.5445" height="19.5445"/>
    <g>
     <polygon id="_143718104" class="fil1 str2" points="3.84047,11.8715 5.06622,11.3832 6.17238,11.4629 5.64423,10.0877 5.09612,9.77876 4.97653,10.2869 4.04976,8.68255 3.90027,6.92865 3.52162,6.23105 4.09962,4.76612 4.70744,5.69288 5.70403,5.84237 6.58102,6.71936 7.42802,6.43031 7.86656,6.92865 9.6005,5.87227 10.3679,6.39048 9.6005,7.3372 11.185,7.30731 10.9757,8.64271 10.4177,9.11106 10.2184,10.1176 9.34143,11.1041 9.09231,11.8715 8.92286,11.2337 7.62737,10.9646 6.58102,11.5526 6.73051,12.1605 7.37825,12.1107 7.25866,12.6887 7.66721,12.8083 7.83666,13.0972 8.89296,13.5059 8.65377,15.0006 8.04595,15.8477 8.04595,17.1532 8.80326,18.3689 8.39471,18.3689 7.13906,17.3126 6.08268,16.7845 5.23568,15.2498 3.96007,14.4725 "/>
     <polygon id="_143718272" class="fil1 str2" points="11.2747,6.16123 12.4905,6.64954 12.6001,8.19423 11.3046,9.25053 11.504,7.57639 "/>
     <path id="_143718320" class="fil1 str2" d="M8.19536 0.989153l-1.28554 1.26567 -0.617843 0.0298984 -1.12612 0.996498 0 0.279023 -0.946638 0.896952 -0.777358 -1.05638c0,0 1.724,-2.11268 4.7535,-2.41166z"/>
     <path id="_143718488" class="fil1 str2" d="M12.8194 1.31804l1.00652 1.76392 0.219226 1.54461 0.548108 0.0298984 0.328796 -0.448389 0.478374 1.14599 -0.159429 1.25565 0.647741 0.737436 0.279023 -0.737436 -0.0398357 -0.28896 0.488312 -0.318945 0.249124 0.6976 0.398616 -1.58453c0,0 -1.6941,-2.61092 -4.44458,-3.79684z"/>
     <path id="_143718536" class="fil1 str2" d="M13.8957 17.791l0.956662 -1.16604 1.23569 -2.64082 -0.28896 -1.21581 -1.29548 -0.159429 0.458413 -1.84359 -0.0797579 -1.03642 1.03642 -2.19243 0.6976 0.578007 0.677639 -0.458413 0.259062 -2.02298c0,0 3.97623,7.25485 -3.65728,12.1579z"/>
     <path id="_143718704" class="fil1 str2" d="M3.68105 3.15169c0,0 2.41166,-1.92335 5.71025,-0.607905 0,0 5.21191,1.25565 5.85965,8.28134 0,0 0.85703,6.96589 -5.85965,8.07205"/>
     <path id="_143718752" class="fil1 str2" d="M16.7159 4.40733c0,0 -2.61092,-3.31846 -7.33461,-1.85353 0,0 -3.82674,1.28554 -5.29167,4.79333 0,0 -4.34495,7.514 2.95977,11.1813"/>
     <path id="_143718920" class="fil1 str2" d="M7.57751 0.989153c0,0 2.84017,-0.229163 2.67081,7.66349 -0.149492,7.86276 -2.00311,10.1349 -2.00311,10.1349"/>
     <path id="_143718968" class="fil1 str2" d="M9.6005 10.1076c3.94633,0 7.10545,-2.07275 7.10545,-4.64384 0,-2.57109 -3.15912,-4.66389 -7.10545,-4.66389 -3.9363,0 -7.12532,2.0928 -7.12532,4.66389 0,2.57109 3.18902,4.64384 7.12532,4.64384z"/>
     <path id="_143719208" class="fil1 str2" d="M1.83746 5.56335c-0.478374,0.85703 -0.727499,1.81369 -0.727499,2.79032 0,3.79684 3.80677,6.88614 8.50056,6.88614 4.6937,0 8.50056,-3.0893 8.50056,-6.88614 0,-0.827131 -0.189414,-1.6044 -0.508273,-2.35186"/>
     <path id="_143719112" class="fil1 str2" d="M9.74999 5.68294c1.90347,-0.149492 3.35838,-1.16595 3.27863,-2.27211 -0.0796714,-1.10624 -1.6941,-1.88351 -3.56759,-1.73402 -1.90339,0.159429 -3.37835,1.17589 -3.27863,2.28204 0.0796714,1.09622 1.67414,1.89345 3.56759,1.72408z"/>
    </g>
   </g>
   <g>
    <rect id="_143719544" class="fil5 str0" x="90.1509" y="0.0763362" width="19.5445" height="19.5445"/>
    <path id="_143719616" class="fil6 str3" d="M108.434 17.3239l-17.0207 0 0 -14.9506 17.0207 0 0 14.9506zm-0.516482 -10.1127l0 -4.32144 -5.01887 0 0 4.061 1.24044 -1.17416 1.66852 1.4346 2.10991 0zm0 1.8098l0 -1.50088 -1.74802 0 1.74802 1.50088zm-3.35035 -1.8098l-0.401641 -0.348757 -0.375199 0.348757 0.77684 0zm3.35035 4.97912l0 -2.11 -2.98837 -2.5602 -1.46105 0 -0.569452 0.529703 0 4.1405 5.01887 0zm-5.32779 -4.97912l0 -4.32144 -5.35432 0 0 4.32144 5.35432 0zm5.32779 9.59626l0 -4.30822 -5.01887 0 0 4.30822 5.01887 0zm-5.61476 -9.28734l-5.06735 0 0 2.23797 1.4346 1.19179 3.63274 -3.42976zm0.286973 4.6702l0 -3.8403 -3.89327 3.6858 -1.46105 -1.21832 0 1.37282 5.35432 0zm-5.66773 -4.97912l0 -4.32144 -4.99234 0 0 4.32144 4.99234 0zm5.66773 9.59626l0 -4.30822 -5.35432 0 0 4.30822 5.35432 0zm-5.66773 -7.30532l0 -1.98202 -4.99234 0 0 4.25525 3.85793 -3.21788 1.13441 0.944651zm0 2.68818l0 -1.62877 -1.13441 -0.944651 -3.08109 2.57342 4.2155 0zm0 4.61714l0 -4.30822 -4.5907 0 -0.401641 0.335536 0 3.97268 4.99234 0z"/>
   </g>
  </g>
  <g id="_296378616">
   <polygon id="_296376072" class="fil1 str4" points="66.4682,55.276 70.0638,53.8436 73.3086,54.0774 71.7593,50.0433 70.1515,49.1371 69.8007,50.6279 67.0821,45.9215 66.6436,40.7766 65.5327,38.7303 67.2282,34.433 69.0115,37.1517 71.9347,37.5901 74.5071,40.1626 76.9919,39.3149 78.2781,40.7766 83.3647,37.6779 85.6156,39.198 83.3647,41.9751 88.0127,41.8874 87.3988,45.8046 85.7617,47.1785 85.1771,50.131 82.6046,53.0251 81.8738,55.276 81.3769,53.4051 77.5766,52.6158 74.5071,54.3405 74.9457,56.1237 76.8458,55.9776 76.495,57.6731 77.6935,58.0238 78.1905,58.8716 81.2892,60.0701 80.5876,64.4551 78.8044,66.9398 78.8044,70.7692 81.026,74.3357 79.8275,74.3357 76.1442,71.237 73.0455,69.6877 70.5607,65.1858 66.8189,62.9057 "/>
   <polygon id="_296376000" class="fil1 str4" points="88.2758,38.5256 91.8422,39.958 92.1637,44.4891 88.3635,47.5878 88.9481,42.6767 "/>
   <path id="_296375928" class="fil1 str4" d="M79.2428 23.3538l-3.771 3.71259 -1.8124 0.0877077 -3.30334 2.92322 0 0.818577 -2.77709 2.63089 -2.28014 -3.09863c0,0 5.05724,-6.19735 13.944,-7.07434z"/>
   <path id="_296375856" class="fil1 str4" d="M92.8069 24.3185l2.95242 5.17415 0.643161 4.53108 1.60777 0.0877077 0.964698 -1.31544 1.40315 3.36175 -0.467659 3.68329 1.9001 2.16323 0.81849 -2.16323 -0.116915 -0.847697 1.43236 -0.935491 0.730869 2.04631 1.16932 -4.64799c0,0 -4.96961,-7.659 -13.0378,-11.1377z"/>
   <path id="_296375784" class="fil1 str4" d="M95.964 72.6401l2.8063 -3.42017 3.62488 -7.74671 -0.847784 -3.56638 -3.80021 -0.467746 1.34465 -5.40798 -0.23383 -3.04022 3.04022 -6.43118 2.04623 1.69548 1.9879 -1.34474 0.75999 -5.93423c0,0 11.6638,21.2814 -10.7283,35.6639z"/>
   <path id="_296375712" class="fil1 str4" d="M66.0004 29.6973c0,0 7.07434,-5.6419 16.7504,-1.78319 0,0 15.2887,3.68338 17.1888,24.2924 0,0 2.51397,20.4337 -17.1888,23.6785"/>
   <path id="_296375640" class="fil1 str4" d="M104.237 33.3807c0,0 -7.65891,-9.73452 -21.5153,-5.43727 0,0 -11.2253,3.771 -15.5225,14.0609 0,0 -12.7454,22.0414 8.68211,32.7991"/>
   <path id="_296375568" class="fil1 str4" d="M77.4304 23.3538c0,0 8.33128,-0.672368 7.83433,22.48 -0.438452,23.0646 -5.87573,29.7296 -5.87573,29.7296"/>
   <path id="_142950176" class="fil1 str4" d="M83.3647 50.1018c11.5761,0 20.8429,-6.08035 20.8429,-13.6224 0,-7.542 -9.26677,-13.6808 -20.8429,-13.6808 -11.5469,0 -20.9014,6.13885 -20.9014,13.6808 0,7.54209 9.35448,13.6224 20.9014,13.6224z"/>
   <path id="_142950848" class="fil1 str4" d="M60.5924 36.7717c-1.40315,2.51406 -2.13393,5.32036 -2.13393,8.18516 0,11.1377 11.1669,20.1998 24.9354,20.1998 13.7686,0 24.9355,-9.06215 24.9355,-20.1998 0,-2.42635 -0.555453,-4.70649 -1.49086,-6.89892"/>
   <path id="_142953008" class="fil1 str4" d="M83.8031 37.1225c5.58348,-0.438539 9.85143,-3.42026 9.6176,-6.6651 -0.233916,-3.24484 -4.96961,-5.52498 -10.4653,-5.08644 -5.58348,0.467659 -9.90993,3.44946 -9.6176,6.69422 0.233916,3.21563 4.91111,5.55427 10.4653,5.05732z"/>
  </g>
 </g>
</svg>
