<?xml version="1.0" encoding="UTF-8"?>
<!DOCTYPE svg PUBLIC "-//W3C//DTD SVG 1.1//EN" "http://www.w3.org/Graphics/SVG/1.1/DTD/svg11.dtd">
<!-- Creator: CorelDRAW -->
<svg xmlns="http://www.w3.org/2000/svg" xml:space="preserve" width="127.034mm" height="87.4585mm" style="shape-rendering:geometricPrecision; text-rendering:geometricPrecision; image-rendering:optimizeQuality; fill-rule:evenodd; clip-rule:evenodd"
viewBox="0 0 109.742 75.5537"
 xmlns:xlink="http://www.w3.org/1999/xlink">
 <defs>
  <style type="text/css">
   <![CDATA[
    .str0 {stroke:#373435;stroke-width:0.152389}
    .str3 {stroke:#077ABA;stroke-width:0.152389}
    .str1 {stroke:#252726;stroke-width:0.152389}
    .str2 {stroke:#FEFEFE;stroke-width:0.152389}
    .fil1 {fill:none}
    .fil4 {fill:#3E4095}
    .fil5 {fill:#50A8B1}
    .fil0 {fill:#718FC8}
    .fil2 {fill:#A7C4D2}
    .fil3 {fill:#CCE7D4}
    .fil6 {fill:#FEFEFE}
   ]]>
  </style>
 </defs>
 <g id="Layer_x0020_1">
  <metadata id="CorelCorpID_0Corel-Layer"/>
  <g id="_220113904">
   <g>
    <rect id="_220118800" class="fil0 str0" x="67.6138" y="0.0763155" width="19.5392" height="19.5392"/>
    <g>
     <path id="_220118728" class="fil1 str1" d="M74.99 1.44363c3.36343,4.87505 3.36343,8.17542 2.9981,16.1492"/>
     <path id="_220118656" class="fil1 str1" d="M77.711 6.80989c0.226769,-0.100729 0.844012,-0.768336 0.919601,-1.90209"/>
     <path id="_220118584" class="fil1 str1" d="M77.2953 6.87286c-0.151179,0.251994 -0.831399,0.80626 -1.67541,0.491289"/>
     <path id="_220118512" class="fil1 str1" d="M77.4339 5.85253c0.226769,-0.0881158 0.781035,-1.08331 0.730584,-1.99029"/>
     <path id="_220118440" class="fil1 str1" d="M77.0182 6.11705c-0.125954,0.251994 -1.03294,0.617243 -1.65019,0.251994"/>
     <path id="_220118368" class="fil1 str1" d="M77.0559 4.744c0.226769,-0.0881158 0.655081,-1.02033 0.554266,-1.87687"/>
     <path id="_220118296" class="fil1 str1" d="M76.6907 5.2479c-0.138566,0.251908 -0.932214,0.491289 -1.51162,0.0629769"/>
     <path id="_220118224" class="fil1 str1" d="M76.741 3.73628c0.226769,-0.188931 0.466064,-0.68022 0.365335,-1.53684"/>
     <path id="_220118152" class="fil1 str1" d="M76.275 4.37875c-0.214156,0.214156 -0.629855,0.352723 -1.19673,-0.0629769"/>
     <path id="_220118080" class="fil1 str1" d="M76.2876 3.01823c0.125954,-0.188931 0.415699,-0.932127 0.163705,-1.52423"/>
     <path id="_220118008" class="fil1 str1" d="M75.834 3.53474c-0.176318,0.0882022 -0.793561,0.201543 -1.12114,-0.327497"/>
     <path id="_220117936" class="fil1 str1" d="M75.7711 2.33801c0.125954,-0.390474 0.188931,-0.478676 0.125954,-1.03294"/>
     <path id="_220117864" class="fil1 str1" d="M75.368 2.59c-0.314971,0.0125263 -0.403087,0.0503643 -0.768422,-0.214156"/>
     <path id="_220117792" class="fil1 str1" d="M83.6315 2.28764c-4.39629,4.25772 -5.35364,7.69666 -7.36916,16.0989"/>
     <path id="_220117720" class="fil1 str1" d="M79.6635 7.22559c-0.163792,-0.151093 -0.516514,-1.00772 -0.226769,-2.21706"/>
     <path id="_220117648" class="fil1 str1" d="M80.054 7.38938c0.0377516,0.289746 0.453451,1.05817 1.29746,0.932127"/>
     <path id="_220117576" class="fil1 str1" d="M80.2178 6.26823c-0.176404,-0.151179 -0.377948,-1.31008 -0.0755896,-2.22959"/>
     <path id="_220117504" class="fil1 str1" d="M80.4697 6.65879c0.0503643,0.302272 0.730584,0.906902 1.38566,0.68022"/>
     <path id="_220117432" class="fil1 str1" d="M80.8477 5.23529c-0.176404,-0.151179 -0.289746,-1.23449 0.0503643,-2.10364"/>
     <path id="_220117360" class="fil1 str1" d="M81.024 5.83992c0.0503643,0.277133 0.705445,0.718058 1.3353,0.415699"/>
     <path id="_220117288" class="fil1 str1" d="M81.4018 4.26533c-0.125954,-0.26452 -0.201543,-0.831399 0.151179,-1.70055"/>
     <path id="_220117216" class="fil1 str1" d="M81.6538 5.04636c0.138566,0.277133 0.466064,0.516428 1.09592,0.214156"/>
     <path id="_220117144" class="fil1 str1" d="M82.0192 3.61033c-0.0504506,-0.214156 -0.0882022,-1.05817 0.314885,-1.61243"/>
     <path id="_220117072" class="fil1 str1" d="M82.2837 4.26533c0.125954,0.151179 0.654994,0.415699 1.08331,-0.0503643"/>
     <path id="_220117000" class="fil1 str1" d="M82.6868 3.01823c0.0126127,-0.415699 -0.0126127,-0.529041 0.201543,-1.09592"/>
     <path id="_220116880" class="fil1 str1" d="M82.9765 3.39617c0.277133,0.100729 0.34011,0.163705 0.743197,-0.0126127"/>
     <path id="_220116904" class="fil1 str1" d="M73.7682 7.27604c-0.831399,0.592018 -1.28485,3.04838 -2.72097,6.75192l2.45645 -5.10173c0,2.41861 3.55228,1.62496 2.98549,8.95637l-2.72097 -10.6066z"/>
    </g>
   </g>
   <g>
    <rect id="_220116640" class="fil2 str0" x="45.1013" y="0.0763155" width="19.5392" height="19.5392"/>
    <g>
     <path id="_220116568" class="fil1 str1" d="M55.0119 10.9187c1.3201,-1.06793 2.28427,-0.993808 3.26322,-0.93446 2.44737,0.13347 4.5092,1.7948 4.85035,2.31399 0.326288,0.519106 0.237308,0.355919 0.444985,0.385636 0.192818,0.0147724 0.430126,0.355919 0.652662,0.370778 -0.118697,0.163187 -0.726783,0.474616 -0.993808,-0.103838 -0.118697,-0.252167 -0.267026,-0.266939 -0.222536,-0.163187 0.0297175,0.118697 0.148328,0.430213 0.148328,0.430213l-0.103838 0.148242c0.178046,0.252253 0.237394,0.578541 0.237394,0.652662 0,0.0593486 0.237222,0.192905 0.237222,0.192905l-0.355919 0.415268 -0.489475 -0.13347 -0.133556 0.237308c-0.13347,-0.341147 -0.800904,-0.93446 -1.23112,-0.875111l-0.25208 1.43879 0.222449 1.12728 -0.489475 0.0593486 -0.163187 -0.504334 -0.237308 0 0.192818 -1.11251c0,0 -0.311515,-0.578455 -0.355919,-0.711924 -0.0445762,-0.133556 0.0296311,-0.356005 -0.148415,-0.133556"/>
     <g>
      <path id="_220116472" class="fil1 str1" d="M52.4138 13.1301c-1.06292,-0.47453 -2.65738,-1.19587 -2.71423,-3.34063 -0.0380108,-1.11994 0.113859,-3.11291 0.0568434,-3.45466 -0.037838,-0.26573 -0.151784,-0.512454 -0.113773,-0.227719 0.0759351,0.702249 -0.493535,1.10093 -0.493535,0.227719 0,-0.89213 -0.0759351,-0.341665 -0.341665,-0.284649 -0.15187,0.018919 -0.284735,0.284649 -0.284735,0.284649 0,0 -0.227805,-0.740173 0.341665,-0.873124 0.0570161,-0.26573 -0.170789,-0.986984 0.455524,-1.13885 0.6264,-0.132865 0.721254,0.2088 0.721254,0.493535 -0.0568434,-0.0759351 -0.474443,0.113859 -0.322573,0.113859 0.664324,0.0190054 1.06292,0.797189 1.67031,1.65139 0.835114,1.19578 1.86011,2.2587 4.21384,1.65139 2.0309,-0.51254 3.15083,-1.49961 3.32162,-1.84119 0.797276,1.15777 -0.436519,2.10692 -0.835114,2.31572"/>
      <path id="_220116424" class="fil1 str1" d="M49.3579 5.51864c0.0569297,0 0.113859,-0.0569297 0.113859,-0.0948541 0,-0.0569297 -0.0569297,-0.113859 -0.113859,-0.113859 -0.0759351,0 -0.132865,0.0569297 -0.132865,0.113859 0,0.0379244 0.0569297,0.0948541 0.132865,0.0948541z"/>
     </g>
     <g>
      <path id="_220116304" class="fil1 str1" d="M47.4051 7.16822c-0.359806,0 -0.459671,0.0399113 -0.559622,0.259769 -0.079909,0.159904 -0.159904,0.279811 -0.219858,0.0599533 -0.079909,-0.379676 -0.439629,-0.599533 -1.01929,-0.599533 -0.17986,0 -0.0399113,0.099951 0.0399977,0.299767 0.0399977,0.219858 0.199902,0.579578 0.499669,0.579578 0.299767,0 0.579578,-0.0599533 0.479627,0.219858 -0.079909,0.259769 -0.0199556,0.53958 0.159904,0.739482 0.17986,0.239813 0.0399977,1.01921 0.579578,0.979295 0.739482,-0.0599533 0.439715,-0.679529 0.579578,-0.879431 0.139862,-0.17986 0.299767,-0.579578 0.259769,-0.819391 -0.0399113,-0.139862 0,-0.119907 0.199902,-0.079909 0.199816,0.0199556 0.579578,0 0.879344,-0.259855 0.17986,-0.139862 0.259855,-0.0399113 0.0799954,-0.219771 -0.319809,-0.319809 -0.879431,-0.139949 -0.95934,0.0199556 -0.099951,0.159904 -0.279811,0.279811 -0.339764,0.099951 -0.119907,-0.359806 -0.219858,-0.379762 -0.659487,-0.399718z"/>
      <path id="_220116208" class="fil1 str1" d="M48.6641 12.1846c-0.0399113,-0.659573 -0.448181,-0.558931 -0.53958,-1.59887 -0.0684194,-0.778702 -0.389006,-0.667607 -0.476949,-0.843666"/>
      <path id="_220116160" class="fil1 str1" d="M48.2045 8.00757c0.219771,0.299767 0.439629,0.459757 0.859302,0.479713 0.579578,0.0399113 1.75877,0.239813 2.65816,0.239813"/>
     </g>
     <g>
      <path id="_220116040" class="fil1 str1" d="M53.4476 6.99968c1.62686,0.196015 3.95934,-0.156794 4.9001,-1.09756 0.333199,-0.313675 1.58773,-1.72491 1.68569,-1.94045 -0.117574,-0.117661 -0.803668,-0.803668 -1.27405,-0.705704 0.470383,-0.215625 2.0188,0.392029 2.43044,0.646874 0.411639,0.274369 1.94054,1.64647 0.940853,2.15607 -0.0587439,0.274369 -0.333199,0.627177 -0.470383,0.764362 -0.156794,0.156881 -0.156794,0.117661 -0.0588303,-0.117574 -0.176404,0.0587439 -0.411639,0.156794 -0.176404,-0.156794 0.235235,-0.294065 0.411553,-0.666398 -0.411639,-0.666398 -0.842802,0 -1.01921,-0.156881 -1.11717,0.196015 -0.137271,0.372419 -0.215711,1.72474 -0.450859,2.62646 -0.235235,0.921242 -0.529213,1.01921 -0.646788,1.37202 -0.117661,0.352809 0.176404,1.01921 0.313589,1.31327"/>
      <path id="_220115944" class="fil1 str1" d="M61.229 4.53002c-0.0588303,0 -0.117574,-0.0392202 -0.117574,-0.0979641 0,-0.0588303 0.0587439,-0.0980505 0.117574,-0.0980505 0.0784404,0 0.137184,0.0392202 0.137184,0.0980505 0,0.0587439 -0.0587439,0.0979641 -0.137184,0.0979641z"/>
      <path id="_220115896" class="fil1 str1" d="M60.4646 4.39283c0.49008,0.196015 1.09765,2.01889 -0.254758,2.33248 0.117574,-0.254845 0.0587439,-1.7053 -0.0980505,-1.96006l0.352809 -0.372419z"/>
     </g>
     <g>
      <path id="_220115776" class="fil1 str1" d="M52.2857 10.7855c-0.110231,0.0440579 -0.506925,-0.363607 -0.407752,-0.242405 -0.0991735,-0.13226 -0.550983,-0.517897 -0.61707,-0.595041 -0.0661733,-0.0882022 -0.0882022,-0.286549 -0.550983,0.16526 -0.462867,0.440752 -1.05791,0.958735 -1.19008,1.124 -0.13226,0.16526 0.0330002,0.198347 0.022029,0.264434 -0.022029,0.0661733 0.198347,0.286549 0.242405,0.297521 0.0551156,0.022029 0.220376,-0.0440579 0.220376,-0.0440579 0,0 0.528954,0.0330866 0.727301,0 0.198347,-0.0330866 0.595041,0.198347 0.639099,0.694215 0.0551156,0.495868 1.05791,1.61986 1.04685,1.8513 -0.0330002,0.58407 0.242491,1.31128 0.165347,1.46557 -0.0661733,0.143231 -0.26452,0.484896 -0.308578,0.528954l0.506925 0 -0.022029 -0.198347c0.16526,-0.121202 0.209318,-0.220376 0.143231,-0.385723 -0.143231,-0.31955 0.0771446,-1.2452 0.429781,-1.4876 0.297521,-0.220376 0.16526,-0.0551156 0.61707,0 0.440752,0.0440579 1.92835,0.231434 2.66671,-0.595041 -0.0991735,0.528954 0.330521,0.561954 0.396694,0.826475 0.0551156,0.187289 0.61707,1.21211 0.0881158,1.86227l0.528954 0 -0.121202 -0.352636c0.187289,-0.13226 0.253463,-0.13226 0.187289,-0.407665 -0.0771446,-0.308578 0.0110577,-0.837532 0.13226,-1.03588 0.110231,-0.198347 0.0991735,-0.0771446 -0.0771446,-0.352636 -0.330607,-0.539926 0.26452,-1.86227 0.363694,-2.1267 0.0991735,-0.26452 0.198347,-0.517983 0.154203,0.154203 -0.0550292,0.661214 0.0441443,1.35543 -0.0550292,1.59783 -0.13226,0.286549 -0.13226,0.815503 0,1.3664 0.132174,-0.330521 0.264434,-1.04685 0.121202,-1.35534 -0.0551156,-0.121202 0.0550292,-1.79618 0.0440579,-2.19288 0,-0.539926 -0.396694,-0.804446 -0.738273,-0.837446 -0.661214,-0.0661733 -3.47116,0.231347 -4.24252,0.0330002 -0.429781,-0.110145 -0.892562,-0.121202 -1.11294,-0.022029z"/>
      <path id="_220115656" class="fil1 str1" d="M57.6852 13.9701c-0.022029,-0.0991735 -0.0440579,-0.242405 0,-0.462781 0.022029,-0.209405 0.022029,-0.506925 0.110145,-0.110231 0.0330866,0.165347 0.022029,0.540012 0.022029,0.672186 -0.0109713,0.330607 -0.121202,0 -0.132174,-0.0991735z"/>
      <path id="_220115680" class="fil1 str1" d="M56.6053 13.6505c-0.0991735,0.0991735 -0.583983,0.45181 -0.848504,0.484896 -0.022029,0.110145 0.176318,0.451723 0.275492,0.506839 -0.13226,0.540012 0.0440579,0.550983 0.176318,0.0991735 0.0551156,0 0.0771446,0.0551156 0.16526,0.0661733 -0.154203,0.473839 0.0551156,0.528868 0.165347,0.0550292 0.0660869,0.0221153 0.16526,0.0441443 0.16526,0.0441443 -0.0771446,0.473839 0.121202,0.495868 0.176318,0.0330002 0.0551156,0 0.330607,-0.0660869 0.330607,-0.0660869 -0.110231,-0.198347 -0.187376,-0.539926 -0.374665,-0.672186 -0.220376,-0.143231 -0.220376,-0.31955 -0.231434,-0.550983z"/>
     </g>
    </g>
   </g>
   <g>
    <rect id="_220115344" class="fil3 str0" x="22.5887" y="0.0763155" width="19.5392" height="19.5392"/>
    <path id="_220115272" class="fil1 str1" d="M39.4172 6.63676c0,0.245429 -0.0716157,0.456734 -0.21813,0.627091 -0.146601,0.173813 -0.323783,0.262533 -0.52835,0.262533 -0.207936,0 -0.381749,-0.0887206 -0.524894,-0.262533 -0.143145,-0.170357 -0.214674,-0.381663 -0.214674,-0.627091 0,-0.245429 0.0715293,-0.456734 0.214674,-0.630633 0.143145,-0.173813 0.316958,-0.258991 0.524894,-0.258991 0.204567,0 0.381749,0.0851786 0.52835,0.258991 0.146514,0.173899 0.21813,0.385204 0.21813,0.630633zm-4.18213 -2.21888c0,0.306764 -0.0920033,0.569211 -0.269272,0.79071 -0.180637,0.21813 -0.398767,0.330607 -0.661214,0.330607 -0.252253,0 -0.470383,-0.112477 -0.654476,-0.330607 -0.180637,-0.221499 -0.272641,-0.483946 -0.272641,-0.79071 0,-0.303395 0.0920033,-0.565842 0.272641,-0.783972 0.184093,-0.214761 0.402223,-0.323783 0.654476,-0.323783 0.262447,0 0.480577,0.109022 0.661214,0.323783 0.177268,0.21813 0.269272,0.480577 0.269272,0.783972zm-4.86382 -0.289746c0,0.313589 -0.0920897,0.593054 -0.272727,0.841938 -0.184007,0.245342 -0.402137,0.3681 -0.65439,0.3681 -0.255622,0 -0.473752,-0.122757 -0.65439,-0.3681 -0.184093,-0.248884 -0.276096,-0.52835 -0.276096,-0.841938 0,-0.303309 0.0920033,-0.569211 0.269272,-0.787341 0.180637,-0.21813 0.398767,-0.330607 0.661214,-0.330607 0.252253,0 0.470383,0.112477 0.65439,0.330607 0.180637,0.21813 0.272727,0.484032 0.272727,0.787341zm10.7536 5.30354c0.0545109,0.0817231 0.0818095,0.163533 0.0818095,0.248798 0,0.146601 -0.0954588,0.351081 -0.279552,0.610073l-0.818009 1.13842 -0.272641 -0.708987 0.681688 -0.988366 -0.770323 -1.01912 0 2.04843 0.310133 0.906643 -0.129496 0.201111 0 1.06681 -0.14997 0 0 3.29596c0,0.299939 -0.143145,0.449909 -0.429435,0.449909 -0.279465,0 -0.419241,-0.14997 -0.419241,-0.449909l0 -3.29596 -0.139776 0 0 -1.06681 -0.221499 0 0 1.06681 -0.150056 0 0 3.29596c0,0.299939 -0.13969,0.449909 -0.419241,0.449909 -0.28629,0 -0.429435,-0.14997 -0.429435,-0.449909l0 -3.29596 -0.228324 0 0.269272 -2.17456 0 -2.04843 -0.419241 2.0791c-0.0341233,0.190918 -0.16025,0.28629 -0.37838,0.279465 -0.221499,0 -0.364644,-0.184007 -0.429435,-0.552106l-0.671495 -3.69473 -0.197656 0 0 2.64831 1.06681 2.77444 -1.06681 0 0 3.87537c0,0.371555 -0.180637,0.559017 -0.538543,0.559017 -0.347626,0 -0.521438,-0.187462 -0.521438,-0.559017l0 -3.87537 -0.279552 0 0 3.87537c0,0.371555 -0.170357,0.559017 -0.518069,0.559017 -0.35445,0 -0.528263,-0.187462 -0.528263,-0.559017l0 -3.87537 -1.10093 0 1.10093 -2.77444 0 -2.64831 -0.211392 0 -0.528263 3.71512c-0.0476862,0.354537 -0.214761,0.531719 -0.501051,0.531719 -0.279465,0 -0.446454,-0.190831 -0.507789,-0.569125l-0.52835 -3.43574 -0.211305 0 0 9.05615c0,0.371555 -0.177268,0.559017 -0.52835,0.559017 -0.35445,0 -0.528263,-0.187462 -0.528263,-0.559017l0 -5.36142 -0.269272 0 0 5.36142c0,0.371555 -0.177268,0.559017 -0.531719,0.559017 -0.351081,0 -0.52835,-0.187462 -0.52835,-0.559017l0 -9.05615 -0.201025 0 -0.347712 3.45276c-0.0408616,0.374924 -0.184007,0.558931 -0.429435,0.558931 -0.201111,0 -0.340887,-0.146514 -0.419241,-0.446454l-0.470383 -1.70763 -0.098828 0 0 1.99738 0.858957 2.21542 -0.858957 0 0 3.09485c0,0.299939 -0.139776,0.449909 -0.419241,0.449909 -0.279465,0 -0.419241,-0.14997 -0.419241,-0.449909l0 -3.09485 -0.221585 0 0 3.09485c0,0.299939 -0.143145,0.449909 -0.429435,0.449909 -0.279465,0 -0.419241,-0.14997 -0.419241,-0.449909l0 -3.09485 -0.86915 0 0.86915 -2.21542 0 -1.99738 -0.160164 0 0 1.70763c0,0.293115 -0.112477,0.439629 -0.337432,0.439629 -0.235148,0 -0.351081,-0.146514 -0.351081,-0.439629l0 -1.70763c0,-0.719181 0.388574,-1.08046 1.16909,-1.08046l1.28839 0c0.637371,0 1.0123,0.364644 1.11795,1.09065l0.0886342 0.586316 0 -3.01313c0,-0.698707 0.391943,-1.04979 1.16909,-1.04979l2.17802 0c0.657759,0 1.02249,0.351081 1.08728,1.04979l0.279465 3.01313 0.13969 -2.69609c0.0477726,-0.790796 0.436346,-1.18619 1.16918,-1.18619l2.17793 0c0.698793,0 1.08728,0.395398 1.16572,1.18619l0.272641 2.69609 0.279465 -1.53728c0.0443171,-0.245342 0.218216,-0.3681 0.518069,-0.3681l2.08601 0c0.194287,0 0.3681,0.122757 0.521438,0.3681l0.886255 1.44864zm-14.1587 -1.9871l-0.20785 -0.0306678 0 -0.170444 0.20785 -0.0374924 0 0.238604zm-0.160164 -0.449909l-0.129496 0.248798 0 0.170444 0.119302 0.241973 -0.347712 0 0.109108 -0.241973 0 -0.170444 -0.119302 -0.248798 0.3681 0zm-0.310133 0.419241c-0.245429,0 -0.402223,-0.0716157 -0.467014,-0.218216 -0.109022,0.37838 -0.340801,0.569211 -0.698707,0.569211 -0.361275,0 -0.589599,-0.190831 -0.691882,-0.569211 -0.0716157,0.146601 -0.231779,0.218216 -0.477208,0.218216l0 -0.170444c0.286376,-0.0102802 0.429522,-0.16025 0.429522,-0.44654 0,-0.201111 0.0715293,-0.388574 0.21813,-0.558931 0.146514,-0.173813 0.320327,-0.262533 0.521438,-0.262533 0.197742,0 0.371555,0.0887206 0.518156,0.262533 0.146514,0.170357 0.218044,0.357819 0.218044,0.558931 0,0.28629 0.143145,0.43626 0.429522,0.44654l0 0.170444zm-2.26665 -0.419241l-0.129496 0.248798 0 0.170444 0.119302 0.241973 -0.357906 0 0.119302 -0.241973 0 -0.170444 -0.129496 -0.248798 0.378293 0zm-0.327152 0.419241l-0.211305 0.0306678 0 -0.238604 0.211305 0.0374924 0 0.170444z"/>
   </g>
   <g>
    <rect id="_220115104" class="fil4 str0" x="0.0761594" y="0.0763155" width="19.5392" height="19.5392"/>
    <g>
     <polygon id="_220115032" class="fil1 str2" points="3.83943,11.8683 5.06485,11.3801 6.1707,11.4598 5.6427,10.0849 5.09474,9.77611 4.97518,10.2842 4.04866,8.68019 3.89921,6.92677 3.52066,6.22936 4.09851,4.76482 4.70616,5.69133 5.70248,5.84078 6.57923,6.71754 7.42601,6.42857 7.86443,6.92677 9.59789,5.87067 10.3651,6.38874 9.59789,7.33521 11.182,7.30532 10.9728,8.64036 10.4149,9.10859 10.2156,10.1148 9.3389,11.1011 9.08984,11.8683 8.92043,11.2306 7.6253,10.9616 6.57923,11.5495 6.72868,12.1572 7.37625,12.1074 7.25669,12.6852 7.66513,12.8048 7.83454,13.0937 8.89054,13.5022 8.65142,14.9965 8.04377,15.8434 8.04377,17.1486 8.80087,18.3639 8.39243,18.3639 7.13712,17.3079 6.08103,16.7799 5.23425,15.2457 3.95899,14.4685 "/>
     <polygon id="_220114960" class="fil1 str2" points="11.2717,6.15956 12.4871,6.64774 12.5967,8.19201 11.3015,9.24802 11.5008,7.57433 "/>
     <path id="_220114888" class="fil1 str2" d="M8.19313 0.988884l-1.2852 1.26533 -0.617675 0.0298903 -1.12581 0.996227 0 0.278947 -0.946381 0.896708 -0.777147 -1.05609c0,0 1.72353,-2.1121 4.75221,-2.411z"/>
     <path id="_220114816" class="fil1 str2" d="M12.8159 1.31768l1.00625 1.76344 0.219167 1.54419 0.54796 0.0298903 0.328707 -0.448268 0.478244 1.14568 -0.159386 1.25531 0.647565 0.737236 0.278947 -0.737236 -0.0398249 -0.288882 0.488179 -0.318858 0.249057 0.697411 0.398508 -1.5841c0,0 -1.69364,-2.61022 -4.44337,-3.79581z"/>
     <path id="_220114744" class="fil1 str2" d="M13.8919 17.7862l0.956402 -1.16572 1.23535 -2.64011 -0.288882 -1.21548 -1.29513 -0.159386 0.458289 -1.84309 -0.0797362 -1.03614 1.03614 -2.19184 0.697411 0.57785 0.677455 -0.458289 0.258991 -2.02243c0,0 3.97515,7.25288 -3.65629,12.1546z"/>
     <path id="_220114672" class="fil1 str2" d="M3.68005 3.15083c0,0 2.411,-1.92283 5.7087,-0.60774 0,0 5.2105,1.25531 5.85806,8.27909 0,0 0.856797,6.964 -5.85806,8.06986"/>
     <path id="_220114600" class="fil1 str2" d="M16.7113 4.40614c0,0 -2.61022,-3.31756 -7.33262,-1.85302 0,0 -3.8257,1.2852 -5.29023,4.79203 0,0 -4.34377,7.51196 2.95896,11.1783"/>
     <path id="_220114528" class="fil1 str2" d="M7.57546 0.988884c0,0 2.8394,-0.229101 2.67008,7.66141 -0.149451,7.86062 -2.00256,10.1321 -2.00256,10.1321"/>
     <path id="_220114456" class="fil1 str2" d="M9.59789 10.1048c3.94526,0 7.10352,-2.07219 7.10352,-4.64258 0,-2.57039 -3.15826,-4.66262 -7.10352,-4.66262 -3.93524,0 -7.12339,2.09223 -7.12339,4.66262 0,2.57039 3.18815,4.64258 7.12339,4.64258z"/>
     <path id="_220114336" class="fil1 str2" d="M1.83696 5.56184c-0.478244,0.856797 -0.727301,1.8132 -0.727301,2.78956 0,3.79581 3.80574,6.88427 8.49825,6.88427 4.69243,0 8.49825,-3.08846 8.49825,-6.88427 0,-0.826907 -0.189363,-1.60397 -0.508135,-2.35122"/>
     <path id="_220114360" class="fil1 str2" d="M9.74734 5.6814c1.90296,-0.149451 3.35747,-1.16563 3.27774,-2.27149 -0.0796498,-1.10594 -1.69364,-1.883 -3.56662,-1.73355 -1.90287,0.159386 -3.37743,1.17557 -3.27774,2.28142 0.0796498,1.09592 1.67368,1.89294 3.56662,1.72361z"/>
    </g>
   </g>
   <g>
    <rect id="_220114072" class="fil5 str0" x="90.1264" y="0.0763155" width="19.5392" height="19.5392"/>
    <path id="_220114048" class="fil6 str3" d="M108.404 17.3192l-17.0161 0 0 -14.9465 17.0161 0 0 14.9465zm-0.516342 -10.11l0 -4.32027 -5.01751 0 0 4.05989 1.2401 -1.17384 1.66807 1.43421 2.10934 0zm0 1.80931l0 -1.50047 -1.74754 0 1.74754 1.50047zm-3.34944 -1.80931l-0.401532 -0.348662 -0.375097 0.348662 0.776629 0zm3.34944 4.97777l0 -2.10942 -2.98756 -2.55951 -1.46065 0 -0.569297 0.529559 0 4.13937 5.01751 0zm-5.32634 -4.97777l0 -4.32027 -5.35286 0 0 4.32027 5.35286 0zm5.32634 9.59366l0 -4.30705 -5.01751 0 0 4.30705 5.01751 0zm-5.61324 -9.28482l-5.06597 0 0 2.23736 1.43421 1.19146 3.63175 -3.42883zm0.286895 4.66893l0 -3.83926 -3.89221 3.6848 -1.46065 -1.21799 0 1.37245 5.35286 0zm-5.66619 -4.97777l0 -4.32027 -4.99098 0 0 4.32027 4.99098 0zm5.66619 9.59366l0 -4.30705 -5.35286 0 0 4.30705 5.35286 0zm-5.66619 -7.30333l0 -1.98148 -4.99098 0 0 4.25409 3.85688 -3.21701 1.1341 0.944394zm0 2.68745l0 -1.62833 -1.1341 -0.944394 -3.08025 2.57272 4.21436 0zm0 4.61589l0 -4.30705 -4.58945 0 -0.401532 0.335445 0 3.97161 4.99098 0z"/>
   </g>
  </g>
  <path class="fil1 str3" d="M109.32 75.4775l-60.2288 0 0 -52.9033 60.2288 0 0 52.9033zm-1.82754 -35.7842l0 -15.2916 -17.7594 0 0 14.3699 4.38921 -4.15466 5.90419 5.07642 7.466 0zm0 6.40386l0 -5.31062 -6.1853 0 6.1853 5.31062zm-11.8552 -6.40386l-1.42126 -1.23405 -1.3277 1.23405 2.74896 0zm11.8552 17.6188l0 -7.46618 -10.5743 -9.05935 -5.17015 0 -2.01492 1.87428 0 14.6512 17.7594 0zm-18.8526 -17.6188l0 -15.2916 -18.9465 0 0 15.2916 18.9465 0zm18.8526 33.9567l0 -15.2447 -17.7594 0 0 15.2447 17.7594 0zm-19.868 -32.8635l-17.9311 0 0 7.91902 5.07642 4.21729 12.8547 -12.1363zm1.01541 16.5255l0 -13.5889 -13.7764 13.0422 -5.17015 -4.31102 0 4.85777 18.9465 0zm-20.0554 -17.6188l0 -15.2916 -17.6657 0 0 15.2916 17.6657 0zm20.0554 33.9567l0 -15.2447 -18.9465 0 0 15.2447 18.9465 0zm-20.0554 -25.8503l0 -7.01324 -17.6657 0 0 15.0573 13.6513 -11.3866 4.01437 3.34261zm0 9.51228l0 -5.76355 -4.01437 -3.3427 -10.9023 9.10625 14.9167 0zm0 16.338l0 -15.2447 -16.2444 0 -1.42126 1.18715 0 14.0576 17.6657 0z"/>
 </g>
</svg>
