<?xml version="1.0" encoding="UTF-8"?>
<!DOCTYPE svg PUBLIC "-//W3C//DTD SVG 1.1//EN" "http://www.w3.org/Graphics/SVG/1.1/DTD/svg11.dtd">
<!-- Creator: CorelDRAW -->
<svg xmlns="http://www.w3.org/2000/svg" xml:space="preserve" width="128.066mm" height="83.2603mm" style="shape-rendering:geometricPrecision; text-rendering:geometricPrecision; image-rendering:optimizeQuality; fill-rule:evenodd; clip-rule:evenodd"
viewBox="0 0 111.534 72.5118"
 xmlns:xlink="http://www.w3.org/1999/xlink">
 <defs>
  <style type="text/css">
   <![CDATA[
    .str0 {stroke:#373435;stroke-width:0.153628}
    .str4 {stroke:#50A8B1;stroke-width:0.153628}
    .str3 {stroke:#077ABA;stroke-width:0.153628}
    .str1 {stroke:#252726;stroke-width:0.153628}
    .str2 {stroke:#FEFEFE;stroke-width:0.153628}
    .fil1 {fill:none}
    .fil4 {fill:#3E4095}
    .fil5 {fill:#50A8B1}
    .fil0 {fill:#718FC8}
    .fil2 {fill:#A7C4D2}
    .fil3 {fill:#CCE7D4}
    .fil6 {fill:#FEFEFE}
   ]]>
  </style>
 </defs>
 <g id="Layer_x0020_1">
  <metadata id="CorelCorpID_0Corel-Layer"/>
  <g id="_143719760">
   <g>
    <rect id="_296385000" class="fil0 str0" x="68.1636" y="0.076936" width="19.698" height="19.698"/>
    <g>
     <path id="_296385360" class="fil1 str1" d="M75.5998 1.45537c3.39078,4.91469 3.39078,8.2419 3.02248,16.2805"/>
     <path id="_296384304" class="fil1 str1" d="M78.3429 6.86526c0.228613,-0.101548 0.850874,-0.774583 0.927078,-1.91756"/>
     <path id="_296384400" class="fil1 str1" d="M77.9238 6.92875c-0.152408,0.254043 -0.838159,0.812816 -1.68903,0.495284"/>
     <path id="_296385720" class="fil1 str1" d="M78.0635 5.90012c0.228613,-0.0888323 0.787385,-1.09211 0.736524,-2.00648"/>
     <path id="_143713064" class="fil1 str1" d="M77.6444 6.16679c-0.126978,0.254043 -1.04134,0.622262 -1.6636,0.254043"/>
     <path id="_143712992" class="fil1 str1" d="M77.6825 4.78257c0.228613,-0.0888323 0.660407,-1.02863 0.558773,-1.89213"/>
     <path id="_143713232" class="fil1 str1" d="M77.3142 5.29057c-0.139693,0.253956 -0.939794,0.495284 -1.52391,0.063489"/>
     <path id="_143713184" class="fil1 str1" d="M77.365 3.76666c0.228613,-0.190467 0.469853,-0.685751 0.368306,-1.54934"/>
     <path id="_143712392" class="fil1 str1" d="M76.8952 4.41436c-0.215897,0.215897 -0.634977,0.35559 -1.20646,-0.063489"/>
     <path id="_143713472" class="fil1 str1" d="M76.9079 3.04277c0.126978,-0.190467 0.419079,-0.939706 0.165036,-1.53662"/>
     <path id="_143713424" class="fil1 str1" d="M76.4506 3.56348c-0.177752,0.0889194 -0.800013,0.203182 -1.13026,-0.33016"/>
     <path id="_143713616" class="fil1 str1" d="M76.3872 2.35702c0.126978,-0.393649 0.190467,-0.482568 0.126978,-1.04134"/>
     <path id="_143713640" class="fil1 str1" d="M75.9808 2.61106c-0.317532,0.0126281 -0.406364,0.0507738 -0.77467,-0.215897"/>
     <path id="_143713832" class="fil1 str1" d="M84.3115 2.30624c-4.43204,4.29234 -5.39717,7.75924 -7.42908,16.2297"/>
     <path id="_143713784" class="fil1 str1" d="M80.3113 7.28434c-0.165124,-0.152321 -0.520714,-1.01591 -0.228613,-2.23509"/>
     <path id="_143712344" class="fil1 str1" d="M80.7049 7.44946c0.0380585,0.292102 0.457138,1.06677 1.30801,0.939706"/>
     <path id="_143714072" class="fil1 str1" d="M80.8701 6.3192c-0.177839,-0.152408 -0.381021,-1.32073 -0.0762042,-2.24772"/>
     <path id="_143713016" class="fil1 str1" d="M81.124 6.71294c0.0507738,0.30473 0.736524,0.914276 1.39693,0.685751"/>
     <path id="_143712368" class="fil1 str1" d="M81.505 5.27786c-0.177839,-0.152408 -0.292102,-1.24452 0.0507738,-2.12074"/>
     <path id="_143712080" class="fil1 str1" d="M81.6828 5.8874c0.0507738,0.279386 0.711181,0.723896 1.34616,0.419079"/>
     <path id="_143714312" class="fil1 str1" d="M82.0637 4.30001c-0.126978,-0.266671 -0.203182,-0.838159 0.152408,-1.71438"/>
     <path id="_143714552" class="fil1 str1" d="M82.3178 5.08739c0.139693,0.279386 0.469853,0.520627 1.10483,0.215897"/>
     <path id="_143714720" class="fil1 str1" d="M82.6861 3.63969c-0.0508608,-0.215897 -0.0889194,-1.06677 0.317445,-1.62554"/>
     <path id="_143712296" class="fil1 str1" d="M82.9527 4.30001c0.126978,0.152408 0.66032,0.419079 1.09211,-0.0507738"/>
     <path id="_143715080" class="fil1 str1" d="M83.3591 3.04277c0.0127152,-0.419079 -0.0127152,-0.533342 0.203182,-1.10483"/>
     <path id="_143715416" class="fil1 str1" d="M83.6512 3.42379c0.279386,0.101548 0.342875,0.165036 0.74924,-0.0127152"/>
     <path id="_143715032" class="fil1 str1" d="M74.368 7.3352c-0.838159,0.596831 -1.2953,3.07316 -2.74309,6.80682l2.47642 -5.14322c0,2.43827 3.58116,1.63817 3.00976,9.02919l-2.74309 -10.6928z"/>
    </g>
   </g>
   <g>
    <rect id="_143715728" class="fil2 str0" x="45.468" y="0.076936" width="19.698" height="19.698"/>
    <g>
     <path id="_143715776" class="fil1 str1" d="M55.4592 11.0075c1.33083,-1.07661 2.30285,-1.00189 3.28976,-0.942058 2.46727,0.134555 4.54586,1.80939 4.88978,2.33281 0.328941,0.523327 0.239238,0.358813 0.448603,0.388772 0.194386,0.0148925 0.433624,0.358813 0.657969,0.373792 -0.119662,0.164514 -0.732692,0.478475 -1.00189,-0.104683 -0.119662,-0.254217 -0.269197,-0.26911 -0.224345,-0.164514 0.0299591,0.119662 0.149534,0.433711 0.149534,0.433711l-0.104683 0.149447c0.179494,0.254304 0.239325,0.583245 0.239325,0.657969 0,0.0598312 0.239151,0.194473 0.239151,0.194473l-0.358813 0.418644 -0.493455 -0.134555 -0.134642 0.239238c-0.134555,-0.34392 -0.807416,-0.942058 -1.24113,-0.882227l-0.25413 1.45049 0.224258 1.13644 -0.493455 0.0598312 -0.164514 -0.508434 -0.239238 0 0.194386 -1.12155c0,0 -0.314048,-0.583158 -0.358813,-0.717713 -0.0449387,-0.134642 0.029872,-0.3589 -0.149621,-0.134642"/>
     <g>
      <path id="_143715920" class="fil1 str1" d="M52.84 13.2369c-1.07156,-0.478388 -2.67899,-1.20559 -2.7363,-3.36779 -0.0383198,-1.12904 0.114785,-3.13822 0.0573055,-3.48275 -0.0381456,-0.26789 -0.153018,-0.516621 -0.114698,-0.229571 0.0765525,0.707959 -0.497548,1.10988 -0.497548,0.229571 0,-0.899384 -0.0765525,-0.344443 -0.344443,-0.286963 -0.153105,0.0190728 -0.28705,0.286963 -0.28705,0.286963 0,0 -0.229658,-0.746191 0.344443,-0.880224 0.0574797,-0.26789 -0.172178,-0.995009 0.459228,-1.14811 0.631493,-0.133945 0.727119,0.210498 0.727119,0.497548 -0.0573055,-0.0765525 -0.478301,0.114785 -0.325196,0.114785 0.669726,0.0191599 1.07156,0.803671 1.68389,1.66482 0.841904,1.20551 1.87523,2.27707 4.2481,1.66482 2.04741,-0.516708 3.17645,-1.5118 3.34863,-1.85616 0.803758,1.16719 -0.440068,2.12405 -0.841904,2.33455"/>
      <path id="_143715992" class="fil1 str1" d="M49.7592 5.56352c0.0573926,0 0.114785,-0.0573926 0.114785,-0.0956254 0,-0.0573926 -0.0573926,-0.114785 -0.114785,-0.114785 -0.0765525,0 -0.133945,0.0573926 -0.133945,0.114785 0,0.0382327 0.0573926,0.0956254 0.133945,0.0956254z"/>
     </g>
     <g>
      <path id="_143716160" class="fil1 str1" d="M47.7906 7.22651c-0.362732,0 -0.463409,0.0402358 -0.564172,0.261881 -0.0805587,0.161205 -0.161205,0.282086 -0.221645,0.0604408 -0.0805587,-0.382763 -0.443204,-0.604408 -1.02758,-0.604408 -0.181322,0 -0.0402358,0.100764 0.0403229,0.302204 0.0403229,0.221645 0.201527,0.58429 0.503731,0.58429 0.302204,0 0.58429,-0.0604408 0.483526,0.221645 -0.0805587,0.261881 -0.0201179,0.543967 0.161205,0.745495 0.181322,0.241763 0.0403229,1.02749 0.58429,0.987258 0.745495,-0.0604408 0.443291,-0.685054 0.58429,-0.886581 0.141,-0.181322 0.302204,-0.58429 0.261881,-0.826053 -0.0402358,-0.141 0,-0.120882 0.201527,-0.0805587 0.20144,0.0201179 0.58429,0 0.886494,-0.261968 0.181322,-0.141 0.261968,-0.0402358 0.0806458,-0.221558 -0.322409,-0.322409 -0.886581,-0.141087 -0.96714,0.0201179 -0.100764,0.161205 -0.282086,0.282086 -0.342527,0.100764 -0.120882,-0.362732 -0.221645,-0.38285 -0.664849,-0.402968z"/>
      <path id="_143716352" class="fil1 str1" d="M49.0598 12.2837c-0.0402358,-0.664936 -0.451825,-0.563476 -0.543967,-1.61187 -0.0689757,-0.785034 -0.392169,-0.673035 -0.480827,-0.850526"/>
      <path id="_143716304" class="fil1 str1" d="M48.5965 8.07268c0.221558,0.302204 0.443204,0.463496 0.866289,0.483614 0.58429,0.0402358 1.77308,0.241763 2.67977,0.241763"/>
     </g>
     <g>
      <path id="_143716688" class="fil1 str1" d="M53.8822 7.05659c1.64009,0.197608 3.99153,-0.158069 4.93995,-1.10648 0.335908,-0.316226 1.60064,-1.73894 1.6994,-1.95623 -0.11853,-0.118617 -0.810203,-0.810203 -1.28441,-0.711442 0.474208,-0.217378 2.03522,0.395217 2.4502,0.652134 0.414986,0.276599 1.95631,1.65986 0.948503,2.1736 -0.0592215,0.276599 -0.335908,0.632277 -0.474208,0.770577 -0.158069,0.158156 -0.158069,0.118617 -0.0593086,-0.11853 -0.177839,0.0592215 -0.414986,0.158069 -0.177839,-0.158069 0.237147,-0.296456 0.414899,-0.671816 -0.414986,-0.671816 -0.849655,0 -1.02749,-0.158156 -1.12625,0.197608 -0.138387,0.375447 -0.217465,1.73876 -0.454525,2.64781 -0.237147,0.928733 -0.533516,1.02749 -0.652047,1.38317 -0.118617,0.355678 0.177839,1.02749 0.316139,1.32395"/>
      <path id="_143716784" class="fil1 str1" d="M61.7269 4.56685c-0.0593086,0 -0.11853,-0.0395391 -0.11853,-0.0987606 0,-0.0593086 0.0592215,-0.0988477 0.11853,-0.0988477 0.0790782,0 0.1383,0.0395391 0.1383,0.0988477 0,0.0592215 -0.0592215,0.0987606 -0.1383,0.0987606z"/>
      <path id="_143716568" class="fil1 str1" d="M60.9562 4.42855c0.494064,0.197608 1.10657,2.0353 -0.25683,2.35144 0.11853,-0.256917 0.0592215,-1.71917 -0.0988477,-1.976l0.355678 -0.375447z"/>
     </g>
     <g>
      <path id="_143717048" class="fil1 str1" d="M52.7108 10.8732c-0.111127,0.0444162 -0.511047,-0.366564 -0.411067,-0.244376 -0.0999799,-0.133336 -0.555463,-0.522108 -0.622087,-0.599879 -0.0667113,-0.0889194 -0.0889194,-0.288879 -0.555463,0.166604 -0.466631,0.444336 -1.06651,0.96653 -1.19976,1.13313 -0.133336,0.166604 0.0332686,0.19996 0.0222081,0.266584 -0.0222081,0.0667113 0.19996,0.288879 0.244376,0.29994 0.0555637,0.0222081 0.222168,-0.0444162 0.222168,-0.0444162 0,0 0.533255,0.0333557 0.733215,0 0.19996,-0.0333557 0.599879,0.19996 0.644295,0.699859 0.0555637,0.499899 1.06651,1.63303 1.05536,1.86635 -0.0332686,0.588819 0.244463,1.32195 0.166691,1.47749 -0.0667113,0.144396 -0.266671,0.488839 -0.311087,0.533255l0.511047 0 -0.0222081 -0.19996c0.166604,-0.122188 0.21102,-0.222168 0.144396,-0.388859 -0.144396,-0.322148 0.0777718,-1.25532 0.433275,-1.4997 0.29994,-0.222168 0.166604,-0.0555637 0.622087,0 0.444336,0.0444162 1.94403,0.233315 2.6884,-0.599879 -0.0999799,0.533255 0.333208,0.566524 0.39992,0.833195 0.0555637,0.188812 0.622087,1.22197 0.0888323,1.87741l0.533255 0 -0.122188 -0.355503c0.188812,-0.133336 0.255524,-0.133336 0.188812,-0.41098 -0.0777718,-0.311087 0.0111476,-0.844342 0.133336,-1.0443 0.111127,-0.19996 0.0999799,-0.0777718 -0.0777718,-0.355503 -0.333295,-0.544316 0.266671,-1.87741 0.366651,-2.14399 0.0999799,-0.266671 0.19996,-0.522195 0.155457,0.155457 -0.0554766,0.666591 0.0445032,1.36645 -0.0554766,1.61083 -0.133336,0.288879 -0.133336,0.822134 0,1.37751 0.133248,-0.333208 0.266584,-1.05536 0.122188,-1.36636 -0.0555637,-0.122188 0.0554766,-1.81079 0.0444162,-2.21071 0,-0.544316 -0.39992,-0.810987 -0.744275,-0.844255 -0.666591,-0.0667113 -3.49938,0.233228 -4.27701,0.0332686 -0.433275,-0.11104 -0.899819,-0.122188 -1.12199,-0.0222081z"/>
      <path id="_143717240" class="fil1 str1" d="M58.1542 14.0837c-0.0222081,-0.0999799 -0.0444162,-0.244376 0,-0.466544 0.0222081,-0.211107 0.0222081,-0.511047 0.11104,-0.111127 0.0333557,0.166691 0.0222081,0.544403 0.0222081,0.677651 -0.0110605,0.333295 -0.122188,0 -0.133248,-0.0999799z"/>
      <path id="_143717096" class="fil1 str1" d="M57.0655 13.7615c-0.0999799,0.0999799 -0.588732,0.455483 -0.855403,0.488839 -0.0222081,0.11104 0.177752,0.455396 0.277732,0.51096 -0.133336,0.544403 0.0444162,0.555463 0.177752,0.0999799 0.0555637,0 0.0777718,0.0555637 0.166604,0.0667113 -0.155457,0.477691 0.0555637,0.533168 0.166691,0.0554766 0.0666242,0.0222952 0.166604,0.0445032 0.166604,0.0445032 -0.0777718,0.477691 0.122188,0.499899 0.177752,0.0332686 0.0555637,0 0.333295,-0.0666242 0.333295,-0.0666242 -0.111127,-0.19996 -0.188899,-0.544316 -0.377711,-0.677651 -0.222168,-0.144396 -0.222168,-0.322148 -0.233315,-0.555463z"/>
     </g>
    </g>
   </g>
   <g>
    <rect id="_143717648" class="fil3 str0" x="22.7724" y="0.076936" width="19.698" height="19.698"/>
    <path id="_143716520" class="fil1 str1" d="M39.7377 6.69073c0,0.247424 -0.072198,0.460447 -0.219904,0.63219 -0.147793,0.175226 -0.326415,0.264668 -0.532645,0.264668 -0.209627,0 -0.384853,-0.0894419 -0.529162,-0.264668 -0.144309,-0.171742 -0.21642,-0.384766 -0.21642,-0.63219 0,-0.247424 0.0721109,-0.460447 0.21642,-0.635761 0.144309,-0.175226 0.319535,-0.261097 0.529162,-0.261097 0.20623,0 0.384853,0.0858712 0.532645,0.261097 0.147705,0.175313 0.219904,0.388337 0.219904,0.635761zm-4.21614 -2.23692c0,0.309258 -0.0927514,0.573839 -0.271461,0.797139 -0.182106,0.219904 -0.40201,0.333295 -0.666591,0.333295 -0.254304,0 -0.474208,-0.113392 -0.659798,-0.333295 -0.182106,-0.2233 -0.274858,-0.487881 -0.274858,-0.797139 0,-0.305862 0.0927514,-0.570443 0.274858,-0.790346 0.18559,-0.216507 0.405493,-0.326415 0.659798,-0.326415 0.264581,0 0.484484,0.109908 0.666591,0.326415 0.17871,0.219904 0.271461,0.484484 0.271461,0.790346zm-4.90337 -0.292102c0,0.316139 -0.0928385,0.597876 -0.274945,0.848784 -0.185503,0.247337 -0.405406,0.371093 -0.659711,0.371093 -0.257701,0 -0.477604,-0.123756 -0.659711,-0.371093 -0.18559,-0.250908 -0.278341,-0.532645 -0.278341,-0.848784 0,-0.305775 0.0927514,-0.573839 0.271461,-0.793743 0.182106,-0.219904 0.40201,-0.333295 0.666591,-0.333295 0.254304,0 0.474208,0.113392 0.659711,0.333295 0.182106,0.219904 0.274945,0.487968 0.274945,0.793743zm10.841 5.34666c0.0549541,0.0823876 0.0824747,0.164862 0.0824747,0.250821 0,0.147793 -0.096235,0.353936 -0.281825,0.615033l-0.82466 1.14768 -0.274858 -0.714752 0.687231 -0.996402 -0.776586 -1.02741 0 2.06509 0.312655 0.914015 -0.130549 0.202747 0 1.07548 -0.151189 0 0 3.32276c0,0.302378 -0.144309,0.453567 -0.432927,0.453567 -0.281738,0 -0.42265,-0.151189 -0.42265,-0.453567l0 -3.32276 -0.140912 0 0 -1.07548 -0.2233 0 0 1.07548 -0.151276 0 0 3.32276c0,0.302378 -0.140825,0.453567 -0.42265,0.453567 -0.288618,0 -0.432927,-0.151189 -0.432927,-0.453567l0 -3.32276 -0.23018 0 0.271461 -2.19224 0 -2.06509 -0.42265 2.09601c-0.0344007,0.19247 -0.161553,0.288618 -0.381456,0.281738 -0.2233,0 -0.367609,-0.185503 -0.432927,-0.556595l-0.676954 -3.72477 -0.199263 0 0 2.66985 1.07548 2.797 -1.07548 0 0 3.90688c0,0.374576 -0.182106,0.563563 -0.542922,0.563563 -0.350452,0 -0.525678,-0.188986 -0.525678,-0.563563l0 -3.90688 -0.281825 0 0 3.90688c0,0.374576 -0.171742,0.563563 -0.522282,0.563563 -0.357332,0 -0.532558,-0.188986 -0.532558,-0.563563l0 -3.90688 -1.10988 0 1.10988 -2.797 0 -2.66985 -0.21311 0 -0.532558 3.74533c-0.048074,0.357419 -0.216507,0.536042 -0.505125,0.536042 -0.281738,0 -0.450084,-0.192383 -0.511918,-0.573752l-0.532645 -3.46368 -0.213023 0 0 9.12978c0,0.374576 -0.17871,0.563563 -0.532645,0.563563 -0.357332,0 -0.532558,-0.188986 -0.532558,-0.563563l0 -5.40501 -0.271461 0 0 5.40501c0,0.374576 -0.17871,0.563563 -0.536042,0.563563 -0.353936,0 -0.532645,-0.188986 -0.532645,-0.563563l0 -9.12978 -0.20266 0 -0.350539 3.48083c-0.0411938,0.377973 -0.185503,0.563476 -0.432927,0.563476 -0.202747,0 -0.343659,-0.147705 -0.42265,-0.450084l-0.474208 -1.72152 -0.0996315 0 0 2.01362 0.865941 2.23344 -0.865941 0 0 3.12002c0,0.302378 -0.140912,0.453567 -0.42265,0.453567 -0.281738,0 -0.42265,-0.151189 -0.42265,-0.453567l0 -3.12002 -0.223387 0 0 3.12002c0,0.302378 -0.144309,0.453567 -0.432927,0.453567 -0.281738,0 -0.42265,-0.151189 -0.42265,-0.453567l0 -3.12002 -0.876217 0 0.876217 -2.23344 0 -2.01362 -0.161466 0 0 1.72152c0,0.295498 -0.113392,0.443204 -0.340175,0.443204 -0.23706,0 -0.353936,-0.147705 -0.353936,-0.443204l0 -1.72152c0,-0.725028 0.391733,-1.08924 1.1786,-1.08924l1.29887 0c0.642554,0 1.02053,0.367609 1.12704,1.09952l0.0893548 0.591083 0 -3.03763c0,-0.704388 0.39513,-1.05832 1.1786,-1.05832l2.19573 0c0.663107,0 1.0308,0.353936 1.09612,1.05832l0.281738 3.03763 0.140825 -2.71801c0.048161,-0.797226 0.439894,-1.19584 1.17868,-1.19584l2.19564 0c0.704475,0 1.09612,0.398613 1.1752,1.19584l0.274858 2.71801 0.281738 -1.54978c0.0446774,-0.247337 0.219991,-0.371093 0.522282,-0.371093l2.10297 0c0.195867,0 0.371093,0.123756 0.525678,0.371093l0.893461 1.46042zm-14.2738 -2.00326l-0.20954 -0.0309171 0 -0.17183 0.20954 -0.0377973 0 0.240544zm-0.161466 -0.453567l-0.130549 0.250821 0 0.17183 0.120272 0.24394 -0.350539 0 0.109995 -0.24394 0 -0.17183 -0.120272 -0.250821 0.371093 0zm-0.312655 0.42265c-0.247424,0 -0.405493,-0.072198 -0.470811,-0.219991 -0.109908,0.381456 -0.343572,0.573839 -0.704388,0.573839 -0.364212,0 -0.594393,-0.192383 -0.697508,-0.573839 -0.072198,0.147793 -0.233664,0.219991 -0.481088,0.219991l0 -0.17183c0.288705,-0.0103638 0.433014,-0.161553 0.433014,-0.450171 0,-0.202747 0.0721109,-0.391733 0.219904,-0.563476 0.147705,-0.175226 0.322932,-0.264668 0.525678,-0.264668 0.19935,0 0.374576,0.0894419 0.522369,0.264668 0.147705,0.171742 0.219816,0.360729 0.219816,0.563476 0,0.288618 0.144309,0.439807 0.433014,0.450171l0 0.17183zm-2.28508 -0.42265l-0.130549 0.250821 0 0.17183 0.120272 0.24394 -0.360816 0 0.120272 -0.24394 0 -0.17183 -0.130549 -0.250821 0.381369 0zm-0.329812 0.42265l-0.213023 0.0309171 0 -0.240544 0.213023 0.0377973 0 0.17183z"/>
   </g>
   <g>
    <rect id="_143718056" class="fil4 str0" x="0.0767787" y="0.076936" width="19.698" height="19.698"/>
    <g>
     <polygon id="_143718104" class="fil1 str2" points="3.87065,11.9648 5.10603,11.4726 6.22087,11.553 5.68858,10.1669 5.13616,9.8556 5.01563,10.3678 4.08158,8.75077 3.93092,6.98309 3.54929,6.28001 4.13183,4.80356 4.74443,5.73761 5.74884,5.88828 6.63273,6.77216 7.48639,6.48084 7.92837,6.98309 9.67593,5.91841 10.4494,6.44069 9.67593,7.39485 11.2729,7.36472 11.062,8.71062 10.4995,9.18265 10.2987,10.1971 9.41483,11.1914 9.16375,11.9648 8.99296,11.3219 7.6873,11.0507 6.63273,11.6434 6.78339,12.2561 7.43622,12.2058 7.31569,12.7884 7.72745,12.9089 7.89824,13.2001 8.96283,13.612 8.72176,15.1185 8.10917,15.9722 8.10917,17.288 8.87243,18.5133 8.46067,18.5133 7.19516,17.4487 6.13047,16.9164 5.27681,15.3696 3.99118,14.5862 "/>
     <polygon id="_143718272" class="fil1 str2" points="11.3633,6.20964 12.5887,6.70179 12.6991,8.25862 11.3934,9.32321 11.5944,7.63592 "/>
     <path id="_143718320" class="fil1 str2" d="M8.25975 0.996925l-1.29565 1.27561 -0.622697 0.0301333 -1.13496 1.00433 0 0.281215 -0.954076 0.903999 -0.783466 -1.06468c0,0 1.73754,-2.12928 4.79085,-2.43061z"/>
     <path id="_143718488" class="fil1 str2" d="M12.9201 1.32839l1.01443 1.77778 0.220949 1.55674 0.552415 0.0301333 0.331379 -0.451913 0.482133 1.15499 -0.160682 1.26551 0.65283 0.74323 0.281215 -0.74323 -0.0401487 -0.291231 0.492148 -0.321451 0.251082 0.703082 0.401748 -1.59698c0,0 -1.70741,-2.63144 -4.4795,-3.82667z"/>
     <path id="_143718536" class="fil1 str2" d="M14.0048 17.9308l0.964179 -1.1752 1.24539 -2.66157 -0.291231 -1.22536 -1.30566 -0.160682 0.462015 -1.85808 -0.0803845 -1.04456 1.04456 -2.20966 0.703082 0.582548 0.682964 -0.462015 0.261097 -2.03888c0,0 4.00747,7.31186 -3.68602,12.2535z"/>
     <path id="_143718704" class="fil1 str2" d="M3.70997 3.17645c0,0 2.43061,-1.93846 5.75511,-0.612682 0,0 5.25286,1.26551 5.90569,8.3464 0,0 0.863764,7.02063 -5.90569,8.13547"/>
     <path id="_143718752" class="fil1 str2" d="M16.8472 4.44196c0,0 -2.63144,-3.34454 -7.39224,-1.86809 0,0 -3.8568,1.29565 -5.33325,4.831 0,0 -4.37908,7.57304 2.98302,11.2692"/>
     <path id="_143718920" class="fil1 str2" d="M7.63705 0.996925c0,0 2.86249,-0.230964 2.69179,7.72371 -0.150667,7.92454 -2.01884,10.2145 -2.01884,10.2145"/>
     <path id="_143718968" class="fil1 str2" d="M9.67593 10.187c3.97734,0 7.16128,-2.08904 7.16128,-4.68033 0,-2.59129 -3.18394,-4.70054 -7.16128,-4.70054 -3.96723,0 -7.18131,2.10924 -7.18131,4.70054 0,2.59129 3.21407,4.68033 7.18131,4.68033z"/>
     <path id="_143719208" class="fil1 str2" d="M1.85189 5.60706c-0.482133,0.863764 -0.733215,1.82794 -0.733215,2.81224 0,3.82667 3.83668,6.94024 8.56735,6.94024 4.73058,0 8.56735,-3.11357 8.56735,-6.94024 0,-0.83363 -0.190902,-1.61701 -0.512266,-2.37034"/>
     <path id="_143719112" class="fil1 str2" d="M9.82659 5.72759c1.91843,-0.150667 3.38477,-1.17511 3.30439,-2.28996 -0.0802974,-1.11493 -1.70741,-1.89831 -3.59562,-1.74764 -1.91834,0.160682 -3.40489,1.18513 -3.30439,2.29997 0.0802974,1.10483 1.68729,1.90833 3.59562,1.73763z"/>
    </g>
   </g>
   <g>
    <rect id="_143719544" class="fil5 str0" x="90.8592" y="0.076936" width="19.698" height="19.698"/>
    <path id="_143719616" class="fil6 str3" d="M109.286 17.46l-17.1545 0 0 -15.068 17.1545 0 0 15.068zm-0.52054 -10.1922l0 -4.3554 -5.0583 0 0 4.0929 1.25018 -1.18339 1.68163 1.44588 2.12649 0zm0 1.82402l0 -1.51267 -1.76175 0 1.76175 1.51267zm-3.37667 -1.82402l-0.404797 -0.351497 -0.378147 0.351497 0.782944 0zm3.37667 5.01824l0 -2.12658 -3.01185 -2.58032 -1.47253 0 -0.573926 0.533865 0 4.17303 5.0583 0zm-5.36965 -5.01824l0 -4.3554 -5.39639 0 0 4.3554 5.39639 0zm5.36965 9.67166l0 -4.34207 -5.0583 0 0 4.34207 5.0583 0zm-5.65888 -9.36031l-5.10716 0 0 2.25556 1.44588 1.20115 3.66128 -3.45671zm0.289228 4.70689l0 -3.87048 -3.92386 3.71476 -1.47253 -1.22789 0 1.38361 5.39639 0zm-5.71227 -5.01824l0 -4.3554 -5.03157 0 0 4.3554 5.03157 0zm5.71227 9.67166l0 -4.34207 -5.39639 0 0 4.34207 5.39639 0zm-5.71227 -7.36272l0 -1.99759 -5.03157 0 0 4.28868 3.88824 -3.24316 1.14332 0.952073zm0 2.7093l0 -1.64157 -1.14332 -0.952073 -3.1053 2.59364 4.24862 0zm0 4.65342l0 -4.34207 -4.62677 0 -0.404797 0.338172 0 4.0039 5.03157 0z"/>
   </g>
  </g>
  <path class="fil1 str4" d="M104.936 35.8301c0,0.894332 -0.260836,1.66439 -0.794962,2.28543 -0.534213,0.633409 -1.17999,0.956515 -1.92522,0.956515 -0.757774,0 -1.39127,-0.323106 -1.91294,-0.956515 -0.521672,-0.621042 -0.782508,-1.3911 -0.782508,-2.28543 0,-0.894332 0.260836,-1.66447 0.782508,-2.29797 0.521672,-0.633496 1.15517,-0.943887 1.91294,-0.943887 0.745233,0 1.39101,0.310391 1.92522,0.943887 0.534126,0.633496 0.794962,1.40364 0.794962,2.29797zm-15.2407 -8.08609c0,1.11789 -0.335298,2.07423 -0.981249,2.88156 -0.658317,0.794962 -1.45328,1.2049 -2.40971,1.2049 -0.91924,0 -1.71412,-0.409935 -2.3848,-1.2049 -0.658404,-0.807329 -0.99379,-1.76367 -0.99379,-2.88156 0,-1.10561 0.335385,-2.06195 0.99379,-2.857 0.670684,-0.782508 1.46556,-1.17999 2.3848,-1.17999 0.956428,0 1.75139,0.397481 2.40971,1.17999 0.64595,0.795049 0.981249,1.75139 0.981249,2.857zm-17.725 -1.05589c0,1.14271 -0.335385,2.16124 -0.993615,3.06802 -0.670771,0.894332 -1.46573,1.34154 -2.38489,1.34154 -0.93152,0 -1.72657,-0.44721 -2.3848,-1.34154 -0.670771,-0.906786 -1.00616,-1.92531 -1.00616,-3.06802 0,-1.10544 0.335385,-2.07432 0.981336,-2.86928 0.65823,-0.794962 1.45328,-1.2049 2.40962,-1.2049 0.919153,0 1.71412,0.409935 2.38489,1.2049 0.65823,0.794962 0.993615,1.76384 0.993615,2.86928zm39.1887 19.3272c0.198653,0.298111 0.298111,0.596222 0.298111,0.906786 0,0.534126 -0.347839,1.27945 -1.01861,2.22333l-2.98102 4.14873 -0.993615 -2.58371 2.48417 -3.60206 -2.80728 -3.7138 0 7.46496 1.13043 3.30413 -0.47203 0.732779 0 3.88789 -0.54658 0 0 12.0111c0,1.09307 -0.521672,1.63957 -1.5651,1.63957 -1.01844,0 -1.52774,-0.546493 -1.52774,-1.63957l0 -12.0111 -0.509218 0 0 -3.88789 -0.807329 0 0 3.88789 -0.546667 0 0 12.0111c0,1.09307 -0.509218,1.63957 -1.52774,1.63957 -1.04343,0 -1.5651,-0.546493 -1.5651,-1.63957l0 -12.0111 -0.832063 0 0.981162 -7.9248 0 -7.46496 -1.52783 7.57679c-0.124104,0.695679 -0.583768,1.04334 -1.37873,1.01852 -0.807329,0 -1.329,-0.670684 -1.5651,-2.01223l-2.44689 -13.4645 -0.7205 0 0 9.65119 3.88789 10.1109 -3.88789 0 0 14.1229c0,1.35391 -0.65823,2.03696 -1.96241,2.03696 -1.26699,0 -1.90049,-0.683051 -1.90049,-2.03696l0 -14.1229 -1.01852 0 0 14.1229c0,1.35391 -0.621042,2.03696 -1.88803,2.03696 -1.29173,0 -1.92522,-0.683051 -1.92522,-2.03696l0 -14.1229 -4.01208 0 4.01208 -10.1109 0 -9.65119 -0.770141 0 -1.92522 13.5391c-0.17392,1.29173 -0.782595,1.93768 -1.82594,1.93768 -1.01861,0 -1.62711,-0.695505 -1.85067,-2.07423l-1.9254 -12.5205 -0.770054 0 0 33.0029c0,1.35391 -0.64595,2.03696 -1.92522,2.03696 -1.2919,0 -1.9254,-0.683051 -1.9254,-2.03696l0 -19.5385 -0.981162 0 0 19.5385c0,1.35391 -0.64595,2.03696 -1.93768,2.03696 -1.27945,0 -1.9254,-0.683051 -1.9254,-2.03696l0 -33.0029 -0.732779 0 -1.26691 12.5825c-0.149099,1.36628 -0.670771,2.03705 -1.5651,2.03705 -0.732779,0 -1.24217,-0.534039 -1.52783,-1.62711l-1.71412 -6.22296 -0.360119 0 0 7.27876 3.13012 8.07372 -3.13012 0 0 11.2783c0,1.09307 -0.509392,1.63957 -1.52783,1.63957 -1.01852,0 -1.52774,-0.546493 -1.52774,-1.63957l0 -11.2783 -0.807503 0 0 11.2783c0,1.09307 -0.521672,1.63957 -1.5651,1.63957 -1.01835,0 -1.52774,-0.546493 -1.52774,-1.63957l0 -11.2783 -3.16739 0 3.16739 -8.07372 0 -7.27876 -0.583768 0 0 6.22296c0,1.06816 -0.409848,1.60229 -1.22972,1.60229 -0.857058,0 -1.27936,-0.534126 -1.27936,-1.60229l0 -6.22296c0,-2.6209 1.416,-3.93745 4.26047,-3.93745l4.69522 0c2.32279,0 3.68907,1.329 4.07409,3.97472l0.322932 2.13642 0 -10.9804c0,-2.54618 1.42846,-3.82562 4.26047,-3.82562l7.93717 0c2.39717,0 3.72625,1.27945 3.96218,3.82562l1.01861 10.9804 0.509218 -9.8252c0.174007,-2.88156 1.59001,-4.32256 4.26047,-4.32256l7.93708 0c2.54644,0 3.96244,1.441 4.24801,4.32256l0.993703 9.8252 1.01852 -5.60192c0.161553,-0.894332 0.795049,-1.34154 1.88795,-1.34154l7.60178 0c0.707959,0 1.34145,0.44721 1.9004,1.34154l3.22958 5.2789zm-51.5974 -7.2414l-0.7576 -0.111824 0 -0.621129 0.7576 -0.136558 0 0.869512zm-0.583768 -1.63957l-0.471943 0.906612 0 0.621129 0.434669 0.881878 -1.26691 0 0.397394 -0.881878 0 -0.621129 -0.434669 -0.906612 1.34145 0zm-1.13035 1.52774c-0.894332,0 -1.46565,-0.260836 -1.70166,-0.794962 -0.397394,1.37873 -1.24217,2.07423 -2.54635,2.07423 -1.31655,0 -2.14887,-0.695505 -2.52144,-2.07423 -0.260836,0.534126 -0.844604,0.794962 -1.73894,0.794962l0 -0.621129c1.04334,-0.0372747 1.5651,-0.583768 1.5651,-1.62711 0,-0.732779 0.260836,-1.416 0.794788,-2.03705 0.534213,-0.633496 1.16762,-0.956515 1.90049,-0.956515 0.720413,0 1.35391,0.323019 1.88812,0.956515 0.533952,0.621042 0.794788,1.30427 0.794788,2.03705 0,1.04334 0.521672,1.58984 1.5651,1.62711l0 0.621129zm-8.26001 -1.52774l-0.471943 0.906612 0 0.621129 0.434669 0.881878 -1.30418 0 0.434669 -0.881878 0 -0.621129 -0.471943 -0.906612 1.37873 0zm-1.19244 1.52774l-0.770054 0.111824 0 -0.869512 0.770054 0.136558 0 0.621129z"/>
 </g>
</svg>
