<?xml version="1.0" encoding="UTF-8"?>
<!DOCTYPE svg PUBLIC "-//W3C//DTD SVG 1.1//EN" "http://www.w3.org/Graphics/SVG/1.1/DTD/svg11.dtd">
<!-- Creator: CorelDRAW -->
<svg xmlns="http://www.w3.org/2000/svg" xml:space="preserve" width="130.248mm" height="83.9323mm" style="shape-rendering:geometricPrecision; text-rendering:geometricPrecision; image-rendering:optimizeQuality; fill-rule:evenodd; clip-rule:evenodd"
viewBox="0 0 115.366 74.3423"
 xmlns:xlink="http://www.w3.org/1999/xlink">
 <defs>
  <style type="text/css">
   <![CDATA[
    .str0 {stroke:#373435;stroke-width:0.156245}
    .str4 {stroke:#CB7246;stroke-width:0.156245}
    .str3 {stroke:#077ABA;stroke-width:0.156245}
    .str1 {stroke:#252726;stroke-width:0.156245}
    .str2 {stroke:#FEFEFE;stroke-width:0.156245}
    .fil1 {fill:none}
    .fil4 {fill:#3E4095}
    .fil5 {fill:#50A8B1}
    .fil0 {fill:#718FC8}
    .fil2 {fill:#A7C4D2}
    .fil3 {fill:#CCE7D4}
    .fil6 {fill:#FEFEFE}
   ]]>
  </style>
 </defs>
 <g id="Layer_x0020_1">
  <metadata id="CorelCorpID_0Corel-Layer"/>
  <g id="_143719760">
   <g>
    <rect id="_296385000" class="fil0 str0" x="69.3248" y="0.0782466" width="20.0336" height="20.0336"/>
    <g>
     <path id="_296385360" class="fil1 str1" d="M76.8876 1.48016c3.44854,4.99841 3.44854,8.3823 3.07396,16.5579"/>
     <path id="_296384304" class="fil1 str1" d="M79.6774 6.98221c0.232507,-0.103277 0.865369,-0.787778 0.942871,-1.95022"/>
     <path id="_296384400" class="fil1 str1" d="M79.2512 7.04678c-0.155005,0.258371 -0.852437,0.826662 -1.71781,0.503721"/>
     <path id="_296385720" class="fil1 str1" d="M79.3933 6.00063c0.232507,-0.0903456 0.800798,-1.11072 0.749071,-2.04066"/>
     <path id="_143713064" class="fil1 str1" d="M78.9671 6.27184c-0.129141,0.258371 -1.05908,0.632862 -1.69194,0.258371"/>
     <path id="_143712992" class="fil1 str1" d="M79.0058 4.86405c0.232507,-0.0903456 0.671657,-1.04615 0.568291,-1.92436"/>
     <path id="_143713232" class="fil1 str1" d="M78.6313 5.3807c-0.142073,0.258282 -0.955803,0.503721 -1.54987,0.0645705"/>
     <path id="_143713184" class="fil1 str1" d="M78.6829 3.83083c0.232507,-0.193712 0.477857,-0.697432 0.37458,-1.57573"/>
     <path id="_143712392" class="fil1 str1" d="M78.2051 4.48955c-0.219575,0.219575 -0.645794,0.361648 -1.22702,-0.0645705"/>
     <path id="_143713472" class="fil1 str1" d="M78.218 3.0946c0.129141,-0.193712 0.426218,-0.955714 0.167848,-1.5628"/>
     <path id="_143713424" class="fil1 str1" d="M77.753 3.62419c-0.18078,0.0904341 -0.813641,0.206643 -1.14951,-0.335784"/>
     <path id="_143713616" class="fil1 str1" d="M77.6884 2.39717c0.129141,-0.400355 0.193712,-0.490789 0.129141,-1.05908"/>
     <path id="_143713640" class="fil1 str1" d="M77.2751 2.65554c-0.322941,0.0128432 -0.413287,0.0516387 -0.787866,-0.219575"/>
     <path id="_143713832" class="fil1 str1" d="M85.7478 2.34553c-4.50753,4.36546 -5.48911,7.89142 -7.55563,16.5062"/>
     <path id="_143713784" class="fil1 str1" d="M81.6794 7.40842c-0.167936,-0.154916 -0.529584,-1.03322 -0.232507,-2.27317"/>
     <path id="_143712344" class="fil1 str1" d="M82.0797 7.57636c0.0387069,0.297077 0.464925,1.08494 1.33029,0.955714"/>
     <path id="_143714072" class="fil1 str1" d="M82.2477 6.42685c-0.180868,-0.155005 -0.387512,-1.34323 -0.0775023,-2.28601"/>
     <path id="_143713016" class="fil1 str1" d="M82.506 6.82729c0.0516387,0.309921 0.749071,0.929851 1.42073,0.697432"/>
     <path id="_143712368" class="fil1 str1" d="M82.8935 5.36777c-0.180868,-0.155005 -0.297077,-1.26572 0.0516387,-2.15687"/>
     <path id="_143712080" class="fil1 str1" d="M83.0742 5.9877c0.0516387,0.284146 0.723296,0.736228 1.36909,0.426218"/>
     <path id="_143714312" class="fil1 str1" d="M83.4617 4.37326c-0.129141,-0.271214 -0.206643,-0.852437 0.155005,-1.74358"/>
     <path id="_143714552" class="fil1 str1" d="M83.72 5.17405c0.142073,0.284146 0.477857,0.529496 1.12365,0.219575"/>
     <path id="_143714720" class="fil1 str1" d="M84.0946 3.70169c-0.0517273,-0.219575 -0.0904341,-1.08494 0.322853,-1.65324"/>
     <path id="_143712296" class="fil1 str1" d="M84.3658 4.37326c0.129141,0.155005 0.671569,0.426218 1.11072,-0.0516387"/>
     <path id="_143715080" class="fil1 str1" d="M84.7791 3.0946c0.0129318,-0.426218 -0.0129318,-0.542428 0.206643,-1.12365"/>
     <path id="_143715416" class="fil1 str1" d="M85.0762 3.48211c0.284146,0.103277 0.348716,0.167848 0.762003,-0.0129318"/>
     <path id="_143715032" class="fil1 str1" d="M75.6348 7.46015c-0.852437,0.606998 -1.31736,3.12551 -2.78982,6.92277l2.5186 -5.23083c0,2.47981 3.64217,1.66608 3.06103,9.18301l-2.78982 -10.8749z"/>
    </g>
   </g>
   <g>
    <rect id="_143715728" class="fil2 str0" x="46.2425" y="0.0782466" width="20.0336" height="20.0336"/>
    <g>
     <path id="_143715776" class="fil1 str1" d="M56.404 11.195c1.3535,-1.09495 2.34208,-1.01896 3.3458,-0.958106 2.5093,0.136847 4.6233,1.84021 4.97308,2.37255 0.334544,0.532242 0.243313,0.364925 0.456245,0.395395 0.197697,0.0151462 0.44101,0.364925 0.669177,0.38016 -0.121701,0.167316 -0.745174,0.486626 -1.01896,-0.106466 -0.121701,-0.258548 -0.273782,-0.273694 -0.228167,-0.167316 0.0304695,0.121701 0.152082,0.441099 0.152082,0.441099l-0.106466 0.151993c0.182551,0.258636 0.243402,0.593181 0.243402,0.669177 0,0.0608504 0.243224,0.197786 0.243224,0.197786l-0.364925 0.425776 -0.501861 -0.136847 -0.136936 0.243313c-0.136847,-0.349779 -0.82117,-0.958106 -1.26227,-0.897255l-0.258459 1.4752 0.228078 1.1558 -0.501861 0.0608504 -0.167316 -0.517095 -0.243313 0 0.197697 -1.14066c0,0 -0.319398,-0.593092 -0.364925,-0.729939 -0.0457042,-0.136936 0.0303809,-0.365014 -0.15217,-0.136936"/>
     <g>
      <path id="_143715920" class="fil1 str1" d="M53.7401 13.4624c-1.08982,-0.486537 -2.72463,-1.22613 -2.78291,-3.42516 -0.0389726,-1.14827 0.116741,-3.19168 0.0582817,-3.54208 -0.0387954,-0.272454 -0.155625,-0.525421 -0.116652,-0.233481 0.0778566,0.720019 -0.506024,1.12879 -0.506024,0.233481 0,-0.914704 -0.0778566,-0.35031 -0.35031,-0.291852 -0.155713,0.0193977 -0.29194,0.291852 -0.29194,0.291852 0,0 -0.23357,-0.758903 0.35031,-0.895218 0.0584589,-0.272454 -0.175111,-1.01196 0.467051,-1.16767 0.642251,-0.136227 0.739505,0.214084 0.739505,0.506024 -0.0582817,-0.0778566 -0.486449,0.116741 -0.330736,0.116741 0.681135,0.0194863 1.08982,0.817362 1.71258,1.69318 0.856246,1.22604 1.90718,2.31586 4.32047,1.69318 2.08229,-0.52551 3.23056,-1.53756 3.40567,-1.88778 0.81745,1.18707 -0.447565,2.16023 -0.856246,2.37432"/>
      <path id="_143715992" class="fil1 str1" d="M50.6069 5.65829c0.0583703,0 0.116741,-0.0583703 0.116741,-0.0972543 0,-0.0583703 -0.0583703,-0.116741 -0.116741,-0.116741 -0.0778566,0 -0.136227,0.0583703 -0.136227,0.116741 0,0.038884 0.0583703,0.0972543 0.136227,0.0972543z"/>
     </g>
     <g>
      <path id="_143716160" class="fil1 str1" d="M48.6047 7.34961c-0.368911,0 -0.471303,0.0409212 -0.573783,0.266342 -0.081931,0.163951 -0.163951,0.286891 -0.225421,0.0614704 -0.081931,-0.389283 -0.450753,-0.614704 -1.04509,-0.614704 -0.184411,0 -0.0409212,0.10248 0.0410098,0.307352 0.0410098,0.225421 0.20496,0.594243 0.512312,0.594243 0.307352,0 0.594243,-0.0614704 0.491763,0.225421 -0.081931,0.266342 -0.0204606,0.553234 0.163951,0.758194 0.184411,0.245882 0.0410098,1.045 0.594243,1.00408 0.758194,-0.0614704 0.450842,-0.696724 0.594243,-0.901684 0.143401,-0.184411 0.307352,-0.594243 0.266342,-0.840125 -0.0409212,-0.143401 0,-0.122941 0.20496,-0.081931 0.204872,0.0204606 0.594243,0 0.901596,-0.266431 0.184411,-0.143401 0.266431,-0.0409212 0.0820196,-0.225332 -0.327901,-0.327901 -0.901684,-0.14349 -0.983615,0.0204606 -0.10248,0.163951 -0.286891,0.286891 -0.348362,0.10248 -0.122941,-0.368911 -0.225421,-0.389372 -0.676174,-0.409832z"/>
      <path id="_143716352" class="fil1 str1" d="M49.8955 12.4929c-0.0409212,-0.676263 -0.459522,-0.573074 -0.553234,-1.63933 -0.0701507,-0.798407 -0.398849,-0.6845 -0.489017,-0.865014"/>
      <path id="_143716304" class="fil1 str1" d="M49.4243 8.2102c0.225332,0.307352 0.450753,0.471391 0.881046,0.491852 0.594243,0.0409212 1.80328,0.245882 2.72542,0.245882"/>
     </g>
     <g>
      <path id="_143716688" class="fil1 str1" d="M54.8001 7.1768c1.66803,0.200975 4.05953,-0.160762 5.0241,-1.12533 0.34163,-0.321612 1.6279,-1.76856 1.72835,-1.98955 -0.120549,-0.120638 -0.824005,-0.824005 -1.30629,-0.723562 0.482286,-0.221081 2.06989,0.401949 2.49194,0.663243 0.422055,0.281311 1.98964,1.68813 0.96466,2.21063 -0.0602304,0.281311 -0.34163,0.643048 -0.482286,0.783703 -0.160762,0.160851 -0.160762,0.120638 -0.0603189,-0.120549 -0.180868,0.0602304 -0.422055,0.160762 -0.180868,-0.160762 0.241187,-0.301506 0.421967,-0.68326 -0.422055,-0.68326 -0.864129,0 -1.045,-0.160851 -1.14544,0.200975 -0.140744,0.381843 -0.221169,1.76838 -0.462268,2.69292 -0.241187,0.944554 -0.542605,1.045 -0.663154,1.40673 -0.120638,0.361737 0.180868,1.045 0.321524,1.3465"/>
      <path id="_143716784" class="fil1 str1" d="M62.7784 4.64465c-0.0603189,0 -0.120549,-0.0402126 -0.120549,-0.100443 0,-0.0603189 0.0602304,-0.100532 0.120549,-0.100532 0.0804253,0 0.140656,0.0402126 0.140656,0.100532 0,0.0602304 -0.0602304,0.100443 -0.140656,0.100443z"/>
      <path id="_143716568" class="fil1 str1" d="M61.9946 4.50399c0.502481,0.200975 1.12542,2.06998 -0.261205,2.3915 0.120549,-0.261294 0.0602304,-1.74845 -0.100532,-2.00966l0.361737 -0.381843z"/>
     </g>
     <g>
      <path id="_143717048" class="fil1 str1" d="M53.6088 11.0584c-0.113021,0.0451728 -0.519753,-0.372808 -0.41807,-0.248539 -0.101683,-0.135607 -0.564925,-0.531002 -0.632685,-0.610098 -0.0678477,-0.0904341 -0.0904341,-0.2938 -0.564925,0.169442 -0.47458,0.451905 -1.08468,0.982995 -1.2202,1.15244 -0.135607,0.169442 0.0338353,0.203366 0.0225864,0.271125 -0.0225864,0.0678477 0.203366,0.2938 0.248539,0.305049 0.0565103,0.0225864 0.225952,-0.0451728 0.225952,-0.0451728 0,0 0.542339,0.0339239 0.745705,0 0.203366,-0.0339239 0.610098,0.203366 0.655271,0.711781 0.0565103,0.508415 1.08468,1.66085 1.07334,1.89814 -0.0338353,0.598849 0.248627,1.34447 0.169531,1.50266 -0.0678477,0.146856 -0.271214,0.497166 -0.316387,0.542339l0.519753 0 -0.0225864 -0.203366c0.169442,-0.124269 0.214615,-0.225952 0.146856,-0.395483 -0.146856,-0.327636 0.0790966,-1.27671 0.440656,-1.52525 0.305049,-0.225952 0.169442,-0.0565103 0.632685,0 0.451905,0.0451728 1.97715,0.23729 2.73419,-0.610098 -0.101683,0.542339 0.338884,0.576174 0.406732,0.847388 0.0565103,0.192029 0.632685,1.24278 0.0903456,1.90939l0.542339 0 -0.124269 -0.361559c0.192029,-0.135607 0.259876,-0.135607 0.192029,-0.417981 -0.0790966,-0.316387 0.0113375,-0.858726 0.135607,-1.06209 0.113021,-0.203366 0.101683,-0.0790966 -0.0790966,-0.361559 -0.338973,-0.553588 0.271214,-1.90939 0.372897,-2.18052 0.101683,-0.271214 0.203366,-0.53109 0.158105,0.158105 -0.0564217,0.677946 0.0452614,1.38973 -0.0564217,1.63827 -0.135607,0.2938 -0.135607,0.836139 0,1.40098 0.135518,-0.338884 0.271125,-1.07334 0.124269,-1.38964 -0.0565103,-0.124269 0.0564217,-1.84163 0.0451728,-2.24836 0,-0.553588 -0.406732,-0.824802 -0.756954,-0.858637 -0.677946,-0.0678477 -3.55899,0.237201 -4.34987,0.0338353 -0.440656,-0.112932 -0.915147,-0.124269 -1.1411,-0.0225864z"/>
      <path id="_143717240" class="fil1 str1" d="M59.1449 14.3236c-0.0225864,-0.101683 -0.0451728,-0.248539 0,-0.474491 0.0225864,-0.214704 0.0225864,-0.519753 0.112932,-0.113021 0.0339239,0.169531 0.0225864,0.553677 0.0225864,0.689195 -0.0112489,0.338973 -0.124269,0 -0.135518,-0.101683z"/>
      <path id="_143717096" class="fil1 str1" d="M58.0376 13.9959c-0.101683,0.101683 -0.598761,0.463242 -0.869975,0.497166 -0.0225864,0.112932 0.18078,0.463154 0.282463,0.519664 -0.135607,0.553677 0.0451728,0.564925 0.18078,0.101683 0.0565103,0 0.0790966,0.0565103 0.169442,0.0678477 -0.158105,0.485829 0.0565103,0.54225 0.169531,0.0564217 0.0677592,0.022675 0.169442,0.0452614 0.169442,0.0452614 -0.0790966,0.485829 0.124269,0.508415 0.18078,0.0338353 0.0565103,0 0.338973,-0.0677592 0.338973,-0.0677592 -0.113021,-0.203366 -0.192117,-0.553588 -0.384146,-0.689195 -0.225952,-0.146856 -0.225952,-0.327636 -0.23729,-0.564925z"/>
     </g>
    </g>
   </g>
   <g>
    <rect id="_143717648" class="fil3 str0" x="23.1603" y="0.0782466" width="20.0336" height="20.0336"/>
    <path id="_143716520" class="fil1 str1" d="M40.4146 6.8047c0,0.251639 -0.0734279,0.468291 -0.22365,0.642959 -0.15031,0.178211 -0.331976,0.269177 -0.541719,0.269177 -0.213198,0 -0.391409,-0.0909656 -0.538176,-0.269177 -0.146767,-0.174668 -0.220107,-0.39132 -0.220107,-0.642959 0,-0.251639 0.0733393,-0.468291 0.220107,-0.646591 0.146767,-0.178211 0.324978,-0.265545 0.538176,-0.265545 0.209743,0 0.391409,0.087334 0.541719,0.265545 0.150222,0.1783 0.22365,0.394952 0.22365,0.646591zm-4.28796 -2.27503c0,0.314527 -0.0943314,0.583615 -0.276085,0.810719 -0.185208,0.22365 -0.408858,0.338973 -0.677946,0.338973 -0.258636,0 -0.482286,-0.115323 -0.671037,-0.338973 -0.185208,-0.227104 -0.27954,-0.496192 -0.27954,-0.810719 0,-0.311072 0.0943314,-0.58016 0.27954,-0.80381 0.188751,-0.220195 0.412401,-0.331976 0.671037,-0.331976 0.269088,0 0.492738,0.11178 0.677946,0.331976 0.181754,0.22365 0.276085,0.492738 0.276085,0.80381zm-4.9869 -0.297077c0,0.321524 -0.09442,0.608061 -0.279628,0.863243 -0.188663,0.25155 -0.412312,0.377414 -0.670949,0.377414 -0.262091,0 -0.48574,-0.125864 -0.670949,-0.377414 -0.188751,-0.255182 -0.283083,-0.541719 -0.283083,-0.863243 0,-0.310984 0.0943314,-0.583615 0.276085,-0.807264 0.185208,-0.22365 0.408858,-0.338973 0.677946,-0.338973 0.258636,0 0.482286,0.115323 0.670949,0.338973 0.185208,0.22365 0.279628,0.496281 0.279628,0.807264zm11.0257 5.43774c0.0558902,0.0837911 0.0838796,0.167671 0.0838796,0.255093 0,0.15031 -0.0978744,0.359965 -0.286626,0.62551l-0.838708 1.16723 -0.27954 -0.726927 0.698938 -1.01338 -0.789815 -1.04491 0 2.10027 0.317981 0.929585 -0.132773 0.2062 0 1.0938 -0.153765 0 0 3.37937c0,0.307529 -0.146767,0.461294 -0.440302,0.461294 -0.286537,0 -0.42985,-0.153765 -0.42985,-0.461294l0 -3.37937 -0.143313 0 0 -1.0938 -0.227104 0 0 1.0938 -0.153853 0 0 3.37937c0,0.307529 -0.143224,0.461294 -0.42985,0.461294 -0.293534,0 -0.440302,-0.153765 -0.440302,-0.461294l0 -3.37937 -0.234101 0 0.276085 -2.22959 0 -2.10027 -0.42985 2.13171c-0.0349868,0.195749 -0.164305,0.293534 -0.387954,0.286537 -0.227104,0 -0.373871,-0.188663 -0.440302,-0.566077l-0.688486 -3.78822 -0.202657 0 0 2.71533 1.0938 2.84464 -1.0938 0 0 3.97343c0,0.380957 -0.185208,0.573163 -0.552171,0.573163 -0.356422,0 -0.534633,-0.192206 -0.534633,-0.573163l0 -3.97343 -0.286626 0 0 3.97343c0,0.380957 -0.174668,0.573163 -0.531179,0.573163 -0.363419,0 -0.54163,-0.192206 -0.54163,-0.573163l0 -3.97343 -1.12879 0 1.12879 -2.84464 0 -2.71533 -0.216741 0 -0.54163 3.80913c-0.0488929,0.363508 -0.220195,0.545173 -0.51373,0.545173 -0.286537,0 -0.457751,-0.19566 -0.520638,-0.583526l-0.541719 -3.52268 -0.216652 0 0 9.28531c0,0.380957 -0.181754,0.573163 -0.541719,0.573163 -0.363419,0 -0.54163,-0.192206 -0.54163,-0.573163l0 -5.49708 -0.276085 0 0 5.49708c0,0.380957 -0.181754,0.573163 -0.545173,0.573163 -0.359965,0 -0.541719,-0.192206 -0.541719,-0.573163l0 -9.28531 -0.206112 0 -0.356511 3.54013c-0.0418955,0.384411 -0.188663,0.573074 -0.440302,0.573074 -0.2062,0 -0.349513,-0.150222 -0.42985,-0.457751l-0.482286 -1.75084 -0.101329 0 0 2.04792 0.880692 2.27148 -0.880692 0 0 3.17317c0,0.307529 -0.143313,0.461294 -0.42985,0.461294 -0.286537,0 -0.42985,-0.153765 -0.42985,-0.461294l0 -3.17317 -0.227193 0 0 3.17317c0,0.307529 -0.146767,0.461294 -0.440302,0.461294 -0.286537,0 -0.42985,-0.153765 -0.42985,-0.461294l0 -3.17317 -0.891144 0 0.891144 -2.27148 0 -2.04792 -0.164216 0 0 1.75084c0,0.300532 -0.115323,0.450753 -0.34597,0.450753 -0.241099,0 -0.359965,-0.150222 -0.359965,-0.450753l0 -1.75084c0,-0.737379 0.398406,-1.1078 1.19867,-1.1078l1.32099 0c0.6535,0 1.03791,0.373871 1.14624,1.11825l0.090877 0.601152 0 -3.08938c0,-0.716387 0.401861,-1.07635 1.19867,-1.07635l2.23313 0c0.674403,0 1.04836,0.359965 1.11479,1.07635l0.286537 3.08938 0.143224 -2.76431c0.0489815,-0.810807 0.447388,-1.21621 1.19876,-1.21621l2.23304 0c0.716476,0 1.11479,0.405404 1.19522,1.21621l0.27954 2.76431 0.286537 -1.57618c0.0454385,-0.25155 0.223738,-0.377414 0.531179,-0.377414l2.1388 0c0.199203,0 0.377414,0.125864 0.534633,0.377414l0.908681 1.4853zm-14.5169 -2.03738l-0.213109 -0.0314438 0 -0.174757 0.213109 -0.0384411 0 0.244642zm-0.164216 -0.461294l-0.132773 0.255093 0 0.174757 0.122321 0.248096 -0.356511 0 0.111869 -0.248096 0 -0.174757 -0.122321 -0.255093 0.377414 0zm-0.317981 0.42985c-0.251639,0 -0.412401,-0.0734279 -0.478831,-0.223738 -0.11178,0.387954 -0.349425,0.583615 -0.716387,0.583615 -0.370417,0 -0.604518,-0.19566 -0.70939,-0.583615 -0.0734279,0.15031 -0.237644,0.223738 -0.489283,0.223738l0 -0.174757c0.293623,-0.0105403 0.44039,-0.164305 0.44039,-0.457839 0,-0.2062 0.0733393,-0.398406 0.22365,-0.573074 0.150222,-0.178211 0.328433,-0.269177 0.534633,-0.269177 0.202746,0 0.380957,0.0909656 0.531267,0.269177 0.150222,0.174668 0.223561,0.366874 0.223561,0.573074 0,0.293534 0.146767,0.447299 0.44039,0.457839l0 0.174757zm-2.32401 -0.42985l-0.132773 0.255093 0 0.174757 0.122321 0.248096 -0.366962 0 0.122321 -0.248096 0 -0.174757 -0.132773 -0.255093 0.387866 0zm-0.33543 0.42985l-0.216652 0.0314438 0 -0.244642 0.216652 0.0384411 0 0.174757z"/>
   </g>
   <g>
    <rect id="_143718056" class="fil4 str0" x="0.0780866" y="0.0782466" width="20.0336" height="20.0336"/>
    <g>
     <polygon id="_143718104" class="fil1 str2" points="3.93659,12.1686 5.19301,11.668 6.32685,11.7498 5.78548,10.3401 5.22366,10.0235 5.10107,10.5444 4.15111,8.89983 3.99788,7.10205 3.60975,6.38699 4.20222,4.88539 4.82525,5.83535 5.84677,5.98858 6.74571,6.88752 7.61392,6.59124 8.06343,7.10205 9.84076,6.01923 10.6274,6.55041 9.84076,7.52082 11.4649,7.49018 11.2504,8.859 10.6784,9.33907 10.4742,10.3708 9.57521,11.382 9.31985,12.1686 9.14616,11.5148 7.81826,11.239 6.74571,11.8417 6.89895,12.4649 7.5629,12.4137 7.44031,13.0062 7.85909,13.1288 8.03278,13.425 9.11551,13.8439 8.87034,15.376 8.24731,16.2443 8.24731,17.5825 9.02357,18.8286 8.60479,18.8286 7.31772,17.7459 6.23491,17.2045 5.3667,15.6315 4.05917,14.8347 "/>
     <polygon id="_143718272" class="fil1 str2" points="11.5569,6.31542 12.8031,6.81595 12.9154,8.3993 11.5875,9.48203 11.7919,7.766 "/>
     <path id="_143718320" class="fil1 str2" d="M8.40045 1.01391l-1.31772 1.29734 -0.633305 0.0306466 -1.1543 1.02144 0 0.286006 -0.970329 0.919399 -0.796812 -1.08282c0,0 1.76714,-2.16555 4.87246,-2.47201z"/>
     <path id="_143718488" class="fil1 str2" d="M13.1402 1.35102l1.03171 1.80806 0.224712 1.58326 0.561825 0.0306466 0.337024 -0.459611 0.490346 1.17467 -0.163419 1.28707 0.663951 0.755891 0.286006 -0.755891 -0.0408326 -0.296192 0.500532 -0.326927 0.255359 0.715059 0.408592 -1.62418c0,0 -1.73649,-2.67627 -4.55581,-3.89186z"/>
     <path id="_143718536" class="fil1 str2" d="M14.2434 18.2363l0.980604 -1.19522 1.26661 -2.70691 -0.296192 -1.24624 -1.3279 -0.163419 0.469885 -1.88973 -0.0817539 -1.06236 1.06236 -2.2473 0.715059 0.592472 0.694598 -0.469885 0.265545 -2.07361c0,0 4.07574,7.43641 -3.74881,12.4622z"/>
     <path id="_143718704" class="fil1 str2" d="M3.77317 3.23056c0,0 2.47201,-1.97148 5.85315,-0.623119 0,0 5.34235,1.28707 6.0063,8.48859 0,0 0.878478,7.14022 -6.0063,8.27406"/>
     <path id="_143718752" class="fil1 str2" d="M17.1342 4.51763c0,0 -2.67627,-3.40151 -7.51817,-1.89991 0,0 -3.9225,1.31772 -5.4241,4.91329 0,0 -4.45368,7.70205 3.03384,11.4611"/>
     <path id="_143718920" class="fil1 str2" d="M7.76715 1.01391c0,0 2.91125,-0.234898 2.73765,7.85528 -0.153233,8.05953 -2.05324,10.3885 -2.05324,10.3885"/>
     <path id="_143718968" class="fil1 str2" d="M9.84076 10.3605c4.04509,0 7.28327,-2.12463 7.28327,-4.76006 0,-2.63543 -3.23818,-4.78061 -7.28327,-4.78061 -4.03481,0 -7.30364,2.14518 -7.30364,4.78061 0,2.63543 3.26883,4.76006 7.30364,4.76006z"/>
     <path id="_143719208" class="fil1 str2" d="M1.88344 5.70258c-0.490346,0.878478 -0.745705,1.85908 -0.745705,2.86015 0,3.89186 3.90204,7.05847 8.7133,7.05847 4.81117,0 8.7133,-3.16661 8.7133,-7.05847 0,-0.847831 -0.194154,-1.64455 -0.520993,-2.41072"/>
     <path id="_143719112" class="fil1 str2" d="M9.99399 5.82516c1.95111,-0.153233 3.44243,-1.19513 3.36068,-2.32897 -0.0816653,-1.13393 -1.73649,-1.93065 -3.65687,-1.77742 -1.95102,0.163419 -3.46289,1.20532 -3.36068,2.33915 0.0816653,1.12365 1.71603,1.94084 3.65687,1.76723z"/>
    </g>
   </g>
   <g>
    <rect id="_143719544" class="fil5 str0" x="92.407" y="0.0782466" width="20.0336" height="20.0336"/>
    <path id="_143719616" class="fil6 str3" d="M111.147 17.7574l-17.4467 0 0 -15.3247 17.4467 0 0 15.3247zm-0.529407 -10.3658l0 -4.42959 -5.14447 0 0 4.16263 1.27148 -1.20354 1.71028 1.47051 2.16271 0zm0 1.8551l0 -1.53844 -1.79176 0 1.79176 1.53844zm-3.43419 -1.8551l-0.411692 -0.357485 -0.384589 0.357485 0.796281 0zm3.43419 5.10373l0 -2.1628 -3.06316 -2.62427 -1.49761 0 -0.583703 0.542959 0 4.24412 5.14447 0zm-5.46112 -5.10373l0 -4.42959 -5.48832 0 0 4.42959 5.48832 0zm5.46112 9.83642l0 -4.41604 -5.14447 0 0 4.41604 5.14447 0zm-5.75528 -9.51976l-5.19416 0 0 2.29398 1.47051 1.22161 3.72365 -3.51559zm0.294155 4.78707l0 -3.93641 -3.9907 3.77804 -1.49761 -1.24881 0 1.40718 5.48832 0zm-5.80957 -5.10373l0 -4.42959 -5.11728 0 0 4.42959 5.11728 0zm5.80957 9.83642l0 -4.41604 -5.48832 0 0 4.41604 5.48832 0zm-5.80957 -7.48814l0 -2.03162 -5.11728 0 0 4.36174 3.95448 -3.29841 1.1628 0.968292zm0 2.75545l0 -1.66953 -1.1628 -0.968292 -3.1582 2.63782 4.321 0zm0 4.73269l0 -4.41604 -4.70559 0 -0.411692 0.343933 0 4.0721 5.11728 0z"/>
   </g>
  </g>
  <g id="_296377272">
   <path id="_296382024" class="fil1 str4" d="M79.6411 52.7723c5.09903,-4.12481 8.82295,-3.83853 12.6042,-3.6093 9.45325,0.51559 17.4169,6.93234 18.7345,8.93766 1.26059,2.00514 0.916742,1.37502 1.71887,1.48964 0.744731,0.0573074 1.66147,1.37494 2.52091,1.43224 -0.458282,0.630116 -2.80727,1.83322 -3.83862,-0.401152 -0.458194,-0.973783 -1.03127,-1.03109 -0.859346,-0.630205 0.114615,0.458459 0.572809,1.66147 0.572809,1.66147l-0.400886 0.572897c0.687423,0.974049 0.916742,2.23437 0.916742,2.52091 0,0.22923 0.916476,0.744731 0.916476,0.744731l-1.37502 1.60425 -1.89044 -0.51559 -0.515767 0.916742c-0.51559,-1.31789 -3.0938,-3.60957 -4.75528,-3.38034l-0.973783 5.5574 0.859346 4.35404 -1.8907 0.22923 -0.630205 -1.94801 -0.916653 0 0.744731 -4.29682c0,0 -1.20319,-2.23428 -1.37494,-2.75014 -0.171922,-0.515501 0.114615,-1.37494 -0.573074,-0.515501"/>
   <g>
    <path id="_296374656" class="fil1 str4" d="M69.6061 61.3143c-4.10567,-1.83286 -10.2642,-4.61905 -10.4839,-12.9034 -0.146679,-4.32569 0.439682,-12.0237 0.219664,-13.3434 -0.146324,-1.0264 -0.58636,-1.97954 -0.439682,-0.879718 0.293357,2.71249 -1.9062,4.25226 -1.9062,0.879718 0,-3.44597 -0.293269,-1.31975 -1.31975,-1.09974 -0.58636,0.0733393 -1.09974,1.09974 -1.09974,1.09974 0,0 -0.879718,-2.85926 1.31975,-3.37264 0.220018,-1.0264 -0.6597,-3.81232 1.75952,-4.39868 2.41949,-0.513375 2.78592,0.806378 2.78592,1.90611 -0.219752,-0.293269 -1.83286,0.43977 -1.24615,0.43977 2.5659,0.0733393 4.10567,3.07928 6.45156,6.37848 3.22587,4.6187 7.18486,8.72437 16.2759,6.37848 7.84465,-1.97945 12.1703,-5.79204 12.83,-7.11152 3.07928,4.47202 -1.6861,8.13801 -3.22587,8.94439"/>
    <path id="_296377248" class="fil1 str4" d="M57.8025 31.9148c0.219929,0 0.439859,-0.219929 0.439859,-0.36652 0,-0.219929 -0.219929,-0.439859 -0.439859,-0.439859 -0.293269,0 -0.513198,0.219929 -0.513198,0.439859 0,0.14659 0.219929,0.36652 0.513198,0.36652z"/>
   </g>
   <g>
    <path id="_296377344" class="fil1 str4" d="M50.2597 38.2861c-1.38946,0 -1.77547,0.154385 -2.16147,1.00354 -0.308769,0.617538 -0.617538,1.08069 -0.849071,0.231621 -0.308769,-1.4667 -1.69832,-2.31586 -3.93694,-2.31586 -0.694775,0 -0.154385,0.386006 0.154385,1.15793 0.154385,0.84916 0.771923,2.23862 1.92985,2.23862 1.15793,0 2.23862,-0.231621 1.8527,0.84916 -0.308769,1.00354 -0.0772366,2.08424 0.617538,2.85616 0.694775,0.926308 0.154385,3.93694 2.23862,3.78256 2.85616,-0.231621 1.69832,-2.62463 2.23862,-3.39655 0.54039,-0.694775 1.15793,-2.23862 1.00354,-3.16502 -0.154385,-0.540302 0,-0.463154 0.771923,-0.308769 0.771923,0.0772366 2.23862,0 3.39655,-1.00354 0.694775,-0.540302 1.00354,-0.154385 0.308769,-0.849071 -1.23508,-1.23517 -3.39655,-0.54039 -3.70532,0.077148 -0.385917,0.617538 -1.08069,1.08069 -1.31231,0.386006 -0.463154,-1.38955 -0.849071,-1.4667 -2.54739,-1.54393z"/>
    <path id="_296377080" class="fil1 str4" d="M55.1229 57.662c-0.154385,-2.54757 -1.73118,-2.15873 -2.08424,-6.17556 -0.264394,-3.00771 -1.50266,-2.57875 -1.84243,-3.25855"/>
    <path id="_296377392" class="fil1 str4" d="M53.3475 41.5282c0.849071,1.15802 1.69814,1.77573 3.31914,1.85297 2.23862,0.154119 6.79319,0.926219 10.2671,0.926219"/>
   </g>
   <g>
    <path id="_296377464" class="fil1 str4" d="M73.5991 37.6352c6.28371,0.757308 15.2928,-0.605492 18.9266,-4.23933 1.28707,-1.21143 6.1326,-6.66245 6.5109,-7.49514 -0.454031,-0.454385 -3.10399,-3.10399 -4.92091,-2.72569 1.81692,-0.832685 7.79771,1.51435 9.3877,2.4985 1.58973,1.05988 7.49514,6.35944 3.63384,8.32782 -0.226927,1.05997 -1.2868,2.42277 -1.81692,2.95262 -0.605492,0.605758 -0.605492,0.454296 -0.227193,-0.454119 -0.681223,0.226927 -1.58973,0.605581 -0.681223,-0.605847 0.908416,-1.13561 1.58973,-2.57387 -1.58999,-2.57387 -3.25519,0 -3.93676,-0.605847 -4.31506,0.756954 -0.530116,1.43862 -0.833039,6.6621 -1.74154,10.1447 -0.908416,3.55846 -2.04402,3.93676 -2.49814,5.29956 -0.454385,1.36289 0.681312,3.93676 1.21143,5.07246"/>
    <path id="_296375352" class="fil1 str4" d="M103.655 28.0962c-0.227104,0 -0.454208,-0.151462 -0.454208,-0.378566 0,-0.227104 0.227104,-0.378566 0.454208,-0.378566 0.302835,0 0.529939,0.151462 0.529939,0.378566 0,0.227104 -0.227104,0.378566 -0.529939,0.378566z"/>
    <path id="_296377584" class="fil1 str4" d="M100.702 27.5663c1.89265,0.757043 4.2396,7.79788 -0.984235,9.00913 0.454296,-0.984147 0.227104,-6.58655 -0.378477,-7.57069l1.36271 -1.43844z"/>
   </g>
   <g>
    <path id="_296386920" class="fil1 str4" d="M69.111 52.2579c-0.425687,0.170239 -1.95793,-1.40461 -1.57485,-0.936405 -0.383083,-0.510718 -2.12817,-2.00045 -2.38353,-2.29841 -0.255359,-0.340479 -0.340479,-1.10656 -2.12817,0.638442 -1.7876,1.70257 -4.08601,3.70302 -4.59673,4.34146 -0.510807,0.638442 0.127635,0.766077 0.0851197,1.02152 -0.0851197,0.255359 0.766077,1.10664 0.936405,1.14916 0.212755,0.0851197 0.851197,-0.170239 0.851197,-0.170239 0,0 2.04305,0.127724 2.80913,0 0.766166,-0.127724 2.29841,0.766166 2.46865,2.68149 0.212844,1.91533 4.0861,6.2567 4.0435,7.1505 -0.127724,2.2558 0.936405,5.06502 0.638442,5.66086 -0.255359,0.553322 -1.02152,1.87281 -1.19176,2.04305l1.95793 0 -0.0851197 -0.766166c0.638442,-0.468203 0.808681,-0.851285 0.553234,-1.48973 -0.553234,-1.23428 0.297963,-4.80957 1.65997,-5.74598 1.14925,-0.851197 0.638442,-0.212755 2.38353,0 1.70248,0.170328 7.44846,0.89389 10.3002,-2.29832 -0.383083,2.04296 1.27688,2.17068 1.53224,3.19221 0.212844,0.723562 2.38353,4.68185 0.340567,7.1931l2.04296 0 -0.468203 -1.362c0.723562,-0.510807 0.979009,-0.510807 0.723562,-1.57485 -0.297875,-1.19176 0.0426041,-3.23481 0.510807,-4.00089 0.425598,-0.766166 0.383083,-0.297963 -0.297963,-1.362 -1.27688,-2.08557 1.02152,-7.1931 1.40461,-8.21463 0.382994,-1.02152 0.766077,-2.00045 0.595838,0.595838 -0.212844,2.55377 0.170239,5.23526 -0.212844,6.17166 -0.510718,1.10656 -0.510718,3.14961 0,5.27777 0.510807,-1.27688 1.02152,-4.0435 0.468203,-5.23526 -0.212755,-0.468203 0.212844,-6.93774 0.170239,-8.46998 0,-2.08557 -1.53224,-3.10709 -2.85164,-3.23481 -2.55377,-0.255359 -13.4073,0.89389 -16.3867,0.127724 -1.65988,-0.425598 -3.44757,-0.468203 -4.29877,-0.0851197z"/>
    <path id="_296377200" class="fil1 str4" d="M89.9667 64.5585c-0.0851197,-0.383083 -0.170239,-0.936405 0,-1.7876 0.0851197,-0.808681 0.0851197,-1.95793 0.425598,-0.425687 0.127724,0.638442 0.0851197,2.08565 0.0851197,2.59637 -0.0425156,1.27688 -0.468203,0 -0.510718,-0.383083z"/>
    <path id="_296377488" class="fil1 str4" d="M85.7956 63.3243c-0.383083,0.382994 -2.25589,1.74509 -3.27733,1.87272 -0.0851197,0.425598 0.680957,1.74509 1.06404,1.95793 -0.510718,2.08557 0.170239,2.12808 0.680957,0.382994 0.212844,0 0.297963,0.212844 0.638442,0.255448 -0.595838,1.83021 0.212844,2.04296 0.638442,0.212755 0.255448,0.0851197 0.638442,0.170239 0.638442,0.170239 -0.297875,1.83021 0.468203,1.91533 0.681046,0.127724 0.212844,0 1.27688,-0.255359 1.27688,-0.255359 -0.425598,-0.766166 -0.723562,-2.08557 -1.44712,-2.59637 -0.851285,-0.553322 -0.851285,-1.23428 -0.893801,-2.12808z"/>
   </g>
  </g>
 </g>
</svg>
