<?xml version="1.0" encoding="UTF-8"?>
<!DOCTYPE svg PUBLIC "-//W3C//DTD SVG 1.1//EN" "http://www.w3.org/Graphics/SVG/1.1/DTD/svg11.dtd">
<!-- Creator: CorelDRAW -->
<svg xmlns="http://www.w3.org/2000/svg" xml:space="preserve" width="42.0003mm" height="38.6479mm" style="shape-rendering:geometricPrecision; text-rendering:geometricPrecision; image-rendering:optimizeQuality; fill-rule:evenodd; clip-rule:evenodd"
viewBox="0 0 12.7241 11.7085"
 xmlns:xlink="http://www.w3.org/1999/xlink">
 <defs>
  <style type="text/css">
   <![CDATA[
    .fil0 {fill:#96989A}
    .fil1 {fill:#E6E7E8}
   ]]>
  </style>
 </defs>
 <g id="Layer_x0020_1">
  <metadata id="CorelCorpID_0Corel-Layer"/>
  <g id="_139767408">
   <path id="_211206536" class="fil0" d="M1.1189 1.66867l8.86046 0 0 8.95119 -8.86046 0 0 -8.95119zm-1.1189 -1.08866l11.1285 0 0 11.1285 -11.1285 0 0 -11.1285z"/>
   <path id="_211192568" class="fil1" d="M12.4599 0l0.264206 0.374481c-1.07218,0.807978 -2.26491,2.04945 -3.57561,3.72697 -1.3133,1.68009 -2.3162,3.2473 -3.00621,4.70424l-0.556587 0.377056c-0.461702,0.320616 -0.774653,0.556587 -0.938793,0.713062 -0.0641353,-0.235971 -0.207766,-0.620722 -0.428377,-1.15683l-0.210311 -0.489907c-0.300106,-0.700247 -0.579702,-1.21839 -0.838758,-1.5544 -0.256511,-0.336006 -0.546347,-0.559162 -0.866993,-0.669467 0.541227,-0.572007 1.03628,-0.856723 1.48772,-0.856723 0.384751,0 0.813098,0.523262 1.28507,1.57236l0.233426 0.525837c0.846453,-1.42873 1.934,-2.81638 3.26012,-4.16301 1.32866,-1.3492 2.624,-2.38291 3.89111,-3.10367z"/>
  </g>
 </g>
</svg>
