<?xml version="1.0" encoding="UTF-8"?>
<!DOCTYPE svg PUBLIC "-//W3C//DTD SVG 1.1//EN" "http://www.w3.org/Graphics/SVG/1.1/DTD/svg11.dtd">
<!-- Creator: CorelDRAW -->
<svg xmlns="http://www.w3.org/2000/svg" xml:space="preserve" width="33.5993mm" height="33.7616mm" style="shape-rendering:geometricPrecision; text-rendering:geometricPrecision; image-rendering:optimizeQuality; fill-rule:evenodd; clip-rule:evenodd"
viewBox="0 0 7.71385 7.75111"
 xmlns:xlink="http://www.w3.org/1999/xlink">
 <defs>
  <style type="text/css">
   <![CDATA[
    .fil70 {fill:#A6A6A6}
    .fil88 {fill:#C7C7C7}
    .fil91 {fill:#C8C8C8}
    .fil95 {fill:#CACACA}
    .fil97 {fill:#CBCBCB}
    .fil87 {fill:#CCCCCC}
    .fil85 {fill:#CDCDCD}
    .fil81 {fill:#CECECE}
    .fil82 {fill:#D1D1D1}
    .fil90 {fill:#D2D2D2}
    .fil86 {fill:lightgrey}
    .fil83 {fill:#D5D5D5}
    .fil93 {fill:#D7D7D7}
    .fil89 {fill:#D8D8D8}
    .fil84 {fill:#D9D9D9}
    .fil96 {fill:#DADADA}
    .fil94 {fill:gainsboro}
    .fil92 {fill:#DDDDDD}
    .fil74 {fill:#E1E1E1}
    .fil76 {fill:#E3E3E3}
    .fil79 {fill:#E4E4E4}
    .fil75 {fill:#E5E5E5}
    .fil78 {fill:#E7E7E7}
    .fil80 {fill:#E9E9E9}
    .fil73 {fill:#EFEFEF}
    .fil77 {fill:#F1F1F1}
    .fil72 {fill:#FCFCFC}
    .fil71 {fill:#FDFDFD}
    .fil8 {fill:#FECD03}
    .fil6 {fill:#FEDE00}
    .fil17 {fill:#FEE85A}
    .fil27 {fill:#FEEA0C}
    .fil22 {fill:#FEEC63}
    .fil36 {fill:#FEED05}
    .fil41 {fill:#FEF26B}
    .fil56 {fill:#FEF6A2}
    .fil65 {fill:#FEF6E3}
    .fil40 {fill:#FEFEF2}
    .fil21 {fill:#FEFEF6}
    .fil7 {fill:#FFB201}
    .fil69 {fill:#FFB324}
    .fil32 {fill:#FFB901}
    .fil23 {fill:#FFB905}
    .fil59 {fill:#FFBC01}
    .fil0 {fill:#FFBF01}
    .fil15 {fill:#FFC005}
    .fil13 {fill:#FFC502}
    .fil29 {fill:#FFC700}
    .fil2 {fill:#FFC800}
    .fil57 {fill:#FFCA36}
    .fil20 {fill:#FFD204}
    .fil42 {fill:#FFD30C}
    .fil5 {fill:#FFD600}
    .fil51 {fill:#FFD717}
    .fil35 {fill:#FFD800}
    .fil24 {fill:#FFDB02}
    .fil11 {fill:#FFDC05}
    .fil16 {fill:#FFE405}
    .fil64 {fill:#FFE448}
    .fil63 {fill:#FFE468}
    .fil33 {fill:#FFE500}
    .fil1 {fill:#FFE904}
    .fil25 {fill:#FFEC4B}
    .fil58 {fill:#FFED09}
    .fil60 {fill:#FFF12D}
    .fil52 {fill:#FFF13A}
    .fil38 {fill:#FFF246}
    .fil10 {fill:#FFF249}
    .fil37 {fill:#FFF35B}
    .fil26 {fill:#FFF55E}
    .fil54 {fill:#FFF56A}
    .fil30 {fill:#FFF56E}
    .fil49 {fill:#FFF67A}
    .fil28 {fill:#FFF686}
    .fil31 {fill:#FFF689}
    .fil67 {fill:#FFF68D}
    .fil39 {fill:#FFF692}
    .fil43 {fill:#FFF69B}
    .fil66 {fill:#FFF7E8}
    .fil14 {fill:#FFF896}
    .fil48 {fill:#FFF9A1}
    .fil47 {fill:#FFF9A5}
    .fil19 {fill:#FFF9AA}
    .fil61 {fill:#FFF9EC}
    .fil12 {fill:#FFFAB6}
    .fil34 {fill:#FFFABD}
    .fil55 {fill:#FFFBAC}
    .fil4 {fill:#FFFBCA}
    .fil50 {fill:#FFFCCE}
    .fil46 {fill:#FFFCD1}
    .fil3 {fill:#FFFCD6}
    .fil62 {fill:#FFFCD9}
    .fil45 {fill:#FFFCE6}
    .fil18 {fill:#FFFDE1}
    .fil9 {fill:#FFFDE9}
    .fil53 {fill:#FFFEED}
    .fil68 {fill:#FFFEF9}
    .fil44 {fill:#FFFFFE}
   ]]>
  </style>
 </defs>
 <g id="Layer_x0020_1">
  <metadata id="CorelCorpID_0Corel-Layer"/>
  <g id="_211193240">
   <g>
    <path id="_141734648" class="fil0" d="M2.80108 5.13521c0,0 0,0 0,0 0.0842113,0.118718 0.112289,0.148403 0.252657,0.237458 0.0842113,0.0593703 0.168446,0.0890555 0.252657,0.148426 -0.673759,-0.178111 -0.393024,-0.148426 -0.645681,-0.237481l-0.0280781 0.0593703 0.0280781 0.0296852c0.56147,0.593658 1.5721,0.712398 2.30199,0.237458 0.224579,-0.148403 0.364946,-0.267144 0.505314,-0.474917 0.196501,-0.237481 0.224579,-0.267167 0.364946,-0.623366l-0.0561562 -0.0593474 -0.140367 0.207773c-0.112289,0.207773 -0.168423,0.237458 -0.30879,0.385884 -0.0561562,0.0593703 -0.112289,0.118741 -0.196524,0.148403l0.224602 -0.326514c0.196501,-0.267144 0.421079,-0.949857 0.30879,-1.24669 -0.0280781,0.148403 -0.0280781,0.237458 -0.112289,0.356199 -0.140367,0.178088 -0.0280781,0.148403 -0.140367,0.296829l-0.421079 0.445255 -0.336891 0.237458c-0.729893,0.385884 -1.26328,0.148426 -1.65631,0.118741 -0.112289,0 -0.140345,-0.0296852 -0.196501,0.0593703z"/>
    <path id="_141734528" class="fil1" d="M2.52035 2.84959c0,0.296829 -0.112289,0.771769 0.0842343,1.00923 0.0280551,0.0296852 0.0842113,0.0593703 0.0842113,0.118741 0.140367,0.237458 0.140367,0.207773 0.336868,0.385884 0.0842343,0.0593703 0.112289,0.0890555 0.224579,0.118718 0.505314,0.148426 0.954494,0.207796 1.40365,-0.148403 0.140367,-0.148426 0.168446,-0.207796 0.252657,-0.356199 0.140367,-0.207796 0.0561562,0.0593703 0.168446,-0.326514 0.0561332,-0.118741 0.0561332,-0.148426 0.0561332,-0.356199 -0.393001,0.296829 -0.477236,0.563972 -0.729893,0.771769 -0.0842113,0.0593474 -0.196501,0.118718 -0.30879,0.148403 -0.421102,0.148426 -0.814127,-0.0593703 -1.01063,-0.385884 -0.0561562,-0.118718 -0.112289,-0.237458 -0.112289,-0.356199 -0.0842343,-0.0593703 -0.168446,-0.178088 -0.224602,-0.296829 -0.0280551,-0.0890555 -0.0842113,-0.207773 -0.0842113,-0.296829l0.0280781 -0.0890555 0 -0.118741 -0.140367 0c0.0280781,0.118741 0,0.0593703 -0.0280781,0.178111z"/>
    <path id="_141734408" class="fil2" d="M2.23961 3.91819c0,0.207773 0.112312,0.53431 0.196524,0.682713 0.0842113,0.178111 0.280735,0.445255 0.364946,0.53431 0.0561562,-0.0890555 0.0842113,-0.0593703 0.196501,-0.0593703 0.393024,0.0296852 0.926416,0.267144 1.65631,-0.118741l0.336891 -0.237458 0.421079 -0.445255c0.112289,-0.148426 0,-0.118741 0.140367,-0.296829 0.0842113,-0.118741 0.0842113,-0.207796 0.112289,-0.356199 0,-0.148426 -0.0842113,-0.53431 -0.168446,-0.653028l-0.0561332 -0.0890555c0.0280781,0.504625 -0.0280781,0.979542 -0.280735,1.36543 -0.0561332,0.0593703 -0.364946,0.356199 -0.449158,0.415569 -0.617603,0.356199 -1.26328,0.356199 -1.88089,-0.0296852l-0.0842343 -0.0890555c-0.0280551,-0.0296852 -0.0561332,-0.0593703 -0.0842113,-0.0890326 -0.112289,-0.148426 -0.0280781,0.0296622 -0.196501,-0.207796l-0.0561562 -0.0593703c0,-0.0296852 0,-0.0296852 0,-0.0296852 -0.0842113,-0.148403 0,-0.0296852 -0.168446,-0.237458 0,0 0,0 0,0z"/>
    <path id="_141734288" class="fil3" d="M3.69942 3.76976l0.364946 0c0.112289,-0.148403 0.421102,-0.267144 0.30879,-0.801431 -0.0280551,-0.0890555 -0.140345,-0.267167 -0.196501,-0.326514 -0.0561562,-0.0296852 -0.112289,-0.0890555 -0.168446,-0.118741 0,0 0,0 0,0 -0.0280551,0 -0.0280551,0 -0.0280551,0 -0.0280781,-0.0296852 -0.0280781,-0.0296852 -0.0842343,-0.0296852 -0.673736,-0.178111 -0.814104,0.860824 -0.421079,1.18734 0.112289,0.0593703 0.112289,0.0296852 0.224579,0.0890326z"/>
    <path id="_141734168" class="fil4" d="M2.99758 2.04814l0 0.0890555c-0.0280551,0.0593703 0,-0.0296852 -0.0280551,0.0593703 -0.0561562,0.207773 0.0561332,-0.148426 0,0.0593703 -0.0280781,0.118718 0.0280551,0 -0.168446,0.237458l-0.0561562 -0.0296852 0.0280781 0.148426c-0.140367,0.0296852 -0.0842113,0.0296852 -0.168423,-0.0296852 0.0561332,0.0890326 0.112289,0.0296852 0.168423,0.148403 0.0842343,-0.118718 0.0842343,-0.118718 0.196524,-0.118718 0.0842113,0 0.140367,0.118718 0.168423,0.178088 0.0842343,0.267144 -0.0842113,0.504625 0.168446,0.831139 0.0561332,0.0593703 0,0.0296852 0.0561332,0.0296852l0.336891 0.118718c-0.112289,-0.0593474 -0.112289,-0.0296622 -0.224579,-0.0890326 -0.393024,-0.326514 -0.252657,-1.36545 0.421079,-1.18734 0.0561562,0 0.0561562,0 0.0842343,0.0296852 0,0 0,0 0.0280551,0 0,0 0,0 0,0 0.0561562,0.0296852 0.112289,0.0890555 0.168446,0.118741 0.0561562,0.0593474 0.168446,0.237458 0.196501,0.326514 0.112312,0.534287 -0.196501,0.653028 -0.30879,0.801431 0.505314,-0.0890326 0.477236,-0.682713 0.196501,-1.18732 0,0 0,0 0,-0.0296852l-0.0280551 -0.0296852c-0.0561562,-0.118741 -0.0842343,-0.207796 -0.112312,-0.326514 0.196524,-0.0890555 0.280735,-0.0593703 0.336891,-0.118741 -0.252657,-0.0890555 -0.505314,-0.118741 -0.786049,-0.0593703 -0.224579,0.0593703 -0.168446,0.0890555 -0.336868,0 -0.196524,-0.0890326 -0.252657,0.0296852 -0.336891,0.0296852z"/>
    <path id="_141734048" class="fil5" d="M5.21536 2.64182c0.0561332,0.0890326 0.0561332,0.118718 0.0561332,0.237458 0.0842343,0.178088 0.0561562,0.623343 -0.0280781,0.742083 -0.0842113,0.118741 -0.0280551,-0.0296852 -0.0842113,0.118741 0,0 -0.0280781,0.0593474 -0.0280781,0.0890326 -0.0280551,0.0890555 -0.0842113,0.237481 -0.140345,0.326514l-0.196524 0.178111c0,0 0,0.0296852 0,0.0296852 -0.168446,0.148403 -0.561447,0.356199 -0.757971,0.415569 -0.421102,0.0890326 -0.926393,-0.148426 -1.15099,-0.356199 -0.0842113,-0.0593703 -0.168423,-0.0890555 -0.224579,-0.178111 -0.196501,-0.326514 -0.140367,-0.237458 -0.280735,-0.534287 -0.112289,-0.178111 -0.0561332,-0.0593703 -0.0561332,-0.267167 -0.0561562,0.0593703 -0.0280781,0.0296852 -0.0561562,0.0890555l-0.0280781 0.0890555 0 0.296829c0,0 0,0 0,0 0.168446,0.207773 0.0842343,0.0890555 0.168446,0.237458 0,0 0,0 0,0.0296852l0.0561562 0.0593703c0.168423,0.237458 0.0842113,0.0593703 0.196501,0.207796 0.0280781,0.0296622 0.0561562,0.0593474 0.0842113,0.0890326l0.0842343 0.0890555c0.617603,0.385884 1.26328,0.385884 1.88089,0.0296852 0.0842113,-0.0593703 0.393024,-0.356199 0.449158,-0.415569 0.252657,-0.385884 0.308813,-0.860801 0.280735,-1.36543 -0.0280781,-0.0890555 -0.0842113,-0.207796 -0.168446,-0.237458 0,-0.0296852 0,-0.0296852 -0.0280781,-0.0296852 0,0 0,0 0,0 -0.0280551,-0.0296852 -0.0561332,-0.0296852 -0.0561332,-0.0296852l0 0.0296852c0.0561332,0.0296852 0,-0.0593703 0.0280781,0.0296852z"/>
    <path id="_141733928" class="fil6" d="M2.32385 3.44325c0,0.207796 -0.0561562,0.0890555 0.0561332,0.267167 0.140367,0.296829 0.0842343,0.207773 0.280735,0.534287 0.0561562,0.0890555 0.140367,0.118741 0.224579,0.178111 0.224602,0.207773 0.729893,0.445232 1.15099,0.356199 0.196524,-0.0593703 0.589525,-0.267167 0.757971,-0.415569 0,0 0,-0.0296852 0,-0.0296852l0.196524 -0.178111c0.0561332,-0.0890326 0.112289,-0.237458 0.140345,-0.326514 0,-0.0296852 0.0280781,-0.0890326 0.0280781,-0.0890326 0.0561562,-0.148426 0,0 0.0842113,-0.118741 0.0842343,-0.118741 0.112312,-0.563995 0.0280781,-0.742083 -0.0280781,0.237458 -0.0561332,0.267144 -0.140367,0.415569 0,0.207773 0,0.237458 -0.0561332,0.356199 -0.112289,0.385884 -0.0280781,0.118718 -0.168446,0.326514 -0.0842113,0.148403 -0.112289,0.207773 -0.252657,0.356199 -0.449158,0.356199 -0.898338,0.296829 -1.40365,0.148403 -0.112289,-0.0296622 -0.140345,-0.0593474 -0.224579,-0.118718 -0.196501,-0.178111 -0.196501,-0.148426 -0.336868,-0.385884 0,-0.0593703 -0.0561562,-0.0890555 -0.0842113,-0.118741 -0.196524,-0.237458 -0.0842343,-0.712398 -0.0842343,-1.00923 -0.140367,0.0890555 -0.196501,0.415569 -0.196501,0.593658z"/>
    <path id="_141733784" class="fil7" d="M5.27149 2.64182c0.0842343,0.0296622 0.140367,0.148403 0.168446,0.237458l0.0561332 0.0890555c0.0842343,0.118718 0.168446,0.504602 0.168446,0.653028 0.112289,0.296829 -0.112289,0.979542 -0.30879,1.24669l-0.224602 0.326514c0.0842343,-0.0296622 0.140367,-0.0890326 0.196524,-0.148403 0.140367,-0.148426 0.196501,-0.178111 0.30879,-0.385884l0.140367 -0.207773 0.0561562 0.0593474c0.140367,-0.534287 0.168423,-1.00923 -0.0561562,-1.51383 -0.0280781,-0.118741 -0.0842113,-0.207796 -0.140367,-0.296852 -0.140367,-0.237458 -0.336868,-0.445232 -0.533369,-0.593658 -0.0842343,-0.0593703 -0.0561562,-0.0593703 -0.140367,-0.0890555 -0.0280781,0.0593703 -0.0280781,0 0,0.0890555l0.168423 0.178111c0,0.0296622 0.0280781,0.0593474 0.0280781,0.0890326 0.140367,0.178111 0.112289,0.0593703 0.112289,0.267167z"/>
    <path id="_141733664" class="fil7" d="M2.63264 5.34299l0.0280781 -0.0593703c0.252657,0.0890555 -0.0280781,0.0593703 0.645681,0.237481 -0.0842113,-0.0593703 -0.168446,-0.0890555 -0.252657,-0.148426 -0.140367,-0.0890555 -0.168446,-0.118741 -0.252657,-0.237458 0,0 0,0 0,0 -0.0842113,-0.0890555 -0.280735,-0.356199 -0.364946,-0.53431 -0.0842113,-0.148403 -0.196524,-0.47494 -0.196524,-0.682713l0 -0.296829c-0.0280551,-0.118741 0,-0.267144 0,-0.415569 0,-0.0593703 0,-0.148426 0,-0.207773 0,-0.148426 0.0280781,-0.0890555 -0.0280551,-0.148426 -0.308813,0.593658 -0.308813,1.39511 0.0561332,2.01845 0.0842343,0.148426 0.252657,0.415569 0.364946,0.47494z"/>
    <path id="_141733544" class="fil8" d="M2.54843 2.37465c0.308813,0 0.224579,0.0296852 0.364946,-0.0890326l0 -0.207796c0.0280781,-0.0296852 0.0561562,-0.0296852 0.0842113,-0.0296852 0.0842343,0 0.140367,-0.118718 0.336891,-0.0296852 0.168423,0.0890555 0.112289,0.0593703 0.336868,0 0.280735,-0.0593703 0.533392,-0.0296852 0.786049,0.0593703l0.364946 0.148426c0.112289,0.0593703 0.168446,0.0890326 0.224579,0.178088 0.0561562,0.0593703 0.0280781,0 0.0842113,0.0890555 0,0 0.0280781,0.0593703 0.0561562,0.0890555 0,0 0.0280781,0 0.0561332,0.0296852 0,0 0,0 0,0 0.0280781,0 0.0280781,0 0.0280781,0.0296852 0,-0.207796 0.0280781,-0.0890555 -0.112289,-0.267167 0,-0.0296852 -0.0280781,-0.0593703 -0.0280781,-0.0890326l-0.168423 -0.178111c-0.0280781,-0.0890555 -0.0280781,-0.0296852 0,-0.0890555 -0.196524,-0.267144 -0.982549,-0.326514 -1.34752,-0.267144 -0.477236,0.0890555 -0.645658,0.267144 -0.954471,0.504625 -0.0842113,0.0593474 -0.0842113,0.0296852 -0.112289,0.118718z"/>
    <path id="_141733424" class="fil9" d="M3.47484 3.44325c0,0.0890555 0.0842113,0.207796 0.196501,0.207796 0.280735,0 0.421102,0 0.533392,-0.237481 0.140367,-0.356199 -0.196524,-0.712398 -0.393024,-0.712398 -0.0842113,0 -0.0280781,0.0296852 -0.0561562,0.0296852 -0.393024,0.148426 -0.280712,0.47494 -0.280712,0.712398z"/>
    <path id="_141733304" class="fil10" d="M4.59776 3.68073l-0.0280781 0c-0.0280781,0.0296852 -0.0280781,0.0296852 -0.0561562,0.0890326 -0.0561332,0.118741 -0.168423,0.207796 -0.280712,0.267167 -0.0842343,0.0593703 0.0280551,0 -0.0561562,0.0296852 -0.0842113,0.0593474 -0.280735,0.0593474 -0.421102,0.0593474 -0.30879,-0.0296622 -0.589525,-0.296829 -0.701814,-0.593658l0 -0.0296852c-0.0561562,-0.0296852 -0.0280781,-0.0296852 -0.0842113,-0.0296852 0,0.118741 0.0561332,0.237481 0.112289,0.356199 0.196501,0.326514 0.589525,0.53431 1.01063,0.385884 0.112289,-0.0296852 0.224579,-0.0890555 0.30879,-0.148403 0.252657,-0.207796 0.336891,-0.47494 0.729893,-0.771769 0.0842343,-0.148426 0.112289,-0.178111 0.140367,-0.415569 0,-0.118741 0,-0.148426 -0.0561332,-0.237458 0.0280551,0.207773 0,0.0296622 -0.224579,0.178088 -0.0561562,0.0296852 0,-0.0296852 -0.0561562,0.0296852 -0.168446,0.148426 -0.0280781,0.593658 -0.336868,0.831139z"/>
    <path id="_141733184" class="fil11" d="M5.24342 6.20381c0.0280781,0.0593474 0.308813,0.148403 0,0.563972l-0.252634 -0.0296852c0.0280551,0.0890555 0.112289,0.0890555 0.196501,0.178111 0,0 0,-0.0296852 0,0 0.0280781,0 0.0280781,-0.0296852 0.0280781,-0.0296852 0,0 0.0561332,0 0.0561332,0 0.252657,0 0.196524,0.0296852 0.308813,0.148403 0.0280781,-0.118718 0,-0.0296852 0.0842113,-0.118718 0.112289,-0.118741 0.0561562,-0.0890555 0.112289,-0.415569 0.168446,0.237458 0,0.534287 -0.0842113,0.712398l-0.0842113 -0.118741c0,0 0,0.0890555 0,0.0890555 -0.0280781,0.0890555 -0.0280781,0.0593703 -0.0280781,0.0890555l0.0561332 0.118718c0.0842343,-0.0296852 0,0.0296852 0.0842343,-0.0593703 0.0280551,-0.0296622 0.0280551,-0.0593474 0.0561332,-0.118718 0.0561562,-0.0593703 0.0842343,-0.118741 0.112289,-0.207796 0.0561562,-0.178088 0.0842343,-1.39511 -0.645681,-0.801431z"/>
    <path id="_141733064" class="fil12" d="M4.06437 3.76976l-0.364946 0 -0.336891 -0.118718c0.224602,0.415569 0.729915,0.296829 1.03871,0.0296852 0.224579,-0.178111 0.140367,-0.890509 0.112289,-1.27639 0.0561562,-0.0296852 0.168446,-0.0593703 0.224602,-0.118718 0.0561332,-0.0296852 0.0280551,0 0.0842113,-0.0593703l-0.364946 -0.148426c-0.0561562,0.0593703 -0.140367,0.0296852 -0.336891,0.118741 0.0280781,0.118718 0.0561562,0.207773 0.112312,0.326514l0.0280551 0.0296852c0,0.0296852 0,0.0296852 0,0.0296852 0.280735,0.504602 0.308813,1.09828 -0.196501,1.18732z"/>
    <path id="_141732944" class="fil13" d="M2.18348 1.4248l-0.112289 -0.385884 -0.0280781 0.0593703c0,0.207773 0.0842113,0.445255 0.196501,0.563972 0.140367,0.148426 0.224602,0.0296852 0.477259,-0.118718 0.140367,-0.0890555 0.364946,-0.178111 0.336868,-0.415569 -0.0561562,-0.178111 -0.252657,-0.296829 -0.449158,-0.356199 0.0842113,0.148403 0.112289,0.148403 0.0280551,0.296829 -0.0842113,0.207773 -0.196501,0.207773 -0.336868,0.296829 -0.168446,0.0890555 0.140367,-0.0890555 -0.0561562,0.0593703 -0.0280551,0.0296852 0.0280781,0 -0.0561332,0z"/>
    <path id="_141732824" class="fil13" d="M3.7275 0.326514c0,0 0.0280551,0 0.0280551,0 0,-0.0296852 0,-0.0296852 0,-0.0296852l0.112289 -0.0296852c0.112312,-0.118718 0.140367,-0.0593703 0.224602,-0.148403l0 0.0890326 0.0280551 0.178111c0.0561562,0.207773 0.0561562,0.267144 -0.0842113,0.415569 -0.0842113,0.0890326 -0.0842113,0.0593703 -0.168446,0.118718 -0.168423,0.0890555 -0.0280551,0 -0.112289,0.118741 -0.0280551,0.0593703 -0.0280551,0.0890555 -0.140367,0.0296852 -0.0561332,-0.0593703 0,0.0890555 -0.0561332,-0.0593703 0.0280781,-0.0593703 0.0280781,-0.118741 0.0280781,-0.178088 0,-0.118741 0,-0.0890555 -0.0561562,-0.118741l0.0561562 0.504625c0.0561332,0.0296622 0.589525,0.0593474 0.729893,0 0.0280781,0 0.0280781,0 0.0280781,0l-0.280735 0c0.0561332,-0.0890555 0.0842113,-0.0890555 0.140367,-0.178111 0.0842113,-0.0890555 0.0561332,-0.118741 0.196501,-0.148426l0.0280781 0.207796c0.0561562,-0.0890555 0.0280781,-0.178111 0,-0.296829 -0.196501,-0.47494 -0.280735,-0.0593703 -0.224579,-0.801454 -0.224579,0.0296852 -0.393024,0.178088 -0.477236,0.326514z"/>
    <path id="_141732704" class="fil13" d="M0.920194 3.44325c0.168446,0.0296852 0.224579,0.0593703 0.224579,0.267167 0.0280781,0.148403 0,0.326514 -0.0561332,0.415547l0.112289 0.0890555 -0.0561562 0.0296852 -0.252657 -0.0296852c-0.112289,-0.0296852 -0.0842113,-0.0593703 -0.0842113,0.0296852 0.112289,0.0890555 0.449158,0.148426 0.589525,0.0593703 -0.140367,-0.0296852 -0.196501,0 -0.140367,-0.118741 0.0280781,-0.0890326 0.112289,-0.118718 0.140367,-0.207773 0.0561562,0.148403 0.0842113,0.148403 0.0280781,0.296829 0.112289,-0.0593703 0.0561332,-0.623343 0.0280781,-0.771769 -0.0561562,-0.237458 -0.393024,-0.207773 -0.533392,-0.0593703z"/>
    <path id="_141732584" class="fil14" d="M3.36253 3.65105c-0.0561332,0 0,0.0296852 -0.0561332,-0.0296852l-0.0561562 0c0.0561562,0.178088 0.0842343,0.178088 0.224602,0.267144 0.112289,0.118741 0.140345,0.118741 0.364946,0.118741 0.336868,0 0.421079,-0.118741 0.617603,-0.296829 0.196501,-0.237481 0.196501,-0.445255 0.168423,-0.801454 0,-0.356199 0.0842343,-0.385884 0.252657,-0.415569 0.0561562,-0.0296852 0.0561562,0 0.0842343,-0.0296852 0.112289,-0.0593703 0,0.0593703 0.0842113,-0.0593703 -0.0561332,-0.0890555 -0.112289,-0.118718 -0.224579,-0.178088 -0.0561562,0.0593703 -0.0280781,0.0296852 -0.0842113,0.0593703 -0.0561562,0.0593474 -0.168446,0.0890326 -0.224602,0.118718 0.0280781,0.385884 0.112289,1.09828 -0.112289,1.27639 -0.30879,0.267144 -0.814104,0.385884 -1.03871,-0.0296852z"/>
    <path id="_141732464" class="fil15" d="M5.15921 0.801454c0.224579,-0.0890555 0.421102,-0.207796 0.701837,-0.207796 -0.0280781,0.148426 -0.0561562,0.148426 -0.112312,0.267167 -0.0280551,0.118718 0,0.148403 -0.0842113,0.237458 -0.336868,0.47494 -0.477236,0.267144 -0.617603,0.326514 0.196501,0.0593703 0.336868,0.207773 0.533392,0.267144 -0.0561562,-0.118718 0.0280781,-0.148403 0.0842113,-0.237458 0.0842113,-0.118741 0,-0.0593703 0.168446,-0.148426l0 0.178111c0.112289,-0.148426 0,-0.356199 0,-0.53431l0.196501 -0.385884c-0.0561332,-0.0593474 -0.112289,-0.0593474 -0.252657,-0.0593474 -0.336868,0.0296622 -0.421079,0.178088 -0.617603,0.296829z"/>
    <path id="_141732344" class="fil16" d="M6.3102 4.86805c0,0 0.364946,0.326514 -0.0280781,0.682713 -0.0561332,0.0296852 -0.0561332,0.0296852 -0.140367,0.0296852l-0.140367 -0.207773c-0.0280551,0.118741 -0.0842113,0.178088 0,0.237458 0.336891,0.118741 0.308813,0.0890555 0.673759,-0.0890326 0.0561562,0.118718 -0.0280781,0.148403 0.112289,0.207773 0,-0.178111 0.112289,-0.267144 0,-0.445255l-0.0561332 -0.0593703c0,0 0,0 0,-0.0296852 -0.0280781,-0.0296622 -0.0280781,0 -0.0561562,-0.0296622 -0.0280781,-0.0593703 -0.0280781,-0.0593703 -0.0842113,-0.118741l0.0280781 -0.0296852c-0.0280781,-0.0890555 0.0280551,-0.0593703 -0.0561562,-0.0593703 0,-0.0890555 -0.0280781,-0.0890555 0.0561562,-0.0593703 -0.0561562,-0.0593703 -0.0842343,-0.0890326 -0.140367,-0.0890326 -0.0561562,-0.0296852 -0.0561562,-0.0296852 -0.112289,0 -0.112312,0.0296622 -0.0280781,0 -0.0561562,0.0593474z"/>
    <path id="_141732224" class="fil8" d="M1.3413 2.64182c-0.0842343,-0.0593703 -0.0842343,-0.0296852 -0.140367,-0.118741 -0.0842343,-0.0593703 -0.0842343,-0.0593703 -0.112289,-0.148426 -0.0842343,-0.0296852 -0.0280781,-0.0296852 -0.0561562,-0.0593703 -0.112289,0 -0.0280781,0.0296852 -0.112289,-0.0890326 0.0280781,0.178088 0.168446,0.296829 0.252657,0.415569 0.168446,0.178088 0.168446,0.148403 0.421102,0.237458 0.112289,-0.118741 0.168423,-0.267144 0.252657,-0.445255 0.112289,-0.178088 0.252657,-0.326514 0.0280551,-0.47494 -0.0842113,0.0593703 -0.0561332,0 -0.140367,0.0890555 0.140367,0 0.140367,0 0.112312,0.148426l-0.140367 0 0.0842113 0.0890555 -0.308813 0.356199c0,-0.0890555 0.0561562,-0.148426 0.0842343,-0.267167l0.0561332 -0.385884 -0.168423 -0.0890326c0.0280551,0.0296852 0.168423,0.0890326 0.0561332,0.415547 -0.112289,0.296852 -0.140367,0.118741 -0.140367,0.356199l-0.0280551 -0.0296622z"/>
    <path id="_141732104" class="fil11" d="M6.22599 1.87005c0.0561332,0.0296852 0,0.0296852 0.0842113,0.0296852 0.0842113,0 0.168446,0 0.224579,-0.0296852 0.0842343,0 0.252657,-0.0296852 0.280735,0.0593703 0.140367,0 0.224579,0.0296622 0.30879,0.118718l-0.224579 0.118741 -0.112289 -0.148426c-0.0842113,-0.0296852 -0.0280781,-0.0296852 -0.140367,-0.0296852 -0.0561332,0.0890555 -0.0280551,0.148426 -0.0842113,0.207796 0,0.0593703 -0.0280781,0.0890555 -0.0561562,0.0890555 -0.0842113,0.0890326 0,0 -0.0842113,0.0593474 -0.0561332,0.118741 0,0.0296852 -0.0561332,0.0593703l-0.112312 0 0.0280781 -0.0296852c-0.112289,-0.0296852 -0.140367,0 -0.224579,-0.118718 -0.0561562,-0.0890555 -0.0561562,-0.148426 -0.0280781,-0.237481 -0.112289,0.118741 -0.0561332,0.148426 0.0280781,0.267167 0.0561562,0.118718 0.0842113,0.207773 0.140367,0.267144 0.393024,0.0296852 0.477236,-0.385884 0.757971,-0.296829 0.112289,-0.0593703 0.140367,-0.118741 0.336868,-0.148426 -0.0842113,-0.148426 -0.252657,-0.267144 -0.449158,-0.296829 -0.224579,-0.0593703 -0.421102,0 -0.617603,0.0593703z"/>
    <path id="_141731984" class="fil16" d="M1.17285 5.01647c0.112289,-0.0296852 0,-0.0296852 0.112289,-0.0593703 0.0842113,-0.0593703 0.0561562,-0.0296852 0.168446,-0.0296852l0.0280551 0 0.0842343 0c0.0561332,0 0.0280781,-0.0296852 0.0280781,0.0296852 0.0842113,0.178111 0.0842113,0.326514 -0.0561562,0.445255 -0.0280781,0.0593703 -0.112289,0.0890555 -0.196501,0.0890555 -0.168446,0 -0.168446,-0.0890555 -0.196524,-0.118741l-0.0280781 -0.267144 -0.0561332 0.237458 -0.0280781 0.178111c0.0561562,0 0.0561562,-0.0593703 0.0561562,0.0296622 0.280712,0.356199 0.393001,0.0593703 0.617603,0.148426 0.0842113,-0.118741 0.0561332,0.0296852 0.0842113,-0.356199 0,-0.0296852 0,-0.0593703 0,-0.0890555 0,-0.0890326 0,-0.0296852 0.0280781,-0.0890326 -0.0842343,-0.0593703 -0.168446,-0.296852 -0.252657,-0.326537 -0.196524,-0.118718 -0.308813,0.118741 -0.393024,0.178111z"/>
    <path id="_141731864" class="fil17" d="M2.04311 1.09828l0.0280781 -0.0593703 0.112289 0.385884 0.0280781 -0.0593703c0.0280551,-0.0890555 0,-0.118741 0,-0.207773 0.224579,-0.118741 0.252657,-0.0890555 0.30879,-0.356199 0,-0.0593703 -0.0561332,0 0,-0.0593703l-0.0280781 -0.0296852c-0.112289,-0.118741 -0.112289,-0.178111 -0.196501,-0.356199 -0.0842113,0.0296852 -0.0842113,0.0296852 -0.140367,0.118741 -0.0842113,0.148403 -0.196501,0.474917 -0.112289,0.623343z"/>
    <path id="_141712448" class="fil18" d="M3.47484 3.44325c0,-0.237458 -0.112312,-0.563972 0.280712,-0.712398 0.0280781,0 -0.0280551,-0.0296852 0.0561562,-0.0296852 0.196501,0 0.533392,0.356199 0.393024,0.712398 -0.112289,0.237481 -0.252657,0.237481 -0.533392,0.237481 0.168446,0.207773 0.505314,-0.0296852 0.589525,-0.207796 0.112289,-0.237458 0,-0.653028 -0.252657,-0.801431 -0.252657,-0.148426 -0.617603,-0.0296852 -0.645681,0.385884 0,0.207773 -0.0280551,0.326514 0.112312,0.415547z"/>
    <path id="_141712328" class="fil19" d="M2.52035 2.64182l0.0280781 0.0296622 0.140367 0 0 0.118741 0 0.118741c0.252657,-0.178111 0.280735,0.267144 0.336868,0.445255 0,0.0593474 0.0280781,0.0890326 0.0280781,0.148403l0 0.0296852c0.0842113,0.0296852 0.112289,0.0890555 0.196501,0.0890555l0.0561562 0c-0.252657,-0.326514 -0.0842113,-0.563995 -0.168446,-0.831139 -0.0280551,-0.0593703 -0.0842113,-0.178088 -0.168423,-0.178088 -0.112289,0 -0.112289,0 -0.196524,0.118718 -0.0561332,-0.118718 -0.112289,-0.0593703 -0.168423,-0.148403 -0.0561562,-0.0296852 -0.0280781,-0.0296852 -0.0280781,-0.118741 -0.0842343,0.0593703 -0.0280781,-0.0296852 -0.0561562,0.0593703 0,0.0593703 0,0.0593703 0,0.118741z"/>
    <path id="_141712208" class="fil20" d="M6.64707 3.3839c0.0280781,0.0593474 0.112289,0.0296622 0.308813,0.0890326l0.252657 0.0593703c0.0280781,0.0296852 0.0280781,0.0296852 0.0561332,0.0593703 0.252657,0.118741 0.168446,0.148426 0.336891,0.356199 -0.0561562,0.0296852 0.0561332,0.0296852 -0.0842343,0.0296852l-0.196501 0c-0.112289,-0.0593703 0,0 -0.0561562,-0.0593703 -0.0280551,-0.0296852 0,0 -0.0561332,-0.0296852 -0.112289,0.0593703 -0.505314,0.415569 -0.617603,0.118741l-0.0280781 -0.445255c0,-0.118741 0,-0.0593703 -0.0280781,-0.0593703 0,0.148426 -0.0280781,0.623343 0.0280781,0.742083l0 -0.118741c0.140367,0.0890555 0.196501,0.0890555 0.364946,0.0296852 0.168446,-0.0296852 0.224579,-0.118718 0.364946,-0.118718l0.0561562 0.0593703c0.168423,-0.0296852 0.196501,-0.0296852 0.364946,0 -0.0280781,-0.237481 -0.196524,-0.47494 -0.364946,-0.563995 -0.196524,-0.0890555 -0.477236,-0.207773 -0.701837,-0.148403z"/>
    <path id="_141712088" class="fil21" d="M3.81171 3.56199c0.140367,0 0.168446,0.0296852 0.224579,-0.0890555 0.0561562,-0.0593703 0.0842113,-0.148403 0.0842113,-0.267144l-0.393001 -0.267144c-0.0842343,0.0890555 -0.168446,0.178088 -0.140367,0.356199 0,0.118718 0.0842113,0.267144 0.224579,0.267144z"/>
    <path id="_141711968" class="fil22" d="M3.61519 7.06461l0 0.118741 0.0842343 0.0296852c0.0280781,0 0.0280781,-0.0296852 0.0280781,0 0,0 0.140345,-0.0296852 0.196501,-0.0890555 0.140367,-0.178088 0.0280781,-0.445255 -0.0842113,-0.504625 -0.0842343,-0.0296622 -0.112289,-0.0296622 -0.168446,0 -0.112289,0 -0.0280781,0.0296852 -0.112289,0 -0.0842113,0.0593703 -0.0561562,0.326537 0.0280781,0.415569 0,0 0,0 0,0 0.0280551,0.0296852 0.0280551,0.0296852 0.0280551,0.0296852z"/>
    <path id="_141711848" class="fil15" d="M4.31702 6.91621c0.0561332,-0.0296852 0,0 0.0561332,-0.0296852 0,0.178088 -0.0561332,0.415569 -0.168423,0.474917 -0.0842343,0.148426 -0.112289,0.148426 -0.252657,0.237481 -0.0842343,0.0593703 0.0561332,0.0593703 -0.0842343,0.0296852l0 -0.267167c-0.0842113,0.148426 -0.0561332,0.0593703 -0.0842113,0.207796 -0.0280781,0.118718 -0.0280781,0.0593703 0,0.178088 0.308813,0.0593703 0.757971,-0.593658 0.701837,-1.0686 -0.0280781,-0.118718 -0.0561562,-0.118718 -0.140367,-0.148403l-0.477259 0c0.364969,0.118718 0.224602,0.0890326 0.364969,0.267144 0.0561332,0.0890555 0.0561332,0.0593703 0.0842113,0.118741z"/>
    <path id="_141723008" class="fil23" d="M1.70624 5.69919l-0.336891 0.0890555c-0.224579,0.0296852 -0.393001,0 -0.533369,-0.148426l0.140367 -0.0593703c0,-0.0296852 0,-0.0296852 0.0561332,-0.0593474l0.0280781 -0.178111 -0.393024 0.267144c0.0842113,0.207796 0.533392,0.326514 0.898338,0.237481 0.112289,-0.0296852 0.336868,-0.148426 0.393024,-0.207796 0.0842113,-0.148403 -0.0842343,-0.326514 -0.140367,-0.474917 -0.0280781,0.0593474 -0.0280781,0 -0.0280781,0.0890326 0,0.0296852 0,0.0593703 0,0.0890555 -0.0280781,0.385884 0,0.237458 -0.0842113,0.356199z"/>
    <path id="_141713288" class="fil24" d="M2.1554 6.17413c0.0842113,0 0.0561562,-0.0296852 0.168446,-0.0593703l0.112289 0.0296852 0.0561332 0c0.0561562,0.118718 0.0842343,0.237458 0.0561562,0.415569 0,0.148403 -0.0561562,0.178088 -0.112289,0.296829l0.196501 0 0.0561562 0c0.0561332,-0.0890555 0.112289,-0.118741 0.196501,-0.207796l0.0280781 0.0593703c0.0280781,0.0296852 -0.0561332,0.0296852 0.0561562,0 0.0280551,0 0.0280551,0 0.0561332,-0.0593703 0,0 0.0280781,-0.0593474 0.0280781,-0.0593474 0.0280781,-0.118741 0.0280781,-0.148426 0,-0.178111 -0.280735,-0.0296852 0.0280781,0.207773 -0.308813,0.207773l-0.112289 -0.385861c0,-0.0296852 0,-0.0890555 0.0280781,-0.0890555 -0.0842113,-0.0593703 -0.196501,-0.118741 -0.280735,-0.118741 -0.0280551,-0.0296852 -0.0842113,0 -0.112289,0.0296852 -0.112289,0.0890555 -0.0280781,0.0593703 -0.112289,0.118741z"/>
    <path id="_141713168" class="fil25" d="M5.07499 6.32253c-0.0842113,0.0296852 -0.168446,0.0890555 -0.168446,0.148426 -0.0280781,0.118741 0,0.207773 0.0842343,0.267144l0.252634 0.0296852c0.308813,-0.415569 0.0280781,-0.504625 0,-0.563972 -0.0280551,0.0296852 -0.0842113,0.0296852 -0.112289,0.0296852 -0.0842113,0.0593474 -0.0561332,0.0593474 -0.0561332,0.0890326z"/>
    <path id="_141713048" class="fil26" d="M4.56968 3.68073l-0.112289 0.0296852c-0.196524,0.178088 -0.280735,0.296829 -0.617603,0.296829 -0.224602,0 -0.252657,0 -0.364946,-0.118741 -0.140367,-0.0890555 -0.168446,-0.0890555 -0.224602,-0.267144 -0.0842113,0 -0.112289,-0.0593703 -0.196501,-0.0890555 0.112289,0.296829 0.393024,0.563995 0.701814,0.593658 0.140367,0 0.336891,0 0.421102,-0.0593474 0.0842113,-0.0296852 -0.0280781,0.0296852 0.0561562,-0.0296852 0.112289,-0.0593703 0.224579,-0.148426 0.280712,-0.267167 0.0280781,-0.0593474 0.0280781,-0.0593474 0.0561562,-0.0890326z"/>
    <path id="_141712928" class="fil27" d="M3.55905 6.61936c0.0842113,0.0296852 0,0 0.112289,0 0.0561562,-0.0296622 0.0842113,-0.0296622 0.168446,0 0.112289,0.0593703 0.224579,0.326537 0.0842113,0.504625 -0.0561562,0.0593703 -0.196501,0.0890555 -0.196501,0.0890555 0,-0.0296852 0,0 -0.0280781,0 0.0561332,0.118718 0.112289,0.148403 0.0842113,0.356199 0.0280781,-0.148426 0,-0.0593703 0.0842113,-0.207796l0 0.267167c0.140367,0.0296852 0,0.0296852 0.0842343,-0.0296852 -0.112289,-0.0296852 -0.0561562,0.0296852 -0.0561562,-0.0890555 0,0 0,-0.148426 0,-0.148426l0.196524 -0.0296852c0,0 0,-0.0296622 0.0280551,-0.0296622 0,0 0,0 0,-0.0296852 0.112312,-0.0593703 0.0561562,-0.0296852 0.112312,-0.0890555l-0.0842343 -0.0296852c-0.0842113,-0.771769 -0.30879,-0.504625 -0.505314,-0.623343 -0.140367,0.0593703 -0.0561332,0 -0.0842113,0.0890326z"/>
    <path id="_141712808" class="fil28" d="M4.45739 3.71042l0.112289 -0.0296852 0.0280781 0c0.0280551,-0.267167 0.0842113,-0.207796 0.140367,-0.712398 0.0280551,-0.0890555 0.0280551,-0.118741 0.0561332,-0.178111 0.0561562,-0.178088 0.308813,-0.118741 0.393024,-0.178088l0 -0.0296852c-0.0280781,-0.0296852 -0.0561562,-0.0890555 -0.0561562,-0.0890555 -0.0561332,-0.0890555 -0.0280551,-0.0296852 -0.0842113,-0.0890555 -0.0842113,0.118741 0.0280781,0 -0.0842113,0.0593703 -0.0280781,0.0296852 -0.0280781,0 -0.0842343,0.0296852 -0.168423,0.0296852 -0.252657,0.0593703 -0.252657,0.415569 0.0280781,0.356199 0.0280781,0.563972 -0.168423,0.801454z"/>
    <path id="_141728576" class="fil16" d="M0.723694 3.62136c0.112289,-0.0296852 0.0561332,-0.0593703 0.168423,-0.0296852l0.0842343 0.0593703c0.0280551,0.267144 -0.0280781,0.237458 -0.168446,0.415569 0.140367,0.118718 0.280735,0.0890326 0.336868,0.178088l0.0561562 -0.0296852 -0.112289 -0.0890555c0.0561332,-0.0890326 0.0842113,-0.267144 0.0561332,-0.415547 0,-0.207796 -0.0561332,-0.237481 -0.224579,-0.267167l-0.140367 0.118741c0,0 0,0 0,0l-0.0561332 0.0593703z"/>
    <path id="_141728456" class="fil16" d="M6.75936 3.97756l0 0c0,0.0593703 0,0 -0.0561332,0.0296852 -0.0280781,0.0593703 0.0561332,0 -0.0280781,0.0296852 -0.0842113,0 -0.0280781,-0.0296852 -0.0280781,-0.0296852l-0.0561332 0c0.112289,0.296829 0.505314,-0.0593703 0.617603,-0.118741 0.0561332,0.0296852 0.0280781,0 0.0561332,0.0296852 0.0561562,0.0593703 -0.0561332,0 0.0561562,0.0593703 0,-0.267144 -0.0842113,-0.356199 -0.336868,-0.415569 0,0.207773 -0.0280781,0.385884 -0.224602,0.415569z"/>
    <path id="_141728336" class="fil13" d="M2.21156 2.84959c0.0561332,0.0593703 0.0280551,0 0.0280551,0.148426 0,0.0593474 0,0.148403 0,0.207773 0,0.148426 -0.0280551,0.296829 0,0.415569l0.0280781 -0.0890555c0.0280781,-0.0593703 0,-0.0296852 0.0561562,-0.0890555 0,-0.178088 0.0561332,-0.504602 0.196501,-0.593658 0.0280781,-0.118741 0.0561562,-0.0593703 0.0280781,-0.178111l-0.0280781 -0.0296622c0,0 -0.112289,0.0593474 -0.0561332,-0.148426 -0.0842343,0.0593703 -0.196524,0.237458 -0.252657,0.356199z"/>
    <path id="_141728216" class="fil29" d="M6.19791 2.55276l0.0280781 0.0296852c0.252657,0.118718 0.168423,-0.0296852 0.421079,-0.0296852 -0.0561332,0.118718 -0.140367,0.178088 -0.196501,0.267144 0.224579,-0.0296852 0.0561332,-0.0296852 0.112289,0.0296852 0.0280781,-0.0593703 0.0561562,-0.0296852 0.112289,-0.0890555 0.0280781,-0.0296852 0.0842113,-0.0890555 0.112289,-0.148403 0.0561562,-0.0890555 0.112289,-0.267167 0.168446,-0.356199 -0.280735,-0.0890555 -0.364946,0.326514 -0.757971,0.296829z"/>
    <path id="_141728096" class="fil30" d="M4.59776 3.68073c0.30879,-0.237481 0.168423,-0.682713 0.336868,-0.831139 0.0561562,-0.0593703 0,0 0.0561562,-0.0296852 0.224579,-0.148426 0.252634,0.0296852 0.224579,-0.178088 -0.0280781,-0.0890555 0.0280551,0 -0.0280781,-0.0296852 -0.0842113,0.0593474 -0.336868,0 -0.393024,0.178088 -0.0280781,0.0593703 -0.0280781,0.0890555 -0.0561332,0.178111 -0.0561562,0.504602 -0.112312,0.445232 -0.140367,0.712398z"/>
    <path id="_141727976" class="fil31" d="M5.15921 0.801454c-0.0842113,0 -0.0561332,-0.0296852 -0.0561332,0.0593703l0.112289 0c-0.0561562,-0.0296852 0.0280551,-0.0296852 0.0561332,-0.0296852 0.0561562,0.0296852 0.0280781,-0.0296852 0.0561562,0.0593474 -0.0280781,0.0890555 -0.0280781,0.148426 -0.0842343,0.178111 -0.0280551,0.0296852 -0.0561332,0.0296852 -0.0842113,0.0296852 -0.0561332,0.0890555 -0.0280781,0 -0.0280781,0.118741l0 0.0890326c0.0280781,-0.0296852 0.224602,-0.237458 0.252657,-0.326514 0.0280781,-0.0296852 0,-0.0296852 0.0280781,-0.0593703 0,-0.0890326 0,-0.148403 0.168446,-0.118718 0.0561332,0 0.0842113,0.0296852 0.112289,0.0593703l0.0561332 0c0.0561562,-0.118741 0.0842343,-0.118741 0.112312,-0.267167 -0.280735,0 -0.477259,0.118741 -0.701837,0.207796z"/>
    <path id="_141727856" class="fil16" d="M1.3413 2.64182l0.0280551 0.0296622c0,-0.237458 0.0280781,-0.0593474 0.140367,-0.356199 0.112289,-0.326514 -0.0280781,-0.385861 -0.0561332,-0.415547l-0.0842343 0 -0.168423 0 0.112289 0.0296852c0.0842113,0.326514 -0.0561562,0.296829 -0.112289,0.474917 0.0561332,0.0890555 0.140367,0.178111 0.140367,0.237481z"/>
    <path id="_141727736" class="fil1" d="M2.18348 1.4248c0.0842113,0 0.0280781,0.0296852 0.0561332,0 0.196524,-0.148426 -0.112289,0.0296852 0.0561562,-0.0593703 0.140367,-0.0890555 0.252657,-0.0890555 0.336868,-0.296829 0.0842343,-0.148426 0.0561562,-0.148426 -0.0280551,-0.296829l-0.0842343 -0.0296852c-0.0561332,0.0593703 0,0 0,0.0593703 -0.0561332,0.267144 -0.0842113,0.237458 -0.30879,0.356199 0,0.0890326 0.0280551,0.118718 0,0.207773l-0.0280781 0.0593703z"/>
    <path id="_141727616" class="fil9" d="M2.12732 1.09828c0.112289,-0.0593703 0.280735,-0.0890555 0.308813,-0.237458 0,-0.0890555 -0.112289,-0.267167 -0.196524,-0.326537 -0.168423,0.178111 -0.196501,0.237481 -0.112289,0.563995z"/>
    <path id="_141727496" class="fil32" d="M6.56286 4.2447c0.0561562,0.178111 0.224579,0.178111 0.393024,0.0890555 0.196501,-0.0593703 0.196501,-0.118741 0.393024,-0.237458l-0.0561562 -0.0593703c-0.140367,0 -0.196501,0.0890326 -0.364946,0.118718 -0.168446,0.0593703 -0.224579,0.0593703 -0.364946,-0.0296852l0 0.118741z"/>
    <path id="_141727376" class="fil33" d="M3.75555 0.949857l0 0.0890555c0.0842343,-0.118741 -0.0561332,-0.0296852 0.112289,-0.118741 0.0842343,-0.0593474 0.0842343,-0.0296852 0.168446,-0.118718 0.140367,-0.148426 0.140367,-0.207796 0.0842113,-0.415569 -0.112289,0.118741 -0.0561332,-0.0296852 -0.168423,0.148403 -0.0280781,0.0593703 -0.0280781,0.0890555 -0.0842343,0.148426 -0.140345,0.118741 -0.336868,0.0593703 -0.112289,0.267144z"/>
    <path id="_141727256" class="fil31" d="M2.96953 3.47294c0.0561332,0 0.0280551,0 0.0842113,0.0296852 0,-0.0593703 -0.0280781,-0.0890555 -0.0280781,-0.148403 -0.0561332,-0.178111 -0.0842113,-0.623366 -0.336868,-0.445255l0 -0.118741 -0.0280781 0.0890555c0,0.0890555 0.0561562,0.207773 0.0842113,0.296829 0.0561562,0.118741 0.140367,0.237458 0.224602,0.296829z"/>
    <path id="_141727136" class="fil2" d="M6.00139 5.61013c0.0280781,0.118741 0,0.0890555 0.140367,0.148426 0.0561562,0.0296852 0.112289,0.0593703 0.196524,0.0593703 0.224579,0 0.252657,-0.0593703 0.477236,0 0,0 0,-0.0296852 0,-0.0296852 0,0.0296852 0,0 -0.0280781,-0.0296852 0,0 0,-0.0296852 0,-0.0296852 -0.140367,-0.0593703 -0.0561332,-0.0890555 -0.112289,-0.207773 -0.364946,0.178088 -0.336868,0.207773 -0.673759,0.0890326z"/>
    <path id="_141727016" class="fil0" d="M1.45359 1.89974l0.168423 0.0890326 -0.0561332 0.385884c-0.0280781,0.118741 -0.0842343,0.178111 -0.0842343,0.267167l0.308813 -0.356199 -0.0842113 -0.0890555c0,-0.0890555 0,-0.0890555 0.0280551,-0.148426 0.0842343,-0.0890555 0.0561562,-0.0296852 0.140367,-0.0890555 -0.0842113,-0.148403 -0.336868,-0.0890326 -0.505314,-0.0890326l0 0.0296852 0.0842343 0z"/>
    <path id="_141726896" class="fil34" d="M6.02947 1.98877l0 0.0296852c-0.0280781,0.0890555 -0.0280781,0.148426 0.0280781,0.237481 0.0842113,0.118718 0.112289,0.0890326 0.224579,0.118718l-0.0280781 -0.0890326c0.0842343,-0.0296852 0.0842343,-0.0296852 0.112312,0l0 -0.326537c-0.0561562,-0.0296622 -0.112312,0 -0.168446,0l-0.140367 0.0296852c0,0 -0.0280781,0 -0.0280781,0z"/>
    <path id="_141726776" class="fil23" d="M2.71687 6.88652c-0.112289,0.178088 -0.280735,0.237458 -0.56147,0.237458l0.0842113 -0.237458 -0.0280551 -0.148426c0,0 -0.0280781,0.0593703 -0.0280781,0.0593703 -0.0280781,0.0890555 0,0.0296852 -0.0280781,0.0593703 -0.0280781,0.118718 -0.0280781,0.0890555 -0.0842113,0.178088 -0.0561562,0.0890555 -0.0842343,0.0890555 -0.0561562,0.148426 0.308813,0.118741 0.56147,-0.0593703 0.786049,-0.237458 0.112289,-0.0890555 0.112289,-0.118741 0.168446,-0.237481 -0.112289,0.0296852 -0.0280781,0.0296852 -0.0561562,0 -0.0842113,0.118741 -0.0280781,0.118741 -0.196501,0.178111z"/>
    <path id="_141726656" class="fil35" d="M5.13113 1.33574l-0.0842113 -0.0296852c-0.0561332,-0.0296852 -0.0561332,0 -0.0842113,-0.0593703l-0.0280781 -0.118718c-0.0842113,0.296829 0.0561562,0.178088 0.112289,0.296829 0.140367,-0.0593703 0.280735,0.148426 0.617603,-0.326514 0.0842113,-0.0890555 0.0561562,-0.118741 0.0842113,-0.237458l-0.0561332 0c-0.112289,0.0296622 -0.0561562,0.0296622 -0.112289,0.148403 -0.0280781,0.0296852 -0.0561562,0.118741 -0.112289,0.148426 -0.0842343,0.118718 -0.196524,0.178088 -0.336891,0.178088z"/>
    <path id="_141726536" class="fil36" d="M2.21156 6.7381l0.0280551 0.148426c0.112312,0 0.0842343,0.0296852 0.196524,0.0296852 0.0280781,0.0296852 0.0842113,0.0296852 0.112289,0 0.140367,-0.0296852 0.0280781,0 0.0842113,-0.0593703l-0.196501 0c0.0561332,-0.118741 0.112289,-0.148426 0.112289,-0.296829 0.0280781,-0.178111 0,-0.296852 -0.0561562,-0.415569 0,0.0890555 -0.0280551,0.296829 -0.0561332,0.356199 -0.0280781,0.118718 -0.0842113,0.148403 -0.112289,0.207773l-0.112289 0.0296852z"/>
    <path id="_141724232" class="fil34" d="M1.59395 5.04616c-0.0842343,0.0296852 0,0.0296852 -0.140367,0l0.0280551 -0.118741 -0.0280551 0 -0.0561562 0.0593703 -0.168423 0.0296852 -0.0280781 0.267144c0.0561332,0.0890555 0.140367,0.148426 0.252657,0.0593703 0.140367,-0.0890555 0.0280551,-0.148426 0.140367,-0.296829z"/>
    <path id="_141724112" class="fil37" d="M6.53478 3.50262c0.0280781,0 0.0280781,-0.0593703 0.0280781,0.0593703l0.0280781 -0.0296852c0.0561332,-0.0296852 0.0561332,-0.0593703 0.140367,-0.0593703 0.0842113,0 0.112289,0.0296852 0.168423,0.0593703 0,0.53431 -0.0561332,0.178111 -0.140367,0.445255 0.196524,-0.0296852 0.224602,-0.207796 0.224602,-0.415569 0.252657,0.0593703 0.336868,0.148426 0.336868,0.415569l0.196501 0 -0.140367 -0.0296852c0,-0.0890555 -0.0280551,-0.178111 -0.0561332,-0.237458 -0.112289,-0.118741 -0.168446,-0.0593703 -0.0561562,-0.118741 -0.0280551,-0.0296852 -0.0280551,-0.0296852 -0.0561332,-0.0593703l-0.252657 -0.0593703c-0.196524,-0.0593703 -0.280735,-0.0296852 -0.308813,-0.0890326 -0.112289,0.0593474 -0.0561332,0 -0.112289,0.118718z"/>
    <path id="_141723944" class="fil36" d="M5.13113 1.30606l0 0.0296852c0.140367,0 0.252657,-0.0593703 0.336891,-0.178088 0.0561332,-0.0296852 0.0842113,-0.118741 0.112289,-0.148426 0.0561332,-0.118741 0,-0.118741 0.112289,-0.148403 -0.0280781,-0.0296852 -0.0561562,-0.0593703 -0.112289,-0.0593703 -0.168446,-0.0296852 -0.168446,0.0296852 -0.168446,0.118718 -0.0280781,0.0296852 0,0.0296852 -0.0280781,0.0593703 -0.0280551,0.0890555 -0.224579,0.296829 -0.252657,0.326514z"/>
    <path id="_141723608" class="fil24" d="M3.64326 6.53032c0.196524,0.118718 0.421102,-0.148426 0.505314,0.623343l0.0842343 0.0296852 0.0842113 -0.267144c-0.0280781,-0.0593703 -0.0280781,-0.0296852 -0.0842113,-0.118741 -0.140367,-0.178111 0,-0.148426 -0.364969,-0.267144l0.477259 0c-0.0561562,-0.0296852 -0.645681,-0.0296852 -0.701837,0z"/>
    <path id="_141723488" class="fil13" d="M3.05374 6.41158c-0.0280781,-0.118741 0.0280781,-0.0296852 -0.0561562,-0.118741 -0.0280551,0 -0.112289,-0.0296852 -0.140345,-0.0296852 -0.0842343,-0.0593474 -0.112312,-0.0890326 -0.196524,-0.118718 -0.0280781,0 -0.0280781,0.0593703 -0.0280781,0.0890555l0.112289 0.385861c0.336891,0 0.0280781,-0.237458 0.308813,-0.207773z"/>
    <path id="_141723368" class="fil38" d="M3.75555 0.653028c-0.0561332,0 -0.0842113,0.0296852 -0.112289,0.0890555 0,-0.237458 0,-0.148426 0.0280781,-0.326514 0,0 0,0 -0.0280781,0 0,0.0296852 -0.0842113,0.178088 -0.112289,0.296829 0.0561562,0.0296852 0.0561562,0 0.0561562,0.118741 0,0.0593474 0,0.118718 -0.0280781,0.178088 0.0561332,0.148426 0,0 0.0561332,0.0593703l0 -0.118741 0.140367 0c-0.224579,-0.207773 -0.0280551,-0.148403 0.112289,-0.267144 0.0561562,-0.0593703 0.0561562,-0.0890555 0.0842343,-0.148426 0.112289,-0.178088 0.0561332,-0.0296622 0.168423,-0.148403l-0.0280551 -0.178111c-0.0280781,0.0593703 0,0.0593703 -0.0561562,0.118741 -0.0561332,0.0890555 -0.0280781,0.0296852 -0.0842113,0.0890555 -0.140367,0.148403 -0.0280781,0.178088 -0.196524,0.237458z"/>
    <path id="_141723248" class="fil39" d="M6.19791 5.07584c0.0561332,0.0296852 0.140367,0 0.0561332,0.207773l-0.140345 0.0593703 0.0280551 -0.178088c-0.0842113,0.0296622 -0.112289,0.118718 -0.140367,0.207773l0.140367 0.207773c0,-0.0890326 0,-0.0296852 0,-0.0890326 0.0280781,-0.0890555 0.0280781,-0.0890555 0.140367,-0.0296852l0 -0.0890555c0.140367,-0.0890555 0.112289,-0.237458 0.0561562,-0.356199l-0.112289 0c-0.0280781,0 -0.0561562,-0.0593703 -0.0280781,0.0593703z"/>
    <path id="_141723128" class="fil40" d="M0.920194 2.16688c0.0842113,0.0593703 0.0842113,0.0593703 0.112289,0.148403 0.112289,0 0.0561562,-0.0296622 0.0842113,-0.0296622 0.0561562,-0.118741 0.0561562,-0.0890555 0.0842343,-0.267167 -0.0842343,-0.0593703 -0.140367,-0.118718 -0.252657,-0.118718 -0.0842343,0.0593474 -0.0280781,0.178088 -0.0280781,0.267144z"/>
    <path id="_139755720" class="fil41" d="M6.02947 1.98877c0,0 0.0280781,0 0.0280781,0l0.140367 -0.0296852c0.0561332,0 0.112289,-0.0296622 0.168446,0l0 0.326537 0 0.118718c0.0561332,-0.0296852 0,0.0593703 0.0561332,-0.0593703l0.0280781 -0.356199c0,0 0,0 0.0280781,0 0.224579,-0.0593474 0.168423,0 0.168423,0 0.112289,0 0.0561562,0 0.140367,0.0296852 -0.0561332,-0.0890326 -0.168423,-0.118718 -0.252657,-0.0890326 0.140367,-0.0296852 0.140367,-0.0593703 0.280735,0 -0.0280781,-0.0890555 -0.196501,-0.0593703 -0.280735,-0.0593703 -0.0561332,0.0296852 -0.140367,0.0296852 -0.224579,0.0296852 -0.0842113,0 -0.0280781,0 -0.0842113,-0.0296852 -0.0561562,0 -0.0561562,0 -0.112289,0.0296852 0,0 -0.0280781,0.0296852 -0.0280781,0.0296852l-0.0561562 0.0593474z"/>
    <path id="_141722888" class="fil42" d="M0.807905 4.2447c0,-0.0890555 -0.0280781,-0.0593703 0.0842113,-0.0296852 0,-0.0296852 -0.0561332,-0.0296852 -0.112289,-0.0593703 0,0 -0.0561332,-0.0296852 -0.0561332,-0.0296852 -0.0842343,-0.0593474 -0.0280781,-0.0296622 -0.0561562,-0.0593474 -0.112289,-0.0890555 -0.196501,-0.148426 -0.224579,-0.296852 0.0561332,-0.0593474 -0.0561562,0.0296852 0.0561332,-0.0593474 0.112289,-0.0593703 0.0561562,0 0.0561562,0 -0.0842113,0 -0.0842113,0 -0.168446,-0.0593703 -0.196501,-0.0296852 -0.140367,0.0593703 0.0280781,0.296829 0.0842113,0.148426 0.196501,0.237458 0.393024,0.296829z"/>
    <path id="_141722768" class="fil43" d="M2.63264 6.85684c-0.0561332,0.0593703 0.0561562,0.0296852 -0.0842113,0.0593703 -0.0280781,0.0296852 -0.0842113,0.0296852 -0.112289,0 -0.112289,0 -0.0842113,-0.0296852 -0.196524,-0.0296852l-0.0842113 0.237458c0.280735,0 0.449181,-0.0593703 0.56147,-0.237458 0,-0.0296852 0.0280551,-0.0296852 -0.0280781,-0.0296852l-0.0561562 0z"/>
    <path id="_141722648" class="fil44" d="M3.7275 3.11674c0,0.0593703 -0.0842343,0.0296852 -0.0561562,0.207796 0.0280781,0.0890326 0.0561562,0.118718 0.140367,0.148403l0.196501 -0.326514c-0.0280551,0 -0.140367,-0.118718 -0.280712,-0.0296852z"/>
    <path id="_141722528" class="fil25" d="M2.40806 6.29284c-0.0842113,0.148426 0.0280781,0.326514 -0.224579,0.326514l-0.0280781 -0.0890326 0.0280781 -0.267167 -0.0561562 -0.0296622c0,0.0890326 -0.0280551,0.237458 0,0.326514 0,0.118718 0.0280781,0.148403 0.0280781,0.296829 0.0280781,-0.0296852 0,0.0296852 0.0280781,-0.0593703 0,0 0.0280781,-0.0593703 0.0280781,-0.0593703l0.112289 -0.0296852c0.0280781,-0.0593703 0.0842113,-0.0890555 0.112289,-0.207773 0.0280781,-0.0593703 0.0561332,-0.267144 0.0561332,-0.356199l-0.0561332 0 -0.0280781 0.148403z"/>
    <path id="_141722408" class="fil45" d="M3.61519 7.06461l0.0561562 -0.0296852c0.0842113,0.0296852 0.112289,0 0.168446,-0.0296852l0 -0.296829c-0.112289,-0.0890555 -0.112289,-0.0593703 -0.252657,0.0890555 0,0.148426 0.0280551,0.118741 0.0280551,0.207773 0,0 0,0.0296852 0,0.0296852 0,0 0,0.0296852 0,0.0296852z"/>
    <path id="_139768512" class="fil46" d="M0.723694 3.62136c-0.0280781,0.0890555 0.0842113,0.0296852 -0.0280781,0.0593703l0.140367 0.0296852c0,0.0593474 0,-0.0296852 0,0.0593474l-0.0280781 0.0593703c-0.0280781,0.0593703 -0.308813,0.207796 -0.252657,-0.0890326l-0.112289 0.0296622c0.0280781,0.148426 0.112289,0.207796 0.224579,0.296852l0.0280781 -0.0296852c0,0 0,0 0.0280781,-0.0296852 0.168423,-0.148426 0.224579,-0.0593703 0.168423,-0.415569 -0.112289,-0.0296852 -0.0561332,0 -0.168423,0.0296852z"/>
    <path id="_139770072" class="fil47" d="M6.78744 5.72887l0.196524 0.118741c0.0280551,-0.207796 0,-0.296852 -0.0561562,-0.47494l-0.0842113 -0.148426c-0.0842343,0 -0.0561562,-0.0296852 -0.0561562,0.0593703 0.112289,0.178111 0,0.267144 0,0.445255z"/>
    <path id="_139769880" class="fil30" d="M1.17285 5.01647l-0.0561562 0.0890555 0.0280781 0.267144c0.140367,0.0593703 0.252657,0.118741 0.364946,0 0.112289,-0.0890555 0.112289,-0.267144 0.0842343,-0.415569 0,-0.0593703 0.0280551,-0.0296852 -0.0280781,-0.0296852l0.0280781 0.118741c-0.112312,0.148403 0,0.207773 -0.140367,0.296829 -0.112289,0.0890555 -0.196524,0.0296852 -0.252657,-0.0593703l0.0280781 -0.267144 0.168423 -0.0296852 0.0561562 -0.0593703c-0.112289,0 -0.0842343,-0.0296852 -0.168446,0.0296852 -0.112289,0.0296852 0,0.0296852 -0.112289,0.0593703z"/>
    <path id="_139769640" class="fil48" d="M5.58031 7.03493l0.0280781 0.0593703 0.0842113 0.118741c0.0842113,-0.178111 0.252657,-0.47494 0.0842113,-0.712398 -0.0561332,0.326514 0,0.296829 -0.112289,0.415569 -0.0842113,0.0890326 -0.0561332,0 -0.0842113,0.118718z"/>
    <path id="_139769136" class="fil47" d="M6.56286 3.56199l0.0280781 0.445255 0.0561332 0c0,-0.0593703 0,-0.0890555 0,-0.148426 -0.0280551,-0.0890555 -0.0561332,-0.148403 0,-0.296829l0.196524 0c-0.0561562,0.207773 -0.0842343,0.237458 -0.0842343,0.415569l0 0c0.0842343,-0.267144 0.140367,0.0890555 0.140367,-0.445255 -0.0561332,-0.0296852 -0.0842113,-0.0593703 -0.168423,-0.0593703 -0.0842343,0 -0.0842343,0.0296852 -0.140367,0.0593703l-0.0280781 0.0296852z"/>
    <path id="_139768896" class="fil18" d="M3.7275 0.326514c-0.0280781,0.0593703 0,0 -0.0280781,0.0593703 0,0 0,0.0296852 -0.0280781,0 0,0 0,0.0296852 0,0.0296852 -0.0280781,0.178088 -0.0280781,0.0890555 -0.0280781,0.326514 0.0280781,-0.0593703 0.0561562,-0.0890555 0.112289,-0.0890555l0.0561562 -0.0890555c0.0280781,-0.0296852 0.0280781,-0.0593474 0.0561332,-0.0890326 0.168446,-0.267167 0.0280781,-0.207796 0,-0.207796l-0.112289 0.0296852c0,0 0,0 0,0.0296852 0,0 -0.0280551,0 -0.0280551,0z"/>
    <path id="_139768440" class="fil21" d="M2.99758 2.13719l0.0280781 0.237458 0.421102 -0.237458c-0.449181,-0.178111 -0.224579,-0.0296852 -0.449181,0z"/>
    <path id="_139768248" class="fil49" d="M0.667538 4.06662c0.0280781,0.0296852 -0.0280781,0 0.0561562,0.0593474 0,0 0.0561332,0.0296852 0.0561332,0.0296852 0.0561562,0.0296852 0.112289,0.0296852 0.112289,0.0593703l0.252657 0.0296852c-0.0561332,-0.0890555 -0.196501,-0.0593703 -0.336868,-0.178088 0.140367,-0.178111 0.196501,-0.148426 0.168446,-0.415569l-0.0842343 -0.0593703c0.0561562,0.356199 0,0.267144 -0.168423,0.415569 -0.0280781,0.0296852 -0.0280781,0.0296852 -0.0280781,0.0296852l-0.0280781 0.0296852z"/>
    <path id="_139767984" class="fil50" d="M6.64707 4.00725c0,0 -0.0561332,0.0296852 0.0280781,0.0296852 0.0842113,-0.0296852 0,0.0296852 0.0280781,-0.0296852 0.0561332,-0.0296852 0.0561332,0.0296852 0.0561332,-0.0296852 0,-0.178111 0.0280781,-0.207796 0.0842343,-0.415569l-0.196524 0c-0.0561332,0.148426 -0.0280551,0.207773 0,0.296829 0,0.0593703 0,0.0890555 0,0.148426z"/>
    <path id="_139767864" class="fil33" d="M4.3451 1.21702c0.0561332,-0.0296852 0.0561332,-0.0296852 0.0842113,-0.118741l-0.0280781 -0.207796c-0.140367,0.0296852 -0.112289,0.0593703 -0.196501,0.148426 -0.0561562,0.0890555 -0.0842343,0.0890555 -0.140367,0.178111l0.280735 0z"/>
    <path id="_139767600" class="fil11" d="M6.9278 5.37267c0.0561562,0.178088 0.0842113,0.267144 0.0561562,0.47494l-0.196524 -0.118741c0,0 0,0.0296852 0,0.0296852 0.0280781,0.0296852 0.0280781,0.0593703 0.0280781,0.0296852 0,0 0,0.0296852 0,0.0296852 0.140367,0.148403 0,0.0593703 0.224579,0.178088 0.0280781,-0.207773 0.0842113,-0.474917 -0.0561332,-0.653028l-0.0561562 0.0296852z"/>
    <path id="_139766520" class="fil32" d="M6.22599 2.58245c0.0561332,0.207773 0.0842113,0.296829 0.336868,0.267144 -0.0561562,-0.0593703 0.112289,-0.0593703 -0.112289,-0.0296852 0.0561332,-0.0890555 0.140367,-0.148426 0.196501,-0.267144 -0.252657,0 -0.168423,0.148403 -0.421079,0.0296852z"/>
    <path id="_139766616" class="fil51" d="M2.54843 2.37465c-0.0280781,0.0296852 -0.0280781,0 -0.0561562,0.0296852 -0.0280551,0.0593703 0,0.0296852 -0.0280551,0.0890555 -0.0561562,0.207773 0.0561332,0.148426 0.0561332,0.148426 0,-0.0593703 0,-0.0593703 0,-0.118741 0.0280781,-0.0890555 -0.0280781,0 0.0561562,-0.0593703 0,-0.0593703 0,-0.0296852 0.0561332,-0.0296852 0.0561562,-0.0296852 0,-0.0296852 0.0561562,0 0.112289,0 0.0280781,0 0.0561332,0.0296852l0.0561562 0.0296852c0.196501,-0.237458 0.140367,-0.118741 0.168446,-0.237458 0.0561332,-0.207796 -0.0561562,0.148403 0,-0.0593703 0.0280551,-0.0890555 0,0 0.0280551,-0.0593703l0 -0.0890555c-0.0280551,0 -0.0561332,0 -0.0842113,0.0296852l0 0.207796c-0.140367,0.118718 -0.0561332,0.0890326 -0.364946,0.0890326z"/>
    <path id="_139767096" class="fil52" d="M6.22599 5.01647l0.112289 0c0.0561332,0.118741 0.0842113,0.267144 -0.0561562,0.356199l0 0.0890555 0 0.0890326c0.393024,-0.356199 0.0280781,-0.682713 0.0280781,-0.682713 -0.0842113,0.0593703 -0.0561562,0.0296852 -0.0842113,0.148426z"/>
    <path id="_139764552" class="fil5" d="M5.58031 1.69194c0.112289,0.0593703 0.224579,-0.0890555 0.252657,-0.207773l0 -0.178111c-0.168446,0.0890555 -0.0842343,0.0296852 -0.168446,0.148426 -0.0561332,0.0890555 -0.140367,0.118741 -0.0842113,0.237458z"/>
    <path id="_139765488" class="fil53" d="M4.9627 6.56001c0.0842113,0.0593474 0.112289,0.0890326 0.252657,0.0296852 0.0280551,-0.0890555 0.0561332,-0.0593703 0,-0.178111 -0.0561562,-0.0593703 -0.0561562,-0.0593703 -0.140367,-0.0593703l-0.140367 0.0890555 0.0280781 0.118741z"/>
    <path id="_139765200" class="fil54" d="M1.08864 2.37465c0.0280551,0.0890555 0.0280551,0.0890555 0.112289,0.148426 0.0561332,0.0890555 0.0561332,0.0593703 0.140367,0.118741 0,-0.0593703 -0.0842343,-0.148426 -0.140367,-0.237481 0.0561332,-0.178088 0.196501,-0.148403 0.112289,-0.474917l-0.112289 -0.0296852c0,0.0296852 0,0.0296852 0,0.0296852l0.0280781 0.0593474c0.112289,0.207796 -0.0561562,0.237481 -0.0842343,0.415569l-0.0561332 -0.0296852z"/>
    <path id="_139765104" class="fil47" d="M4.09244 7.33176l-0.196524 0.0296852c0,0 0,0.148426 0,0.148426 0,0.118741 -0.0561332,0.0593703 0.0561562,0.0890555 0.140367,-0.0890555 0.168423,-0.0890555 0.252657,-0.237481 -0.0280781,-0.148403 0.0842113,0 -0.0561562,-0.0890326 0,0.0593474 0,0.0296852 -0.0561332,0.0593474z"/>
    <path id="_139765656" class="fil4" d="M1.03248 2.31528c0.0280781,0.0296852 -0.0280781,0.0296852 0.0561562,0.0593703l0.0561332 0.0296852c0.0280781,-0.178088 0.196524,-0.207773 0.0842343,-0.415569l-0.0280781 -0.0593474c0,0 0,0 0,-0.0296852l0.168423 0 0 -0.0296852 -0.168423 -0.0296852c-0.0561562,0.0593703 0.0561332,0.0890555 -0.140367,0.0296852 -0.168446,-0.0593703 -0.0842113,-0.0593703 -0.112289,0.0296852 0.112289,0 0.168423,0.0593474 0.252657,0.118718 -0.0280781,0.178111 -0.0280781,0.148426 -0.0842343,0.267167 -0.0280551,0 0.0280781,0.0296622 -0.0842113,0.0296622z"/>
    <path id="_139763136" class="fil47" d="M6.78744 2.01845l0.112289 0.148426 0.224579 -0.118741c-0.0842113,-0.0890555 -0.168423,-0.118718 -0.30879,-0.118718 -0.140367,-0.0593703 -0.140367,-0.0296852 -0.280735,0 0.0842343,-0.0296852 0.196524,0 0.252657,0.0890326z"/>
    <path id="_139764504" class="fil19" d="M1.36935 5.78824c-0.0280551,-0.0296852 0.0280781,0 -0.0842113,-0.0593703 -0.0561332,0 -0.0561332,0 -0.112289,-0.0296852 -0.112289,-0.0890555 -0.0280781,-0.118741 -0.196501,-0.118741l-0.140367 0.0593703c0.140367,0.148426 0.30879,0.178111 0.533369,0.148426z"/>
    <path id="_139764384" class="fil55" d="M7.51733 3.97756c0.140367,0 0.0280781,0 0.0842343,-0.0296852 -0.168446,-0.207773 -0.0842343,-0.237458 -0.336891,-0.356199 -0.112289,0.0593703 -0.0561332,0 0.0561562,0.118741 0.0280781,0.0593474 0.0561332,0.148403 0.0561332,0.237458l0.140367 0.0296852z"/>
    <path id="_139763664" class="fil56" d="M2.1554 6.17413l-0.0280781 0.0593703 0.0561562 0.0296622 0.0842113 0.0296852c0.0280781,0.0593703 0.0561562,0.0890555 0.0280781,0.178111 -0.0280781,0.0890555 -0.0561562,0.0593703 -0.140367,0.0593703l0.0280781 0.0890326c0.252657,0 0.140367,-0.178088 0.224579,-0.326514 -0.140367,0 -0.112289,-0.0593474 -0.0842113,-0.178088 -0.112289,0.0296852 -0.0842343,0.0593703 -0.168446,0.0593703z"/>
    <path id="_139763616" class="fil57" d="M0.920194 2.22625l0 -0.0593703c0,-0.0890555 -0.0561562,-0.207796 0.0280781,-0.267144 0.0280781,-0.0890555 -0.0561562,-0.0890555 0.112289,-0.0296852 0.196501,0.0593703 0.0842113,0.0296852 0.140367,-0.0296852 -0.112289,0 -0.140367,-0.0593703 -0.336891,-0.178111 0,0.0890555 -0.0280551,0.207796 0,0.296829 0,0.0593703 0,0.0890555 0,0.148426 0.0280781,0.118741 0.0561562,0.118741 0.0561562,0.118741z"/>
    <path id="_139762896" class="fil21" d="M0.555248 3.7401c-0.0561562,0.296829 0.224579,0.148403 0.252657,0.0890326l0.0280781 -0.0593703c0,-0.0890326 0,0 0,-0.0593474l-0.140367 -0.0296852c-0.0561562,0.0296852 -0.0842343,0.0593703 -0.140367,0.0593703z"/>
    <path id="_139763568" class="fil58" d="M6.42249 2.34497c0.0842113,-0.0593474 0,0.0296852 0.0842113,-0.0593474 0.0280781,0 0.0561562,-0.0296852 0.0561562,-0.0890555 0.0561562,-0.0593703 0.0280781,-0.118741 0.0842113,-0.207796 0,0 0.0561562,-0.0593474 -0.168423,0 -0.0280781,0 -0.0280781,0 -0.0280781,0l-0.0280781 0.356199z"/>
    <path id="_139755096" class="fil59" d="M5.58031 7.27241c0,-0.0296852 0,0 0.0280781,-0.0890555 0,0 0,-0.0890555 0,-0.0890555l-0.0280781 -0.0593703c-0.112289,-0.118718 -0.0561562,-0.148403 -0.308813,-0.148403 0,0 -0.0561332,0 -0.0561332,0 0,0 0,0.0296852 -0.0280781,0.0296852 0,-0.0296852 0,0 0,0 0.224579,0.0890326 0.30879,0.118718 0.393024,0.356199z"/>
    <path id="_139753824" class="fil47" d="M5.07499 6.32253l0 0.0296852c0.0842113,0 0.0842113,0 0.140367,0.0593703 0.0561332,0.118741 0.0280551,0.0890555 0,0.178111 -0.140367,0.0593474 -0.168446,0.0296622 -0.252657,-0.0296852 0,0.0593474 0.0280781,0.0890326 0.0561332,0.118718 0.168446,0.0296852 0.168446,0 0.252657,-0.0890326 0.0561562,-0.267167 0.0280781,-0.326537 -0.196501,-0.267167z"/>
    <path id="_139757448" class="fil6" d="M1.39743 4.30407c0.0561562,0 0.0280781,0 0.0280781,-0.0296852 0.0561332,-0.148426 0.0280781,-0.148426 -0.0280781,-0.296829 -0.0280781,0.0890555 -0.112289,0.118741 -0.140367,0.207773 -0.0561332,0.118741 0,0.0890555 0.140367,0.118741z"/>
    <path id="_139754208" class="fil22" d="M4.31702 6.91621l-0.0842113 0.267144c-0.0561562,0.0593703 0,0.0296852 -0.112312,0.0890555 0,0.0296852 0,0.0296852 0,0.0296852 -0.0280551,0 -0.0280551,0.0296622 -0.0280551,0.0296622 0.0561332,-0.0296622 0.0561332,0 0.0561332,-0.0593474 0.140367,0.0890326 0.0280781,-0.0593703 0.0561562,0.0890326 0.112289,-0.0593474 0.168423,-0.296829 0.168423,-0.474917 -0.0561332,0.0296852 0,0 -0.0561332,0.0296852z"/>
    <path id="_139754352" class="fil23" d="M6.61901 5.01647c0.0561332,0.0296852 0.0561332,0.0296852 0.112289,0.0890555 0.112289,0.0593703 0.0842113,0 0.112289,0.118718l0.0842113 0.148426 0.0561562 -0.0296852c-0.0280781,-0.0890555 -0.0842343,-0.178088 -0.168446,-0.237458 -0.0561562,-0.0890555 -0.112289,-0.148426 -0.196501,-0.207796 -0.0842343,-0.0296852 -0.0561562,-0.0296852 -0.0561562,0.0593703 0.0842113,0 0.0280781,-0.0296852 0.0561562,0.0593703z"/>
    <path id="_139754448" class="fil55" d="M3.86784 0.267144c0.0280781,0 0.168446,-0.0593703 0,0.207796 -0.0280551,0.0296852 -0.0280551,0.0593474 -0.0561332,0.0890326l-0.0561562 0.0890555c0.168446,-0.0593703 0.0561562,-0.0890555 0.196524,-0.237458 0.0561332,-0.0593703 0.0280781,0 0.0842113,-0.0890555 0.0561562,-0.0593703 0.0280781,-0.0593703 0.0561562,-0.118741l0 -0.0890326c-0.0842343,0.0890326 -0.112289,0.0296852 -0.224602,0.148403z"/>
    <path id="_139754616" class="fil53" d="M6.1137 2.04814c-0.0280781,0.0296852 -0.0842343,0.0593703 0,0.148426 0.0280551,0.0593703 0.112289,0.0593703 0.140345,0 0.0842343,-0.0593703 0.0280781,-0.296829 -0.140345,-0.148426z"/>
    <path id="_139754760" class="fil45" d="M5.10307 0.860824l0 0c-0.0561562,0.178088 -0.0280781,0.0296622 -0.0280781,0.178088 0,0 0,0 0,0l0.0561332 0.0296852c0.140367,-0.0593703 0.0842343,-0.0890555 0.196524,-0.178111 -0.0280781,-0.0890326 0,-0.0296622 -0.0561562,-0.0593474 -0.0280781,0 -0.112289,0 -0.0561332,0.0296852l-0.112289 0z"/>
    <path id="_139754904" class="fil60" d="M1.14477 5.37267c0.0280781,0.0296852 0.0280781,0.118741 0.196524,0.118741 0.0842113,0 0.168423,-0.0296852 0.196501,-0.0890555 0.140367,-0.118741 0.140367,-0.267144 0.0561562,-0.445255 0.0280551,0.148426 0.0280551,0.326514 -0.0842343,0.415569 -0.112289,0.118741 -0.224579,0.0593703 -0.364946,0z"/>
    <path id="_139755120" class="fil53" d="M1.25706 5.28362l0.168446 0c0.0561332,-0.148403 0.0280781,-0.207773 -0.140367,-0.207773l-0.0280781 0.207773z"/>
    <path id="_139755216" class="fil61" d="M2.5765 2.46371c0,0.0890555 -0.0280781,0.0890555 0.0280781,0.118741 0.0842113,0.0593703 0.0280551,0.0593703 0.168423,0.0296852l-0.0280781 -0.148426c-0.0280551,-0.0296852 0.0561562,-0.0296852 -0.0561332,-0.0296852 -0.0561562,-0.0296852 0,-0.0296852 -0.0561562,0 -0.0561332,0 -0.0561332,-0.0296852 -0.0561332,0.0296852z"/>
    <path id="_139755384" class="fil22" d="M0.976351 5.58045c0.168423,0 0.0842113,0.0296852 0.196501,0.118741 0.0561562,0.0296852 0.0561562,0.0296852 0.112289,0.0296852 0.112289,0.0593703 0.0561562,0.0296852 0.0842113,0.0593703l0.336891 -0.0890555c-0.224602,-0.0890555 -0.336891,0.207773 -0.617603,-0.148426 0,-0.0890326 0,-0.0296622 -0.0561562,-0.0296622 -0.0561332,0.0296622 -0.0561332,0.0296622 -0.0561332,0.0593474z"/>
    <path id="_139755528" class="fil62" d="M2.1554 6.53032c0.0842113,0 0.112289,0.0296852 0.140367,-0.0593703 0.0280781,-0.0890555 0,-0.118741 -0.0280781,-0.178111l-0.0842113 -0.0296852 -0.0280781 0.267167z"/>
    <path id="_139755672" class="fil63" d="M4.93463 1.12797l0.0280781 0.118718c0.0280781,0.0593703 0.0280781,0.0296852 0.0842113,0.0593703l-0.0280781 -0.118718c0.0280781,-0.0890555 0,-0.118741 0.0561562,-0.148426 0,-0.148426 -0.0280781,0 0.0280781,-0.178088l-0.112289 0.118718c-0.0561562,0.0890555 -0.0280781,0.0593703 -0.0561562,0.148426z"/>
    <path id="_139755816" class="fil62" d="M6.14175 5.1649l-0.0280551 0.178088 0.140345 -0.0593703c0.0842343,-0.207773 0,-0.178088 -0.0561332,-0.207773l-0.0561562 0.0890555z"/>
    <path id="_139755984" class="fil47" d="M3.67134 7.03493l0.0280781 0.0593703 0.196501 -0.0296852c0,-0.0593703 0.0280781,-0.118718 0,-0.207773 0,-0.0296852 0,-0.0593703 0,-0.0890555l-0.0561332 -0.0593703 0 0.296829c-0.0561562,0.0296852 -0.0842343,0.0593703 -0.168446,0.0296852z"/>
    <path id="_139756152" class="fil34" d="M5.07499 1.03891c-0.0561562,0.0296852 -0.0280781,0.0593703 -0.0561562,0.148426 0.0842343,-0.0296852 0.0280781,-0.0296852 0.112289,0.0296852 0,-0.118741 -0.0280551,-0.0296852 0.0280781,-0.118741 0.0280781,0 0.0561562,0 0.0842113,-0.0296852 0.0561562,-0.0296852 0.0561562,-0.0890555 0.0842343,-0.178111 -0.112289,0.0890555 -0.0561562,0.118741 -0.196524,0.178111l-0.0561332 -0.0296852c0,0 0,0 0,0z"/>
    <path id="_139756296" class="fil63" d="M0.386803 3.65105c0.0842343,0.0593703 0.0842343,0.0593703 0.168446,0.0593703 0,0 0.0561332,-0.0593703 -0.0561562,0 -0.112289,0.0890326 0,0 -0.0561332,0.0593474l0.112289 -0.0296622c0.0561332,0 0.0842113,-0.0296852 0.140367,-0.0593703 0.112289,-0.0296852 0,0.0296852 0.0280781,-0.0593703 -0.112312,0.0296852 -0.168446,0.0296852 -0.336891,0.0296852z"/>
    <path id="_139756464" class="fil64" d="M6.78744 5.28362c0,-0.0890555 -0.0280781,-0.0593703 0.0561562,-0.0593703 -0.0280781,-0.118718 0,-0.0593474 -0.112289,-0.118718 -0.0561562,-0.0593703 -0.0561562,-0.0593703 -0.112289,-0.0890555l-0.0280781 0.0296852c0.0561332,0.0593703 0.0561332,0.0593703 0.0842113,0.118741 0.0280781,0.0296622 0.0280781,0 0.0561562,0.0296622 0,0.0296852 0,0.0296852 0,0.0296852l0.0561332 0.0593703z"/>
    <path id="_139756632" class="fil65" d="M1.22901 3.59168c0.112289,0 0.140345,-0.0296852 0.112289,-0.178111l-0.112289 0c-0.0280781,0.118741 -0.0280781,0.0593703 0,0.178111z"/>
    <path id="_139756776" class="fil61" d="M1.70624 2.19657l0.140367 0c0.0280551,-0.148426 0.0280551,-0.148426 -0.112312,-0.148426 -0.0280551,0.0593703 -0.0280551,0.0593703 -0.0280551,0.148426z"/>
    <path id="_139756920" class="fil64" d="M2.68879 6.85684c0.0561332,0 0.0280781,0 0.0280781,0.0296852 0.168423,-0.0593703 0.112289,-0.0593703 0.196501,-0.178111l-0.0280781 -0.0593703c-0.0842113,0.0890555 -0.140367,0.118741 -0.196501,0.207796z"/>
    <path id="_139757064" class="fil61" d="M3.61519 1.0686c0.112312,0.0593703 0.112312,0.0296852 0.140367,-0.0296852l0 -0.0890555 -0.140367 0 0 0.118741z"/>
    <path id="_139757232" class="fil53" d="M6.14175 5.58045c0.0842343,0 0.0842343,0 0.140367,-0.0296852l0 -0.0890326c-0.112289,-0.0593703 -0.112289,-0.0593703 -0.140367,0.0296852 0,0.0593474 0,0 0,0.0890326z"/>
    <path id="_139757400" class="fil66" d="M2.32385 1.57322c0.112289,0.0593474 0.168423,0.0593474 0.140367,-0.0890555 -0.112289,-0.0593703 -0.140367,-0.0296852 -0.140367,0.0890555z"/>
    <path id="_139757568" class="fil53" d="M2.40806 6.29284l0.0280781 -0.148403 -0.112289 -0.0296852c-0.0280781,0.118741 -0.0561562,0.178088 0.0842113,0.178088z"/>
    <path id="_139757712" class="fil21" d="M6.67515 3.65105c-0.0280781,0.0296852 -0.0280781,0.0296852 0,0.0890555 0,0.0296622 0,0.0296622 0,0.0296622l0.112289 0 0 -0.148403c-0.0280781,0 -0.0280781,0 -0.0561332,0 -0.0561562,0 -0.0561562,0 -0.0561562,0.0296852z"/>
    <path id="_139757856" class="fil40" d="M1.59395 5.04616l-0.0280781 -0.118741 -0.0842343 0 -0.0280551 0.118741c0.140367,0.0296852 0.0561332,0.0296852 0.140367,0z"/>
    <path id="_139757976" class="fil21" d="M6.28212 2.37465l-0.0280781 0.0296852 0.112312 0 0 -0.118718c-0.0280781,-0.0296852 -0.0280781,-0.0296852 -0.112312,0l0.0280781 0.0890326z"/>
    <path id="_139758144" class="fil53" d="M5.04692 1.30606l0.0842113 0.0296852 0 -0.0296852 0 -0.0890326c-0.0842113,-0.0593703 -0.0280551,-0.0593703 -0.112289,-0.0296852l0.0280781 0.118718z"/>
    <path id="_139758552" class="fil67" d="M1.03248 2.31528c-0.0280781,-0.0890326 -0.0280781,-0.0890326 -0.112289,-0.148403l0 0.0593703c0.0842113,0.118718 0,0.0890326 0.112289,0.0890326z"/>
    <path id="_139758648" class="fil68" d="M6.70322 4.00725l0.0280781 -0.118741c-0.112289,0 -0.0280781,-0.0296852 -0.112289,0.0593703l0.0842113 0.0593703z"/>
    <path id="_139758816" class="fil69" d="M6.14175 5.1649l0.0561562 -0.0890555c-0.0280781,0.0296852 -0.0280781,-0.0890555 -0.0561562,0.0890555z"/>
    <path id="_139758984" class="fil69" d="M3.67134 0.415569c0,0 0,-0.0296852 0,-0.0296852 0.0280781,0.0296852 0.0280781,0 0.0280781,0 0.0280781,-0.0593703 0,0 0.0280781,-0.0593703 -0.0280781,0.0296852 -0.0280781,-0.0296852 -0.0561562,0.0890555z"/>
   </g>
   <g>
    <path id="_211211480" class="fil70" d="M2.18892 3.61121l-0.0643753 0 -0.0321876 0.0340473 -0.0321876 0c0,0.0340243 0,0.0340243 -0.0321876,0.0340243l-0.0321876 0c0,0.0340473 0,0.0340473 -0.0321876,0.0340473l-0.0321876 0 -0.0322106 0.0340473 -0.0965629 0.0680716 -0.0321876 0.0340473 -0.0321876 0.0340473 -0.0643753 0.102119 -0.0321876 0.0340473 -0.0643982 0.170213 -0.354087 0.0340243 -0.0643753 0.0340473 -0.0321876 0 -0.0321876 0.0340473 -0.0321876 0 -0.0322106 0.0340243 -0.0965629 0.0680945 -0.0321876 0.0340473 -0.0321876 0.0340243 -0.0643753 0.102142 -0.0321876 0.0340243 0 0.0340473 -0.0322106 0.0340473 0 0.0340473 -0.0321876 0.0340243 0 0.0680945 -0.0321876 0.102119 0 0.272332 0.0321876 0.0680716 0 0.0680945 0.0321876 0.0340473c-0.0321876,0.0680716 0,0.0680716 -0.128751,0.0680716l-0.0643753 0.0340473 -0.0321876 0c0,0.0680716 0,0.0340243 -0.0321876,0.0340243l-0.0965859 0.0340473c0,0.0340473 0,0.0340473 -0.0321876,0.0340473l-0.0643753 0.0340473 -0.0321876 0.0340243 -0.0321876 0.0340473 -0.0322106 0.0340473 -0.0321876 0.0340473 -0.0321876 0.0680716 -0.0321876 0.0340473 0 0.0340473c0,0.0340243 0,0.0340243 -0.0321876,0.0340243l0 0.0340473 -0.0321876 0.0340473 0 0.0680716 -0.0321876 0.102119 0 0.272332 0.0321876 0.0680945 0 0.0680716 0.0321876 0.0340473 0 0.0340473c0.0321876,0 0.0321876,0 0.0321876,0.0340473l0 0.0340243 0.0321876 0.0340473 0.0321876 0.0680716 0.0321876 0.0340473 0.0322106 0.0340473 0.0321876 0.0340473 0.0321876 0.0340243 0.257524 0.136166 0.0643753 0.0340473 0 0 0.0643753 0c0.128774,0 0.225336,0.0340473 0.354087,0 0.0965859,-0.0680716 0.128774,-0.102119 0.193149,-0.0340473l0.128774 0.0680945 0.0965629 0.0340473 0.128751 0.0340243c0.257524,0.0340473 0.321899,0.0340473 0.579423,0l0.225336 -0.102119c0.0643753,-0.0340473 0.0643753,-0.0340473 0.128774,-0.0680716l0.0643753 -0.0680945 0.160938 0.0680945c0.160961,0.0680716 0.289712,0.102119 0.48286,0.0680716l0.160961 -0.0340473 0.0965629 -0.0680716 0.0321876 -0.0340473c0.0643753,-0.0340473 0,-0.0340473 0.0965629,-0.0340473l0.0322106 0.0340473 0.0643753 0.0340473 0.225336 0 0.0321876 -0.0340473 0.0643753 0 0.0321876 -0.0340473c0.0965629,-0.0680716 0.0965629,-0.0680716 0.160961,-0.17019l0.0321876 -0.0340473 0 -0.0340473 0.0321876 -0.0680716 0 -0.238285 -0.0321876 -0.0340473 -0.0321876 -0.102119 -0.0321876 -0.0340473 -0.0643982 -0.0680945c-0.0321876,0 -0.0321876,0 -0.0321876,-0.0340243l-0.0643753 -0.0340473 -0.0643753 -0.0340473 -0.0321876 0c-0.0322106,0 -0.0965859,0 -0.0965859,0 -0.128751,-0.0340243 -0.0321876,0 -0.0643753,-0.0340243l-0.0321876 -0.0340473 0 -0.0340473 -0.0321876 -0.0340473 -0.0321876 -0.0680716c-0.0321876,-0.0340473 -0.0321876,0 0,-0.0340473l0.128751 -0.0680716 0.0321876 -0.0340473 0.0321876 -0.0340473 0.0965859 -0.102119 0.0321876 -0.0340473 0.0321876 -0.0680716 0.0321876 -0.0340473 0 -0.0340473 0.0321876 -0.0340243 0 -0.0340473 0.0321876 -0.0680945 0 -0.102119 0 -0.238285 0 -0.102119 -0.0321876 -0.0680945 0 -0.0340243 -0.0321876 -0.0340473 0 -0.0340473 -0.0321876 -0.0340473 -0.0321876 -0.0680716 -0.0321876 -0.0340473 -0.0321876 -0.0340473 -0.0643982 -0.0680716 -0.0321876 -0.0340473 -0.0321876 -0.0340473 -0.160938 -0.0680716 -0.0322106 -0.0340473 -0.0643753 0 -0.0643753 -0.0340243 -0.225336 0c-0.0643753,0 -0.0321876,0 -0.0321876,-0.0340473l-0.0321876 -0.102119c-0.0321876,0 -0.0321876,0 -0.0321876,-0.0340473l-0.0321876 -0.0680945 -0.0321876 -0.0340243 -0.0965859 -0.102142 -0.0321876 -0.0340243 -0.0321876 -0.0340473 -0.0643753 -0.0340473 -0.0321876 -0.0340473 -0.0321876 0 -0.0321876 -0.0340243 -0.0643982 0 -0.0321876 -0.0340473 -0.0643753 0 -0.0965629 -0.0340473 -0.257524 0 -0.0643982 0.0340473z"/>
    <path id="_211221848" class="fil71" d="M0.997886 5.58561c0.0643982,0.0680716 0.386298,0.204238 0.386298,0.510617l-0.0321876 -0.102119c-0.193149,-0.102142 -0.289712,-0.238308 -0.579423,-0.238308 -0.321922,0.0340473 -0.35411,0.170213 -0.547236,0.272332l0 -0.0340243c0,0.102119 0.0321876,0.0680716 -0.0322106,0.0680716l0 0.0680716 0 0.272332 0 0.0680945 0.0322106 0.0340473 0 0.0340243 0.0321876 0.0340473 0.0321876 0.0680945 0.0321876 0.0340243 0.0965629 0.102119 0.0321876 0.0340473c0.193149,0.0680945 0.225336,0.102119 0.48286,0.102119l0.0643753 -0.0340243 0.160961 -0.0680945c0,-0.0340473 0,-0.0340473 0.0321876,-0.0340473l0.0643753 0.0340473 0.0321876 0.0340473 0.0643982 0.0340473 0.0321876 0.0340243 0.0321876 0 0.0321876 0.0340473 0.0321876 0 0.0321876 0.0340473 0.0643753 0 0.0643982 0.0340473 0.128751 0 0.160961 0 0.128751 0 0.0643753 -0.0340473 0.0643753 0 0.0322106 -0.0340473 0.0321876 0 0.0321876 -0.0340473 0.0321876 0 0.0321876 -0.0340243 0.0643753 -0.0340473 0.0321876 -0.0340473 0.160961 -0.136166 0.0321876 0.0340473 0.0643753 0.0680716 0.0321876 0.0340473 0.160961 0.0680945 0.0643753 0.0340243 0.225336 0 0.0643753 -0.0340243 0.193149 -0.102142 0.0321876 -0.0340243 0.0321876 -0.0340473 0.0643753 -0.0680716c0.0643982,0.102119 0,0.0340243 0.0965859,0.102119l0.0321876 0.0340243 0.0321876 0 0.193149 0 0.0321876 0 0.0321876 -0.0340243 0.0643753 -0.0680945 0.0321876 -0.0340243 0 -0.0340473 0.0321876 -0.0680945 0 -0.102119 -0.0321876 -0.0340473 0 0c-0.0965629,-0.102119 -0.160938,-0.136166 -0.321899,-0.136166 -0.0643753,0.0340473 -0.160961,0.0680945 -0.225336,0.170213 0.0321876,-0.136166 0.0321876,-0.102119 0.0965859,-0.170213l0 -0.102119 -0.0322106 -0.0340473c-0.0321876,-0.0340243 -0.0321876,-0.0340243 -0.0965629,-0.0680716 -0.193149,-0.136166 -0.45065,-0.238285 -0.740362,-0.102119 0,0 -0.0643982,0.0340473 -0.0643982,0.0680716 -0.0965629,0.0340473 0,0 -0.0965629,0.0340473l-0.0965629 0.102119c0.0321876,-0.102119 0.0643753,-0.17019 0.128751,-0.238285 0.0965629,-0.136166 0.128774,-0.0680716 0.128774,-0.204238l0 -0.0340473c-0.0643982,-0.0680945 -0.160961,-0.204261 -0.193149,-0.238285 -0.289712,-0.136166 -0.676009,-0.442546 -1.25543,-0.102119 -0.193126,0.102119 -0.160938,0.136143 -0.321899,0.238285z"/>
    <path id="_211219280" class="fil71" d="M1.73827 4.42821c0.160938,0.102119 0.257524,0.17019 0.321899,0.374451l0.225336 0.0680716 0.0321876 0.0340473 0.0965629 0.0340473 0.0321876 0.0340243c0.160961,0.102142 0.289712,0.238308 0.386298,0.408498l0.0321876 0.0340473 0 0.0340473 0.0321876 0.0340243c0.0643753,0.0680945 0.193149,0.0340473 0.289712,0.0340473l0.0643753 0.0340473 0.0643753 0 0.0322106 0.0340473 0.0321876 0 0.0321876 0.0340243 0.0321876 0 0.0321876 0.0340473c0.0965629,0.0680945 0.128751,0.0340473 0.225336,-0.0340473l0.0321876 -0.0340243c0.0965629,-0.0680945 0.128751,-0.102142 0.193149,-0.238285l0.0321876 -0.0340473 0 -0.0340473 0.0321876 -0.0340473 0 -0.102119 0 -0.238285 0 -0.0680716 -0.0643753 0.0680716 -0.0643982 -0.136166c-0.0643753,-0.0340473 0,0 -0.0643753,-0.0340473l-0.160938 -0.102119c-0.386298,-0.204238 -0.643822,0.0680945 -0.80476,0.136166l-0.0965859 0.170213c0.0643982,-0.272332 0.128774,-0.442546 0.35411,-0.510617 -0.0643982,-0.306379 -0.35411,-0.510617 -0.708197,-0.476593 -0.289712,0 -0.643799,0.170213 -0.643799,0.476593z"/>
    <path id="_211215968" class="fil72" d="M0.901323 4.80266l-0.0321876 0.0680716 -0.0321876 -0.0680716 0 0.0340473c0,0.0680716 0.0321876,0.0680716 -0.0321876,0.0680716l0 0.272332 0.0321876 0.0340473 0 0.0680716 0.0321876 0.0340473 0.0321876 0c0.0965629,-0.170213 0.128751,-0.204261 0.289712,-0.306379l0.0321876 -0.0340473 0.160961 -0.0680716 0.0321876 -0.0340473 0.0321876 0 0.0321876 -0.0340243 0.0643753 0 0.0965859 -0.0340473 0.0643753 0c0.0965629,-0.0680945 0.0965629,-0.0680945 0.225336,-0.0340473 -0.0322106,-0.0680716 0,-0.0340473 -0.0965859,-0.102119 -0.193126,-0.136166 -0.482837,-0.136166 -0.708174,-0.0340473l-0.225336 0.170213z"/>
    <path id="_141735848" class="fil73" d="M2.22113 3.74738l-0.0643982 0 -0.0321876 0.0340473 -0.193126 0.102119 -0.0322106 0.0340473 -0.0643753 0.0680716 -0.0321876 0.0340473 -0.160938 0.306356c-0.0322106,0.0340473 -0.0643982,0.0680945 -0.0643982,0.0680945l0.160961 0.0340473c0,-0.306379 0.354087,-0.476593 0.643799,-0.476593 0.354087,-0.0340243 0.643799,0.170213 0.708197,0.476593l0.128751 -0.0340473c0,0 -0.0321876,0 -0.0321876,0l-0.0321876 -0.0680945 0 -0.0340243 -0.0321876 -0.0340473c-0.0643753,-0.238285 -0.193149,-0.340404 -0.354087,-0.442546l-0.0322106 -0.0340243c-0.193126,-0.0680945 -0.225313,-0.0680945 -0.45065,-0.0680945l-0.0643753 0.0340473z"/>
    <path id="_141719216" class="fil74" d="M0.257524 5.96006c0.160938,-0.170213 0.289712,-0.272332 0.579423,-0.272332 0.257524,0 0.386275,0.136166 0.515048,0.306379l0.0321876 0.102119c0,-0.306379 -0.321899,-0.442546 -0.386298,-0.510617 0.128774,-0.204261 0.35411,-0.442546 0.643822,-0.476593 0.482837,-0.0680716 0.547213,0.102142 0.836947,0.204261l0.160938 0.136166c-0.257524,-0.68083 -1.48075,-0.578712 -1.67389,0.136166 -0.354087,0 -0.611611,0.102119 -0.708174,0.374451z"/>
    <path id="_141725360" class="fil75" d="M3.09027 4.42821c-0.225336,0.0680716 -0.289712,0.238285 -0.35411,0.510617l0.0965859 -0.170213c0.128751,-0.170213 0.225336,-0.272332 0.515048,-0.272332 0.128751,0 0.225313,0 0.321899,0.0680945 0.0965629,0.0680716 0.128751,0.136166 0.193126,0.204238l0.0643982 0.136166 0.0643753 -0.0680716c-0.0643753,-0.374474 -0.418485,-0.578712 -0.836947,-0.51064l0.0321876 0.0680945c0,0 0.0321876,0 0.0321876,0l-0.128751 0.0340473z"/>
    <path id="_141719144" class="fil76" d="M0.836947 4.80266l0.0321876 0.0680716 0.0321876 -0.0680716c0.321899,-0.476593 0.772572,-0.374451 1.09447,-0.0680945l-0.0643753 0.0340473c-0.128774,-0.0340473 -0.128774,-0.0340473 -0.225336,0.0340473l0.354087 0c-0.0643753,-0.204261 -0.160961,-0.272332 -0.321899,-0.374451l-0.160961 -0.0340473c0,0 0.0321876,-0.0340473 0.0643982,-0.0680945 -0.193149,0.0340473 -0.257524,-0.0680716 -0.48286,0.0680945 -0.0965629,0.0680716 -0.128774,0.102119 -0.193149,0.170213 -0.0965629,0.102119 -0.0965629,0.102119 -0.128751,0.238285z"/>
    <path id="_141736832" class="fil73" d="M0.997886 5.58561c0.160961,-0.102142 0.128774,-0.136166 0.321899,-0.238285 0.579423,-0.340427 0.965721,-0.0340473 1.25543,0.102119 -0.0321876,-0.136166 0.0321876,0 -0.0965629,-0.136166 -0.289735,-0.102119 -0.35411,-0.272332 -0.836947,-0.204261 -0.289712,0.0340473 -0.515048,0.272332 -0.643822,0.476593z"/>
    <path id="_141731504" class="fil76" d="M2.60741 6.06218c0.289712,-0.374451 0.772572,-0.306379 0.901323,0 0.0643753,0.0340473 0.0643753,0.0340473 0.0965629,0.0680716 -0.0643753,-0.272309 -0.321899,-0.442523 -0.579423,-0.408475 -0.0321876,0 -0.128751,0.0340243 -0.128751,0.0340243 -0.160961,0 -0.0321876,0.0340473 -0.128751,-0.0340243 0,0.136166 -0.0322106,0.0680716 -0.128774,0.204238 -0.0643753,0.0680945 -0.0965629,0.136166 -0.128751,0.238285l0.0965629 -0.102119z"/>
    <path id="_141731576" class="fil73" d="M0.257524 5.96006l-0.0321876 0.0680716c0.193126,-0.102119 0.225313,-0.238285 0.547236,-0.272332 0.289712,0 0.386275,0.136166 0.579423,0.238308 -0.128774,-0.170213 -0.257524,-0.306379 -0.515048,-0.306379 -0.289712,0 -0.418485,0.102119 -0.579423,0.272332z"/>
    <path id="_141707600" class="fil73" d="M0.901323 4.80266l0.225336 -0.170213c0.225336,-0.102119 0.515048,-0.102119 0.708174,0.0340473 0.0965859,0.0680716 0.0643753,0.0340473 0.0965859,0.102119l0.0643753 -0.0340473c-0.321899,-0.306356 -0.772572,-0.408498 -1.09447,0.0680945z"/>
    <path id="_141709952" class="fil73" d="M2.83274 4.76861c0.160938,-0.0680716 0.418462,-0.340404 0.80476,-0.136166l0.160938 0.102119c0.0643753,0.0340473 0,0 0.0643753,0.0340473 -0.0643753,-0.0680716 -0.0965629,-0.136166 -0.193126,-0.204238 -0.0965859,-0.0680945 -0.193149,-0.0680945 -0.321899,-0.0680945 -0.289712,0 -0.386298,0.102119 -0.515048,0.272332z"/>
    <path id="_141708008" class="fil77" d="M2.60741 6.06218c0.0965629,-0.0340473 0,0 0.0965629,-0.0340473 0,-0.0340243 0.0643982,-0.0680716 0.0643982,-0.0680716 0.289712,-0.136166 0.547213,-0.0340473 0.740362,0.102119 -0.128751,-0.306379 -0.611611,-0.374451 -0.901323,0z"/>
    <path id="_141721736" class="fil78" d="M3.6375 6.26642c-0.0643982,0.0680945 -0.0643982,0.0340473 -0.0965859,0.170213 0.0643753,-0.102119 0.160961,-0.136166 0.225336,-0.170213 0.160961,0 0.225336,0.0340473 0.321899,0.136166l-0.0321876 -0.102119c-0.128751,-0.102119 -0.257524,-0.170213 -0.418462,-0.0340473z"/>
    <path id="_141720440" class="fil79" d="M2.51084 7.01534c0.0643753,0.0680716 -0.0965859,0.0340243 0.0965629,0.0680716 0.193149,0 0.0965629,-0.0340473 0.128751,-0.0680716l-0.160938 -0.0680945 -0.0643753 0.0680945z"/>
    <path id="_141720824" class="fil80" d="M2.57522 5.44944c0.0321876,0.0340243 0.128751,0.17019 0.193149,0.238285 -0.0322106,-0.0680945 -0.0322106,-0.0680945 -0.0643982,-0.136166 -0.0321876,-0.102119 -0.0321876,-0.102119 -0.0643753,-0.102119l-0.160938 -0.136166c0.128751,0.136166 0.0643753,0 0.0965629,0.136166z"/>
    <path id="_141719888" class="fil81" d="M0.193126 6.40258l0 -0.272332c-0.0643753,0.0680945 -0.0321876,0.0680945 -0.0321876,0.170213l0.0321876 0.102119z"/>
    <path id="_141714704" class="fil82" d="M3.99159 5.14307c0,0 0.0321876,0 0.0321876,-0.102119 0,-0.102119 0,-0.102119 -0.0321876,-0.136166l0 0.238285z"/>
    <path id="_141715280" class="fil83" d="M3.92721 6.77704l-0.193149 0c0.0643753,0.0680945 0.0965629,0.0680945 0.193149,0z"/>
    <path id="_141709976" class="fil82" d="M4.12034 5.14307c0,0 0.0321876,0.0340473 0.0321876,-0.0680716 0,0 0,-0.0680945 0,-0.0680945l-0.0321876 -0.102119 0 0.238285z"/>
    <path id="_141714848" class="fil84" d="M3.92721 6.02813c-0.0643982,-0.0680716 -0.0643982,-0.0340243 -0.160961,-0.0340243 0.0321876,0.0340243 -0.0643753,0 0.0643753,0.0340243 0,0 0.0643753,0 0.0965859,0z"/>
    <path id="_141724856" class="fil81" d="M0.225336 5.99411c-0.0643982,0 -0.0322106,0 -0.0322106,0.0680716 0.0643982,0 0.0322106,0.0340473 0.0322106,-0.0680716z"/>
    <path id="_141710576" class="fil85" d="M0.836947 4.83671c-0.0643753,0 -0.0321876,-0.0340473 -0.0321876,0.0680716 0.0643753,0 0.0321876,0 0.0321876,-0.0680716z"/>
    <path id="_141736856" class="fil86" d="M1.93142 7.01534l-0.160961 0c0.0643753,0.0340243 0.0965629,0.0340243 0.160961,0z"/>
    <path id="_141714728" class="fil87" d="M4.12034 6.53875l-0.0321876 0.0680945c0.0643753,0 0.0321876,0 0.0321876,-0.0680945z"/>
    <path id="_141714944" class="fil88" d="M3.99159 5.24518l-0.0321876 0.0340473c0.0643753,0 0.0321876,0 0.0321876,-0.0340473z"/>
    <path id="_141715112" class="fil89" d="M0.740362 4.70054c-0.0643753,0 -0.0321876,0 -0.0321876,0.0340243l0.0321876 -0.0340243z"/>
    <path id="_141708104" class="fil88" d="M3.2512 4.18993l-0.0321876 -0.0340473c0,0.0340473 -0.0321876,0.0340473 0.0321876,0.0340473z"/>
    <path id="_141710792" class="fil88" d="M0.225336 6.50473l-0.0322106 -0.0340473c0,0.0340473 -0.0321876,0.0340473 0.0322106,0.0340473z"/>
    <path id="_141715184" class="fil88" d="M1.51293 6.9813l-0.0321876 -0.0340473c0,0.0680945 0,0.0340473 0.0321876,0.0340473z"/>
    <path id="_141709376" class="fil88" d="M2.22113 6.94725l-0.0322106 0.0340473c0.0322106,0 0.0322106,0.0340473 0.0322106,-0.0340473z"/>
    <path id="_141719936" class="fil87" d="M4.12034 6.43663c0,-0.0680716 0.0321876,-0.0340473 -0.0321876,-0.0340473l0.0321876 0.0340473z"/>
    <path id="_141722336" class="fil88" d="M0.515048 5.44944l-0.0321876 0.0340243c0.0321876,0 0.0321876,0.0340473 0.0321876,-0.0340243z"/>
    <path id="_141710960" class="fil90" d="M4.05596 4.63245c0,-0.0340473 0,-0.0340473 -0.0321876,-0.0340473l0.0321876 0.0340473z"/>
    <path id="_141711512" class="fil88" d="M2.31769 4.90478l-0.0321876 -0.0340473c0,0.0340473 0,0.0340473 0.0321876,0.0340473z"/>
    <path id="_141713672" class="fil88" d="M2.44644 4.97285l-0.0321876 -0.0340243c0,0.0340243 0,0.0340243 0.0321876,0.0340243z"/>
    <path id="_141709664" class="fil86" d="M0.901323 5.31328l-0.0321876 0c0.0321876,0.0680716 0,0.0340473 0.0321876,0z"/>
    <path id="_141713984" class="fil88" d="M2.89712 5.48347l-0.0321876 -0.0340243c0,0.0340243 0,0.0340243 0.0321876,0.0340243z"/>
    <path id="_141725336" class="fil85" d="M0.386275 5.51752l-0.0321876 0.0340473c0.0321876,0 0.0321876,0 0.0321876,-0.0340473z"/>
    <path id="_141711008" class="fil88" d="M3.41216 5.61964l-0.0321876 -0.0340243c0,0.0340243 0,0.0340243 0.0321876,0.0340243z"/>
    <path id="_141711440" class="fil88" d="M1.19103 6.77704c-0.0321876,0 -0.0321876,0 -0.0321876,0.0340473l0.0321876 -0.0340473z"/>
    <path id="_141714752" class="fil90" d="M0.128751 5.78985c-0.0321876,0 -0.0321876,0 -0.0321876,0.0340473l0.0321876 -0.0340473z"/>
    <path id="_141720200" class="fil91" d="M0.0965629 5.85794l-0.0321876 0.0340243c0.0321876,0 0.0321876,0 0.0321876,-0.0340243z"/>
    <path id="_141713792" class="fil92" d="M3.73406 5.92601c0,-0.0340473 0,-0.0340473 -0.0321876,-0.0340473l0.0321876 0.0340473z"/>
    <path id="_141719192" class="fil89" d="M3.76625 5.99411c0,-0.0340473 0,-0.0340473 -0.0321876,-0.0340473l0.0321876 0.0340473z"/>
    <path id="_141708920" class="fil91" d="M4.12034 6.13025l-0.0321876 -0.0340243c0,0.0340243 0,0.0340243 0.0321876,0.0340243z"/>
    <path id="_141713768" class="fil86" d="M0.257524 6.5728l-0.0321876 -0.0340473c0,0.0340473 0,0.0340473 0.0321876,0.0340473z"/>
    <path id="_141711608" class="fil91" d="M0.0965629 6.64089c0,-0.0340473 0,-0.0340473 -0.0321876,-0.0340473l0.0321876 0.0340473z"/>
    <path id="_141710552" class="fil86" d="M4.08815 6.64089l-0.0321876 0.0340243c0.0321876,0 0.0321876,0 0.0321876,-0.0340243z"/>
    <path id="_141725264" class="fil86" d="M2.63959 6.70896l-0.0321876 -0.0340473c0,0.0340473 0,0.0340473 0.0321876,0.0340473z"/>
    <path id="_141731672" class="fil90" d="M4.24911 6.70896l-0.0321876 0.0340473c0.0321876,0 0.0321876,0 0.0321876,-0.0340473z"/>
    <path id="_141719408" class="fil85" d="M3.99159 6.74301l-0.0321876 0.0340243c0.0321876,0 0.0321876,0 0.0321876,-0.0340243z"/>
    <path id="_141707792" class="fil85" d="M0.45065 6.81108l-0.0321876 -0.0340473c0,0.0340473 0,0.0340473 0.0321876,0.0340473z"/>
    <path id="_141724928" class="fil91" d="M3.86281 5.65368l-0.0321876 0.0340473c0.0321876,0 0.0321876,0 0.0321876,-0.0340473z"/>
    <path id="_141719048" class="fil86" d="M1.38418 6.9132l-0.0321876 -0.0340243c0,0.0340243 0,0.0340243 0.0321876,0.0340243z"/>
    <path id="_141731384" class="fil93" d="M3.6375 6.94725l-0.0322106 -0.0340473c0,0.0340473 0,0.0340473 0.0322106,0.0340473z"/>
    <path id="_141724904" class="fil92" d="M4.05596 6.9132l-0.0321876 0.0340473c0.0321876,0 0.0321876,0 0.0321876,-0.0340473z"/>
    <path id="_211214024" class="fil91" d="M3.9594 4.49628c0,-0.0340473 0,-0.0340473 -0.0321876,-0.0340473l0.0321876 0.0340473z"/>
    <path id="_211220000" class="fil89" d="M0.80476 4.56438c-0.0321876,0 -0.0321876,0 -0.0321876,0.0340243l0.0321876 -0.0340243z"/>
    <path id="_211212080" class="fil90" d="M4.08815 4.70054c0,-0.0340473 0,-0.0340473 -0.0321876,-0.0340473l0.0321876 0.0340473z"/>
    <path id="_211201544" class="fil88" d="M1.41637 4.87073l-0.0321876 0.0340473c0.0321876,0 0.0321876,0 0.0321876,-0.0340473z"/>
    <path id="_211220336" class="fil92" d="M2.86493 3.71333c0,-0.0340473 0,-0.0340473 -0.0321876,-0.0340473l0.0321876 0.0340473z"/>
    <path id="_211215608" class="fil90" d="M1.93142 3.71333c-0.0322106,0 -0.0322106,0 -0.0322106,0.0340473l0.0322106 -0.0340473z"/>
    <path id="_211222496" class="fil91" d="M2.06017 3.64526l-0.0321876 0.0340243c0.0321876,0 0.0321876,0 0.0321876,-0.0340243z"/>
    <path id="_211216040" class="fil92" d="M2.80055 3.67929c0,-0.0340243 0,-0.0340243 -0.0321876,-0.0340243l0.0321876 0.0340243z"/>
    <path id="_211219880" class="fil91" d="M1.99579 3.67929l-0.0321876 0.0340473c0.0321876,0 0.0321876,0 0.0321876,-0.0340473z"/>
    <path id="_211218224" class="fil91" d="M3.18683 4.05376l-0.0321876 -0.0340473c0,0.0340473 0,0.0340473 0.0321876,0.0340473z"/>
    <path id="_211219328" class="fil92" d="M1.06228 4.29204c-0.0322106,0 -0.0322106,0 -0.0322106,0.0340243l0.0322106 -0.0340243z"/>
    <path id="_211219568" class="fil90" d="M3.66969 5.8239l0 -0.0340473c-0.0321876,0.0340473 -0.0321876,0 0,0.0340473z"/>
    <polygon id="_211215104" class="fil91" points="2.70397,3.64526 2.67178,3.61121 "/>
    <polygon id="_211218848" class="fil81" points="2.28551,3.71333 2.22113,3.74738 "/>
    <polygon id="_211213760" class="fil85" points="2.15673,3.74738 2.12454,3.78143 "/>
    <polygon id="_211213976" class="fil92" points="2.96149,3.78143 2.9293,3.74738 "/>
    <polygon id="_211215872" class="fil88" points="2.76837,3.81545 2.73616,3.78143 "/>
    <polygon id="_211214312" class="fil91" points="2.99368,3.81545 2.96149,3.78143 "/>
    <polygon id="_211212848" class="fil94" points="1.80265,3.81545 1.77046,3.8495 "/>
    <polygon id="_211213520" class="fil94" points="1.77046,3.8495 1.73827,3.88355 "/>
    <polygon id="_211216832" class="fil88" points="1.93142,3.88355 1.89921,3.91759 "/>
    <polygon id="_211212896" class="fil85" points="3.12245,3.95162 3.09027,3.91759 "/>
    <polygon id="_211221776" class="fil90" points="1.67389,3.98566 1.64171,4.01971 "/>
    <polygon id="_211220960" class="fil85" points="1.83483,3.98566 1.80265,4.01971 "/>
    <polygon id="_211217072" class="fil89" points="3.54092,4.22395 3.47654,4.18993 "/>
    <polygon id="_211212728" class="fil81" points="1.22322,4.22395 1.15885,4.258 "/>
    <polygon id="_211206440" class="fil85" points="3.6375,4.258 3.60529,4.22395 "/>
    <polygon id="_211211984" class="fil91" points="-0,6.13025 0.0321876,6.02813 "/>
    <polygon id="_211213712" class="fil92" points="0.193126,5.68773 0.160938,5.72178 "/>
    <polygon id="_211213856" class="fil95" points="3.6375,6.1643 3.60529,6.13025 "/>
    <polygon id="_211222256" class="fil85" points="4.21692,6.23239 4.18474,6.19835 "/>
    <polygon id="_211215272" class="fil85" points="3.99159,5.51752 3.9594,5.55156 "/>
    <polygon id="_211213688" class="fil89" points="0.740362,5.34733 0.708174,5.31328 "/>
    <polygon id="_211214792" class="fil90" points="4.2813,6.36856 4.24911,6.33451 "/>
    <polygon id="_211216280" class="fil96" points="3.2512,5.55156 3.18683,5.51752 "/>
    <polygon id="_211216616" class="fil81" points="0.0321876,6.47068 -0,6.40258 "/>
    <polygon id="_211215344" class="fil90" points="4.05596,5.4154 4.02378,5.44944 "/>
    <polygon id="_211213352" class="fil90" points="0.0643753,6.5728 0.0321876,6.53875 "/>
    <polygon id="_211215680" class="fil81" points="0.611611,5.4154 0.547236,5.44944 "/>
    <polygon id="_211212584" class="fil89" points="3.83063,5.68773 3.79844,5.72178 "/>
    <polygon id="_211215080" class="fil89" points="0.321899,6.67492 0.289712,6.64089 "/>
    <polygon id="_211214336" class="fil94" points="0.257524,5.61964 0.225336,5.65368 "/>
    <polygon id="_211215368" class="fil82" points="4.24911,6.67492 4.2813,6.60685 "/>
    <polygon id="_211215224" class="fil90" points="0.128751,6.70896 0.0965629,6.67492 "/>
    <polygon id="_211216136" class="fil86" points="3.73406,5.58561 3.70188,5.61964 "/>
    <polygon id="_211220984" class="fil88" points="3.50873,6.70896 3.47654,6.74301 "/>
    <polygon id="_211212824" class="fil94" points="0.225336,5.65368 0.193126,5.68773 "/>
    <polygon id="_211214552" class="fil88" points="3.47654,6.74301 3.44435,6.77704 "/>
    <polygon id="_211221560" class="fil89" points="3.70188,6.77704 3.66969,6.74301 "/>
    <polygon id="_211216688" class="fil89" points="0.0643753,5.92601 0.0321876,5.96006 "/>
    <polygon id="_211211720" class="fil94" points="0.193126,6.81108 0.160938,6.77704 "/>
    <polygon id="_211216472" class="fil86" points="3.47654,5.65368 3.44435,5.61964 "/>
    <polygon id="_211220480" class="fil88" points="2.86493,5.4154 2.83274,5.38135 "/>
    <polygon id="_211220192" class="fil85" points="2.73616,6.81108 2.70397,6.77704 "/>
    <polygon id="_211220768" class="fil90" points="4.08815,5.34733 4.05596,5.38135 "/>
    <polygon id="_211216856" class="fil85" points="0.225336,6.84513 0.193126,6.81108 "/>
    <polygon id="_211217240" class="fil89" points="1.2876,6.84513 1.25541,6.81108 "/>
    <polygon id="_211222328" class="fil89" points="2.44644,6.81108 2.41426,6.84513 "/>
    <polygon id="_211211648" class="fil91" points="0.257524,6.87918 0.225336,6.84513 "/>
    <polygon id="_139760376" class="fil94" points="0.289712,6.9132 0.257524,6.87918 "/>
    <polygon id="_139764696" class="fil95" points="0.997886,6.87918 0.93351,6.9132 "/>
    <polygon id="_139761144" class="fil94" points="0.289712,5.58561 0.257524,5.61964 "/>
    <polygon id="_139764912" class="fil86" points="2.34988,6.87918 2.31769,6.9132 "/>
    <polygon id="_139759032" class="fil89" points="2.96149,6.9132 2.89712,6.87918 "/>
    <polygon id="_139762416" class="fil86" points="3.2512,6.87918 3.18683,6.9132 "/>
    <polygon id="_139754880" class="fil86" points="1.44856,6.94725 1.41637,6.9132 "/>
    <polygon id="_139764240" class="fil86" points="2.28551,6.9132 2.25332,6.94725 "/>
    <polygon id="_139764264" class="fil89" points="3.34779,5.58561 3.31558,5.55156 "/>
    <polygon id="_139763640" class="fil81" points="4.02378,6.06218 3.9594,6.02813 "/>
    <polygon id="_139763376" class="fil86" points="3.9594,5.31328 3.92721,5.34733 "/>
    <polygon id="_139765032" class="fil83" points="4.08815,5.31328 4.12034,5.24518 "/>
    <polygon id="_139764480" class="fil82" points="3.50873,6.94725 3.47654,6.9813 "/>
    <polygon id="_139765608" class="fil90" points="3.9594,6.94725 3.92721,6.9813 "/>
    <polygon id="_139765896" class="fil91" points="2.60741,3.61121 2.51084,3.57717 "/>
    <polygon id="_139765944" class="fil85" points="0.869135,5.31328 0.836947,5.27923 "/>
    <polygon id="_139764840" class="fil86" points="2.12454,6.9813 2.06017,7.01534 "/>
    <polygon id="_139763208" class="fil81" points="0.708174,5.24518 0.675986,5.17711 "/>
    <polygon id="_139767048" class="fil86" points="0.836947,5.21116 0.80476,5.17711 "/>
    <polygon id="_139766784" class="fil97" points="0.611611,7.08341 0.547236,7.04937 "/>
    <polygon id="_139766664" class="fil89" points="1.22322,4.97285 1.19103,5.0069 "/>
    <polygon id="_139766448" class="fil95" points="0.675986,4.90478 0.708174,4.80266 "/>
    <polygon id="_139767288" class="fil89" points="1.48075,4.83671 1.44856,4.87073 "/>
    <polygon id="_139767528" class="fil87" points="1.64171,4.80266 1.54512,4.83671 "/>
    <polygon id="_139768032" class="fil83" points="4.12034,4.80266 4.08815,4.73457 "/>
    <polygon id="_139769928" class="fil90" points="0.772572,4.63245 0.740362,4.6665 "/>
    <polygon id="_139768488" class="fil96" points="2.25332,3.57717 2.18892,3.61121 "/>
    <polygon id="_139768656" class="fil90" points="3.99159,4.53033 3.9594,4.49628 "/>
    <polygon id="_139768704" class="fil94" points="0.901323,4.42821 0.869135,4.46223 "/>
    <polygon id="_141735728" class="fil92" points="0.93351,4.39416 0.901323,4.42821 "/>
    <polygon id="_141735608" class="fil91" points="3.86281,4.39416 3.83063,4.36012 "/>
    <polygon id="_141735488" class="fil92" points="3.83063,4.36012 3.79844,4.32607 "/>
    <polygon id="_141735368" class="fil89" points="2.12454,3.61121 2.09236,3.64526 "/>
    <polygon id="_141735248" class="fil85" points="3.15464,4.29204 3.12245,4.258 "/>
    <polygon id="_141735128" class="fil90" points="1.12666,4.258 1.09447,4.29204 "/>
    <polygon id="_141735008" class="fil90" points="1.64171,7.01534 1.57731,6.9813 "/>
   </g>
  </g>
 </g>
</svg>
