<?xml version="1.0" encoding="UTF-8"?>
<!DOCTYPE svg PUBLIC "-//W3C//DTD SVG 1.1//EN" "http://www.w3.org/Graphics/SVG/1.1/DTD/svg11.dtd">
<!-- Creator: CorelDRAW -->
<svg xmlns="http://www.w3.org/2000/svg" xml:space="preserve" width="21.8421mm" height="32.9962mm" style="shape-rendering:geometricPrecision; text-rendering:geometricPrecision; image-rendering:optimizeQuality; fill-rule:evenodd; clip-rule:evenodd"
viewBox="0 0 9.4985 14.3491"
 xmlns:xlink="http://www.w3.org/1999/xlink">
 <defs>
  <style type="text/css">
   <![CDATA[
    .fil1 {fill:#3E9435;fill-rule:nonzero}
    .fil2 {fill:#50AB46;fill-rule:nonzero}
    .fil0 {fill:#6ABD62;fill-rule:nonzero}
    .fil5 {fill:#E62250;fill-rule:nonzero}
    .fil4 {fill:#E6335D;fill-rule:nonzero}
    .fil7 {fill:#E82653;fill-rule:nonzero}
    .fil6 {fill:#F23D67;fill-rule:nonzero}
    .fil8 {fill:#F288A0;fill-rule:nonzero}
    .fil9 {fill:#F76688;fill-rule:nonzero}
    .fil3 {fill:#FF9EB4;fill-rule:nonzero}
   ]]>
  </style>
 </defs>
 <g id="Layer_x0020_1">
  <metadata id="CorelCorpID_0Corel-Layer"/>
  <g id="_214110648">
   <polygon id="_139761552" class="fil0" points="1.39311,10.651 1.39311,10.651 1.21581,10.575 1.00051,10.4737 0.759894,10.3091 0.506581,10.1064 0.392602,9.96712 0.291277,9.81513 0.189952,9.62518 0.101325,9.44788 0.0253095,9.23258 -0,8.99196 -0,8.99196 -0,8.78931 -0,8.59936 0.0253095,8.40936 0.075972,8.25738 0.189952,7.9661 0.31663,7.72549 0.607906,7.23156 0.709188,6.9909 0.785203,6.67432 0.785203,6.67432 0.848521,6.86427 0.873874,6.9909 0.899183,7.14289 0.899183,7.14289 0.949846,7.04161 1.10183,6.77564 1.19046,6.62365 1.26643,6.43366 1.31714,6.25636 1.31714,6.06641 1.45643,6.28171 1.45643,6.28171 1.50709,6.19304 1.55775,6.01575 1.65908,5.69912 1.70974,5.2432 2.7229,5.50917 2.7229,5.50917 2.87489,5.91442 2.97617,6.25636 3.06484,6.54768 3.06484,6.54768 3.09019,6.67432 3.06484,6.57299 3.06484,6.57299 3.1155,6.48436 3.14081,6.40835 3.19148,6.33238 3.19148,6.33238 3.24218,6.64896 3.31811,6.88962 3.38147,6.96559 3.40678,7.01625 3.53342,7.43421 3.53342,7.43421 3.58412,7.67482 3.60943,7.91544 3.63474,8.23207 3.58412,8.59936 3.55877,8.78931 3.50811,8.96665 3.43213,9.1566 3.31811,9.30859 3.19148,9.49854 3.03949,9.62518 2.00102,10.6004 2.00102,10.6004 1.82368,10.651 1.60837,10.689 1.50709,10.689 1.39311,10.651 "/>
   <polygon id="_211196048" class="fil1" points="0.873874,11.3476 0.873874,11.3476 1.00051,11.1829 1.26643,10.765 1.39311,10.4991 1.53244,10.2078 1.63372,9.91645 1.68439,9.62518 1.68439,9.78982 1.68439,9.78982 1.68439,9.89114 1.68439,9.99247 1.65908,10.1571 1.58306,10.3724 1.48174,10.6004 1.31714,10.917 1.07648,11.2589 "/>
   <polygon id="_211205096" class="fil1" points="1.70974,9.44788 1.70974,9.44788 1.55775,9.3339 1.41842,9.18191 1.29178,8.99196 1.16515,8.70064 1.10183,8.52334 1.05113,8.33339 1.02582,8.11809 1.00051,7.89013 1.00051,7.62416 1.02582,7.33288 0.975199,7.5735 0.975199,7.5735 0.949846,7.83947 0.949846,8.06743 0.975199,8.28273 1.00051,8.49803 1.05113,8.67533 1.1398,8.83997 1.24112,9.06793 1.24112,9.06793 1.39311,9.25789 1.53244,9.42257 1.68439,9.57451 "/>
   <polygon id="_211211168" class="fil1" points="1.68439,9.06793 1.68439,9.06793 1.82368,9.06793 1.97566,9.04258 2.16566,8.99196 2.16566,8.99196 2.34296,8.9413 2.53295,8.83997 2.77356,8.65002 3.03949,8.3587 3.1155,8.20671 3.1155,8.20671 2.84954,8.49803 2.60892,8.70064 2.36831,8.86533 2.14031,8.9413 1.97566,8.96665 1.82368,8.99196 1.68439,8.96665 "/>
   <polygon id="_211212320" class="fil1" points="1.82368,8.09278 1.82368,8.09278 1.77306,8.04207 1.70974,7.9661 1.68439,7.86478 1.63372,7.64947 1.60837,7.38355 1.63372,7.01625 1.68439,6.54768 1.65908,6.62365 1.65908,6.62365 1.60837,7.11758 1.58306,7.48483 1.60837,7.75084 1.63372,7.9661 1.68439,8.09278 1.73505,8.1561 1.77306,8.20671 "/>
   <polygon id="_211194848" class="fil1" points="1.89969,7.83947 1.89969,7.83947 2.02633,7.80146 2.16566,7.77615 2.29229,7.70013 2.29229,7.70013 2.45694,7.62416 2.58357,7.48483 2.74826,7.30753 2.92555,6.9909 2.95086,6.91497 2.95086,6.91497 2.79887,7.20621 2.60892,7.40886 2.43163,7.5735 2.26698,7.67482 2.14031,7.72549 2.02633,7.75084 1.925,7.77615 "/>
   <polygon id="_211201496" class="fil1" points="2.45694,6.06641 2.43163,6.14238 2.43163,6.14238 2.40627,6.43366 2.34296,6.67432 2.29229,6.8263 2.29229,6.8263 2.16566,7.06692 2.05168,7.30753 1.925,7.62416 1.82368,7.9661 1.70974,8.3587 1.63372,8.81466 1.63372,9.23258 1.63372,9.23258 1.63372,9.59982 1.60837,9.89114 1.58306,10.1318 1.53244,10.2837 1.48174,10.4231 1.45643,10.4991 1.39311,10.5497 1.45643,10.575 1.45643,10.575 1.50709,10.5244 1.55775,10.4484 1.60837,10.3091 1.63372,10.1318 1.68439,9.89114 1.70974,9.59982 1.70974,9.23258 1.70974,9.23258 1.70974,8.81466 1.77306,8.38406 1.87438,7.99145 1.97566,7.62416 2.115,7.30753 2.19097,7.06692 2.31765,6.86427 2.31765,6.86427 2.36831,6.64896 2.43163,6.38304 2.45694,6.06641 "/>
   <polygon id="_211196192" class="fil1" points="4.79989,7.59885 4.79989,7.59885 4.55928,8.04207 4.30596,8.47268 3.98938,8.86533 3.63474,9.28324 3.2928,9.65053 2.9002,10.0178 2.53295,10.3724 2.16566,10.7143 1.48174,11.2589 0.899183,11.6895 0.341939,12.0568 0.075972,11.7655 0.075972,11.7655 0.658569,11.4489 1.24112,11.0563 1.95035,10.5497 2.34296,10.2584 2.7229,9.91645 3.1155,9.57451 3.4828,9.23258 3.82474,8.83997 4.14137,8.43472 4.4326,8.01676 4.64795,7.59885 "/>
   <polygon id="_211199264" class="fil2" points="3.4828,9.49854 3.4828,9.49854 3.26749,9.44788 3.06484,9.38456 2.79887,9.38456 2.65959,9.42257 2.53295,9.44788 2.40627,9.5239 2.29229,9.59982 2.16566,9.70119 2.08969,9.86584 2.00102,10.0558 1.97566,10.2837 1.97566,10.2837 1.95035,10.5244 1.95035,10.765 1.97566,10.993 2.00102,11.2336 2.08969,11.4489 2.16566,11.6642 2.24163,11.8668 2.34296,12.0568 2.58357,12.4241 2.87489,12.7154 3.16617,12.956 3.45744,13.108 3.43213,12.8674 3.43213,12.8674 3.4828,12.956 3.63474,13.108 3.74872,13.184 3.87535,13.2726 4.01469,13.3486 4.19198,13.3993 4.19198,13.3993 4.11601,13.3233 4.04004,13.184 4.04004,13.184 4.268,13.2979 4.45795,13.4246 4.53392,13.5006 4.58459,13.5639 4.64795,13.4753 4.64795,13.4753 4.72392,13.5639 4.96453,13.7665 5.09117,13.9059 5.21785,14.0578 5.30647,14.2225 5.38249,14.3491 5.43315,14.3238 5.43315,14.3238 5.4078,13.8172 5.4078,13.4499 5.43315,13.2979 5.45846,13.2093 5.45846,13.2093 5.48381,13.1586 5.48381,13.184 5.48381,13.2473 5.48381,13.2473 5.59779,13.3233 5.67376,13.3739 5.74978,13.4499 5.74978,13.4499 5.72443,12.8674 5.74978,12.4241 5.77509,12.2341 5.8004,12.1075 5.96504,12.1834 5.96504,12.1834 5.91442,11.5756 5.82575,11.0816 5.77509,10.8917 5.72443,10.765 5.99039,10.8157 5.99039,10.8157 5.53447,10.1824 5.53447,10.1824 5.33182,9.96712 5.06586,9.76451 4.77458,9.57451 4.64795,9.5239 4.4833,9.49854 4.4833,9.49854 4.21734,9.47319 3.95137,9.44788 3.69806,9.47319 3.4828,9.49854 "/>
   <polygon id="_211191704" class="fil1" points="3.4828,9.49854 3.4828,9.49854 3.55877,9.54921 3.63474,9.59982 3.72341,9.70119 3.82474,9.81513 3.95137,9.99247 4.06535,10.2331 4.16667,10.4991 4.16667,10.4991 4.38198,11.2083 4.55928,11.9175 4.55928,11.9175 4.72392,12.5254 4.82524,12.8927 4.85055,12.9813 4.85055,12.9813 4.74923,12.576 4.58459,11.9175 4.58459,11.9175 4.4326,11.1829 4.21734,10.4991 4.21734,10.4991 4.11601,10.2078 4.01469,9.96712 3.90071,9.78982 3.79943,9.67584 3.69806,9.57451 3.60943,9.5239 3.55877,9.49854 "/>
   <polygon id="_211204784" class="fil1" points="3.74872,9.67584 3.74872,9.67584 3.67275,9.70119 3.40678,9.78982 3.26749,9.86584 3.1155,9.94181 2.97617,10.0811 2.84954,10.2331 2.84954,10.2331 2.79887,10.3344 2.74826,10.4737 2.7229,10.6004 2.68494,10.7397 2.7229,11.0563 2.79887,11.3729 2.82423,11.4236 2.82423,11.4236 2.74826,11.107 2.7229,10.765 2.74826,10.6257 2.77356,10.4991 2.82423,10.3724 2.87489,10.2584 2.87489,10.2584 3.00152,10.1064 3.14081,9.96712 3.2928,9.89114 3.45744,9.84048 3.69806,9.76451 3.79943,9.73916 "/>
   <polygon id="_211199336" class="fil1" points="3.95137,9.94181 3.95137,9.94181 4.09066,9.96712 4.45795,10.1318 4.64795,10.2331 4.87591,10.3724 5.06586,10.5497 5.25585,10.765 5.21785,10.7143 5.21785,10.7143 5.04055,10.4991 4.85055,10.3091 4.62259,10.1571 4.40729,10.0558 4.06535,9.89114 3.92606,9.84048 "/>
   <polygon id="_211205312" class="fil1" points="4.21734,10.575 4.21734,10.575 4.33132,10.6257 4.58459,10.8157 4.72392,10.9423 4.87591,11.107 5.01524,11.2843 5.14187,11.5249 5.11652,11.4996 5.11652,11.4996 5.01524,11.2589 4.85055,11.0563 4.72392,10.8917 4.55928,10.765 4.33132,10.575 4.21734,10.5244 "/>
   <polygon id="_211206944" class="fil1" points="4.01469,10.1064 4.01469,10.1064 4.01469,10.1064 4.01469,10.2837 4.01469,10.4737 3.95137,10.7143 3.95137,10.7143 3.90071,10.841 3.90071,10.841 3.79943,11.1829 3.74872,11.3982 3.69806,11.6262 3.67275,11.8668 3.67275,12.1328 3.69806,12.3734 3.77407,12.614 3.79943,12.6647 3.79943,12.6647 3.72341,12.4241 3.69806,12.1581 3.69806,11.9175 3.72341,11.6642 3.77407,11.4236 3.82474,11.2083 3.95137,10.841 3.95137,10.841 4.01469,10.7143 4.01469,10.7143 4.06535,10.4737 4.06535,10.2837 4.04004,10.1064 "/>
   <polygon id="_211207160" class="fil3" points="6.11703,1.92504 6.11703,1.92504 6.25636,1.84907 6.40835,1.68443 6.383,1.68443 6.383,1.68443 6.23101,1.82376 6.11703,1.89969 "/>
   <polygon id="_211195016" class="fil3" points="6.04106,1.65908 6.06641,1.63377 6.06641,1.63377 6.11703,1.53244 6.16769,1.45647 6.25636,1.3678 6.25636,1.34245 6.25636,1.34245 6.14234,1.41846 6.09172,1.53244 6.0157,1.63377 "/>
   <polygon id="_211191728" class="fil3" points="5.93973,1.31714 5.93973,1.31714 5.96504,1.21581 5.99039,1.10183 6.04106,1.05117 6.04106,1.02586 6.04106,1.02586 5.99039,1.10183 5.93973,1.1905 5.91442,1.31714 "/>
   <polygon id="_211203872" class="fil3" points="5.74978,0.848564 5.74978,0.848564 5.82575,0.759894 5.8511,0.709231 5.88907,0.658569 5.8511,0.658569 5.8511,0.658569 5.8511,0.683878 5.8004,0.734584 5.72443,0.823211 "/>
   <polygon id="_211205264" class="fil3" points="5.99039,1.73509 5.99039,1.73509 5.99039,1.73509 5.77509,1.77306 5.59779,1.73509 5.59779,1.77306 5.59779,1.77306 5.67376,1.77306 5.8004,1.77306 5.99039,1.77306 "/>
   <polygon id="_211200560" class="fil3" points="5.91442,1.45647 5.91442,1.45647 5.91442,1.45647 5.77509,1.45647 5.59779,1.41846 5.59779,1.45647 5.59779,1.45647 5.77509,1.48178 5.91442,1.48178 "/>
   <polygon id="_211199648" class="fil3" points="5.8511,1.21581 5.8511,1.21581 5.74978,1.16519 5.53447,1.10183 5.53447,1.13984 5.53447,1.13984 5.72443,1.1905 5.82575,1.24117 "/>
   <polygon id="_211206920" class="fil3" points="5.72443,0.873874 5.72443,0.873874 5.6231,0.848564 5.48381,0.785203 5.48381,0.823211 5.48381,0.823211 5.6231,0.873874 5.69912,0.899183 "/>
   <polygon id="_211191680" class="fil3" points="5.48381,0.367292 5.48381,0.367292 5.48381,0.367292 5.48381,0.265967 5.48381,0.189995 5.48381,0.0760155 5.45846,0.0760155 5.45846,0.0760155 5.45846,0.189995 5.45846,0.265967 5.48381,0.392645 "/>
   <polygon id="_211194680" class="fil3" points="5.45846,0.392645 5.43315,0.367292 5.43315,0.367292 5.16718,0.240658 5.14187,0.265967 5.14187,0.265967 5.45846,0.417955 "/>
   <polygon id="_211199312" class="fil3" points="5.48381,0.392645 5.48381,0.392645 5.43315,0.265967 5.35718,0.189995 5.30647,0.126634 5.30647,0.151987 5.30647,0.151987 5.35718,0.215305 5.4078,0.29132 5.45846,0.392645 "/>
   <polygon id="_211196216" class="fil4" points="5.53447,5.35718 5.53447,5.35718 5.53447,5.30652 5.50917,5.14187 5.43315,4.92661 5.28116,4.64799 5.14187,4.4833 5.01524,4.33136 4.82524,4.16667 4.62259,3.97672 4.35667,3.82474 4.06535,3.66014 3.72341,3.53346 3.31811,3.38147 3.31811,3.38147 3.06484,3.31815 2.79887,3.31815 2.55826,3.38147 2.34296,3.45749 2.19097,3.53346 2.02633,3.66014 1.925,3.77412 1.87438,3.87544 1.87438,3.87544 1.84903,4.01473 1.84903,4.11606 1.84903,4.35667 1.84903,4.4833 1.82368,4.60998 1.77306,4.74927 1.65908,4.87591 1.65908,4.87591 1.63372,4.96458 1.60837,5.04055 1.60837,5.21785 1.65908,5.4585 1.77306,5.69912 1.89969,5.93977 2.02633,6.11707 2.19097,6.28171 2.26698,6.30702 2.34296,6.33238 2.34296,6.33238 2.43163,6.30702 2.5076,6.25636 2.63423,6.11707 2.82423,5.91442 2.92555,5.77509 3.09019,5.67381 3.24218,5.55978 3.45744,5.4585 3.67275,5.38253 3.95137,5.33187 4.268,5.28116 4.64795,5.28116 5.06586,5.30652 5.53447,5.35718 "/>
   <polygon id="_211199192" class="fil5" points="5.96504,5.2432 5.96504,5.2432 6.06641,5.21785 6.30702,5.14187 6.69958,5.11656 6.94024,5.09121 7.1809,5.11656 7.43417,5.14187 7.72544,5.19254 8.01676,5.28116 8.30804,5.38253 8.57401,5.53447 8.86528,5.74978 9.15656,5.99039 9.42253,6.30702 9.42253,6.30702 9.44784,6.38304 9.47319,6.43366 9.47319,6.50967 9.44784,6.57299 9.39717,6.67432 9.33386,6.77564 9.33386,6.77564 9.3085,6.94028 9.20722,7.09223 9.1059,7.28222 9.01727,7.35819 8.94126,7.40886 8.94126,7.40886 8.86528,7.43421 8.81462,7.52284 8.70064,7.64947 8.62463,7.77615 8.52334,7.83947 8.52334,7.83947 8.3587,7.91544 8.10539,7.99145 7.94075,7.99145 7.81411,7.99145 7.70013,7.9661 7.62416,7.89013 7.62416,7.89013 7.57346,7.77615 7.57346,7.67482 7.62416,7.40886 7.62416,7.25691 7.62416,7.06692 7.57346,6.86427 7.47217,6.62365 7.47217,6.62365 7.33284,6.38304 7.20621,6.14238 7.04156,5.91442 6.86427,5.72447 6.64896,5.59779 6.43366,5.4585 6.2057,5.40784 5.96504,5.38253 "/>
   <polygon id="_211201520" class="fil4" points="5.69912,5.38253 5.69912,5.38253 5.8511,5.19254 6.30702,4.79993 6.5983,4.55932 6.88958,4.38198 7.15554,4.21738 7.30753,4.16667 7.40886,4.16667 7.40886,4.16667 7.67478,4.14137 7.91539,4.14137 8.18141,4.19203 8.42202,4.268 8.64998,4.38198 8.86528,4.53397 9.08059,4.74927 9.25789,5.04055 9.25789,5.04055 9.39717,5.30652 9.47319,5.50917 9.4985,5.67381 9.4985,5.77509 9.44784,5.8511 9.39717,5.91442 9.3085,5.93977 9.3085,5.93977 9.25789,5.91442 9.20722,5.8511 9.01727,5.62315 8.89059,5.50917 8.73865,5.38253 8.54865,5.28116 8.3587,5.19254 8.3587,5.19254 8.1307,5.14187 7.86478,5.11656 7.57346,5.09121 7.28218,5.09121 6.96559,5.11656 6.67427,5.16723 6.383,5.28116 6.09172,5.38253 "/>
   <polygon id="_211193192" class="fil6" points="5.48381,5.43315 5.48381,5.43315 5.45846,5.16723 5.4078,4.90126 5.30647,4.55932 5.16718,4.19203 4.98989,3.79943 4.85055,3.60943 4.72392,3.43213 4.53392,3.24218 4.38198,3.09019 4.38198,3.09019 4.268,3.06488 4.16667,3.06488 4.06535,3.03953 3.98938,2.97621 3.92606,2.90024 3.92606,2.84958 3.92606,2.79892 3.98938,2.63428 3.98938,2.63428 4.06535,2.5583 4.16667,2.50764 4.268,2.50764 4.40729,2.50764 4.64795,2.5583 4.82524,2.63428 4.82524,2.63428 5.01524,2.72295 5.28116,2.74826 5.6231,2.77356 5.6231,2.77356 5.69912,2.79892 5.8004,2.84958 5.93973,2.92555 6.0157,2.92555 6.09172,2.95086 6.09172,2.95086 6.16769,2.95086 6.28167,2.97621 6.48432,3.11555 6.67427,3.24218 6.75029,3.26749 6.83891,3.2928 6.83891,3.2928 6.94024,3.31815 7.04156,3.31815 7.06687,3.38147 7.09223,3.40682 7.11754,3.4828 7.09223,3.58412 7.09223,3.58412 7.06687,3.66014 7.04156,3.74876 6.88958,3.95141 6.48432,4.4833 6.28167,4.74927 6.11703,5.01524 5.99039,5.2432 5.99039,5.35718 5.99039,5.43315 "/>
   <polygon id="_211199144" class="fil7" points="6.11703,5.38253 6.11703,5.38253 6.16769,5.38253 6.23101,5.38253 6.35764,5.48386 6.52228,5.62315 6.64896,5.8258 6.7756,6.06641 6.88958,6.38304 6.96559,6.69967 7.01621,7.04161 7.01621,7.04161 7.01621,7.38355 6.96559,7.62416 6.88958,7.80146 6.7756,7.94079 6.64896,8.01676 6.54764,8.06743 6.33233,8.11809 6.33233,8.11809 6.14234,8.20671 5.93973,8.28273 5.82575,8.30808 5.72443,8.33339 5.57248,8.30808 5.4078,8.28273 5.4078,8.28273 4.93922,8.11809 4.72392,8.09278 4.40729,8.09278 4.40729,8.09278 4.30596,8.06743 4.19198,8.04207 3.95137,7.9661 3.74872,7.80146 3.63474,7.70013 3.55877,7.5735 3.4828,7.45952 3.43213,7.33288 3.38147,7.1809 3.35612,7.01625 3.38147,6.86427 3.40678,6.69967 3.45744,6.54768 3.53342,6.35769 3.53342,6.35769 3.74872,6.06641 3.95137,5.80044 4.16667,5.62315 4.38198,5.4585 4.58459,5.35718 4.82524,5.28116 5.01524,5.2432 5.21785,5.2432 5.21785,5.2432 5.77509,5.38253 5.93973,5.38253 6.11703,5.38253 "/>
   <polygon id="_211205936" class="fil8" points="5.72443,5.35718 5.72443,5.35718 5.8511,5.38253 5.91442,5.38253 5.91442,5.38253 5.96504,5.28116 6.06641,4.92661 6.16769,4.43269 6.23101,4.14137 6.25636,3.79943 6.28167,3.43213 6.28167,3.03953 6.23101,2.60892 6.16769,2.19101 6.06641,1.73509 5.93973,1.29183 5.74978,0.823211 5.48381,0.367292 5.43315,0.392645 5.43315,0.392645 5.67376,0.848564 5.8511,1.29183 5.99039,1.73509 6.06641,2.19101 6.09172,2.60892 6.09172,3.03953 6.06641,3.40682 6.0157,3.77412 5.96504,4.11606 5.88907,4.40733 5.72443,4.87591 5.59779,5.19254 5.53447,5.33187 5.53447,5.33187 5.72443,5.35718 "/>
   <polygon id="_211204040" class="fil9" points="5.16718,0.265967 5.16718,0.265967 5.09117,0.240658 5.06586,0.215305 5.09117,0.151987 5.09117,0.151987 5.11652,0.151987 5.14187,0.189995 5.16718,0.265967 "/>
   <polygon id="_211194800" class="fil9" points="5.30647,0.151987 5.30647,0.151987 5.25585,0.126634 5.21785,0.0760155 5.25585,0.050706 5.25585,0.050706 5.28116,0.050706 5.30647,0.0760155 5.30647,0.151987 "/>
   <polygon id="_211201952" class="fil9" points="5.48381,0.101325 5.48381,0.101325 5.45846,0.025353 5.45846,0 5.50917,0 5.50917,0 5.53447,0.025353 5.50917,0.050706 5.48381,0.101325 "/>
   <polygon id="_211191464" class="fil9" points="6.383,1.70974 6.383,1.70974 6.43366,1.68443 6.48432,1.63377 6.54764,1.5831 6.54764,1.55775 6.48432,1.50713 6.48432,1.50713 6.45897,1.50713 6.43366,1.50713 6.383,1.5831 6.383,1.65908 6.383,1.70974 "/>
   <polygon id="_211195184" class="fil9" points="5.59779,1.77306 5.59779,1.77306 5.57248,1.77306 5.45846,1.77306 5.4078,1.70974 5.38249,1.68443 5.4078,1.65908 5.4078,1.65908 5.43315,1.63377 5.45846,1.63377 5.53447,1.65908 5.59779,1.70974 5.59779,1.77306 "/>
   <polygon id="_211192640" class="fil9" points="5.6231,1.45647 5.6231,1.45647 5.57248,1.45647 5.48381,1.45647 5.4078,1.41846 5.38249,1.39315 5.4078,1.34245 5.4078,1.34245 5.43315,1.31714 5.45846,1.31714 5.53447,1.34245 5.59779,1.39315 5.6231,1.45647 "/>
   <polygon id="_211193312" class="fil9" points="5.57248,1.13984 5.57248,1.13984 5.50917,1.13984 5.43315,1.13984 5.35718,1.10183 5.35718,1.07652 5.35718,1.05117 5.35718,1.05117 5.38249,1.00051 5.4078,1.00051 5.48381,1.02586 5.53447,1.07652 5.57248,1.13984 "/>
   <polygon id="_211201280" class="fil9" points="5.48381,0.823211 5.48381,0.823211 5.45846,0.823211 5.35718,0.823211 5.30647,0.759894 5.28116,0.734584 5.30647,0.683878 5.30647,0.683878 5.33182,0.658569 5.35718,0.658569 5.43315,0.709231 5.48381,0.759894 5.48381,0.823211 "/>
   <polygon id="_211195208" class="fil9" points="6.25636,1.3678 6.25636,1.3678 6.30702,1.3678 6.35764,1.31714 6.40835,1.24117 6.40835,1.21581 6.383,1.1905 6.383,1.1905 6.33233,1.1905 6.30702,1.1905 6.25636,1.26648 6.25636,1.34245 6.25636,1.3678 "/>
   <polygon id="_211194944" class="fil9" points="6.04106,1.05117 6.04106,1.05117 6.09172,1.02586 6.14234,0.975199 6.16769,0.924536 6.16769,0.899183 6.14234,0.873874 6.14234,0.873874 6.09172,0.848564 6.06641,0.873874 6.04106,0.949889 6.04106,1.02586 6.04106,1.05117 "/>
   <polygon id="_211205984" class="fil9" points="5.88907,0.683878 5.88907,0.683878 5.91442,0.658569 5.93973,0.60795 5.96504,0.557244 5.96504,0.531934 5.91442,0.506581 5.91442,0.506581 5.88907,0.506581 5.8511,0.531934 5.82575,0.582597 5.8511,0.658569 5.88907,0.683878 "/>
  </g>
 </g>
</svg>
