<?xml version="1.0" encoding="UTF-8"?>
<!DOCTYPE svg PUBLIC "-//W3C//DTD SVG 1.1//EN" "http://www.w3.org/Graphics/SVG/1.1/DTD/svg11.dtd">
<!-- Creator: CorelDRAW -->
<svg xmlns="http://www.w3.org/2000/svg" xml:space="preserve" width="32.4573mm" height="33.7616mm" style="shape-rendering:geometricPrecision; text-rendering:geometricPrecision; image-rendering:optimizeQuality; fill-rule:evenodd; clip-rule:evenodd"
viewBox="0 0 4.5809 4.76499"
 xmlns:xlink="http://www.w3.org/1999/xlink">
 <defs>
  <style type="text/css">
   <![CDATA[
    .fil8 {fill:#FECD03}
    .fil6 {fill:#FEDE00}
    .fil17 {fill:#FEE85A}
    .fil27 {fill:#FEEA0C}
    .fil22 {fill:#FEEC63}
    .fil36 {fill:#FEED05}
    .fil41 {fill:#FEF26B}
    .fil56 {fill:#FEF6A2}
    .fil65 {fill:#FEF6E3}
    .fil40 {fill:#FEFEF2}
    .fil21 {fill:#FEFEF6}
    .fil7 {fill:#FFB201}
    .fil69 {fill:#FFB324}
    .fil32 {fill:#FFB901}
    .fil23 {fill:#FFB905}
    .fil59 {fill:#FFBC01}
    .fil0 {fill:#FFBF01}
    .fil15 {fill:#FFC005}
    .fil13 {fill:#FFC502}
    .fil29 {fill:#FFC700}
    .fil2 {fill:#FFC800}
    .fil57 {fill:#FFCA36}
    .fil20 {fill:#FFD204}
    .fil42 {fill:#FFD30C}
    .fil5 {fill:#FFD600}
    .fil51 {fill:#FFD717}
    .fil35 {fill:#FFD800}
    .fil24 {fill:#FFDB02}
    .fil11 {fill:#FFDC05}
    .fil16 {fill:#FFE405}
    .fil64 {fill:#FFE448}
    .fil63 {fill:#FFE468}
    .fil33 {fill:#FFE500}
    .fil1 {fill:#FFE904}
    .fil25 {fill:#FFEC4B}
    .fil58 {fill:#FFED09}
    .fil60 {fill:#FFF12D}
    .fil52 {fill:#FFF13A}
    .fil38 {fill:#FFF246}
    .fil10 {fill:#FFF249}
    .fil37 {fill:#FFF35B}
    .fil26 {fill:#FFF55E}
    .fil54 {fill:#FFF56A}
    .fil30 {fill:#FFF56E}
    .fil49 {fill:#FFF67A}
    .fil28 {fill:#FFF686}
    .fil31 {fill:#FFF689}
    .fil67 {fill:#FFF68D}
    .fil39 {fill:#FFF692}
    .fil43 {fill:#FFF69B}
    .fil66 {fill:#FFF7E8}
    .fil14 {fill:#FFF896}
    .fil48 {fill:#FFF9A1}
    .fil47 {fill:#FFF9A5}
    .fil19 {fill:#FFF9AA}
    .fil61 {fill:#FFF9EC}
    .fil12 {fill:#FFFAB6}
    .fil34 {fill:#FFFABD}
    .fil55 {fill:#FFFBAC}
    .fil4 {fill:#FFFBCA}
    .fil50 {fill:#FFFCCE}
    .fil46 {fill:#FFFCD1}
    .fil3 {fill:#FFFCD6}
    .fil62 {fill:#FFFCD9}
    .fil45 {fill:#FFFCE6}
    .fil18 {fill:#FFFDE1}
    .fil9 {fill:#FFFDE9}
    .fil53 {fill:#FFFEED}
    .fil68 {fill:#FFFEF9}
    .fil44 {fill:#FFFFFE}
   ]]>
  </style>
 </defs>
 <g id="Layer_x0020_1">
  <metadata id="CorelCorpID_0Corel-Layer"/>
  <g id="_211203056">
   <path id="_137076536" class="fil0" d="M1.56078 3.15686c0,0 0,0 0,0 0.0517688,0.0729816 0.0690297,0.0912305 0.15532,0.145977 0.0517688,0.0364978 0.103552,0.0547467 0.15532,0.0912446 -0.414193,-0.109493 -0.241611,-0.0912446 -0.396932,-0.145991l-0.017261 0.0364978 0.017261 0.0182489c0.345163,0.36495 0.966445,0.437946 1.41514,0.145977 0.138059,-0.0912305 0.22435,-0.164226 0.310641,-0.291954 0.120799,-0.145991 0.138059,-0.16424 0.22435,-0.383213l-0.0345219 -0.0364837 -0.0862907 0.127728c-0.0690297,0.127728 -0.103538,0.145977 -0.189828,0.237222 -0.0345219,0.0364978 -0.0690297,0.0729957 -0.120813,0.0912305l0.138074 -0.200724c0.120799,-0.164226 0.258858,-0.583923 0.189828,-0.766398 -0.017261,0.0912305 -0.017261,0.145977 -0.0690297,0.218973 -0.0862907,0.109479 -0.017261,0.0912305 -0.0862907,0.182475l-0.258858 0.27372 -0.207103 0.145977c-0.4487,0.237222 -0.776602,0.0912446 -1.01821,0.0729957 -0.0690297,0 -0.0862766,-0.0182489 -0.120799,0.0364978z"/>
   <path id="_137077496" class="fil1" d="M1.3882 1.75178c0,0.182475 -0.0690297,0.474444 0.0517829,0.620421 0.0172468,0.0182489 0.0517688,0.0364978 0.0517688,0.0729957 0.0862907,0.145977 0.0862907,0.127728 0.207089,0.237222 0.0517829,0.0364978 0.0690297,0.0547467 0.138059,0.0729816 0.310641,0.0912446 0.586774,0.127742 0.862893,-0.0912305 0.0862907,-0.0912446 0.103552,-0.127742 0.15532,-0.218973 0.0862907,-0.127742 0.0345219,0.0364978 0.103552,-0.200724 0.0345078,-0.0729957 0.0345078,-0.0912446 0.0345078,-0.218973 -0.241597,0.182475 -0.29338,0.346701 -0.4487,0.474444 -0.0517688,0.0364837 -0.120799,0.0729816 -0.189828,0.0912305 -0.258872,0.0912446 -0.500483,-0.0364978 -0.621282,-0.237222 -0.0345219,-0.0729816 -0.0690297,-0.145977 -0.0690297,-0.218973 -0.0517829,-0.0364978 -0.103552,-0.109479 -0.138074,-0.182475 -0.0172468,-0.0547467 -0.0517688,-0.127728 -0.0517688,-0.182475l0.017261 -0.0547467 0 -0.0729957 -0.0862907 0c0.017261,0.0729957 0,0.0364978 -0.017261,0.109493z"/>
   <path id="_137075384" class="fil2" d="M1.21562 2.4087c0,0.127728 0.0690439,0.328466 0.120813,0.419697 0.0517688,0.109493 0.172581,0.27372 0.22435,0.328466 0.0345219,-0.0547467 0.0517688,-0.0364978 0.120799,-0.0364978 0.241611,0.0182489 0.569513,0.164226 1.01821,-0.0729957l0.207103 -0.145977 0.258858 -0.27372c0.0690297,-0.0912446 0,-0.0729957 0.0862907,-0.182475 0.0517688,-0.0729957 0.0517688,-0.127742 0.0690297,-0.218973 0,-0.0912446 -0.0517688,-0.328466 -0.103552,-0.401448l-0.0345078 -0.0547467c0.017261,0.310217 -0.017261,0.602172 -0.172581,0.839394 -0.0345078,0.0364978 -0.22435,0.218973 -0.276119,0.255471 -0.379671,0.218973 -0.776602,0.218973 -1.15627,-0.0182489l-0.0517829 -0.0547467c-0.0172468,-0.0182489 -0.0345078,-0.0364978 -0.0517688,-0.0547326 -0.0690297,-0.0912446 -0.017261,0.0182348 -0.120799,-0.127742l-0.0345219 -0.0364978c0,-0.0182489 0,-0.0182489 0,-0.0182489 -0.0517688,-0.0912305 0,-0.0182489 -0.103552,-0.145977 0,0 0,0 0,0z"/>
   <path id="_137077064" class="fil3" d="M2.11304 2.31746l0.22435 0c0.0690297,-0.0912305 0.258872,-0.164226 0.189828,-0.492678 -0.0172468,-0.0547467 -0.0862766,-0.16424 -0.120799,-0.200724 -0.0345219,-0.0182489 -0.0690297,-0.0547467 -0.103552,-0.0729957 0,0 0,0 0,0 -0.0172468,0 -0.0172468,0 -0.0172468,0 -0.017261,-0.0182489 -0.017261,-0.0182489 -0.0517829,-0.0182489 -0.414178,-0.109493 -0.500469,0.52919 -0.258858,0.729914 0.0690297,0.0364978 0.0690297,0.0182489 0.138059,0.0547326z"/>
   <path id="_137075216" class="fil4" d="M1.68158 1.25909l0 0.0547467c-0.0172468,0.0364978 0,-0.0182489 -0.0172468,0.0364978 -0.0345219,0.127728 0.0345078,-0.0912446 0,0.0364978 -0.017261,0.0729816 0.0172468,0 -0.103552,0.145977l-0.0345219 -0.0182489 0.017261 0.0912446c-0.0862907,0.0182489 -0.0517688,0.0182489 -0.103538,-0.0182489 0.0345078,0.0547326 0.0690297,0.0182489 0.103538,0.0912305 0.0517829,-0.0729816 0.0517829,-0.0729816 0.120813,-0.0729816 0.0517688,0 0.0862907,0.0729816 0.103538,0.109479 0.0517829,0.164226 -0.0517688,0.310217 0.103552,0.510941 0.0345078,0.0364978 0,0.0182489 0.0345078,0.0182489l0.207103 0.0729816c-0.0690297,-0.0364837 -0.0690297,-0.0182348 -0.138059,-0.0547326 -0.241611,-0.200724 -0.15532,-0.839408 0.258858,-0.729914 0.0345219,0 0.0345219,0 0.0517829,0.0182489 0,0 0,0 0.0172468,0 0,0 0,0 0,0 0.0345219,0.0182489 0.0690297,0.0547467 0.103552,0.0729957 0.0345219,0.0364837 0.103552,0.145977 0.120799,0.200724 0.0690439,0.328452 -0.120799,0.401448 -0.189828,0.492678 0.310641,-0.0547326 0.29338,-0.419697 0.120799,-0.7299 0,0 0,0 0,-0.0182489l-0.0172468 -0.0182489c-0.0345219,-0.0729957 -0.0517829,-0.127742 -0.0690439,-0.200724 0.120813,-0.0547467 0.172581,-0.0364978 0.207103,-0.0729957 -0.15532,-0.0547467 -0.310641,-0.0729957 -0.483222,-0.0364978 -0.138059,0.0364978 -0.103552,0.0547467 -0.207089,0 -0.120813,-0.0547326 -0.15532,0.0182489 -0.207103,0.0182489z"/>
   <path id="_137077280" class="fil5" d="M3.04496 1.62405c0.0345078,0.0547326 0.0345078,0.0729816 0.0345078,0.145977 0.0517829,0.109479 0.0345219,0.383199 -0.017261,0.456195 -0.0517688,0.0729957 -0.0172468,-0.0182489 -0.0517688,0.0729957 0,0 -0.017261,0.0364837 -0.017261,0.0547326 -0.0172468,0.0547467 -0.0517688,0.145991 -0.0862766,0.200724l-0.120813 0.109493c0,0 0,0.0182489 0,0.0182489 -0.103552,0.0912305 -0.345149,0.218973 -0.465961,0.255471 -0.258872,0.0547326 -0.569499,-0.0912446 -0.707572,-0.218973 -0.0517688,-0.0364978 -0.103538,-0.0547467 -0.138059,-0.109493 -0.120799,-0.200724 -0.0862907,-0.145977 -0.172581,-0.328452 -0.0690297,-0.109493 -0.0345078,-0.0364978 -0.0345078,-0.16424 -0.0345219,0.0364978 -0.017261,0.0182489 -0.0345219,0.0547467l-0.017261 0.0547467 0 0.182475c0,0 0,0 0,0 0.103552,0.127728 0.0517829,0.0547467 0.103552,0.145977 0,0 0,0 0,0.0182489l0.0345219 0.0364978c0.103538,0.145977 0.0517688,0.0364978 0.120799,0.127742 0.017261,0.0182348 0.0345219,0.0364837 0.0517688,0.0547326l0.0517829 0.0547467c0.379671,0.237222 0.776602,0.237222 1.15627,0.0182489 0.0517688,-0.0364978 0.241611,-0.218973 0.276119,-0.255471 0.15532,-0.237222 0.189842,-0.529176 0.172581,-0.839394 -0.017261,-0.0547467 -0.0517688,-0.127742 -0.103552,-0.145977 0,-0.0182489 0,-0.0182489 -0.017261,-0.0182489 0,0 0,0 0,0 -0.0172468,-0.0182489 -0.0345078,-0.0182489 -0.0345078,-0.0182489l0 0.0182489c0.0345078,0.0182489 0,-0.0364978 0.017261,0.0182489z"/>
   <path id="_137077232" class="fil6" d="M1.2674 2.11673c0,0.127742 -0.0345219,0.0547467 0.0345078,0.16424 0.0862907,0.182475 0.0517829,0.127728 0.172581,0.328452 0.0345219,0.0547467 0.0862907,0.0729957 0.138059,0.109493 0.138074,0.127728 0.4487,0.273706 0.707572,0.218973 0.120813,-0.0364978 0.36241,-0.16424 0.465961,-0.255471 0,0 0,-0.0182489 0,-0.0182489l0.120813 -0.109493c0.0345078,-0.0547326 0.0690297,-0.145977 0.0862766,-0.200724 0,-0.0182489 0.017261,-0.0547326 0.017261,-0.0547326 0.0345219,-0.0912446 0,0 0.0517688,-0.0729957 0.0517829,-0.0729957 0.0690439,-0.346715 0.017261,-0.456195 -0.017261,0.145977 -0.0345078,0.164226 -0.0862907,0.255471 0,0.127728 0,0.145977 -0.0345078,0.218973 -0.0690297,0.237222 -0.017261,0.0729816 -0.103552,0.200724 -0.0517688,0.0912305 -0.0690297,0.127728 -0.15532,0.218973 -0.276119,0.218973 -0.552252,0.182475 -0.862893,0.0912305 -0.0690297,-0.0182348 -0.0862766,-0.0364837 -0.138059,-0.0729816 -0.120799,-0.109493 -0.120799,-0.0912446 -0.207089,-0.237222 0,-0.0364978 -0.0345219,-0.0547467 -0.0517688,-0.0729957 -0.120813,-0.145977 -0.0517829,-0.437946 -0.0517829,-0.620421 -0.0862907,0.0547467 -0.120799,0.255471 -0.120799,0.36495z"/>
   <path id="_137076056" class="fil7" d="M3.07947 1.62405c0.0517829,0.0182348 0.0862907,0.0912305 0.103552,0.145977l0.0345078 0.0547467c0.0517829,0.0729816 0.103552,0.310203 0.103552,0.401448 0.0690297,0.182475 -0.0690297,0.602172 -0.189828,0.766398l-0.138074 0.200724c0.0517829,-0.0182348 0.0862907,-0.0547326 0.120813,-0.0912305 0.0862907,-0.0912446 0.120799,-0.109493 0.189828,-0.237222l0.0862907 -0.127728 0.0345219 0.0364837c0.0862907,-0.328452 0.103538,-0.620421 -0.0345219,-0.930624 -0.017261,-0.0729957 -0.0517688,-0.127742 -0.0862907,-0.182489 -0.0862907,-0.145977 -0.207089,-0.273706 -0.327888,-0.36495 -0.0517829,-0.0364978 -0.0345219,-0.0364978 -0.0862907,-0.0547467 -0.017261,0.0364978 -0.017261,0 0,0.0547467l0.103538 0.109493c0,0.0182348 0.017261,0.0364837 0.017261,0.0547326 0.0862907,0.109493 0.0690297,0.0364978 0.0690297,0.16424z"/>
   <path id="_137075936" class="fil7" d="M1.45723 3.28459l0.017261 -0.0364978c0.15532,0.0547467 -0.017261,0.0364978 0.396932,0.145991 -0.0517688,-0.0364978 -0.103552,-0.0547467 -0.15532,-0.0912446 -0.0862907,-0.0547467 -0.103552,-0.0729957 -0.15532,-0.145977 0,0 0,0 0,0 -0.0517688,-0.0547467 -0.172581,-0.218973 -0.22435,-0.328466 -0.0517688,-0.0912305 -0.120813,-0.291969 -0.120813,-0.419697l0 -0.182475c-0.0172468,-0.0729957 0,-0.164226 0,-0.255471 0,-0.0364978 0,-0.0912446 0,-0.127728 0,-0.0912446 0.017261,-0.0547467 -0.0172468,-0.0912446 -0.189842,0.36495 -0.189842,0.857643 0.0345078,1.24084 0.0517829,0.0912446 0.15532,0.255471 0.22435,0.291969z"/>
   <path id="_137076968" class="fil8" d="M1.40546 1.45981c0.189842,0 0.138059,0.0182489 0.22435,-0.0547326l0 -0.127742c0.017261,-0.0182489 0.0345219,-0.0182489 0.0517688,-0.0182489 0.0517829,0 0.0862907,-0.0729816 0.207103,-0.0182489 0.103538,0.0547467 0.0690297,0.0364978 0.207089,0 0.172581,-0.0364978 0.327902,-0.0182489 0.483222,0.0364978l0.22435 0.0912446c0.0690297,0.0364978 0.103552,0.0547326 0.138059,0.109479 0.0345219,0.0364978 0.017261,0 0.0517688,0.0547467 0,0 0.017261,0.0364978 0.0345219,0.0547467 0,0 0.017261,0 0.0345078,0.0182489 0,0 0,0 0,0 0.017261,0 0.017261,0 0.017261,0.0182489 0,-0.127742 0.017261,-0.0547467 -0.0690297,-0.16424 0,-0.0182489 -0.017261,-0.0364978 -0.017261,-0.0547326l-0.103538 -0.109493c-0.017261,-0.0547467 -0.017261,-0.0182489 0,-0.0547467 -0.120813,-0.164226 -0.604021,-0.200724 -0.828385,-0.164226 -0.29338,0.0547467 -0.396917,0.164226 -0.58676,0.310217 -0.0517688,0.0364837 -0.0517688,0.0182489 -0.0690297,0.0729816z"/>
   <path id="_137076776" class="fil9" d="M1.97498 2.11673c0,0.0547467 0.0517688,0.127742 0.120799,0.127742 0.172581,0 0.258872,0 0.327902,-0.145991 0.0862907,-0.218973 -0.120813,-0.437946 -0.241611,-0.437946 -0.0517688,0 -0.017261,0.0182489 -0.0345219,0.0182489 -0.241611,0.0912446 -0.172567,0.291969 -0.172567,0.437946z"/>
   <path id="_137076392" class="fil10" d="M2.66529 2.26272l-0.017261 0c-0.017261,0.0182489 -0.017261,0.0182489 -0.0345219,0.0547326 -0.0345078,0.0729957 -0.103538,0.127742 -0.172567,0.16424 -0.0517829,0.0364978 0.0172468,0 -0.0345219,0.0182489 -0.0517688,0.0364837 -0.172581,0.0364837 -0.258872,0.0364837 -0.189828,-0.0182348 -0.36241,-0.182475 -0.431439,-0.36495l0 -0.0182489c-0.0345219,-0.0182489 -0.017261,-0.0182489 -0.0517688,-0.0182489 0,0.0729957 0.0345078,0.145991 0.0690297,0.218973 0.120799,0.200724 0.36241,0.328466 0.621282,0.237222 0.0690297,-0.0182489 0.138059,-0.0547467 0.189828,-0.0912305 0.15532,-0.127742 0.207103,-0.291969 0.4487,-0.474444 0.0517829,-0.0912446 0.0690297,-0.109493 0.0862907,-0.255471 0,-0.0729957 0,-0.0912446 -0.0345078,-0.145977 0.0172468,0.127728 0,0.0182348 -0.138059,0.109479 -0.0345219,0.0182489 0,-0.0182489 -0.0345219,0.0182489 -0.103552,0.0912446 -0.017261,0.36495 -0.207089,0.510941z"/>
   <path id="_137074976" class="fil11" d="M3.0622 3.81378c0.017261,0.0364837 0.189842,0.0912305 0,0.346701l-0.155306 -0.0182489c0.0172468,0.0547467 0.0690297,0.0547467 0.120799,0.109493 0,0 0,-0.0182489 0,0 0.017261,0 0.017261,-0.0182489 0.017261,-0.0182489 0,0 0.0345078,0 0.0345078,0 0.15532,0 0.120813,0.0182489 0.189842,0.0912305 0.017261,-0.0729816 0,-0.0182489 0.0517688,-0.0729816 0.0690297,-0.0729957 0.0345219,-0.0547467 0.0690297,-0.255471 0.103552,0.145977 0,0.328452 -0.0517688,0.437946l-0.0517688 -0.0729957c0,0 0,0.0547467 0,0.0547467 -0.017261,0.0547467 -0.017261,0.0364978 -0.017261,0.0547467l0.0345078 0.0729816c0.0517829,-0.0182489 0,0.0182489 0.0517829,-0.0364978 0.0172468,-0.0182348 0.0172468,-0.0364837 0.0345078,-0.0729816 0.0345219,-0.0364978 0.0517829,-0.0729957 0.0690297,-0.127742 0.0345219,-0.109479 0.0517829,-0.857643 -0.396932,-0.492678z"/>
   <path id="_137077616" class="fil12" d="M2.33739 2.31746l-0.22435 0 -0.207103 -0.0729816c0.138074,0.255471 0.448714,0.182475 0.638543,0.0182489 0.138059,-0.109493 0.0862907,-0.547439 0.0690297,-0.784661 0.0345219,-0.0182489 0.103552,-0.0364978 0.138074,-0.0729816 0.0345078,-0.0182489 0.0172468,0 0.0517688,-0.0364978l-0.22435 -0.0912446c-0.0345219,0.0364978 -0.0862907,0.0182489 -0.207103,0.0729957 0.017261,0.0729816 0.0345219,0.127728 0.0690439,0.200724l0.0172468 0.0182489c0,0.0182489 0,0.0182489 0,0.0182489 0.172581,0.310203 0.189842,0.675168 -0.120799,0.7299z"/>
   <path id="_137077760" class="fil13" d="M1.18111 0.875892l-0.0690297 -0.237222 -0.017261 0.0364978c0,0.127728 0.0517688,0.27372 0.120799,0.346701 0.0862907,0.0912446 0.138074,0.0182489 0.293394,-0.0729816 0.0862907,-0.0547467 0.22435,-0.109493 0.207089,-0.255471 -0.0345219,-0.109493 -0.15532,-0.182475 -0.276119,-0.218973 0.0517688,0.0912305 0.0690297,0.0912305 0.0172468,0.182475 -0.0517688,0.127728 -0.120799,0.127728 -0.207089,0.182475 -0.103552,0.0547467 0.0862907,-0.0547467 -0.0345219,0.0364978 -0.0172468,0.0182489 0.017261,0 -0.0345078,0z"/>
   <path id="_137077904" class="fil13" d="M2.1303 0.200724c0,0 0.0172468,0 0.0172468,0 0,-0.0182489 0,-0.0182489 0,-0.0182489l0.0690297 -0.0182489c0.0690439,-0.0729816 0.0862907,-0.0364978 0.138074,-0.0912305l0 0.0547326 0.0172468 0.109493c0.0345219,0.127728 0.0345219,0.164226 -0.0517688,0.255471 -0.0517688,0.0547326 -0.0517688,0.0364978 -0.103552,0.0729816 -0.103538,0.0547467 -0.0172468,0 -0.0690297,0.0729957 -0.0172468,0.0364978 -0.0172468,0.0547467 -0.0862907,0.0182489 -0.0345078,-0.0364978 0,0.0547467 -0.0345078,-0.0364978 0.017261,-0.0364978 0.017261,-0.0729957 0.017261,-0.109479 0,-0.0729957 0,-0.0547467 -0.0345219,-0.0729957l0.0345219 0.310217c0.0345078,0.0182348 0.36241,0.0364837 0.4487,0 0.017261,0 0.017261,0 0.017261,0l-0.172581 0c0.0345078,-0.0547467 0.0517688,-0.0547467 0.0862907,-0.109493 0.0517688,-0.0547467 0.0345078,-0.0729957 0.120799,-0.0912446l0.017261 0.127742c0.0345219,-0.0547467 0.017261,-0.109493 0,-0.182475 -0.120799,-0.291969 -0.172581,-0.0364978 -0.138059,-0.492693 -0.138059,0.0182489 -0.241611,0.109479 -0.29338,0.200724z"/>
   <path id="_137078024" class="fil13" d="M0.404511 2.11673c0.103552,0.0182489 0.138059,0.0364978 0.138059,0.16424 0.017261,0.0912305 0,0.200724 -0.0345078,0.255457l0.0690297 0.0547467 -0.0345219 0.0182489 -0.15532 -0.0182489c-0.0690297,-0.0182489 -0.0517688,-0.0364978 -0.0517688,0.0182489 0.0690297,0.0547467 0.276119,0.0912446 0.36241,0.0364978 -0.0862907,-0.0182489 -0.120799,0 -0.0862907,-0.0729957 0.017261,-0.0547326 0.0690297,-0.0729816 0.0862907,-0.127728 0.0345219,0.0912305 0.0517688,0.0912305 0.017261,0.182475 0.0690297,-0.0364978 0.0345078,-0.383199 0.017261,-0.474444 -0.0345219,-0.145977 -0.241611,-0.127728 -0.327902,-0.0364978z"/>
   <path id="_137078144" class="fil14" d="M1.90593 2.24448c-0.0345078,0 0,0.0182489 -0.0345078,-0.0182489l-0.0345219 0c0.0345219,0.109479 0.0517829,0.109479 0.138074,0.164226 0.0690297,0.0729957 0.0862766,0.0729957 0.22435,0.0729957 0.207089,0 0.258858,-0.0729957 0.379671,-0.182475 0.120799,-0.145991 0.120799,-0.27372 0.103538,-0.492693 0,-0.218973 0.0517829,-0.237222 0.15532,-0.255471 0.0345219,-0.0182489 0.0345219,0 0.0517829,-0.0182489 0.0690297,-0.0364978 0,0.0364978 0.0517688,-0.0364978 -0.0345078,-0.0547467 -0.0690297,-0.0729816 -0.138059,-0.109479 -0.0345219,0.0364978 -0.017261,0.0182489 -0.0517688,0.0364978 -0.0345219,0.0364837 -0.103552,0.0547326 -0.138074,0.0729816 0.017261,0.237222 0.0690297,0.675168 -0.0690297,0.784661 -0.189828,0.164226 -0.500469,0.237222 -0.638543,-0.0182489z"/>
   <path id="_137078288" class="fil15" d="M3.01044 0.492693c0.138059,-0.0547467 0.258872,-0.127742 0.431454,-0.127742 -0.017261,0.0912446 -0.0345219,0.0912446 -0.0690439,0.16424 -0.0172468,0.0729816 0,0.0912305 -0.0517688,0.145977 -0.207089,0.291969 -0.29338,0.164226 -0.379671,0.200724 0.120799,0.0364978 0.207089,0.127728 0.327902,0.164226 -0.0345219,-0.0729816 0.017261,-0.0912305 0.0517688,-0.145977 0.0517688,-0.0729957 0,-0.0364978 0.103552,-0.0912446l0 0.109493c0.0690297,-0.0912446 0,-0.218973 0,-0.328466l0.120799 -0.237222c-0.0345078,-0.0364837 -0.0690297,-0.0364837 -0.15532,-0.0364837 -0.207089,0.0182348 -0.258858,0.109479 -0.379671,0.182475z"/>
   <path id="_137078432" class="fil16" d="M3.71801 2.99262c0,0 0.22435,0.200724 -0.017261,0.419697 -0.0345078,0.0182489 -0.0345078,0.0182489 -0.0862907,0.0182489l-0.0862907 -0.127728c-0.0172468,0.0729957 -0.0517688,0.109479 0,0.145977 0.207103,0.0729957 0.189842,0.0547467 0.414193,-0.0547326 0.0345219,0.0729816 -0.017261,0.0912305 0.0690297,0.127728 0,-0.109493 0.0690297,-0.164226 0,-0.27372l-0.0345078 -0.0364978c0,0 0,0 0,-0.0182489 -0.017261,-0.0182348 -0.017261,0 -0.0345219,-0.0182348 -0.017261,-0.0364978 -0.017261,-0.0364978 -0.0517688,-0.0729957l0.017261 -0.0182489c-0.017261,-0.0547467 0.0172468,-0.0364978 -0.0345219,-0.0364978 0,-0.0547467 -0.017261,-0.0547467 0.0345219,-0.0364978 -0.0345219,-0.0364978 -0.0517829,-0.0547326 -0.0862907,-0.0547326 -0.0345219,-0.0182489 -0.0345219,-0.0182489 -0.0690297,0 -0.0690439,0.0182348 -0.017261,0 -0.0345219,0.0364837z"/>
   <path id="_137078576" class="fil8" d="M0.663383 1.62405c-0.0517829,-0.0364978 -0.0517829,-0.0182489 -0.0862907,-0.0729957 -0.0517829,-0.0364978 -0.0517829,-0.0364978 -0.0690297,-0.0912446 -0.0517829,-0.0182489 -0.017261,-0.0182489 -0.0345219,-0.0364978 -0.0690297,0 -0.017261,0.0182489 -0.0690297,-0.0547326 0.017261,0.109479 0.103552,0.182475 0.15532,0.255471 0.103552,0.109479 0.103552,0.0912305 0.258872,0.145977 0.0690297,-0.0729957 0.103538,-0.164226 0.15532,-0.27372 0.0690297,-0.109479 0.15532,-0.200724 0.0172468,-0.291969 -0.0517688,0.0364978 -0.0345078,0 -0.0862907,0.0547467 0.0862907,0 0.0862907,0 0.0690439,0.0912446l-0.0862907 0 0.0517688 0.0547467 -0.189842 0.218973c0,-0.0547467 0.0345219,-0.0912446 0.0517829,-0.16424l0.0345078 -0.237222 -0.103538 -0.0547326c0.0172468,0.0182489 0.103538,0.0547326 0.0345078,0.255457 -0.0690297,0.182489 -0.0862907,0.0729957 -0.0862907,0.218973l-0.0172468 -0.0182348z"/>
   <path id="_137078696" class="fil11" d="M3.66624 1.14961c0.0345078,0.0182489 0,0.0182489 0.0517688,0.0182489 0.0517688,0 0.103552,0 0.138059,-0.0182489 0.0517829,0 0.15532,-0.0182489 0.172581,0.0364978 0.0862907,0 0.138059,0.0182348 0.189828,0.0729816l-0.138059 0.0729957 -0.0690297 -0.0912446c-0.0517688,-0.0182489 -0.017261,-0.0182489 -0.0862907,-0.0182489 -0.0345078,0.0547467 -0.0172468,0.0912446 -0.0517688,0.127742 0,0.0364978 -0.017261,0.0547467 -0.0345219,0.0547467 -0.0517688,0.0547326 0,0 -0.0517688,0.0364837 -0.0345078,0.0729957 0,0.0182489 -0.0345078,0.0364978l-0.0690439 0 0.017261 -0.0182489c-0.0690297,-0.0182489 -0.0862907,0 -0.138059,-0.0729816 -0.0345219,-0.0547467 -0.0345219,-0.0912446 -0.017261,-0.145991 -0.0690297,0.0729957 -0.0345078,0.0912446 0.017261,0.16424 0.0345219,0.0729816 0.0517688,0.127728 0.0862907,0.164226 0.241611,0.0182489 0.29338,-0.237222 0.465961,-0.182475 0.0690297,-0.0364978 0.0862907,-0.0729957 0.207089,-0.0912446 -0.0517688,-0.0912446 -0.15532,-0.164226 -0.276119,-0.182475 -0.138059,-0.0364978 -0.258872,0 -0.379671,0.0364978z"/>
   <path id="_137078816" class="fil16" d="M0.559831 3.08387c0.0690297,-0.0182489 0,-0.0182489 0.0690297,-0.0364978 0.0517688,-0.0364978 0.0345219,-0.0182489 0.103552,-0.0182489l0.0172468 0 0.0517829 0c0.0345078,0 0.017261,-0.0182489 0.017261,0.0182489 0.0517688,0.109493 0.0517688,0.200724 -0.0345219,0.27372 -0.017261,0.0364978 -0.0690297,0.0547467 -0.120799,0.0547467 -0.103552,0 -0.103552,-0.0547467 -0.120813,-0.0729957l-0.017261 -0.164226 -0.0345078 0.145977 -0.017261 0.109493c0.0345219,0 0.0345219,-0.0364978 0.0345219,0.0182348 0.172567,0.218973 0.241597,0.0364978 0.379671,0.0912446 0.0517688,-0.0729957 0.0345078,0.0182489 0.0517688,-0.218973 0,-0.0182489 0,-0.0364978 0,-0.0547467 0,-0.0547326 0,-0.0182489 0.017261,-0.0547326 -0.0517829,-0.0364978 -0.103552,-0.182489 -0.15532,-0.200738 -0.120813,-0.0729816 -0.189842,0.0729957 -0.241611,0.109493z"/>
   <path id="_137078936" class="fil17" d="M1.09482 0.675168l0.017261 -0.0364978 0.0690297 0.237222 0.017261 -0.0364978c0.0172468,-0.0547467 0,-0.0729957 0,-0.127728 0.138059,-0.0729957 0.15532,-0.0547467 0.189828,-0.218973 0,-0.0364978 -0.0345078,0 0,-0.0364978l-0.017261 -0.0182489c-0.0690297,-0.0729957 -0.0690297,-0.109493 -0.120799,-0.218973 -0.0517688,0.0182489 -0.0517688,0.0182489 -0.0862907,0.0729957 -0.0517688,0.0912305 -0.120799,0.291954 -0.0690297,0.383199z"/>
   <path id="_137079080" class="fil18" d="M1.97498 2.11673c0,-0.145977 -0.0690439,-0.346701 0.172567,-0.437946 0.017261,0 -0.0172468,-0.0182489 0.0345219,-0.0182489 0.120799,0 0.327902,0.218973 0.241611,0.437946 -0.0690297,0.145991 -0.15532,0.145991 -0.327902,0.145991 0.103552,0.127728 0.310641,-0.0182489 0.36241,-0.127742 0.0690297,-0.145977 0,-0.401448 -0.15532,-0.492678 -0.15532,-0.0912446 -0.379671,-0.0182489 -0.396932,0.237222 0,0.127728 -0.0172468,0.200724 0.0690439,0.255457z"/>
   <path id="_137079224" class="fil19" d="M1.3882 1.62405l0.017261 0.0182348 0.0862907 0 0 0.0729957 0 0.0729957c0.15532,-0.109493 0.172581,0.164226 0.207089,0.27372 0,0.0364837 0.017261,0.0547326 0.017261,0.0912305l0 0.0182489c0.0517688,0.0182489 0.0690297,0.0547467 0.120799,0.0547467l0.0345219 0c-0.15532,-0.200724 -0.0517688,-0.346715 -0.103552,-0.510941 -0.0172468,-0.0364978 -0.0517688,-0.109479 -0.103538,-0.109479 -0.0690297,0 -0.0690297,0 -0.120813,0.0729816 -0.0345078,-0.0729816 -0.0690297,-0.0364978 -0.103538,-0.0912305 -0.0345219,-0.0182489 -0.017261,-0.0182489 -0.017261,-0.0729957 -0.0517829,0.0364978 -0.017261,-0.0182489 -0.0345219,0.0364978 0,0.0364978 0,0.0364978 0,0.0729957z"/>
   <path id="_137079368" class="fil20" d="M3.9251 2.08025c0.017261,0.0364837 0.0690297,0.0182348 0.189842,0.0547326l0.15532 0.0364978c0.017261,0.0182489 0.017261,0.0182489 0.0345078,0.0364978 0.15532,0.0729957 0.103552,0.0912446 0.207103,0.218973 -0.0345219,0.0182489 0.0345078,0.0182489 -0.0517829,0.0182489l-0.120799 0c-0.0690297,-0.0364978 0,0 -0.0345219,-0.0364978 -0.0172468,-0.0182489 0,0 -0.0345078,-0.0182489 -0.0690297,0.0364978 -0.310641,0.255471 -0.379671,0.0729957l-0.017261 -0.27372c0,-0.0729957 0,-0.0364978 -0.017261,-0.0364978 0,0.0912446 -0.017261,0.383199 0.017261,0.456195l0 -0.0729957c0.0862907,0.0547467 0.120799,0.0547467 0.22435,0.0182489 0.103552,-0.0182489 0.138059,-0.0729816 0.22435,-0.0729816l0.0345219 0.0364978c0.103538,-0.0182489 0.120799,-0.0182489 0.22435,0 -0.017261,-0.145991 -0.120813,-0.291969 -0.22435,-0.346715 -0.120813,-0.0547467 -0.29338,-0.127728 -0.431454,-0.0912305z"/>
   <path id="_137079512" class="fil21" d="M2.18207 2.18973c0.0862907,0 0.103552,0.0182489 0.138059,-0.0547467 0.0345219,-0.0364978 0.0517688,-0.0912305 0.0517688,-0.164226l-0.241597 -0.164226c-0.0517829,0.0547467 -0.103552,0.109479 -0.0862907,0.218973 0,0.0729816 0.0517688,0.164226 0.138059,0.164226z"/>
   <path id="_137079656" class="fil22" d="M2.06125 4.34296l0 0.0729957 0.0517829 0.0182489c0.017261,0 0.017261,-0.0182489 0.017261,0 0,0 0.0862766,-0.0182489 0.120799,-0.0547467 0.0862907,-0.109479 0.017261,-0.27372 -0.0517688,-0.310217 -0.0517829,-0.0182348 -0.0690297,-0.0182348 -0.103552,0 -0.0690297,0 -0.017261,0.0182489 -0.0690297,0 -0.0517688,0.0364978 -0.0345219,0.200738 0.017261,0.255471 0,0 0,0 0,0 0.0172468,0.0182489 0.0172468,0.0182489 0.0172468,0.0182489z"/>
   <path id="_137079800" class="fil15" d="M2.49271 4.25173c0.0345078,-0.0182489 0,0 0.0345078,-0.0182489 0,0.109479 -0.0345078,0.255471 -0.103538,0.291954 -0.0517829,0.0912446 -0.0690297,0.0912446 -0.15532,0.145991 -0.0517829,0.0364978 0.0345078,0.0364978 -0.0517829,0.0182489l0 -0.16424c-0.0517688,0.0912446 -0.0345078,0.0364978 -0.0517688,0.127742 -0.017261,0.0729816 -0.017261,0.0364978 0,0.109479 0.189842,0.0364978 0.465961,-0.36495 0.431454,-0.656919 -0.017261,-0.0729816 -0.0345219,-0.0729816 -0.0862907,-0.0912305l-0.293394 0c0.224364,0.0729816 0.138074,0.0547326 0.224364,0.164226 0.0345078,0.0547467 0.0345078,0.0364978 0.0517688,0.0729957z"/>
   <path id="_211189904" class="fil23" d="M0.887733 3.50357l-0.207103 0.0547467c-0.138059,0.0182489 -0.241597,0 -0.327888,-0.0912446l0.0862907 -0.0364978c0,-0.0182489 0,-0.0182489 0.0345078,-0.0364837l0.017261 -0.109493 -0.241611 0.164226c0.0517688,0.127742 0.327902,0.200724 0.552252,0.145991 0.0690297,-0.0182489 0.207089,-0.0912446 0.241611,-0.127742 0.0517688,-0.0912305 -0.0517829,-0.200724 -0.0862907,-0.291954 -0.017261,0.0364837 -0.017261,0 -0.017261,0.0547326 0,0.0182489 0,0.0364978 0,0.0547467 -0.017261,0.237222 0,0.145977 -0.0517688,0.218973z"/>
   <path id="_211190048" class="fil24" d="M1.16385 3.79553c0.0517688,0 0.0345219,-0.0182489 0.103552,-0.0364978l0.0690297 0.0182489 0.0345078 0c0.0345219,0.0729816 0.0517829,0.145977 0.0345219,0.255471 0,0.0912305 -0.0345219,0.109479 -0.0690297,0.182475l0.120799 0 0.0345219 0c0.0345078,-0.0547467 0.0690297,-0.0729957 0.120799,-0.127742l0.017261 0.0364978c0.017261,0.0182489 -0.0345078,0.0182489 0.0345219,0 0.0172468,0 0.0172468,0 0.0345078,-0.0364978 0,0 0.017261,-0.0364837 0.017261,-0.0364837 0.017261,-0.0729957 0.017261,-0.0912446 0,-0.109493 -0.172581,-0.0182489 0.017261,0.127728 -0.189842,0.127728l-0.0690297 -0.237208c0,-0.0182489 0,-0.0547467 0.017261,-0.0547467 -0.0517688,-0.0364978 -0.120799,-0.0729957 -0.172581,-0.0729957 -0.0172468,-0.0182489 -0.0517688,0 -0.0690297,0.0182489 -0.0690297,0.0547467 -0.017261,0.0364978 -0.0690297,0.0729957z"/>
   <path id="_211190192" class="fil25" d="M2.95867 3.88677c-0.0517688,0.0182489 -0.103552,0.0547467 -0.103552,0.0912446 -0.017261,0.0729957 0,0.127728 0.0517829,0.164226l0.155306 0.0182489c0.189842,-0.255471 0.017261,-0.310217 0,-0.346701 -0.0172468,0.0182489 -0.0517688,0.0182489 -0.0690297,0.0182489 -0.0517688,0.0364837 -0.0345078,0.0364837 -0.0345078,0.0547326z"/>
   <path id="_211190336" class="fil26" d="M2.64803 2.26272l-0.0690297 0.0182489c-0.120813,0.109479 -0.172581,0.182475 -0.379671,0.182475 -0.138074,0 -0.15532,0 -0.22435,-0.0729957 -0.0862907,-0.0547467 -0.103552,-0.0547467 -0.138074,-0.164226 -0.0517688,0 -0.0690297,-0.0364978 -0.120799,-0.0547467 0.0690297,0.182475 0.241611,0.346715 0.431439,0.36495 0.0862907,0 0.207103,0 0.258872,-0.0364837 0.0517688,-0.0182489 -0.017261,0.0182489 0.0345219,-0.0182489 0.0690297,-0.0364978 0.138059,-0.0912446 0.172567,-0.16424 0.017261,-0.0364837 0.017261,-0.0364837 0.0345219,-0.0547326z"/>
   <path id="_211190480" class="fil27" d="M2.02674 4.06924c0.0517688,0.0182489 0,0 0.0690297,0 0.0345219,-0.0182348 0.0517688,-0.0182348 0.103552,0 0.0690297,0.0364978 0.138059,0.200738 0.0517688,0.310217 -0.0345219,0.0364978 -0.120799,0.0547467 -0.120799,0.0547467 0,-0.0182489 0,0 -0.017261,0 0.0345078,0.0729816 0.0690297,0.0912305 0.0517688,0.218973 0.017261,-0.0912446 0,-0.0364978 0.0517688,-0.127742l0 0.16424c0.0862907,0.0182489 0,0.0182489 0.0517829,-0.0182489 -0.0690297,-0.0182489 -0.0345219,0.0182489 -0.0345219,-0.0547467 0,0 0,-0.0912446 0,-0.0912446l0.120813 -0.0182489c0,0 0,-0.0182348 0.0172468,-0.0182348 0,0 0,0 0,-0.0182489 0.0690439,-0.0364978 0.0345219,-0.0182489 0.0690439,-0.0547467l-0.0517829 -0.0182489c-0.0517688,-0.474444 -0.189828,-0.310217 -0.310641,-0.383199 -0.0862907,0.0364978 -0.0345078,0 -0.0517688,0.0547326z"/>
   <path id="_211190624" class="fil28" d="M2.579 2.28097l0.0690297 -0.0182489 0.017261 0c0.0172468,-0.16424 0.0517688,-0.127742 0.0862907,-0.437946 0.0172468,-0.0547467 0.0172468,-0.0729957 0.0345078,-0.109493 0.0345219,-0.109479 0.189842,-0.0729957 0.241611,-0.109479l0 -0.0182489c-0.017261,-0.0182489 -0.0345219,-0.0547467 -0.0345219,-0.0547467 -0.0345078,-0.0547467 -0.0172468,-0.0182489 -0.0517688,-0.0547467 -0.0517688,0.0729957 0.017261,0 -0.0517688,0.0364978 -0.017261,0.0182489 -0.017261,0 -0.0517829,0.0182489 -0.103538,0.0182489 -0.15532,0.0364978 -0.15532,0.255471 0.017261,0.218973 0.017261,0.346701 -0.103538,0.492693z"/>
   <path id="_211190768" class="fil16" d="M0.283712 2.22623c0.0690297,-0.0182489 0.0345078,-0.0364978 0.103538,-0.0182489l0.0517829 0.0364978c0.0172468,0.164226 -0.017261,0.145977 -0.103552,0.255471 0.0862907,0.0729816 0.172581,0.0547326 0.207089,0.109479l0.0345219 -0.0182489 -0.0690297 -0.0547467c0.0345078,-0.0547326 0.0517688,-0.164226 0.0345078,-0.255457 0,-0.127742 -0.0345078,-0.145991 -0.138059,-0.16424l-0.0862907 0.0729957c0,0 0,0 0,0l-0.0345078 0.0364978z"/>
   <path id="_211190888" class="fil16" d="M3.99413 2.4452l0 0c0,0.0364978 0,0 -0.0345078,0.0182489 -0.017261,0.0364978 0.0345078,0 -0.017261,0.0182489 -0.0517688,0 -0.017261,-0.0182489 -0.017261,-0.0182489l-0.0345078 0c0.0690297,0.182475 0.310641,-0.0364978 0.379671,-0.0729957 0.0345078,0.0182489 0.017261,0 0.0345078,0.0182489 0.0345219,0.0364978 -0.0345078,0 0.0345219,0.0364978 0,-0.164226 -0.0517688,-0.218973 -0.207089,-0.255471 0,0.127728 -0.017261,0.237222 -0.138074,0.255471z"/>
   <path id="_211191008" class="fil13" d="M1.19837 1.75178c0.0345078,0.0364978 0.0172468,0 0.0172468,0.0912446 0,0.0364837 0,0.0912305 0,0.127728 0,0.0912446 -0.0172468,0.182475 0,0.255471l0.017261 -0.0547467c0.017261,-0.0364978 0,-0.0182489 0.0345219,-0.0547467 0,-0.109479 0.0345078,-0.310203 0.120799,-0.36495 0.017261,-0.0729957 0.0345219,-0.0364978 0.017261,-0.109493l-0.017261 -0.0182348c0,0 -0.0690297,0.0364837 -0.0345078,-0.0912446 -0.0517829,0.0364978 -0.120813,0.145977 -0.15532,0.218973z"/>
   <path id="_211191128" class="fil29" d="M3.64898 1.56931l0.017261 0.0182489c0.15532,0.0729816 0.103538,-0.0182489 0.258858,-0.0182489 -0.0345078,0.0729816 -0.0862907,0.109479 -0.120799,0.164226 0.138059,-0.0182489 0.0345078,-0.0182489 0.0690297,0.0182489 0.017261,-0.0364978 0.0345219,-0.0182489 0.0690297,-0.0547467 0.017261,-0.0182489 0.0517688,-0.0547467 0.0690297,-0.0912305 0.0345219,-0.0547467 0.0690297,-0.16424 0.103552,-0.218973 -0.172581,-0.0547467 -0.22435,0.200724 -0.465961,0.182475z"/>
   <path id="_211191272" class="fil30" d="M2.66529 2.26272c0.189828,-0.145991 0.103538,-0.419697 0.207089,-0.510941 0.0345219,-0.0364978 0,0 0.0345219,-0.0182489 0.138059,-0.0912446 0.155306,0.0182489 0.138059,-0.109479 -0.017261,-0.0547467 0.0172468,0 -0.017261,-0.0182489 -0.0517688,0.0364837 -0.207089,0 -0.241611,0.109479 -0.017261,0.0364978 -0.017261,0.0547467 -0.0345078,0.109493 -0.0345219,0.310203 -0.0690439,0.273706 -0.0862907,0.437946z"/>
   <path id="_211191416" class="fil31" d="M3.01044 0.492693c-0.0517688,0 -0.0345078,-0.0182489 -0.0345078,0.0364978l0.0690297 0c-0.0345219,-0.0182489 0.0172468,-0.0182489 0.0345078,-0.0182489 0.0345219,0.0182489 0.017261,-0.0182489 0.0345219,0.0364837 -0.017261,0.0547467 -0.017261,0.0912446 -0.0517829,0.109493 -0.0172468,0.0182489 -0.0345078,0.0182489 -0.0517688,0.0182489 -0.0345078,0.0547467 -0.017261,0 -0.017261,0.0729957l0 0.0547326c0.017261,-0.0182489 0.138074,-0.145977 0.15532,-0.200724 0.017261,-0.0182489 0,-0.0182489 0.017261,-0.0364978 0,-0.0547326 0,-0.0912305 0.103552,-0.0729816 0.0345078,0 0.0517688,0.0182489 0.0690297,0.0364978l0.0345078 0c0.0345219,-0.0729957 0.0517829,-0.0729957 0.0690439,-0.16424 -0.172581,0 -0.293394,0.0729957 -0.431454,0.127742z"/>
   <path id="_211192496" class="fil16" d="M0.663383 1.62405l0.0172468 0.0182348c0,-0.145977 0.017261,-0.0364837 0.0862907,-0.218973 0.0690297,-0.200724 -0.017261,-0.237208 -0.0345078,-0.255457l-0.0517829 0 -0.103538 0 0.0690297 0.0182489c0.0517688,0.200724 -0.0345219,0.182475 -0.0690297,0.291954 0.0345078,0.0547467 0.0862907,0.109493 0.0862907,0.145991z"/>
   <path id="_211206152" class="fil1" d="M1.18111 0.875892c0.0517688,0 0.017261,0.0182489 0.0345078,0 0.120813,-0.0912446 -0.0690297,0.0182489 0.0345219,-0.0364978 0.0862907,-0.0547467 0.15532,-0.0547467 0.207089,-0.182475 0.0517829,-0.0912446 0.0345219,-0.0912446 -0.0172468,-0.182475l-0.0517829 -0.0182489c-0.0345078,0.0364978 0,0 0,0.0364978 -0.0345078,0.164226 -0.0517688,0.145977 -0.189828,0.218973 0,0.0547326 0.0172468,0.0729816 0,0.127728l-0.017261 0.0364978z"/>
   <path id="_211192376" class="fil9" d="M1.14659 0.675168c0.0690297,-0.0364978 0.172581,-0.0547467 0.189842,-0.145977 0,-0.0547467 -0.0690297,-0.16424 -0.120813,-0.200738 -0.103538,0.109493 -0.120799,0.145991 -0.0690297,0.346715z"/>
   <path id="_211206272" class="fil32" d="M3.87333 2.60943c0.0345219,0.109493 0.138059,0.109493 0.241611,0.0547467 0.120799,-0.0364978 0.120799,-0.0729957 0.241611,-0.145977l-0.0345219 -0.0364978c-0.0862907,0 -0.120799,0.0547326 -0.22435,0.0729816 -0.103552,0.0364978 -0.138059,0.0364978 -0.22435,-0.0182489l0 0.0729957z"/>
   <path id="_211206344" class="fil33" d="M2.14754 0.583923l0 0.0547467c0.0517829,-0.0729957 -0.0345078,-0.0182489 0.0690297,-0.0729957 0.0517829,-0.0364837 0.0517829,-0.0182489 0.103552,-0.0729816 0.0862907,-0.0912446 0.0862907,-0.127742 0.0517688,-0.255471 -0.0690297,0.0729957 -0.0345078,-0.0182489 -0.103538,0.0912305 -0.017261,0.0364978 -0.017261,0.0547467 -0.0517829,0.0912446 -0.0862766,0.0729957 -0.207089,0.0364978 -0.0690297,0.164226z"/>
   <path id="_211204640" class="fil31" d="M1.66434 2.13498c0.0345078,0 0.0172468,0 0.0517688,0.0182489 0,-0.0364978 -0.017261,-0.0547467 -0.017261,-0.0912305 -0.0345078,-0.109493 -0.0517688,-0.383213 -0.207089,-0.27372l0 -0.0729957 -0.017261 0.0547467c0,0.0547467 0.0345219,0.127728 0.0517688,0.182475 0.0345219,0.0729957 0.0862907,0.145977 0.138074,0.182475z"/>
   <path id="_211193072" class="fil2" d="M3.52817 3.44882c0.017261,0.0729957 0,0.0547467 0.0862907,0.0912446 0.0345219,0.0182489 0.0690297,0.0364978 0.120813,0.0364978 0.138059,0 0.15532,-0.0364978 0.29338,0 0,0 0,-0.0182489 0,-0.0182489 0,0.0182489 0,0 -0.017261,-0.0182489 0,0 0,-0.0182489 0,-0.0182489 -0.0862907,-0.0364978 -0.0345078,-0.0547467 -0.0690297,-0.127728 -0.22435,0.109479 -0.207089,0.127728 -0.414193,0.0547326z"/>
   <path id="_211203512" class="fil0" d="M0.732412 1.16786l0.103538 0.0547326 -0.0345078 0.237222c-0.017261,0.0729957 -0.0517829,0.109493 -0.0517829,0.16424l0.189842 -0.218973 -0.0517688 -0.0547467c0,-0.0547467 0,-0.0547467 0.0172468,-0.0912446 0.0517829,-0.0547467 0.0345219,-0.0182489 0.0862907,-0.0547467 -0.0517688,-0.0912305 -0.207089,-0.0547326 -0.310641,-0.0547326l0 0.0182489 0.0517829 0z"/>
   <path id="_211192952" class="fil34" d="M3.54543 1.22259l0 0.0182489c-0.017261,0.0547467 -0.017261,0.0912446 0.017261,0.145991 0.0517688,0.0729816 0.0690297,0.0547326 0.138059,0.0729816l-0.017261 -0.0547326c0.0517829,-0.0182489 0.0517829,-0.0182489 0.0690439,0l0 -0.200738c-0.0345219,-0.0182348 -0.0690439,0 -0.103552,0l-0.0862907 0.0182489c0,0 -0.017261,0 -0.017261,0z"/>
   <path id="_211192880" class="fil23" d="M1.50901 4.23348c-0.0690297,0.109479 -0.172581,0.145977 -0.345163,0.145977l0.0517688 -0.145977 -0.0172468 -0.0912446c0,0 -0.017261,0.0364978 -0.017261,0.0364978 -0.017261,0.0547467 0,0.0182489 -0.017261,0.0364978 -0.017261,0.0729816 -0.017261,0.0547467 -0.0517688,0.109479 -0.0345219,0.0547467 -0.0517829,0.0547467 -0.0345219,0.0912446 0.189842,0.0729957 0.345163,-0.0364978 0.483222,-0.145977 0.0690297,-0.0547467 0.0690297,-0.0729957 0.103552,-0.145991 -0.0690297,0.0182489 -0.017261,0.0182489 -0.0345219,0 -0.0517688,0.0729957 -0.017261,0.0729957 -0.120799,0.109493z"/>
   <path id="_211203704" class="fil35" d="M2.99318 0.821145l-0.0517688 -0.0182489c-0.0345078,-0.0182489 -0.0345078,0 -0.0517688,-0.0364978l-0.017261 -0.0729816c-0.0517688,0.182475 0.0345219,0.109479 0.0690297,0.182475 0.0862907,-0.0364978 0.172581,0.0912446 0.379671,-0.200724 0.0517688,-0.0547467 0.0345219,-0.0729957 0.0517688,-0.145977l-0.0345078 0c-0.0690297,0.0182348 -0.0345219,0.0182348 -0.0690297,0.0912305 -0.017261,0.0182489 -0.0345219,0.0729957 -0.0690297,0.0912446 -0.0517829,0.0729816 -0.120813,0.109479 -0.207103,0.109479z"/>
   <path id="_211203776" class="fil36" d="M1.19837 4.14224l0.0172468 0.0912446c0.0690439,0 0.0517829,0.0182489 0.120813,0.0182489 0.017261,0.0182489 0.0517688,0.0182489 0.0690297,0 0.0862907,-0.0182489 0.017261,0 0.0517688,-0.0364978l-0.120799 0c0.0345078,-0.0729957 0.0690297,-0.0912446 0.0690297,-0.182475 0.017261,-0.109493 0,-0.182489 -0.0345219,-0.255471 0,0.0547467 -0.0172468,0.182475 -0.0345078,0.218973 -0.017261,0.0729816 -0.0517688,0.0912305 -0.0690297,0.127728l-0.0690297 0.0182489z"/>
   <path id="_211206848" class="fil34" d="M0.818703 3.10212c-0.0517829,0.0182489 0,0.0182489 -0.0862907,0l0.0172468 -0.0729957 -0.0172468 0 -0.0345219 0.0364978 -0.103538 0.0182489 -0.017261 0.164226c0.0345078,0.0547467 0.0862907,0.0912446 0.15532,0.0364978 0.0862907,-0.0547467 0.0172468,-0.0912446 0.0862907,-0.182475z"/>
   <path id="_211206728" class="fil37" d="M3.85607 2.15323c0.017261,0 0.017261,-0.0364978 0.017261,0.0364978l0.017261 -0.0182489c0.0345078,-0.0182489 0.0345078,-0.0364978 0.0862907,-0.0364978 0.0517688,0 0.0690297,0.0182489 0.103538,0.0364978 0,0.328466 -0.0345078,0.109493 -0.0862907,0.27372 0.120813,-0.0182489 0.138074,-0.127742 0.138074,-0.255471 0.15532,0.0364978 0.207089,0.0912446 0.207089,0.255471l0.120799 0 -0.0862907 -0.0182489c0,-0.0547467 -0.0172468,-0.109493 -0.0345078,-0.145977 -0.0690297,-0.0729957 -0.103552,-0.0364978 -0.0345219,-0.0729957 -0.0172468,-0.0182489 -0.0172468,-0.0182489 -0.0345078,-0.0364978l-0.15532 -0.0364978c-0.120813,-0.0364978 -0.172581,-0.0182489 -0.189842,-0.0547326 -0.0690297,0.0364837 -0.0345078,0 -0.0690297,0.0729816z"/>
   <path id="_211192088" class="fil36" d="M2.99318 0.802896l0 0.0182489c0.0862907,0 0.15532,-0.0364978 0.207103,-0.109479 0.0345078,-0.0182489 0.0517688,-0.0729957 0.0690297,-0.0912446 0.0345078,-0.0729957 0,-0.0729957 0.0690297,-0.0912305 -0.017261,-0.0182489 -0.0345219,-0.0364978 -0.0690297,-0.0364978 -0.103552,-0.0182489 -0.103552,0.0182489 -0.103552,0.0729816 -0.017261,0.0182489 0,0.0182489 -0.017261,0.0364978 -0.0172468,0.0547467 -0.138059,0.182475 -0.15532,0.200724z"/>
   <path id="_211191968" class="fil24" d="M2.07851 4.01451c0.120813,0.0729816 0.258872,-0.0912446 0.310641,0.383199l0.0517829 0.0182489 0.0517688 -0.164226c-0.017261,-0.0364978 -0.017261,-0.0182489 -0.0517688,-0.0729957 -0.0862907,-0.109493 0,-0.0912446 -0.224364,-0.164226l0.293394 0c-0.0345219,-0.0182489 -0.396932,-0.0182489 -0.431454,0z"/>
   <path id="_211191848" class="fil13" d="M1.7161 3.94151c-0.017261,-0.0729957 0.017261,-0.0182489 -0.0345219,-0.0729957 -0.0172468,0 -0.0690297,-0.0182489 -0.0862766,-0.0182489 -0.0517829,-0.0364837 -0.0690439,-0.0547326 -0.120813,-0.0729816 -0.017261,0 -0.017261,0.0364978 -0.017261,0.0547467l0.0690297 0.237208c0.207103,0 0.017261,-0.145977 0.189842,-0.127728z"/>
   <path id="_211197752" class="fil38" d="M2.14754 0.401448c-0.0345078,0 -0.0517688,0.0182489 -0.0690297,0.0547467 0,-0.145977 0,-0.0912446 0.017261,-0.200724 0,0 0,0 -0.017261,0 0,0.0182489 -0.0517688,0.109479 -0.0690297,0.182475 0.0345219,0.0182489 0.0345219,0 0.0345219,0.0729957 0,0.0364837 0,0.0729816 -0.017261,0.109479 0.0345078,0.0912446 0,0 0.0345078,0.0364978l0 -0.0729957 0.0862907 0c-0.138059,-0.127728 -0.0172468,-0.0912305 0.0690297,-0.164226 0.0345219,-0.0364978 0.0345219,-0.0547467 0.0517829,-0.0912446 0.0690297,-0.109479 0.0345078,-0.0182348 0.103538,-0.0912305l-0.0172468 -0.109493c-0.017261,0.0364978 0,0.0364978 -0.0345219,0.0729957 -0.0345078,0.0547467 -0.017261,0.0182489 -0.0517688,0.0547467 -0.0862907,0.0912305 -0.017261,0.109479 -0.120813,0.145977z"/>
   <path id="_211197896" class="fil39" d="M3.64898 3.12037c0.0345078,0.0182489 0.0862907,0 0.0345078,0.127728l-0.0862766 0.0364978 0.0172468 -0.109479c-0.0517688,0.0182348 -0.0690297,0.0729816 -0.0862907,0.127728l0.0862907 0.127728c0,-0.0547326 0,-0.0182489 0,-0.0547326 0.017261,-0.0547467 0.017261,-0.0547467 0.0862907,-0.0182489l0 -0.0547467c0.0862907,-0.0547467 0.0690297,-0.145977 0.0345219,-0.218973l-0.0690297 0c-0.017261,0 -0.0345219,-0.0364978 -0.017261,0.0364978z"/>
   <path id="_211198040" class="fil40" d="M0.404511 1.33209c0.0517688,0.0364978 0.0517688,0.0364978 0.0690297,0.0912305 0.0690297,0 0.0345219,-0.0182348 0.0517688,-0.0182348 0.0345219,-0.0729957 0.0345219,-0.0547467 0.0517829,-0.16424 -0.0517829,-0.0364978 -0.0862907,-0.0729816 -0.15532,-0.0729816 -0.0517829,0.0364837 -0.017261,0.109479 -0.017261,0.164226z"/>
   <path id="_211198184" class="fil41" d="M3.54543 1.22259c0,0 0.017261,0 0.017261,0l0.0862907 -0.0182489c0.0345078,0 0.0690297,-0.0182348 0.103552,0l0 0.200738 0 0.0729816c0.0345078,-0.0182489 0,0.0364978 0.0345078,-0.0364978l0.017261 -0.218973c0,0 0,0 0.017261,0 0.138059,-0.0364837 0.103538,0 0.103538,0 0.0690297,0 0.0345219,0 0.0862907,0.0182489 -0.0345078,-0.0547326 -0.103538,-0.0729816 -0.15532,-0.0547326 0.0862907,-0.0182489 0.0862907,-0.0364978 0.172581,0 -0.017261,-0.0547467 -0.120799,-0.0364978 -0.172581,-0.0364978 -0.0345078,0.0182489 -0.0862907,0.0182489 -0.138059,0.0182489 -0.0517688,0 -0.017261,0 -0.0517688,-0.0182489 -0.0345219,0 -0.0345219,0 -0.0690297,0.0182489 0,0 -0.017261,0.0182489 -0.017261,0.0182489l-0.0345219 0.0364837z"/>
   <path id="_211198328" class="fil42" d="M0.335481 2.60943c0,-0.0547467 -0.017261,-0.0364978 0.0517688,-0.0182489 0,-0.0182489 -0.0345078,-0.0182489 -0.0690297,-0.0364978 0,0 -0.0345078,-0.0182489 -0.0345078,-0.0182489 -0.0517829,-0.0364837 -0.017261,-0.0182348 -0.0345219,-0.0364837 -0.0690297,-0.0547467 -0.120799,-0.0912446 -0.138059,-0.182489 0.0345078,-0.0364837 -0.0345219,0.0182489 0.0345078,-0.0364837 0.0690297,-0.0364978 0.0345219,0 0.0345219,0 -0.0517688,0 -0.0517688,0 -0.103552,-0.0364978 -0.120799,-0.0182489 -0.0862907,0.0364978 0.017261,0.182475 0.0517688,0.0912446 0.120799,0.145977 0.241611,0.182475z"/>
   <path id="_211198496" class="fil43" d="M1.45723 4.21523c-0.0345078,0.0364978 0.0345219,0.0182489 -0.0517688,0.0364978 -0.017261,0.0182489 -0.0517688,0.0182489 -0.0690297,0 -0.0690297,0 -0.0517688,-0.0182489 -0.120813,-0.0182489l-0.0517688 0.145977c0.172581,0 0.276133,-0.0364978 0.345163,-0.145977 0,-0.0182489 0.0172468,-0.0182489 -0.017261,-0.0182489l-0.0345219 0z"/>
   <path id="_211198640" class="fil44" d="M2.1303 1.91601c0,0.0364978 -0.0517829,0.0182489 -0.0345219,0.127742 0.017261,0.0547326 0.0345219,0.0729816 0.0862907,0.0912305l0.120799 -0.200724c-0.0172468,0 -0.0862907,-0.0729816 -0.172567,-0.0182489z"/>
   <path id="_211198760" class="fil25" d="M1.31917 3.86852c-0.0517688,0.0912446 0.017261,0.200724 -0.138059,0.200724l-0.017261 -0.0547326 0.017261 -0.16424 -0.0345219 -0.0182348c0,0.0547326 -0.0172468,0.145977 0,0.200724 0,0.0729816 0.017261,0.0912305 0.017261,0.182475 0.017261,-0.0182489 0,0.0182489 0.017261,-0.0364978 0,0 0.017261,-0.0364978 0.017261,-0.0364978l0.0690297 -0.0182489c0.017261,-0.0364978 0.0517688,-0.0547467 0.0690297,-0.127728 0.017261,-0.0364978 0.0345078,-0.164226 0.0345078,-0.218973l-0.0345078 0 -0.017261 0.0912305z"/>
   <path id="_211198880" class="fil45" d="M2.06125 4.34296l0.0345219 -0.0182489c0.0517688,0.0182489 0.0690297,0 0.103552,-0.0182489l0 -0.182475c-0.0690297,-0.0547467 -0.0690297,-0.0364978 -0.15532,0.0547467 0,0.0912446 0.0172468,0.0729957 0.0172468,0.127728 0,0 0,0.0182489 0,0.0182489 0,0 0,0.0182489 0,0.0182489z"/>
   <path id="_211199024" class="fil46" d="M0.283712 2.22623c-0.017261,0.0547467 0.0517688,0.0182489 -0.017261,0.0364978l0.0862907 0.0182489c0,0.0364837 0,-0.0182489 0,0.0364837l-0.017261 0.0364978c-0.017261,0.0364978 -0.189842,0.127742 -0.15532,-0.0547326l-0.0690297 0.0182348c0.017261,0.0912446 0.0690297,0.127742 0.138059,0.182489l0.017261 -0.0182489c0,0 0,0 0.017261,-0.0182489 0.103538,-0.0912446 0.138059,-0.0364978 0.103538,-0.255471 -0.0690297,-0.0182489 -0.0345078,0 -0.103538,0.0182489z"/>
   <path id="_211195352" class="fil47" d="M4.01139 3.52182l0.120813 0.0729957c0.0172468,-0.127742 0,-0.182489 -0.0345219,-0.291969l-0.0517688 -0.0912446c-0.0517829,0 -0.0345219,-0.0182489 -0.0345219,0.0364978 0.0690297,0.109493 0,0.164226 0,0.27372z"/>
   <path id="_211195496" class="fil30" d="M0.559831 3.08387l-0.0345219 0.0547467 0.017261 0.164226c0.0862907,0.0364978 0.15532,0.0729957 0.22435,0 0.0690297,-0.0547467 0.0690297,-0.164226 0.0517829,-0.255471 0,-0.0364978 0.0172468,-0.0182489 -0.017261,-0.0182489l0.017261 0.0729957c-0.0690439,0.0912305 0,0.127728 -0.0862907,0.182475 -0.0690297,0.0547467 -0.120813,0.0182489 -0.15532,-0.0364978l0.017261 -0.164226 0.103538 -0.0182489 0.0345219 -0.0364978c-0.0690297,0 -0.0517829,-0.0182489 -0.103552,0.0182489 -0.0690297,0.0182489 0,0.0182489 -0.0690297,0.0364978z"/>
   <path id="_211194008" class="fil48" d="M3.26931 4.32471l0.017261 0.0364978 0.0517688 0.0729957c0.0517688,-0.109493 0.15532,-0.291969 0.0517688,-0.437946 -0.0345078,0.200724 0,0.182475 -0.0690297,0.255471 -0.0517688,0.0547326 -0.0345078,0 -0.0517688,0.0729816z"/>
   <path id="_211194152" class="fil47" d="M3.87333 2.18973l0.017261 0.27372 0.0345078 0c0,-0.0364978 0,-0.0547467 0,-0.0912446 -0.0172468,-0.0547467 -0.0345078,-0.0912305 0,-0.182475l0.120813 0c-0.0345219,0.127728 -0.0517829,0.145977 -0.0517829,0.255471l0 0c0.0517829,-0.164226 0.0862907,0.0547467 0.0862907,-0.27372 -0.0345078,-0.0182489 -0.0517688,-0.0364978 -0.103538,-0.0364978 -0.0517829,0 -0.0517829,0.0182489 -0.0862907,0.0364978l-0.017261 0.0182489z"/>
   <path id="_211194272" class="fil18" d="M2.1303 0.200724c-0.017261,0.0364978 0,0 -0.017261,0.0364978 0,0 0,0.0182489 -0.017261,0 0,0 0,0.0182489 0,0.0182489 -0.017261,0.109479 -0.017261,0.0547467 -0.017261,0.200724 0.017261,-0.0364978 0.0345219,-0.0547467 0.0690297,-0.0547467l0.0345219 -0.0547467c0.017261,-0.0182489 0.017261,-0.0364837 0.0345078,-0.0547326 0.103552,-0.16424 0.017261,-0.127742 0,-0.127742l-0.0690297 0.0182489c0,0 0,0 0,0.0182489 0,0 -0.0172468,0 -0.0172468,0z"/>
   <path id="_211194392" class="fil21" d="M1.68158 1.31384l0.017261 0.145977 0.258872 -0.145977c-0.276133,-0.109493 -0.138059,-0.0182489 -0.276133,0z"/>
   <path id="_211194512" class="fil49" d="M0.24919 2.49995c0.017261,0.0182489 -0.017261,0 0.0345219,0.0364837 0,0 0.0345078,0.0182489 0.0345078,0.0182489 0.0345219,0.0182489 0.0690297,0.0182489 0.0690297,0.0364978l0.15532 0.0182489c-0.0345078,-0.0547467 -0.120799,-0.0364978 -0.207089,-0.109479 0.0862907,-0.109493 0.120799,-0.0912446 0.103552,-0.255471l-0.0517829 -0.0364978c0.0345219,0.218973 0,0.164226 -0.103538,0.255471 -0.017261,0.0182489 -0.017261,0.0182489 -0.017261,0.0182489l-0.017261 0.0182489z"/>
   <path id="_211194656" class="fil50" d="M3.9251 2.46345c0,0 -0.0345078,0.0182489 0.017261,0.0182489 0.0517688,-0.0182489 0,0.0182489 0.017261,-0.0182489 0.0345078,-0.0182489 0.0345078,0.0182489 0.0345078,-0.0182489 0,-0.109493 0.017261,-0.127742 0.0517829,-0.255471l-0.120813 0c-0.0345078,0.0912446 -0.0172468,0.127728 0,0.182475 0,0.0364978 0,0.0547467 0,0.0912446z"/>
   <path id="_211195160" class="fil33" d="M2.50997 0.748163c0.0345078,-0.0182489 0.0345078,-0.0182489 0.0517688,-0.0729957l-0.017261 -0.127742c-0.0862907,0.0182489 -0.0690297,0.0364978 -0.120799,0.0912446 -0.0345219,0.0547467 -0.0517829,0.0547467 -0.0862907,0.109493l0.172581 0z"/>
   <path id="_211200944" class="fil11" d="M4.09768 3.30284c0.0345219,0.109479 0.0517688,0.164226 0.0345219,0.291969l-0.120813 -0.0729957c0,0 0,0.0182489 0,0.0182489 0.017261,0.0182489 0.017261,0.0364978 0.017261,0.0182489 0,0 0,0.0182489 0,0.0182489 0.0862907,0.0912305 0,0.0364978 0.138059,0.109479 0.017261,-0.127728 0.0517688,-0.291954 -0.0345078,-0.401448l-0.0345219 0.0182489z"/>
   <path id="_211201064" class="fil32" d="M3.66624 1.58756c0.0345078,0.127728 0.0517688,0.182475 0.207089,0.164226 -0.0345219,-0.0364978 0.0690297,-0.0364978 -0.0690297,-0.0182489 0.0345078,-0.0547467 0.0862907,-0.0912446 0.120799,-0.164226 -0.15532,0 -0.103538,0.0912305 -0.258858,0.0182489z"/>
   <path id="_211201184" class="fil51" d="M1.40546 1.45981c-0.017261,0.0182489 -0.017261,0 -0.0345219,0.0182489 -0.0172468,0.0364978 0,0.0182489 -0.0172468,0.0547467 -0.0345219,0.127728 0.0345078,0.0912446 0.0345078,0.0912446 0,-0.0364978 0,-0.0364978 0,-0.0729957 0.017261,-0.0547467 -0.017261,0 0.0345219,-0.0364978 0,-0.0364978 0,-0.0182489 0.0345078,-0.0182489 0.0345219,-0.0182489 0,-0.0182489 0.0345219,0 0.0690297,0 0.017261,0 0.0345078,0.0182489l0.0345219 0.0182489c0.120799,-0.145977 0.0862907,-0.0729957 0.103552,-0.145977 0.0345078,-0.127742 -0.0345219,0.0912305 0,-0.0364978 0.0172468,-0.0547467 0,0 0.0172468,-0.0364978l0 -0.0547467c-0.0172468,0 -0.0345078,0 -0.0517688,0.0182489l0 0.127742c-0.0862907,0.0729816 -0.0345078,0.0547326 -0.22435,0.0547326z"/>
   <path id="_211200512" class="fil52" d="M3.66624 3.08387l0.0690297 0c0.0345078,0.0729957 0.0517688,0.164226 -0.0345219,0.218973l0 0.0547467 0 0.0547326c0.241611,-0.218973 0.017261,-0.419697 0.017261,-0.419697 -0.0517688,0.0364978 -0.0345219,0.0182489 -0.0517688,0.0912446z"/>
   <path id="_211200440" class="fil5" d="M3.26931 1.04012c0.0690297,0.0364978 0.138059,-0.0547467 0.15532,-0.127728l0 -0.109493c-0.103552,0.0547467 -0.0517829,0.0182489 -0.103552,0.0912446 -0.0345078,0.0547467 -0.0862907,0.0729957 -0.0517688,0.145977z"/>
   <path id="_211202168" class="fil53" d="M2.88964 4.03276c0.0517688,0.0364837 0.0690297,0.0547326 0.15532,0.0182489 0.0172468,-0.0547467 0.0345078,-0.0364978 0,-0.109493 -0.0345219,-0.0364978 -0.0345219,-0.0364978 -0.0862907,-0.0364978l-0.0862907 0.0547467 0.017261 0.0729957z"/>
   <path id="_211202240" class="fil54" d="M0.508062 1.45981c0.0172468,0.0547467 0.0172468,0.0547467 0.0690297,0.0912446 0.0345078,0.0547467 0.0345078,0.0364978 0.0862907,0.0729957 0,-0.0364978 -0.0517829,-0.0912446 -0.0862907,-0.145991 0.0345078,-0.109479 0.120799,-0.0912305 0.0690297,-0.291954l-0.0690297 -0.0182489c0,0.0182489 0,0.0182489 0,0.0182489l0.017261 0.0364837c0.0690297,0.127742 -0.0345219,0.145991 -0.0517829,0.255471l-0.0345078 -0.0182489z"/>
   <path id="_211202312" class="fil47" d="M2.35465 4.50719l-0.120813 0.0182489c0,0 0,0.0912446 0,0.0912446 0,0.0729957 -0.0345078,0.0364978 0.0345219,0.0547467 0.0862907,-0.0547467 0.103538,-0.0547467 0.15532,-0.145991 -0.017261,-0.0912305 0.0517688,0 -0.0345219,-0.0547326 0,0.0364837 0,0.0182489 -0.0345078,0.0364837z"/>
   <path id="_211200176" class="fil4" d="M0.47354 1.42332c0.017261,0.0182489 -0.017261,0.0182489 0.0345219,0.0364978l0.0345078 0.0182489c0.017261,-0.109479 0.120813,-0.127728 0.0517829,-0.255471l-0.017261 -0.0364837c0,0 0,0 0,-0.0182489l0.103538 0 0 -0.0182489 -0.103538 -0.0182489c-0.0345219,0.0364978 0.0345078,0.0547467 -0.0862907,0.0182489 -0.103552,-0.0364978 -0.0517688,-0.0364978 -0.0690297,0.0182489 0.0690297,0 0.103538,0.0364837 0.15532,0.0729816 -0.017261,0.109493 -0.017261,0.0912446 -0.0517829,0.16424 -0.0172468,0 0.017261,0.0182348 -0.0517688,0.0182348z"/>
   <path id="_211202432" class="fil47" d="M4.01139 1.24084l0.0690297 0.0912446 0.138059 -0.0729957c-0.0517688,-0.0547467 -0.103538,-0.0729816 -0.189828,-0.0729816 -0.0862907,-0.0364978 -0.0862907,-0.0182489 -0.172581,0 0.0517829,-0.0182489 0.120813,0 0.15532,0.0547326z"/>
   <path id="_211200056" class="fil19" d="M0.68063 3.55831c-0.0172468,-0.0182489 0.017261,0 -0.0517688,-0.0364978 -0.0345078,0 -0.0345078,0 -0.0690297,-0.0182489 -0.0690297,-0.0547467 -0.017261,-0.0729957 -0.120799,-0.0729957l-0.0862907 0.0364978c0.0862907,0.0912446 0.189828,0.109493 0.327888,0.0912446z"/>
   <path id="_211202552" class="fil55" d="M4.46009 2.4452c0.0862907,0 0.017261,0 0.0517829,-0.0182489 -0.103552,-0.127728 -0.0517829,-0.145977 -0.207103,-0.218973 -0.0690297,0.0364978 -0.0345078,0 0.0345219,0.0729957 0.017261,0.0364837 0.0345078,0.0912305 0.0345078,0.145977l0.0862907 0.0182489z"/>
   <path id="_211202624" class="fil56" d="M1.16385 3.79553l-0.017261 0.0364978 0.0345219 0.0182348 0.0517688 0.0182489c0.017261,0.0364978 0.0345219,0.0547467 0.017261,0.109493 -0.017261,0.0547467 -0.0345219,0.0364978 -0.0862907,0.0364978l0.017261 0.0547326c0.15532,0 0.0862907,-0.109479 0.138059,-0.200724 -0.0862907,0 -0.0690297,-0.0364837 -0.0517688,-0.109479 -0.0690297,0.0182489 -0.0517829,0.0364978 -0.103552,0.0364978z"/>
   <path id="_211202696" class="fil57" d="M0.404511 1.36858l0 -0.0364978c0,-0.0547467 -0.0345219,-0.127742 0.017261,-0.164226 0.017261,-0.0547467 -0.0345219,-0.0547467 0.0690297,-0.0182489 0.120799,0.0364978 0.0517688,0.0182489 0.0862907,-0.0182489 -0.0690297,0 -0.0862907,-0.0364978 -0.207103,-0.109493 0,0.0547467 -0.0172468,0.127742 0,0.182475 0,0.0364978 0,0.0547467 0,0.0912446 0.017261,0.0729957 0.0345219,0.0729957 0.0345219,0.0729957z"/>
   <path id="_211202768" class="fil21" d="M0.18016 2.29922c-0.0345219,0.182475 0.138059,0.0912305 0.15532,0.0547326l0.017261 -0.0364978c0,-0.0547326 0,0 0,-0.0364837l-0.0862907 -0.0182489c-0.0345219,0.0182489 -0.0517829,0.0364978 -0.0862907,0.0364978z"/>
   <path id="_211199720" class="fil58" d="M3.78704 1.44157c0.0517688,-0.0364837 0,0.0182489 0.0517688,-0.0364837 0.017261,0 0.0345219,-0.0182489 0.0345219,-0.0547467 0.0345219,-0.0364978 0.017261,-0.0729957 0.0517688,-0.127742 0,0 0.0345219,-0.0364837 -0.103538,0 -0.017261,0 -0.017261,0 -0.017261,0l-0.017261 0.218973z"/>
   <path id="_211205408" class="fil59" d="M3.26931 4.4707c0,-0.0182489 0,0 0.017261,-0.0547467 0,0 0,-0.0547467 0,-0.0547467l-0.017261 -0.0364978c-0.0690297,-0.0729816 -0.0345219,-0.0912305 -0.189842,-0.0912305 0,0 -0.0345078,0 -0.0345078,0 0,0 0,0.0182489 -0.017261,0.0182489 0,-0.0182489 0,0 0,0 0.138059,0.0547326 0.189828,0.0729816 0.241611,0.218973z"/>
   <path id="_211205552" class="fil47" d="M2.95867 3.88677l0 0.0182489c0.0517688,0 0.0517688,0 0.0862907,0.0364978 0.0345078,0.0729957 0.0172468,0.0547467 0,0.109493 -0.0862907,0.0364837 -0.103552,0.0182348 -0.15532,-0.0182489 0,0.0364837 0.017261,0.0547326 0.0345078,0.0729816 0.103552,0.0182489 0.103552,0 0.15532,-0.0547326 0.0345219,-0.16424 0.017261,-0.200738 -0.120799,-0.16424z"/>
   <path id="_211198472" class="fil6" d="M0.697891 2.64592c0.0345219,0 0.017261,0 0.017261,-0.0182489 0.0345078,-0.0912446 0.017261,-0.0912446 -0.017261,-0.182475 -0.017261,0.0547467 -0.0690297,0.0729957 -0.0862907,0.127728 -0.0345078,0.0729957 0,0.0547467 0.0862907,0.0729957z"/>
   <path id="_211205792" class="fil22" d="M2.49271 4.25173l-0.0517688 0.164226c-0.0345219,0.0364978 0,0.0182489 -0.0690439,0.0547467 0,0.0182489 0,0.0182489 0,0.0182489 -0.0172468,0 -0.0172468,0.0182348 -0.0172468,0.0182348 0.0345078,-0.0182348 0.0345078,0 0.0345078,-0.0364837 0.0862907,0.0547326 0.017261,-0.0364978 0.0345219,0.0547326 0.0690297,-0.0364837 0.103538,-0.182475 0.103538,-0.291954 -0.0345078,0.0182489 0,0 -0.0345078,0.0182489z"/>
   <path id="_211205144" class="fil23" d="M3.90785 3.08387c0.0345078,0.0182489 0.0345078,0.0182489 0.0690297,0.0547467 0.0690297,0.0364978 0.0517688,0 0.0690297,0.0729816l0.0517688 0.0912446 0.0345219 -0.0182489c-0.017261,-0.0547467 -0.0517829,-0.109479 -0.103552,-0.145977 -0.0345219,-0.0547467 -0.0690297,-0.0912446 -0.120799,-0.127742 -0.0517829,-0.0182489 -0.0345219,-0.0182489 -0.0345219,0.0364978 0.0517688,0 0.017261,-0.0182489 0.0345219,0.0364978z"/>
   <path id="_211197200" class="fil55" d="M2.21657 0.164226c0.017261,0 0.103552,-0.0364978 0,0.127742 -0.0172468,0.0182489 -0.0172468,0.0364837 -0.0345078,0.0547326l-0.0345219 0.0547467c0.103552,-0.0364978 0.0345219,-0.0547467 0.120813,-0.145977 0.0345078,-0.0364978 0.017261,0 0.0517688,-0.0547467 0.0345219,-0.0364978 0.017261,-0.0364978 0.0345219,-0.0729957l0 -0.0547326c-0.0517829,0.0547326 -0.0690297,0.0182489 -0.138074,0.0912305z"/>
   <path id="_211197320" class="fil53" d="M3.59721 1.25909c-0.017261,0.0182489 -0.0517829,0.0364978 0,0.0912446 0.0172468,0.0364978 0.0690297,0.0364978 0.0862766,0 0.0517829,-0.0364978 0.017261,-0.182475 -0.0862766,-0.0912446z"/>
   <path id="_211197440" class="fil45" d="M2.97593 0.52919l0 0c-0.0345219,0.109479 -0.017261,0.0182348 -0.017261,0.109479 0,0 0,0 0,0l0.0345078 0.0182489c0.0862907,-0.0364978 0.0517829,-0.0547467 0.120813,-0.109493 -0.017261,-0.0547326 0,-0.0182348 -0.0345219,-0.0364837 -0.017261,0 -0.0690297,0 -0.0345078,0.0182489l-0.0690297 0z"/>
   <path id="_211196696" class="fil60" d="M0.54257 3.30284c0.017261,0.0182489 0.017261,0.0729957 0.120813,0.0729957 0.0517688,0 0.103538,-0.0182489 0.120799,-0.0547467 0.0862907,-0.0729957 0.0862907,-0.164226 0.0345219,-0.27372 0.0172468,0.0912446 0.0172468,0.200724 -0.0517829,0.255471 -0.0690297,0.0729957 -0.138059,0.0364978 -0.22435,0z"/>
   <path id="_211196768" class="fil53" d="M0.6116 3.2481l0.103552 0c0.0345078,-0.0912305 0.017261,-0.127728 -0.0862907,-0.127728l-0.017261 0.127728z"/>
   <path id="_211201736" class="fil61" d="M1.42272 1.51456c0,0.0547467 -0.017261,0.0547467 0.017261,0.0729957 0.0517688,0.0364978 0.0172468,0.0364978 0.103538,0.0182489l-0.017261 -0.0912446c-0.0172468,-0.0182489 0.0345219,-0.0182489 -0.0345078,-0.0182489 -0.0345219,-0.0182489 0,-0.0182489 -0.0345219,0 -0.0345078,0 -0.0345078,-0.0182489 -0.0345078,0.0182489z"/>
   <path id="_211201664" class="fil22" d="M0.439033 3.43057c0.103538,0 0.0517688,0.0182489 0.120799,0.0729957 0.0345219,0.0182489 0.0345219,0.0182489 0.0690297,0.0182489 0.0690297,0.0364978 0.0345219,0.0182489 0.0517688,0.0364978l0.207103 -0.0547467c-0.138074,-0.0547467 -0.207103,0.127728 -0.379671,-0.0912446 0,-0.0547326 0,-0.0182348 -0.0345219,-0.0182348 -0.0345078,0.0182348 -0.0345078,0.0182348 -0.0345078,0.0364837z"/>
   <path id="_211196960" class="fil62" d="M1.16385 4.01451c0.0517688,0 0.0690297,0.0182489 0.0862907,-0.0364978 0.017261,-0.0547467 0,-0.0729957 -0.017261,-0.109493l-0.0517688 -0.0182489 -0.017261 0.16424z"/>
   <path id="_211205024" class="fil63" d="M2.87238 0.693416l0.017261 0.0729816c0.017261,0.0364978 0.017261,0.0182489 0.0517688,0.0364978l-0.017261 -0.0729816c0.017261,-0.0547467 0,-0.0729957 0.0345219,-0.0912446 0,-0.0912446 -0.017261,0 0.017261,-0.109479l-0.0690297 0.0729816c-0.0345219,0.0547467 -0.017261,0.0364978 -0.0345219,0.0912446z"/>
   <path id="_211197560" class="fil62" d="M3.61446 3.17511l-0.0172468 0.109479 0.0862766 -0.0364978c0.0517829,-0.127728 0,-0.109479 -0.0345078,-0.127728l-0.0345219 0.0547467z"/>
   <path id="_211195904" class="fil47" d="M2.09577 4.32471l0.017261 0.0364978 0.120799 -0.0182489c0,-0.0364978 0.017261,-0.0729816 0,-0.127728 0,-0.0182489 0,-0.0364978 0,-0.0547467l-0.0345078 -0.0364978 0 0.182475c-0.0345219,0.0182489 -0.0517829,0.0364978 -0.103552,0.0182489z"/>
   <path id="_211200704" class="fil34" d="M2.95867 0.63867c-0.0345219,0.0182489 -0.017261,0.0364978 -0.0345219,0.0912446 0.0517829,-0.0182489 0.017261,-0.0182489 0.0690297,0.0182489 0,-0.0729957 -0.0172468,-0.0182489 0.017261,-0.0729957 0.017261,0 0.0345219,0 0.0517688,-0.0182489 0.0345219,-0.0182489 0.0345219,-0.0547467 0.0517829,-0.109493 -0.0690297,0.0547467 -0.0345219,0.0729957 -0.120813,0.109493l-0.0345078 -0.0182489c0,0 0,0 0,0z"/>
   <path id="_211196024" class="fil63" d="M0.0766088 2.24448c0.0517829,0.0364978 0.0517829,0.0364978 0.103552,0.0364978 0,0 0.0345078,-0.0364978 -0.0345219,0 -0.0690297,0.0547326 0,0 -0.0345078,0.0364837l0.0690297 -0.0182348c0.0345078,0 0.0517688,-0.0182489 0.0862907,-0.0364978 0.0690297,-0.0182489 0,0.0182489 0.017261,-0.0364978 -0.0690439,0.0182489 -0.103552,0.0182489 -0.207103,0.0182489z"/>
   <path id="_211195712" class="fil64" d="M4.01139 3.2481c0,-0.0547467 -0.017261,-0.0364978 0.0345219,-0.0364978 -0.017261,-0.0729816 0,-0.0364837 -0.0690297,-0.0729816 -0.0345219,-0.0364978 -0.0345219,-0.0364978 -0.0690297,-0.0547467l-0.017261 0.0182489c0.0345078,0.0364978 0.0345078,0.0364978 0.0517688,0.0729957 0.017261,0.0182348 0.017261,0 0.0345219,0.0182348 0,0.0182489 0,0.0182489 0,0.0182489l0.0345078 0.0364978z"/>
   <path id="_211196336" class="fil65" d="M0.594353 2.20798c0.0690297,0 0.0862766,-0.0182489 0.0690297,-0.109493l-0.0690297 0c-0.017261,0.0729957 -0.017261,0.0364978 0,0.109493z"/>
   <path id="_211203320" class="fil61" d="M0.887733 1.35034l0.0862907 0c0.0172468,-0.0912446 0.0172468,-0.0912446 -0.0690439,-0.0912446 -0.0172468,0.0364978 -0.0172468,0.0364978 -0.0172468,0.0912446z"/>
   <path id="_211203200" class="fil64" d="M1.49175 4.21523c0.0345078,0 0.017261,0 0.017261,0.0182489 0.103538,-0.0364978 0.0690297,-0.0364978 0.120799,-0.109493l-0.017261 -0.0364978c-0.0517688,0.0547467 -0.0862907,0.0729957 -0.120799,0.127742z"/>
   <path id="_211199504" class="fil61" d="M2.06125 0.656919c0.0690439,0.0364978 0.0690439,0.0182489 0.0862907,-0.0182489l0 -0.0547467 -0.0862907 0 0 0.0729957z"/>
   <path id="_211193768" class="fil53" d="M3.61446 3.43057c0.0517829,0 0.0517829,0 0.0862907,-0.0182489l0 -0.0547326c-0.0690297,-0.0364978 -0.0690297,-0.0364978 -0.0862907,0.0182489 0,0.0364837 0,0 0,0.0547326z"/>
   <path id="_211193648" class="fil66" d="M1.2674 0.967136c0.0690297,0.0364837 0.103538,0.0364837 0.0862907,-0.0547467 -0.0690297,-0.0364978 -0.0862907,-0.0182489 -0.0862907,0.0547467z"/>
   <path id="_211193504" class="fil53" d="M1.31917 3.86852l0.017261 -0.0912305 -0.0690297 -0.0182489c-0.017261,0.0729957 -0.0345219,0.109479 0.0517688,0.109479z"/>
   <path id="_211193384" class="fil21" d="M3.94236 2.24448c-0.017261,0.0182489 -0.017261,0.0182489 0,0.0547467 0,0.0182348 0,0.0182348 0,0.0182348l0.0690297 0 0 -0.0912305c-0.017261,0 -0.017261,0 -0.0345078,0 -0.0345219,0 -0.0345219,0 -0.0345219,0.0182489z"/>
   <path id="_211204544" class="fil40" d="M0.818703 3.10212l-0.017261 -0.0729957 -0.0517829 0 -0.0172468 0.0729957c0.0862907,0.0182489 0.0345078,0.0182489 0.0862907,0z"/>
   <path id="_211204424" class="fil21" d="M3.70075 1.45981l-0.017261 0.0182489 0.0690439 0 0 -0.0729816c-0.017261,-0.0182489 -0.017261,-0.0182489 -0.0690439,0l0.017261 0.0547326z"/>
   <path id="_211206992" class="fil53" d="M2.94141 0.802896l0.0517688 0.0182489 0 -0.0182489 0 -0.0547326c-0.0517688,-0.0364978 -0.0172468,-0.0364978 -0.0690297,-0.0182489l0.017261 0.0729816z"/>
   <path id="_211207280" class="fil67" d="M0.47354 1.42332c-0.017261,-0.0547326 -0.017261,-0.0547326 -0.0690297,-0.0912305l0 0.0364978c0.0517688,0.0729816 0,0.0547326 0.0690297,0.0547326z"/>
   <path id="_211207424" class="fil68" d="M3.95962 2.46345l0.017261 -0.0729957c-0.0690297,0 -0.017261,-0.0182489 -0.0690297,0.0364978l0.0517688 0.0364978z"/>
   <path id="_211207568" class="fil69" d="M3.61446 3.17511l0.0345219 -0.0547467c-0.017261,0.0182489 -0.017261,-0.0547467 -0.0345219,0.0547467z"/>
   <path id="_211207712" class="fil69" d="M2.09577 0.255471c0,0 0,-0.0182489 0,-0.0182489 0.017261,0.0182489 0.017261,0 0.017261,0 0.017261,-0.0364978 0,0 0.017261,-0.0364978 -0.017261,0.0182489 -0.017261,-0.0182489 -0.0345219,0.0547467z"/>
  </g>
 </g>
</svg>
