<?xml version="1.0" encoding="UTF-8"?>
<!DOCTYPE svg PUBLIC "-//W3C//DTD SVG 1.1//EN" "http://www.w3.org/Graphics/SVG/1.1/DTD/svg11.dtd">
<!-- Creator: CorelDRAW -->
<svg xmlns="http://www.w3.org/2000/svg" xml:space="preserve" width="31.234mm" height="27.1765mm" style="shape-rendering:geometricPrecision; text-rendering:geometricPrecision; image-rendering:optimizeQuality; fill-rule:evenodd; clip-rule:evenodd"
viewBox="0 0 4.7462 4.12964"
 xmlns:xlink="http://www.w3.org/1999/xlink">
 <defs>
  <style type="text/css">
   <![CDATA[
    .fil0 {fill:#3FD6FF}
   ]]>
  </style>
 </defs>
 <g id="Layer_x0020_1">
  <metadata id="CorelCorpID_0Corel-Layer"/>
  <polygon class="fil0" points="3.90486,0.558758 3.76356,0.783531 3.37821,0.777119 3.25618,0.982639 3.63511,0.99548 3.48739,1.2267 3.10846,1.22027 2.89653,1.56067 2.9736,1.56708 2.98644,1.52854 3.00571,1.49001 3.03782,1.4579 3.06994,1.43222 3.10846,1.41936 3.147,1.41295 3.18553,1.41295 3.22407,1.41295 3.2626,1.43222 3.29471,1.45148 3.32684,1.47717 3.3461,1.50927 3.36537,1.5414 3.37178,1.57993 3.37178,1.61847 3.36537,1.65058 3.35252,1.68911 3.33325,1.72122 3.30757,1.74692 3.26903,1.7726 3.25618,1.77903 3.23692,1.78545 3.21766,1.79187 3.2048,1.79187 3.18553,1.79829 3.16626,1.79829 3.15342,1.79829 3.14058,1.79187 3.05708,1.92031 3.53236,1.92674 3.73145,1.62488 4.03972,1.62488 3.8342,1.93317 4.06542,1.93317 4.26451,1.62488 4.56637,1.63131 4.36728,1.93958 4.61775,1.93958 4.7462,2.11942 4.61134,2.28641 4.33516,2.27998 4.50857,2.60752 4.23883,2.60111 4.04615,2.27998 3.80852,2.27355 3.98192,2.59468 3.70575,2.59468 3.5195,2.26714 3.14058,2.26714 3.18553,2.3442 3.21766,2.3442 3.23692,2.3442 3.2626,2.35705 3.2883,2.36346 3.31398,2.37632 3.33325,2.39559 3.35252,2.41486 3.36537,2.44054 3.38464,2.47266 3.39105,2.51118 3.39105,2.54972 3.38464,2.58825 3.37178,2.62038 3.35252,2.65248 3.32684,2.68459 3.2883,2.70386 3.24976,2.72313 3.21123,2.72956 3.17269,2.72956 3.13416,2.72313 3.10205,2.70386 3.06351,2.68459 3.03782,2.65891 3.01213,2.62679 3.00571,2.60111 2.99287,2.57541 2.99287,2.54972 2.99287,2.52404 2.83229,2.53688 3.08919,2.9736 3.46812,2.99287 3.61584,3.24976 3.23692,3.2305 3.35252,3.42316 3.72502,3.44243 3.87274,3.69291 3.50023,3.68007 3.62227,3.89201 3.52593,4.08469 3.31398,4.05899 3.17912,3.8342 2.9736,4.12964 2.83872,3.90485 3.03782,3.59015 2.91579,3.37821 2.7167,3.68649 2.58183,3.45528 2.77449,3.13416 2.55613,2.74883 2.50475,2.83874 2.52402,2.84515 2.53686,2.86442 2.54972,2.87727 2.56256,2.89654 2.5754,2.92865 2.58183,2.96717 2.58183,3.00571 2.58183,3.03782 2.56256,3.07635 2.54329,3.10846 2.51759,3.13416 2.48549,3.15342 2.44695,3.17269 2.40841,3.17912 2.36988,3.17912 2.33134,3.17269 2.2928,3.15985 2.2607,3.14058 2.235,3.11489 2.20932,3.08278 2.18362,3.01855 2.19005,2.94792 2.21573,2.88369 2.2607,2.83874 2.19005,2.7167 1.93316,3.13416 2.11941,3.45528 1.98453,3.68649 1.78545,3.37178 1.66342,3.57731 1.84966,3.89843 1.70838,4.12322 1.50929,3.81493 1.37441,4.03331 1.16246,4.05899 1.06612,3.86633 1.19457,3.65438 0.822083,3.66722 0.976212,3.41032 1.34872,3.40389 1.47075,3.21764 1.09182,3.22407 1.25238,2.9736 1.62488,2.96076 1.85608,2.58825 1.79829,2.58825 1.78545,2.61395 1.76619,2.63964 1.74049,2.65891 1.71479,2.67817 1.67627,2.69102 1.63774,2.70386 1.5992,2.70386 1.56067,2.69102 1.52854,2.68459 1.49002,2.65891 1.46433,2.63322 1.44506,2.60111 1.42579,2.56899 1.41936,2.53045 1.41936,2.49193 1.42579,2.45339 1.43863,2.42127 1.4579,2.38916 1.48359,2.36346 1.52213,2.33778 1.5414,2.32493 1.56067,2.31852 1.58635,2.31852 1.60561,2.31852 1.62488,2.31852 1.65058,2.31852 1.67627,2.31852 1.69553,2.32493 1.74049,2.24787 1.22027,2.24144 1.02759,2.55614 0.751423,2.55614 0.931263,2.24144 0.687206,2.23502 0.494526,2.55614 0.308273,2.54972 0.218361,2.54972 0.398186,2.2286 0.128448,2.2286 -0,2.06162 0.128448,1.88178 0.378918,1.88821 0.186253,1.57351 0.488098,1.57993 0.680779,1.89463 0.911995,1.89463 0.719315,1.58635 1.02118,1.58635 1.21384,1.90105 1.67627,1.90105 1.63774,1.83683 1.60561,1.83683 1.57993,1.8304 1.55424,1.82397 1.52854,1.81756 1.50286,1.79829 1.48359,1.78545 1.46433,1.75976 1.44506,1.74049 1.43222,1.70195 1.42579,1.66342 1.42579,1.62488 1.42579,1.59277 1.44506,1.55424 1.46433,1.52213 1.49002,1.49643 1.52213,1.47074 1.56067,1.4579 1.5992,1.45148 1.63774,1.45148 1.67627,1.4579 1.71479,1.47074 1.74692,1.49001 1.7726,1.5157 1.79829,1.54781 1.80472,1.56708 1.81112,1.58635 1.81755,1.5992 1.81755,1.61847 1.89462,1.61204 1.65701,1.201 1.27164,1.19457 1.13678,0.963371 1.5157,0.956944 1.39368,0.74501 1.00832,0.74501 0.873459,0.513794 1.25238,0.507366 1.12393,0.276165 1.20743,0.0899124 1.43222,0.10918 1.54781,0.321114 1.73406,0 1.88176,0.256897 1.70195,0.571598 1.81112,0.764278 1.99096,0.449562 2.14509,0.706474 1.95884,1.02759 2.21573,1.4579 2.27996,1.34229 2.26712,1.33588 2.25427,1.31661 2.235,1.30375 2.22216,1.2845 2.20932,1.24596 2.20289,1.20743 2.20289,1.16889 2.20289,1.13677 2.22216,1.10466 2.24143,1.07255 2.26712,1.04686 2.29923,1.02118 2.33777,1.00832 2.3763,0.99548 2.41484,0.99548 2.45338,1.00191 2.49191,1.01475 2.52402,1.03402 2.54972,1.06612 2.5754,1.09182 2.59467,1.13677 2.60109,1.18173 2.59467,1.2267 2.58183,1.26523 2.62677,1.33588 2.80661,1.04044 2.6332,0.719315 2.78735,0.46883 2.96074,0.783531 3.07635,0.597294 2.90294,0.276165 3.05708,0.0256806 3.2305,0.346809 3.36537,0.141289 3.58373,0.122021 3.66722,0.314701 3.52593,0.53949 "/>
 </g>
</svg>
